%TF.GenerationSoftware,KiCad,Pcbnew,7.0.10*%
%TF.CreationDate,2024-01-22T21:54:41-05:00*%
%TF.ProjectId,jml-8-mini-vga,6a6d6c2d-382d-46d6-996e-692d7667612e,rev?*%
%TF.SameCoordinates,Original*%
%TF.FileFunction,Copper,L2,Bot*%
%TF.FilePolarity,Positive*%
%FSLAX46Y46*%
G04 Gerber Fmt 4.6, Leading zero omitted, Abs format (unit mm)*
G04 Created by KiCad (PCBNEW 7.0.10) date 2024-01-22 21:54:41*
%MOMM*%
%LPD*%
G01*
G04 APERTURE LIST*
%TA.AperFunction,ComponentPad*%
%ADD10R,1.600000X1.600000*%
%TD*%
%TA.AperFunction,ComponentPad*%
%ADD11C,1.600000*%
%TD*%
%TA.AperFunction,ComponentPad*%
%ADD12O,2.286000X1.524000*%
%TD*%
%TA.AperFunction,ComponentPad*%
%ADD13C,4.000000*%
%TD*%
%TA.AperFunction,ComponentPad*%
%ADD14R,1.700000X1.700000*%
%TD*%
%TA.AperFunction,ComponentPad*%
%ADD15O,1.700000X1.700000*%
%TD*%
%TA.AperFunction,ViaPad*%
%ADD16C,0.800000*%
%TD*%
%TA.AperFunction,Conductor*%
%ADD17C,0.635000*%
%TD*%
%TA.AperFunction,Conductor*%
%ADD18C,0.304800*%
%TD*%
G04 APERTURE END LIST*
D10*
%TO.P,X1,1,NC*%
%TO.N,unconnected-(X1-NC-Pad1)*%
X148463000Y-76835000D03*
D11*
%TO.P,X1,7,GND*%
%TO.N,GND*%
X163703000Y-76835000D03*
%TO.P,X1,8,OUT*%
%TO.N,/25.175MHz*%
X163703000Y-69215000D03*
%TO.P,X1,14,Vcc*%
%TO.N,+3.3V*%
X148463000Y-69215000D03*
%TD*%
D12*
%TO.P,U1,1,38/IOB31B/TF_CS*%
%TO.N,unconnected-(U1-38{slash}IOB31B{slash}TF_CS-Pad1)*%
X114300000Y-43561000D03*
%TO.P,U1,2,37/IOB31A/TF_MOSI*%
%TO.N,unconnected-(U1-37{slash}IOB31A{slash}TF_MOSI-Pad2)*%
X114300000Y-46101000D03*
%TO.P,U1,3,36/IOB29B/TF_SCLK/GCLKC_4*%
%TO.N,unconnected-(U1-36{slash}IOB29B{slash}TF_SCLK{slash}GCLKC_4-Pad3)*%
X114300000Y-48641000D03*
%TO.P,U1,4,39/IOB33A/TF_MISO*%
%TO.N,unconnected-(U1-39{slash}IOB33A{slash}TF_MISO-Pad4)*%
X114300000Y-51181000D03*
%TO.P,U1,5,25/IOB8A*%
%TO.N,/FPGA_VSYNC*%
X114300000Y-53721000D03*
%TO.P,U1,6,26/IOB8B*%
%TO.N,/FPGA_HSYNC*%
X114300000Y-56261000D03*
%TO.P,U1,7,27/IOB11A*%
%TO.N,/FPGA_RED*%
X114300000Y-58801000D03*
%TO.P,U1,8,28/IOB11B*%
%TO.N,/FPGA_GRN*%
X114300000Y-61341000D03*
%TO.P,U1,9,29/IOB13A*%
%TO.N,/FPGA_BLU*%
X114300000Y-63881000D03*
%TO.P,U1,10,30/IOB13B*%
%TO.N,/FPGA_LUM*%
X114300000Y-66421000D03*
%TO.P,U1,11,33/IOB23A/RGB_DE*%
%TO.N,/25.175MHz*%
X114300000Y-68961000D03*
%TO.P,U1,12,34/IOB23B/RGB_VS*%
%TO.N,/FPGA_D4*%
X114300000Y-71501000D03*
%TO.P,U1,13,40/IOB33B/RGB_HS*%
%TO.N,/FPGA_D3*%
X114300000Y-74041000D03*
%TO.P,U1,14,35/IOB29A/RGB_CK/GCLKT_4*%
%TO.N,unconnected-(U1-35{slash}IOB29A{slash}RGB_CK{slash}GCLKT_4-Pad14)*%
X114300000Y-76581000D03*
%TO.P,U1,15,41/IOB41A/RGB_B7*%
%TO.N,/FPGA_D5*%
X114300000Y-79121000D03*
%TO.P,U1,16,42/IOB41B/RGB_B6*%
%TO.N,/FPGA_D6*%
X114300000Y-81661000D03*
%TO.P,U1,17,51/IOR17B/RGB_B5/GCLKC_3*%
%TO.N,unconnected-(U1-51{slash}IOR17B{slash}RGB_B5{slash}GCLKC_3-Pad17)*%
X114300000Y-84201000D03*
%TO.P,U1,18,53/IOR15B/RGB_B4*%
%TO.N,/FPGA_D7*%
X114300000Y-86741000D03*
%TO.P,U1,19,54/IOR15A/RGB_B3*%
%TO.N,/FPGA_D1*%
X114300000Y-89281000D03*
%TO.P,U1,20,55/IOR14B/RGB_G7*%
%TO.N,/~{FPGA_Y0}*%
X114300000Y-91821000D03*
%TO.P,U1,21,56/IOR14A/RGB_G6*%
%TO.N,/~{FPGA_Q0}*%
X114300000Y-94361000D03*
%TO.P,U1,22,57/IOR13A/RGB_G5*%
%TO.N,unconnected-(U1-57{slash}IOR13A{slash}RGB_G5-Pad22)*%
X114300000Y-96901000D03*
%TO.P,U1,23,68/IOT42B/RGB_G4/HDMI_CKN*%
%TO.N,unconnected-(U1-68{slash}IOT42B{slash}RGB_G4{slash}HDMI_CKN-Pad23)*%
X114300000Y-99441000D03*
%TO.P,U1,24,69/IOT42A/RGB_G3/HDMI_CKP*%
%TO.N,unconnected-(U1-69{slash}IOT42A{slash}RGB_G3{slash}HDMI_CKP-Pad24)*%
X114300000Y-101981000D03*
%TO.P,U1,25,3V3*%
%TO.N,+3.3V*%
X137160000Y-101981000D03*
%TO.P,U1,26,GND*%
%TO.N,GND*%
X137160000Y-99441000D03*
%TO.P,U1,27,32/IOB15B/RGB_INIT*%
%TO.N,/~{FPGA_IORQ}*%
X137160000Y-96901000D03*
%TO.P,U1,28,31/IOB15A/RGB_INIT*%
%TO.N,/~{FPGA_WR}*%
X137160000Y-94361000D03*
%TO.P,U1,29,49/IOR24A/SPILCD_RS*%
%TO.N,/FPGA_D0*%
X137160000Y-91821000D03*
%TO.P,U1,30,48/IOR24B/SPILCD_CS*%
%TO.N,/FPGA_D2*%
X137160000Y-89281000D03*
%TO.P,U1,31,5V*%
%TO.N,+5V*%
X137160000Y-86741000D03*
%TO.P,U1,32,70/IOT41B/RGB_G2/HDMI_D0N*%
%TO.N,unconnected-(U1-70{slash}IOT41B{slash}RGB_G2{slash}HDMI_D0N-Pad32)*%
X137160000Y-84201000D03*
%TO.P,U1,33,71/IOT41A/RGB_R7/HDMI_D0P*%
%TO.N,unconnected-(U1-71{slash}IOT41A{slash}RGB_R7{slash}HDMI_D0P-Pad33)*%
X137160000Y-81661000D03*
%TO.P,U1,34,72/IOT39B/RGB_R6/HDMI_D1N*%
%TO.N,unconnected-(U1-72{slash}IOT39B{slash}RGB_R6{slash}HDMI_D1N-Pad34)*%
X137160000Y-79121000D03*
%TO.P,U1,35,73/IOT39A/RGB_R5/HDMI_D1P*%
%TO.N,unconnected-(U1-73{slash}IOT39A{slash}RGB_R5{slash}HDMI_D1P-Pad35)*%
X137160000Y-76581000D03*
%TO.P,U1,36,74/IOT38B/RGB_R4/HDMI_D2N*%
%TO.N,unconnected-(U1-74{slash}IOT38B{slash}RGB_R4{slash}HDMI_D2N-Pad36)*%
X137160000Y-74041000D03*
%TO.P,U1,37,75/IOT38A/RGB_R3/HDMI_D2P*%
%TO.N,unconnected-(U1-75{slash}IOT38A{slash}RGB_R3{slash}HDMI_D2P-Pad37)*%
X137160000Y-71501000D03*
%TO.P,U1,38,76/IOT37B/SPILCD_CK*%
%TO.N,unconnected-(U1-76{slash}IOT37B{slash}SPILCD_CK-Pad38)*%
X137160000Y-68961000D03*
%TO.P,U1,39,77/IOT37A/SPILCD_MO*%
%TO.N,unconnected-(U1-77{slash}IOT37A{slash}SPILCD_MO-Pad39)*%
X137160000Y-66421000D03*
%TO.P,U1,40,79/IOT12B*%
%TO.N,unconnected-(U1-79{slash}IOT12B-Pad40)*%
X137160000Y-63881000D03*
%TO.P,U1,41,80/IOT12A*%
%TO.N,unconnected-(U1-80{slash}IOT12A-Pad41)*%
X137160000Y-61341000D03*
%TO.P,U1,42,81/IOT11B*%
%TO.N,unconnected-(U1-81{slash}IOT11B-Pad42)*%
X137160000Y-58801000D03*
%TO.P,U1,43,82/IOT11A*%
%TO.N,unconnected-(U1-82{slash}IOT11A-Pad43)*%
X137160000Y-56261000D03*
%TO.P,U1,44,83/IOT10B*%
%TO.N,unconnected-(U1-83{slash}IOT10B-Pad44)*%
X137160000Y-53721000D03*
%TO.P,U1,45,84/IOT10A*%
%TO.N,unconnected-(U1-84{slash}IOT10A-Pad45)*%
X137160000Y-51181000D03*
%TO.P,U1,46,85/IOT8B*%
%TO.N,unconnected-(U1-85{slash}IOT8B-Pad46)*%
X137160000Y-48641000D03*
%TO.P,U1,47,86/IOT8A/RGB_BL*%
%TO.N,unconnected-(U1-86{slash}IOT8A{slash}RGB_BL-Pad47)*%
X137160000Y-46101000D03*
%TO.P,U1,48,63/IOR5A/RGB_INIT*%
%TO.N,unconnected-(U1-63{slash}IOR5A{slash}RGB_INIT-Pad48)*%
X137160000Y-43561000D03*
%TD*%
D13*
%TO.P,J1,0*%
%TO.N,GND*%
X168471000Y-51243331D03*
X143471000Y-51243331D03*
D10*
%TO.P,J1,1*%
%TO.N,/VGA_RED*%
X151656000Y-52663331D03*
D11*
%TO.P,J1,2*%
%TO.N,/VGA_GRN*%
X153946000Y-52663331D03*
%TO.P,J1,3*%
%TO.N,/VGA_BLU*%
X156236000Y-52663331D03*
%TO.P,J1,4*%
%TO.N,unconnected-(J1-Pad4)*%
X158526000Y-52663331D03*
%TO.P,J1,5*%
%TO.N,GND*%
X160816000Y-52663331D03*
%TO.P,J1,6*%
X150511000Y-50683331D03*
%TO.P,J1,7*%
X152801000Y-50683331D03*
%TO.P,J1,8*%
X155091000Y-50683331D03*
%TO.P,J1,9*%
%TO.N,unconnected-(J1-Pad9)*%
X157381000Y-50683331D03*
%TO.P,J1,10*%
%TO.N,GND*%
X159671000Y-50683331D03*
%TO.P,J1,11*%
%TO.N,unconnected-(J1-Pad11)*%
X151656000Y-48703331D03*
%TO.P,J1,12*%
%TO.N,unconnected-(J1-Pad12)*%
X153946000Y-48703331D03*
%TO.P,J1,13*%
%TO.N,/VGA_HSYNC*%
X156236000Y-48703331D03*
%TO.P,J1,14*%
%TO.N,/VGA_VSYNC*%
X158526000Y-48703331D03*
%TO.P,J1,15*%
%TO.N,unconnected-(J1-Pad15)*%
X160816000Y-48703331D03*
%TD*%
D14*
%TO.P,J3,1,Pin_1*%
%TO.N,/~{Q0}*%
X168778000Y-112141000D03*
D15*
%TO.P,J3,2,Pin_2*%
%TO.N,/~{Y0}*%
X171318000Y-112141000D03*
%TD*%
D14*
%TO.P,J2,1,Pin_1*%
%TO.N,unconnected-(J2-Pin_1-Pad1)*%
X175006000Y-63881000D03*
D15*
%TO.P,J2,2,Pin_2*%
%TO.N,unconnected-(J2-Pin_2-Pad2)*%
X177546000Y-63881000D03*
%TO.P,J2,3,Pin_3*%
%TO.N,unconnected-(J2-Pin_3-Pad3)*%
X175006000Y-66421000D03*
%TO.P,J2,4,Pin_4*%
%TO.N,unconnected-(J2-Pin_4-Pad4)*%
X177546000Y-66421000D03*
%TO.P,J2,5,Pin_5*%
%TO.N,unconnected-(J2-Pin_5-Pad5)*%
X175006000Y-68961000D03*
%TO.P,J2,6,Pin_6*%
%TO.N,unconnected-(J2-Pin_6-Pad6)*%
X177546000Y-68961000D03*
%TO.P,J2,7,Pin_7*%
%TO.N,unconnected-(J2-Pin_7-Pad7)*%
X175006000Y-71501000D03*
%TO.P,J2,8,Pin_8*%
%TO.N,unconnected-(J2-Pin_8-Pad8)*%
X177546000Y-71501000D03*
%TO.P,J2,9,Pin_9*%
%TO.N,unconnected-(J2-Pin_9-Pad9)*%
X175006000Y-74041000D03*
%TO.P,J2,10,Pin_10*%
%TO.N,unconnected-(J2-Pin_10-Pad10)*%
X177546000Y-74041000D03*
%TO.P,J2,11,Pin_11*%
%TO.N,unconnected-(J2-Pin_11-Pad11)*%
X175006000Y-76581000D03*
%TO.P,J2,12,Pin_12*%
%TO.N,unconnected-(J2-Pin_12-Pad12)*%
X177546000Y-76581000D03*
%TO.P,J2,13,Pin_13*%
%TO.N,/D4*%
X175006000Y-79121000D03*
%TO.P,J2,14,Pin_14*%
%TO.N,unconnected-(J2-Pin_14-Pad14)*%
X177546000Y-79121000D03*
%TO.P,J2,15,Pin_15*%
%TO.N,/D3*%
X175006000Y-81661000D03*
%TO.P,J2,16,Pin_16*%
%TO.N,unconnected-(J2-Pin_16-Pad16)*%
X177546000Y-81661000D03*
%TO.P,J2,17,Pin_17*%
%TO.N,/D5*%
X175006000Y-84201000D03*
%TO.P,J2,18,Pin_18*%
%TO.N,unconnected-(J2-Pin_18-Pad18)*%
X177546000Y-84201000D03*
%TO.P,J2,19,Pin_19*%
%TO.N,/D6*%
X175006000Y-86741000D03*
%TO.P,J2,20,Pin_20*%
%TO.N,unconnected-(J2-Pin_20-Pad20)*%
X177546000Y-86741000D03*
%TO.P,J2,21,Pin_21*%
%TO.N,+5V*%
X175006000Y-89281000D03*
%TO.P,J2,22,Pin_22*%
%TO.N,GND*%
X177546000Y-89281000D03*
%TO.P,J2,23,Pin_23*%
%TO.N,/D2*%
X175006000Y-91821000D03*
%TO.P,J2,24,Pin_24*%
%TO.N,unconnected-(J2-Pin_24-Pad24)*%
X177546000Y-91821000D03*
%TO.P,J2,25,Pin_25*%
%TO.N,/D7*%
X175006000Y-94361000D03*
%TO.P,J2,26,Pin_26*%
%TO.N,unconnected-(J2-Pin_26-Pad26)*%
X177546000Y-94361000D03*
%TO.P,J2,27,Pin_27*%
%TO.N,/D0*%
X175006000Y-96901000D03*
%TO.P,J2,28,Pin_28*%
%TO.N,unconnected-(J2-Pin_28-Pad28)*%
X177546000Y-96901000D03*
%TO.P,J2,29,Pin_29*%
%TO.N,/D1*%
X175006000Y-99441000D03*
%TO.P,J2,30,Pin_30*%
%TO.N,unconnected-(J2-Pin_30-Pad30)*%
X177546000Y-99441000D03*
%TO.P,J2,31,Pin_31*%
%TO.N,unconnected-(J2-Pin_31-Pad31)*%
X175006000Y-101981000D03*
%TO.P,J2,32,Pin_32*%
%TO.N,unconnected-(J2-Pin_32-Pad32)*%
X177546000Y-101981000D03*
%TO.P,J2,33,Pin_33*%
%TO.N,unconnected-(J2-Pin_33-Pad33)*%
X175006000Y-104521000D03*
%TO.P,J2,34,Pin_34*%
%TO.N,unconnected-(J2-Pin_34-Pad34)*%
X177546000Y-104521000D03*
%TO.P,J2,35,Pin_35*%
%TO.N,unconnected-(J2-Pin_35-Pad35)*%
X175006000Y-107061000D03*
%TO.P,J2,36,Pin_36*%
%TO.N,unconnected-(J2-Pin_36-Pad36)*%
X177546000Y-107061000D03*
%TO.P,J2,37,Pin_37*%
%TO.N,unconnected-(J2-Pin_37-Pad37)*%
X175006000Y-109601000D03*
%TO.P,J2,38,Pin_38*%
%TO.N,/~{WR}*%
X177546000Y-109601000D03*
%TO.P,J2,39,Pin_39*%
%TO.N,/~{IORQ}*%
X175006000Y-112141000D03*
%TO.P,J2,40,Pin_40*%
%TO.N,unconnected-(J2-Pin_40-Pad40)*%
X177546000Y-112141000D03*
%TD*%
D16*
%TO.N,GND*%
X170434000Y-100584000D03*
X170434000Y-101981000D03*
X160782000Y-100965000D03*
X160655000Y-107061000D03*
X160909000Y-90424000D03*
X168402000Y-89408000D03*
X160909000Y-96520000D03*
X170053000Y-90678000D03*
%TO.N,+5V*%
X147574000Y-86741000D03*
X166497000Y-88011000D03*
X162052000Y-88011000D03*
X170180000Y-88773000D03*
%TO.N,/FPGA_LUM*%
X155448000Y-66294000D03*
X162306000Y-62611000D03*
X162306000Y-66294000D03*
X155448000Y-62611000D03*
%TD*%
D17*
%TO.N,+5V*%
X170180000Y-88773000D02*
X170688000Y-89281000D01*
X166497000Y-88011000D02*
X162052000Y-88011000D01*
X170688000Y-89281000D02*
X175006000Y-89281000D01*
X137160000Y-86741000D02*
X147574000Y-86741000D01*
D18*
%TO.N,/FPGA_LUM*%
X162306000Y-66294000D02*
X162306000Y-62611000D01*
X155448000Y-66294000D02*
X155448000Y-62611000D01*
%TD*%
%TA.AperFunction,Conductor*%
%TO.N,GND*%
G36*
X176202981Y-40056301D02*
G01*
X176227644Y-40056301D01*
X176272753Y-40056301D01*
X176279242Y-40056470D01*
X176582753Y-40072377D01*
X176595661Y-40073734D01*
X176892629Y-40120769D01*
X176905313Y-40123464D01*
X177195759Y-40201289D01*
X177208100Y-40205300D01*
X177488795Y-40313048D01*
X177500651Y-40318326D01*
X177768576Y-40454840D01*
X177779790Y-40461316D01*
X178031961Y-40625077D01*
X178042462Y-40632706D01*
X178276136Y-40821932D01*
X178285781Y-40830617D01*
X178498382Y-41043218D01*
X178507067Y-41052863D01*
X178696293Y-41286537D01*
X178703921Y-41297036D01*
X178867680Y-41549203D01*
X178874166Y-41560436D01*
X179010672Y-41828346D01*
X179015951Y-41840204D01*
X179123699Y-42120899D01*
X179127710Y-42133242D01*
X179205533Y-42423680D01*
X179208231Y-42436376D01*
X179255265Y-42733338D01*
X179256622Y-42746246D01*
X179272529Y-43049756D01*
X179272699Y-43056246D01*
X179272700Y-62553930D01*
X179272700Y-113743699D01*
X179253015Y-113810738D01*
X179200211Y-113856493D01*
X179148700Y-113867699D01*
X114176247Y-113867699D01*
X114169757Y-113867529D01*
X113866246Y-113851622D01*
X113853338Y-113850265D01*
X113556376Y-113803231D01*
X113543680Y-113800533D01*
X113253242Y-113722710D01*
X113240899Y-113718699D01*
X112960204Y-113610951D01*
X112948346Y-113605672D01*
X112817664Y-113539087D01*
X112680430Y-113469162D01*
X112669203Y-113462680D01*
X112417038Y-113298922D01*
X112406537Y-113291293D01*
X112172863Y-113102067D01*
X112163218Y-113093382D01*
X112108706Y-113038870D01*
X167427500Y-113038870D01*
X167427501Y-113038876D01*
X167433908Y-113098483D01*
X167484202Y-113233328D01*
X167484206Y-113233335D01*
X167570452Y-113348544D01*
X167570455Y-113348547D01*
X167685664Y-113434793D01*
X167685671Y-113434797D01*
X167820517Y-113485091D01*
X167820516Y-113485091D01*
X167827444Y-113485835D01*
X167880127Y-113491500D01*
X169675872Y-113491499D01*
X169735483Y-113485091D01*
X169870331Y-113434796D01*
X169985546Y-113348546D01*
X170071796Y-113233331D01*
X170120810Y-113101916D01*
X170162681Y-113045984D01*
X170228145Y-113021566D01*
X170296418Y-113036417D01*
X170324673Y-113057569D01*
X170446599Y-113179495D01*
X170543384Y-113247265D01*
X170640165Y-113315032D01*
X170640167Y-113315033D01*
X170640170Y-113315035D01*
X170854337Y-113414903D01*
X171082592Y-113476063D01*
X171259034Y-113491500D01*
X171317999Y-113496659D01*
X171318000Y-113496659D01*
X171318001Y-113496659D01*
X171376966Y-113491500D01*
X171553408Y-113476063D01*
X171781663Y-113414903D01*
X171995830Y-113315035D01*
X172189401Y-113179495D01*
X172356495Y-113012401D01*
X172492035Y-112818830D01*
X172591903Y-112604663D01*
X172653063Y-112376408D01*
X172673659Y-112141000D01*
X172653063Y-111905592D01*
X172591903Y-111677337D01*
X172492035Y-111463171D01*
X172486425Y-111455158D01*
X172356494Y-111269597D01*
X172189402Y-111102506D01*
X172189395Y-111102501D01*
X171995834Y-110966967D01*
X171995830Y-110966965D01*
X171995828Y-110966964D01*
X171781663Y-110867097D01*
X171781659Y-110867096D01*
X171781655Y-110867094D01*
X171553413Y-110805938D01*
X171553403Y-110805936D01*
X171318001Y-110785341D01*
X171317999Y-110785341D01*
X171082596Y-110805936D01*
X171082586Y-110805938D01*
X170854344Y-110867094D01*
X170854335Y-110867098D01*
X170640171Y-110966964D01*
X170640169Y-110966965D01*
X170446600Y-111102503D01*
X170324673Y-111224430D01*
X170263350Y-111257914D01*
X170193658Y-111252930D01*
X170137725Y-111211058D01*
X170120810Y-111180081D01*
X170071797Y-111048671D01*
X170071793Y-111048664D01*
X169985547Y-110933455D01*
X169985544Y-110933452D01*
X169870335Y-110847206D01*
X169870328Y-110847202D01*
X169735482Y-110796908D01*
X169735483Y-110796908D01*
X169675883Y-110790501D01*
X169675881Y-110790500D01*
X169675873Y-110790500D01*
X169675864Y-110790500D01*
X167880129Y-110790500D01*
X167880123Y-110790501D01*
X167820516Y-110796908D01*
X167685671Y-110847202D01*
X167685664Y-110847206D01*
X167570455Y-110933452D01*
X167570452Y-110933455D01*
X167484206Y-111048664D01*
X167484202Y-111048671D01*
X167433908Y-111183517D01*
X167427501Y-111243116D01*
X167427500Y-111243135D01*
X167427500Y-113038870D01*
X112108706Y-113038870D01*
X111950617Y-112880781D01*
X111941932Y-112871136D01*
X111752706Y-112637462D01*
X111745077Y-112626961D01*
X111581316Y-112374790D01*
X111574840Y-112363576D01*
X111438326Y-112095651D01*
X111433048Y-112083795D01*
X111364640Y-111905586D01*
X111325299Y-111803099D01*
X111321289Y-111790757D01*
X111290898Y-111677335D01*
X111243464Y-111500313D01*
X111240768Y-111487623D01*
X111238682Y-111474454D01*
X111193734Y-111190661D01*
X111192377Y-111177753D01*
X111176471Y-110874242D01*
X111176301Y-110867752D01*
X111176301Y-110797982D01*
X111176300Y-110797976D01*
X111176300Y-102037871D01*
X112652673Y-102037871D01*
X112668018Y-102151154D01*
X112683178Y-102263070D01*
X112718800Y-102372700D01*
X112753404Y-102479200D01*
X112850066Y-102658830D01*
X112861093Y-102679320D01*
X113002782Y-102856993D01*
X113092756Y-102935600D01*
X113173922Y-103006512D01*
X113369008Y-103123071D01*
X113581771Y-103202922D01*
X113805369Y-103243500D01*
X113805373Y-103243500D01*
X114737693Y-103243500D01*
X114737699Y-103243500D01*
X114896810Y-103229179D01*
X114907340Y-103228232D01*
X115126392Y-103167778D01*
X115126397Y-103167775D01*
X115126404Y-103167774D01*
X115331153Y-103069172D01*
X115515005Y-102935596D01*
X115672052Y-102771338D01*
X115797246Y-102581677D01*
X115886562Y-102372711D01*
X115937131Y-102151154D01*
X115942219Y-102037871D01*
X135512673Y-102037871D01*
X135528018Y-102151154D01*
X135543178Y-102263070D01*
X135578800Y-102372700D01*
X135613404Y-102479200D01*
X135710066Y-102658830D01*
X135721093Y-102679320D01*
X135862782Y-102856993D01*
X135952756Y-102935600D01*
X136033922Y-103006512D01*
X136229008Y-103123071D01*
X136441771Y-103202922D01*
X136665369Y-103243500D01*
X136665373Y-103243500D01*
X137597693Y-103243500D01*
X137597699Y-103243500D01*
X137756810Y-103229179D01*
X137767340Y-103228232D01*
X137986392Y-103167778D01*
X137986397Y-103167775D01*
X137986404Y-103167774D01*
X138191153Y-103069172D01*
X138375005Y-102935596D01*
X138532052Y-102771338D01*
X138657246Y-102581677D01*
X138746562Y-102372711D01*
X138797131Y-102151154D01*
X138807327Y-101924129D01*
X138776822Y-101698932D01*
X138706596Y-101482800D01*
X138598908Y-101282681D01*
X138525525Y-101190662D01*
X138457217Y-101105006D01*
X138286084Y-100955493D01*
X138286082Y-100955491D01*
X138286078Y-100955488D01*
X138237306Y-100926348D01*
X138090998Y-100838932D01*
X138090996Y-100838931D01*
X138090994Y-100838930D01*
X138090992Y-100838929D01*
X138056750Y-100826078D01*
X138000905Y-100784093D01*
X137976622Y-100718579D01*
X137991614Y-100650336D01*
X138041120Y-100601032D01*
X138046523Y-100598265D01*
X138190900Y-100528738D01*
X138190901Y-100528737D01*
X138374672Y-100395219D01*
X138374677Y-100395215D01*
X138531659Y-100231023D01*
X138656803Y-100041439D01*
X138746083Y-99832559D01*
X138746086Y-99832550D01*
X138778394Y-99691000D01*
X137447717Y-99691000D01*
X137483371Y-99652269D01*
X137534448Y-99535823D01*
X137544949Y-99409102D01*
X137513734Y-99285838D01*
X137451773Y-99191000D01*
X138780661Y-99191000D01*
X138776330Y-99159040D01*
X138776330Y-99159038D01*
X138706134Y-98942996D01*
X138598490Y-98742960D01*
X138598488Y-98742957D01*
X138456854Y-98565353D01*
X138285789Y-98415899D01*
X138285781Y-98415892D01*
X138090781Y-98299384D01*
X138090779Y-98299383D01*
X138056778Y-98286622D01*
X138000930Y-98244635D01*
X137976648Y-98179121D01*
X137991640Y-98110879D01*
X138041147Y-98061575D01*
X138046526Y-98058820D01*
X138191153Y-97989172D01*
X138375005Y-97855596D01*
X138532052Y-97691338D01*
X138657246Y-97501677D01*
X138746562Y-97292711D01*
X138797131Y-97071154D01*
X138807327Y-96844129D01*
X138776822Y-96618932D01*
X138706596Y-96402800D01*
X138598908Y-96202681D01*
X138525525Y-96110662D01*
X138457217Y-96025006D01*
X138286084Y-95875493D01*
X138286082Y-95875491D01*
X138286078Y-95875488D01*
X138237306Y-95846348D01*
X138090998Y-95758932D01*
X138090996Y-95758931D01*
X138090994Y-95758930D01*
X138090992Y-95758929D01*
X138057399Y-95746321D01*
X138001552Y-95704335D01*
X137977270Y-95638821D01*
X137992262Y-95570579D01*
X138041769Y-95521275D01*
X138047101Y-95518543D01*
X138191153Y-95449172D01*
X138375005Y-95315596D01*
X138532052Y-95151338D01*
X138657246Y-94961677D01*
X138746562Y-94752711D01*
X138797131Y-94531154D01*
X138807327Y-94304129D01*
X138776822Y-94078932D01*
X138706596Y-93862800D01*
X138598908Y-93662681D01*
X138525525Y-93570662D01*
X138457217Y-93485006D01*
X138286084Y-93335493D01*
X138286082Y-93335491D01*
X138286078Y-93335488D01*
X138237306Y-93306348D01*
X138090998Y-93218932D01*
X138090996Y-93218931D01*
X138090994Y-93218930D01*
X138090992Y-93218929D01*
X138057399Y-93206321D01*
X138001552Y-93164335D01*
X137977270Y-93098821D01*
X137992262Y-93030579D01*
X138041769Y-92981275D01*
X138047101Y-92978543D01*
X138191153Y-92909172D01*
X138375005Y-92775596D01*
X138532052Y-92611338D01*
X138657246Y-92421677D01*
X138746562Y-92212711D01*
X138797131Y-91991154D01*
X138807327Y-91764129D01*
X138776822Y-91538932D01*
X138706596Y-91322800D01*
X138598908Y-91122681D01*
X138525525Y-91030662D01*
X138457217Y-90945006D01*
X138286084Y-90795493D01*
X138286082Y-90795491D01*
X138286078Y-90795488D01*
X138237306Y-90766348D01*
X138090998Y-90678932D01*
X138090996Y-90678931D01*
X138090994Y-90678930D01*
X138090992Y-90678929D01*
X138057399Y-90666321D01*
X138001552Y-90624335D01*
X137977270Y-90558821D01*
X137992262Y-90490579D01*
X138041769Y-90441275D01*
X138047101Y-90438543D01*
X138191153Y-90369172D01*
X138375005Y-90235596D01*
X138532052Y-90071338D01*
X138657246Y-89881677D01*
X138746562Y-89672711D01*
X138797131Y-89451154D01*
X138807327Y-89224129D01*
X138776822Y-88998932D01*
X138706596Y-88782800D01*
X138598908Y-88582681D01*
X138525525Y-88490662D01*
X138457217Y-88405006D01*
X138286084Y-88255493D01*
X138286082Y-88255491D01*
X138286078Y-88255488D01*
X138191962Y-88199256D01*
X138090998Y-88138932D01*
X138090996Y-88138931D01*
X138090994Y-88138930D01*
X138090992Y-88138929D01*
X138057399Y-88126321D01*
X138001552Y-88084335D01*
X137977270Y-88018821D01*
X137978988Y-88011000D01*
X161146540Y-88011000D01*
X161166326Y-88199256D01*
X161166327Y-88199259D01*
X161224818Y-88379277D01*
X161224821Y-88379284D01*
X161319467Y-88543216D01*
X161373451Y-88603171D01*
X161446129Y-88683888D01*
X161599265Y-88795148D01*
X161599270Y-88795151D01*
X161772192Y-88872142D01*
X161772197Y-88872144D01*
X161957354Y-88911500D01*
X161957355Y-88911500D01*
X162146644Y-88911500D01*
X162146646Y-88911500D01*
X162331803Y-88872144D01*
X162386099Y-88847969D01*
X162404626Y-88839721D01*
X162455062Y-88829000D01*
X166093938Y-88829000D01*
X166144374Y-88839721D01*
X166181405Y-88856208D01*
X166217197Y-88872144D01*
X166402354Y-88911500D01*
X166402355Y-88911500D01*
X166591644Y-88911500D01*
X166591646Y-88911500D01*
X166776803Y-88872144D01*
X166949730Y-88795151D01*
X166980218Y-88773000D01*
X169274540Y-88773000D01*
X169294326Y-88961256D01*
X169294327Y-88961259D01*
X169352818Y-89141277D01*
X169352821Y-89141284D01*
X169447467Y-89305216D01*
X169476870Y-89337871D01*
X169574129Y-89445888D01*
X169671198Y-89516413D01*
X169727270Y-89557151D01*
X169850582Y-89612053D01*
X169887821Y-89637647D01*
X170044414Y-89794241D01*
X170044415Y-89794242D01*
X170131850Y-89881677D01*
X170174758Y-89924585D01*
X170208004Y-89945474D01*
X170219346Y-89953521D01*
X170250044Y-89978003D01*
X170285417Y-89995037D01*
X170297574Y-90001755D01*
X170330837Y-90022656D01*
X170367912Y-90035628D01*
X170380739Y-90040942D01*
X170416122Y-90057982D01*
X170454407Y-90066720D01*
X170467754Y-90070565D01*
X170504826Y-90083537D01*
X170543846Y-90087932D01*
X170557553Y-90090262D01*
X170595833Y-90099000D01*
X170642062Y-90099000D01*
X173865563Y-90099000D01*
X173932602Y-90118685D01*
X173963671Y-90148545D01*
X173964023Y-90148251D01*
X173966764Y-90151518D01*
X173967138Y-90151877D01*
X173967501Y-90152396D01*
X173967508Y-90152404D01*
X174134597Y-90319493D01*
X174134603Y-90319498D01*
X174320158Y-90449425D01*
X174363783Y-90504002D01*
X174370977Y-90573500D01*
X174339454Y-90635855D01*
X174320158Y-90652575D01*
X174134597Y-90782505D01*
X173967505Y-90949597D01*
X173831965Y-91143169D01*
X173831964Y-91143171D01*
X173732098Y-91357335D01*
X173732094Y-91357344D01*
X173670938Y-91585586D01*
X173670936Y-91585596D01*
X173650341Y-91820999D01*
X173650341Y-91821000D01*
X173670936Y-92056403D01*
X173670938Y-92056413D01*
X173732094Y-92284655D01*
X173732096Y-92284659D01*
X173732097Y-92284663D01*
X173736000Y-92293032D01*
X173831965Y-92498830D01*
X173831967Y-92498834D01*
X173846312Y-92519320D01*
X173967501Y-92692396D01*
X173967506Y-92692402D01*
X174134597Y-92859493D01*
X174134603Y-92859498D01*
X174320158Y-92989425D01*
X174363783Y-93044002D01*
X174370977Y-93113500D01*
X174339454Y-93175855D01*
X174320158Y-93192575D01*
X174134597Y-93322505D01*
X173967505Y-93489597D01*
X173831965Y-93683169D01*
X173831964Y-93683171D01*
X173732098Y-93897335D01*
X173732094Y-93897344D01*
X173670938Y-94125586D01*
X173670936Y-94125596D01*
X173650341Y-94360999D01*
X173650341Y-94361000D01*
X173670936Y-94596403D01*
X173670938Y-94596413D01*
X173732094Y-94824655D01*
X173732096Y-94824659D01*
X173732097Y-94824663D01*
X173736000Y-94833032D01*
X173831965Y-95038830D01*
X173831967Y-95038834D01*
X173846312Y-95059320D01*
X173967501Y-95232396D01*
X173967506Y-95232402D01*
X174134597Y-95399493D01*
X174134603Y-95399498D01*
X174320158Y-95529425D01*
X174363783Y-95584002D01*
X174370977Y-95653500D01*
X174339454Y-95715855D01*
X174320158Y-95732575D01*
X174134597Y-95862505D01*
X173967505Y-96029597D01*
X173831965Y-96223169D01*
X173831964Y-96223171D01*
X173732098Y-96437335D01*
X173732094Y-96437344D01*
X173670938Y-96665586D01*
X173670936Y-96665596D01*
X173650341Y-96900999D01*
X173650341Y-96901000D01*
X173670936Y-97136403D01*
X173670938Y-97136413D01*
X173732094Y-97364655D01*
X173732096Y-97364659D01*
X173732097Y-97364663D01*
X173736000Y-97373032D01*
X173831965Y-97578830D01*
X173831967Y-97578834D01*
X173846312Y-97599320D01*
X173967501Y-97772396D01*
X173967506Y-97772402D01*
X174134597Y-97939493D01*
X174134603Y-97939498D01*
X174320158Y-98069425D01*
X174363783Y-98124002D01*
X174370977Y-98193500D01*
X174339454Y-98255855D01*
X174320158Y-98272575D01*
X174134597Y-98402505D01*
X173967505Y-98569597D01*
X173831965Y-98763169D01*
X173831964Y-98763171D01*
X173732098Y-98977335D01*
X173732094Y-98977344D01*
X173670938Y-99205586D01*
X173670936Y-99205596D01*
X173650341Y-99440999D01*
X173650341Y-99441000D01*
X173670936Y-99676403D01*
X173670938Y-99676413D01*
X173732094Y-99904655D01*
X173732096Y-99904659D01*
X173732097Y-99904663D01*
X173736000Y-99913032D01*
X173831965Y-100118830D01*
X173831967Y-100118834D01*
X173846312Y-100139320D01*
X173967501Y-100312396D01*
X173967506Y-100312402D01*
X174134597Y-100479493D01*
X174134603Y-100479498D01*
X174320158Y-100609425D01*
X174363783Y-100664002D01*
X174370977Y-100733500D01*
X174339454Y-100795855D01*
X174320158Y-100812575D01*
X174134597Y-100942505D01*
X173967505Y-101109597D01*
X173831965Y-101303169D01*
X173831964Y-101303171D01*
X173732098Y-101517335D01*
X173732094Y-101517344D01*
X173670938Y-101745586D01*
X173670936Y-101745596D01*
X173650341Y-101980999D01*
X173650341Y-101981000D01*
X173670936Y-102216403D01*
X173670938Y-102216413D01*
X173732094Y-102444655D01*
X173732096Y-102444659D01*
X173732097Y-102444663D01*
X173736000Y-102453032D01*
X173831965Y-102658830D01*
X173831967Y-102658834D01*
X173846312Y-102679320D01*
X173967501Y-102852396D01*
X173967506Y-102852402D01*
X174134597Y-103019493D01*
X174134603Y-103019498D01*
X174320158Y-103149425D01*
X174363783Y-103204002D01*
X174370977Y-103273500D01*
X174339454Y-103335855D01*
X174320158Y-103352575D01*
X174134597Y-103482505D01*
X173967505Y-103649597D01*
X173831965Y-103843169D01*
X173831964Y-103843171D01*
X173732098Y-104057335D01*
X173732094Y-104057344D01*
X173670938Y-104285586D01*
X173670936Y-104285596D01*
X173650341Y-104520999D01*
X173650341Y-104521000D01*
X173670936Y-104756403D01*
X173670938Y-104756413D01*
X173732094Y-104984655D01*
X173732096Y-104984659D01*
X173732097Y-104984663D01*
X173736000Y-104993032D01*
X173831965Y-105198830D01*
X173831967Y-105198834D01*
X173940281Y-105353521D01*
X173967501Y-105392396D01*
X173967506Y-105392402D01*
X174134597Y-105559493D01*
X174134603Y-105559498D01*
X174320158Y-105689425D01*
X174363783Y-105744002D01*
X174370977Y-105813500D01*
X174339454Y-105875855D01*
X174320158Y-105892575D01*
X174134597Y-106022505D01*
X173967505Y-106189597D01*
X173831965Y-106383169D01*
X173831964Y-106383171D01*
X173732098Y-106597335D01*
X173732094Y-106597344D01*
X173670938Y-106825586D01*
X173670936Y-106825596D01*
X173650341Y-107060999D01*
X173650341Y-107061000D01*
X173670936Y-107296403D01*
X173670938Y-107296413D01*
X173732094Y-107524655D01*
X173732096Y-107524659D01*
X173732097Y-107524663D01*
X173736000Y-107533032D01*
X173831965Y-107738830D01*
X173831967Y-107738834D01*
X173940281Y-107893521D01*
X173967501Y-107932396D01*
X173967506Y-107932402D01*
X174134597Y-108099493D01*
X174134603Y-108099498D01*
X174320158Y-108229425D01*
X174363783Y-108284002D01*
X174370977Y-108353500D01*
X174339454Y-108415855D01*
X174320158Y-108432575D01*
X174134597Y-108562505D01*
X173967505Y-108729597D01*
X173831965Y-108923169D01*
X173831964Y-108923171D01*
X173732098Y-109137335D01*
X173732094Y-109137344D01*
X173670938Y-109365586D01*
X173670936Y-109365596D01*
X173650341Y-109600999D01*
X173650341Y-109601000D01*
X173670936Y-109836403D01*
X173670938Y-109836413D01*
X173732094Y-110064655D01*
X173732096Y-110064659D01*
X173732097Y-110064663D01*
X173736000Y-110073032D01*
X173831965Y-110278830D01*
X173831967Y-110278834D01*
X173940281Y-110433521D01*
X173967501Y-110472396D01*
X173967506Y-110472402D01*
X174134597Y-110639493D01*
X174134603Y-110639498D01*
X174320158Y-110769425D01*
X174363783Y-110824002D01*
X174370977Y-110893500D01*
X174339454Y-110955855D01*
X174320158Y-110972575D01*
X174134597Y-111102505D01*
X173967505Y-111269597D01*
X173831965Y-111463169D01*
X173831964Y-111463171D01*
X173732098Y-111677335D01*
X173732094Y-111677344D01*
X173670938Y-111905586D01*
X173670936Y-111905596D01*
X173650341Y-112140999D01*
X173650341Y-112141000D01*
X173670936Y-112376403D01*
X173670938Y-112376413D01*
X173732094Y-112604655D01*
X173732096Y-112604659D01*
X173732097Y-112604663D01*
X173812004Y-112776023D01*
X173831965Y-112818830D01*
X173831967Y-112818834D01*
X173940281Y-112973521D01*
X173967505Y-113012401D01*
X174134599Y-113179495D01*
X174231384Y-113247265D01*
X174328165Y-113315032D01*
X174328167Y-113315033D01*
X174328170Y-113315035D01*
X174542337Y-113414903D01*
X174770592Y-113476063D01*
X174947034Y-113491500D01*
X175005999Y-113496659D01*
X175006000Y-113496659D01*
X175006001Y-113496659D01*
X175064966Y-113491500D01*
X175241408Y-113476063D01*
X175469663Y-113414903D01*
X175683830Y-113315035D01*
X175877401Y-113179495D01*
X176044495Y-113012401D01*
X176174425Y-112826842D01*
X176229002Y-112783217D01*
X176298500Y-112776023D01*
X176360855Y-112807546D01*
X176377575Y-112826842D01*
X176507500Y-113012395D01*
X176507505Y-113012401D01*
X176674599Y-113179495D01*
X176771384Y-113247265D01*
X176868165Y-113315032D01*
X176868167Y-113315033D01*
X176868170Y-113315035D01*
X177082337Y-113414903D01*
X177310592Y-113476063D01*
X177487034Y-113491500D01*
X177545999Y-113496659D01*
X177546000Y-113496659D01*
X177546001Y-113496659D01*
X177604966Y-113491500D01*
X177781408Y-113476063D01*
X178009663Y-113414903D01*
X178223830Y-113315035D01*
X178417401Y-113179495D01*
X178584495Y-113012401D01*
X178720035Y-112818830D01*
X178819903Y-112604663D01*
X178881063Y-112376408D01*
X178901659Y-112141000D01*
X178881063Y-111905592D01*
X178819903Y-111677337D01*
X178720035Y-111463171D01*
X178714425Y-111455158D01*
X178584494Y-111269597D01*
X178417402Y-111102506D01*
X178417396Y-111102501D01*
X178231842Y-110972575D01*
X178188217Y-110917998D01*
X178181023Y-110848500D01*
X178212546Y-110786145D01*
X178231842Y-110769425D01*
X178254026Y-110753891D01*
X178417401Y-110639495D01*
X178584495Y-110472401D01*
X178720035Y-110278830D01*
X178819903Y-110064663D01*
X178881063Y-109836408D01*
X178901659Y-109601000D01*
X178881063Y-109365592D01*
X178819903Y-109137337D01*
X178720035Y-108923171D01*
X178714425Y-108915158D01*
X178584494Y-108729597D01*
X178417402Y-108562506D01*
X178417396Y-108562501D01*
X178231842Y-108432575D01*
X178188217Y-108377998D01*
X178181023Y-108308500D01*
X178212546Y-108246145D01*
X178231842Y-108229425D01*
X178254026Y-108213891D01*
X178417401Y-108099495D01*
X178584495Y-107932401D01*
X178720035Y-107738830D01*
X178819903Y-107524663D01*
X178881063Y-107296408D01*
X178901659Y-107061000D01*
X178881063Y-106825592D01*
X178819903Y-106597337D01*
X178720035Y-106383171D01*
X178714425Y-106375158D01*
X178584494Y-106189597D01*
X178417402Y-106022506D01*
X178417396Y-106022501D01*
X178231842Y-105892575D01*
X178188217Y-105837998D01*
X178181023Y-105768500D01*
X178212546Y-105706145D01*
X178231842Y-105689425D01*
X178254026Y-105673891D01*
X178417401Y-105559495D01*
X178584495Y-105392401D01*
X178720035Y-105198830D01*
X178819903Y-104984663D01*
X178881063Y-104756408D01*
X178901659Y-104521000D01*
X178881063Y-104285592D01*
X178819903Y-104057337D01*
X178720035Y-103843171D01*
X178714425Y-103835158D01*
X178584494Y-103649597D01*
X178417402Y-103482506D01*
X178417396Y-103482501D01*
X178231842Y-103352575D01*
X178188217Y-103297998D01*
X178181023Y-103228500D01*
X178212546Y-103166145D01*
X178231842Y-103149425D01*
X178269485Y-103123067D01*
X178417401Y-103019495D01*
X178584495Y-102852401D01*
X178720035Y-102658830D01*
X178819903Y-102444663D01*
X178881063Y-102216408D01*
X178901659Y-101981000D01*
X178881063Y-101745592D01*
X178819903Y-101517337D01*
X178720035Y-101303171D01*
X178714425Y-101295158D01*
X178584494Y-101109597D01*
X178417402Y-100942506D01*
X178417396Y-100942501D01*
X178231842Y-100812575D01*
X178188217Y-100757998D01*
X178181023Y-100688500D01*
X178212546Y-100626145D01*
X178231842Y-100609425D01*
X178270125Y-100582619D01*
X178417401Y-100479495D01*
X178584495Y-100312401D01*
X178720035Y-100118830D01*
X178819903Y-99904663D01*
X178881063Y-99676408D01*
X178901659Y-99441000D01*
X178881063Y-99205592D01*
X178819903Y-98977337D01*
X178720035Y-98763171D01*
X178714425Y-98755158D01*
X178584494Y-98569597D01*
X178417402Y-98402506D01*
X178417396Y-98402501D01*
X178231842Y-98272575D01*
X178188217Y-98217998D01*
X178181023Y-98148500D01*
X178212546Y-98086145D01*
X178231842Y-98069425D01*
X178269485Y-98043067D01*
X178417401Y-97939495D01*
X178584495Y-97772401D01*
X178720035Y-97578830D01*
X178819903Y-97364663D01*
X178881063Y-97136408D01*
X178901659Y-96901000D01*
X178881063Y-96665592D01*
X178819903Y-96437337D01*
X178720035Y-96223171D01*
X178714425Y-96215158D01*
X178584494Y-96029597D01*
X178417402Y-95862506D01*
X178417396Y-95862501D01*
X178231842Y-95732575D01*
X178188217Y-95677998D01*
X178181023Y-95608500D01*
X178212546Y-95546145D01*
X178231842Y-95529425D01*
X178346455Y-95449172D01*
X178417401Y-95399495D01*
X178584495Y-95232401D01*
X178720035Y-95038830D01*
X178819903Y-94824663D01*
X178881063Y-94596408D01*
X178901659Y-94361000D01*
X178881063Y-94125592D01*
X178819903Y-93897337D01*
X178720035Y-93683171D01*
X178714425Y-93675158D01*
X178584494Y-93489597D01*
X178417402Y-93322506D01*
X178417396Y-93322501D01*
X178231842Y-93192575D01*
X178188217Y-93137998D01*
X178181023Y-93068500D01*
X178212546Y-93006145D01*
X178231842Y-92989425D01*
X178346455Y-92909172D01*
X178417401Y-92859495D01*
X178584495Y-92692401D01*
X178720035Y-92498830D01*
X178819903Y-92284663D01*
X178881063Y-92056408D01*
X178901659Y-91821000D01*
X178881063Y-91585592D01*
X178819903Y-91357337D01*
X178720035Y-91143171D01*
X178714425Y-91135158D01*
X178584494Y-90949597D01*
X178417402Y-90782506D01*
X178417395Y-90782501D01*
X178223834Y-90646967D01*
X178223830Y-90646965D01*
X178223828Y-90646964D01*
X178009663Y-90547097D01*
X178009659Y-90547096D01*
X178009655Y-90547094D01*
X177781413Y-90485938D01*
X177781403Y-90485936D01*
X177546001Y-90465341D01*
X177545999Y-90465341D01*
X177310596Y-90485936D01*
X177310586Y-90485938D01*
X177082344Y-90547094D01*
X177082335Y-90547098D01*
X176868171Y-90646964D01*
X176868169Y-90646965D01*
X176674597Y-90782505D01*
X176507505Y-90949597D01*
X176377575Y-91135158D01*
X176322998Y-91178783D01*
X176253500Y-91185977D01*
X176191145Y-91154454D01*
X176174425Y-91135158D01*
X176044494Y-90949597D01*
X175877402Y-90782506D01*
X175877396Y-90782501D01*
X175691842Y-90652575D01*
X175648217Y-90597998D01*
X175641023Y-90528500D01*
X175672546Y-90466145D01*
X175691842Y-90449425D01*
X175806455Y-90369172D01*
X175877401Y-90319495D01*
X176044495Y-90152401D01*
X176180035Y-89958830D01*
X176279903Y-89744663D01*
X176341063Y-89516408D01*
X176361659Y-89281000D01*
X176341063Y-89045592D01*
X176279903Y-88817337D01*
X176180035Y-88603171D01*
X176167133Y-88584744D01*
X176044494Y-88409597D01*
X175877402Y-88242506D01*
X175877396Y-88242501D01*
X175691842Y-88112575D01*
X175648217Y-88057998D01*
X175641023Y-87988500D01*
X175672546Y-87926145D01*
X175691842Y-87909425D01*
X175806455Y-87829172D01*
X175877401Y-87779495D01*
X176044495Y-87612401D01*
X176174425Y-87426842D01*
X176229002Y-87383217D01*
X176298500Y-87376023D01*
X176360855Y-87407546D01*
X176377575Y-87426842D01*
X176507500Y-87612395D01*
X176507505Y-87612401D01*
X176674599Y-87779495D01*
X176736359Y-87822740D01*
X176868165Y-87915032D01*
X176868167Y-87915033D01*
X176868170Y-87915035D01*
X177082337Y-88014903D01*
X177310592Y-88076063D01*
X177498918Y-88092539D01*
X177545999Y-88096659D01*
X177546000Y-88096659D01*
X177546001Y-88096659D01*
X177585234Y-88093226D01*
X177781408Y-88076063D01*
X178009663Y-88014903D01*
X178223830Y-87915035D01*
X178417401Y-87779495D01*
X178584495Y-87612401D01*
X178720035Y-87418830D01*
X178819903Y-87204663D01*
X178881063Y-86976408D01*
X178901659Y-86741000D01*
X178881063Y-86505592D01*
X178819903Y-86277337D01*
X178720035Y-86063171D01*
X178714425Y-86055158D01*
X178584494Y-85869597D01*
X178417402Y-85702506D01*
X178417396Y-85702501D01*
X178231842Y-85572575D01*
X178188217Y-85517998D01*
X178181023Y-85448500D01*
X178212546Y-85386145D01*
X178231842Y-85369425D01*
X178346455Y-85289172D01*
X178417401Y-85239495D01*
X178584495Y-85072401D01*
X178720035Y-84878830D01*
X178819903Y-84664663D01*
X178881063Y-84436408D01*
X178901659Y-84201000D01*
X178881063Y-83965592D01*
X178819903Y-83737337D01*
X178720035Y-83523171D01*
X178714425Y-83515158D01*
X178584494Y-83329597D01*
X178417402Y-83162506D01*
X178417396Y-83162501D01*
X178231842Y-83032575D01*
X178188217Y-82977998D01*
X178181023Y-82908500D01*
X178212546Y-82846145D01*
X178231842Y-82829425D01*
X178346455Y-82749172D01*
X178417401Y-82699495D01*
X178584495Y-82532401D01*
X178720035Y-82338830D01*
X178819903Y-82124663D01*
X178881063Y-81896408D01*
X178901659Y-81661000D01*
X178881063Y-81425592D01*
X178819903Y-81197337D01*
X178720035Y-80983171D01*
X178714425Y-80975158D01*
X178584494Y-80789597D01*
X178417402Y-80622506D01*
X178417396Y-80622501D01*
X178231842Y-80492575D01*
X178188217Y-80437998D01*
X178181023Y-80368500D01*
X178212546Y-80306145D01*
X178231842Y-80289425D01*
X178346455Y-80209172D01*
X178417401Y-80159495D01*
X178584495Y-79992401D01*
X178720035Y-79798830D01*
X178819903Y-79584663D01*
X178881063Y-79356408D01*
X178901659Y-79121000D01*
X178881063Y-78885592D01*
X178819903Y-78657337D01*
X178720035Y-78443171D01*
X178714425Y-78435158D01*
X178584494Y-78249597D01*
X178417402Y-78082506D01*
X178417396Y-78082501D01*
X178231842Y-77952575D01*
X178188217Y-77897998D01*
X178181023Y-77828500D01*
X178212546Y-77766145D01*
X178231842Y-77749425D01*
X178269485Y-77723067D01*
X178417401Y-77619495D01*
X178584495Y-77452401D01*
X178720035Y-77258830D01*
X178819903Y-77044663D01*
X178881063Y-76816408D01*
X178901659Y-76581000D01*
X178881063Y-76345592D01*
X178819903Y-76117337D01*
X178720035Y-75903171D01*
X178714425Y-75895158D01*
X178584494Y-75709597D01*
X178417402Y-75542506D01*
X178417396Y-75542501D01*
X178231842Y-75412575D01*
X178188217Y-75357998D01*
X178181023Y-75288500D01*
X178212546Y-75226145D01*
X178231842Y-75209425D01*
X178346455Y-75129172D01*
X178417401Y-75079495D01*
X178584495Y-74912401D01*
X178720035Y-74718830D01*
X178819903Y-74504663D01*
X178881063Y-74276408D01*
X178901659Y-74041000D01*
X178881063Y-73805592D01*
X178819903Y-73577337D01*
X178720035Y-73363171D01*
X178714425Y-73355158D01*
X178584494Y-73169597D01*
X178417402Y-73002506D01*
X178417396Y-73002501D01*
X178231842Y-72872575D01*
X178188217Y-72817998D01*
X178181023Y-72748500D01*
X178212546Y-72686145D01*
X178231842Y-72669425D01*
X178346455Y-72589172D01*
X178417401Y-72539495D01*
X178584495Y-72372401D01*
X178720035Y-72178830D01*
X178819903Y-71964663D01*
X178881063Y-71736408D01*
X178901659Y-71501000D01*
X178881063Y-71265592D01*
X178819903Y-71037337D01*
X178720035Y-70823171D01*
X178714425Y-70815158D01*
X178584494Y-70629597D01*
X178417402Y-70462506D01*
X178417396Y-70462501D01*
X178231842Y-70332575D01*
X178188217Y-70277998D01*
X178181023Y-70208500D01*
X178212546Y-70146145D01*
X178231842Y-70129425D01*
X178346455Y-70049172D01*
X178417401Y-69999495D01*
X178584495Y-69832401D01*
X178720035Y-69638830D01*
X178819903Y-69424663D01*
X178881063Y-69196408D01*
X178901659Y-68961000D01*
X178881063Y-68725592D01*
X178819903Y-68497337D01*
X178720035Y-68283171D01*
X178714425Y-68275158D01*
X178584494Y-68089597D01*
X178417402Y-67922506D01*
X178417396Y-67922501D01*
X178231842Y-67792575D01*
X178188217Y-67737998D01*
X178181023Y-67668500D01*
X178212546Y-67606145D01*
X178231842Y-67589425D01*
X178346455Y-67509172D01*
X178417401Y-67459495D01*
X178584495Y-67292401D01*
X178720035Y-67098830D01*
X178819903Y-66884663D01*
X178881063Y-66656408D01*
X178901659Y-66421000D01*
X178881063Y-66185592D01*
X178819903Y-65957337D01*
X178720035Y-65743171D01*
X178714425Y-65735158D01*
X178584494Y-65549597D01*
X178417402Y-65382506D01*
X178417396Y-65382501D01*
X178231842Y-65252575D01*
X178188217Y-65197998D01*
X178181023Y-65128500D01*
X178212546Y-65066145D01*
X178231842Y-65049425D01*
X178269485Y-65023067D01*
X178417401Y-64919495D01*
X178584495Y-64752401D01*
X178720035Y-64558830D01*
X178819903Y-64344663D01*
X178881063Y-64116408D01*
X178901659Y-63881000D01*
X178881063Y-63645592D01*
X178819903Y-63417337D01*
X178720035Y-63203171D01*
X178705687Y-63182679D01*
X178584494Y-63009597D01*
X178417402Y-62842506D01*
X178417395Y-62842501D01*
X178223834Y-62706967D01*
X178223830Y-62706965D01*
X178175300Y-62684335D01*
X178009663Y-62607097D01*
X178009659Y-62607096D01*
X178009655Y-62607094D01*
X177781413Y-62545938D01*
X177781403Y-62545936D01*
X177546001Y-62525341D01*
X177545999Y-62525341D01*
X177310596Y-62545936D01*
X177310586Y-62545938D01*
X177082344Y-62607094D01*
X177082335Y-62607098D01*
X176868171Y-62706964D01*
X176868169Y-62706965D01*
X176674600Y-62842503D01*
X176552673Y-62964430D01*
X176491350Y-62997914D01*
X176421658Y-62992930D01*
X176365725Y-62951058D01*
X176348810Y-62920081D01*
X176299797Y-62788671D01*
X176299793Y-62788664D01*
X176213547Y-62673455D01*
X176213544Y-62673452D01*
X176098335Y-62587206D01*
X176098328Y-62587202D01*
X175963482Y-62536908D01*
X175963483Y-62536908D01*
X175903883Y-62530501D01*
X175903881Y-62530500D01*
X175903873Y-62530500D01*
X175903864Y-62530500D01*
X174108129Y-62530500D01*
X174108123Y-62530501D01*
X174048516Y-62536908D01*
X173913671Y-62587202D01*
X173913664Y-62587206D01*
X173798455Y-62673452D01*
X173798452Y-62673455D01*
X173712206Y-62788664D01*
X173712202Y-62788671D01*
X173661908Y-62923517D01*
X173655501Y-62983116D01*
X173655500Y-62983135D01*
X173655500Y-64778870D01*
X173655501Y-64778876D01*
X173661908Y-64838483D01*
X173712202Y-64973328D01*
X173712206Y-64973335D01*
X173798452Y-65088544D01*
X173798455Y-65088547D01*
X173913664Y-65174793D01*
X173913671Y-65174797D01*
X174045081Y-65223810D01*
X174101015Y-65265681D01*
X174125432Y-65331145D01*
X174110580Y-65399418D01*
X174089430Y-65427673D01*
X173967503Y-65549600D01*
X173831965Y-65743169D01*
X173831964Y-65743171D01*
X173732098Y-65957335D01*
X173732094Y-65957344D01*
X173670938Y-66185586D01*
X173670936Y-66185596D01*
X173650341Y-66420999D01*
X173650341Y-66421000D01*
X173670936Y-66656403D01*
X173670938Y-66656413D01*
X173732094Y-66884655D01*
X173732096Y-66884659D01*
X173732097Y-66884663D01*
X173795988Y-67021677D01*
X173831965Y-67098830D01*
X173831967Y-67098834D01*
X173898954Y-67194500D01*
X173967501Y-67292396D01*
X173967506Y-67292402D01*
X174134597Y-67459493D01*
X174134603Y-67459498D01*
X174320158Y-67589425D01*
X174363783Y-67644002D01*
X174370977Y-67713500D01*
X174339454Y-67775855D01*
X174320158Y-67792575D01*
X174134597Y-67922505D01*
X173967505Y-68089597D01*
X173831965Y-68283169D01*
X173831964Y-68283171D01*
X173732098Y-68497335D01*
X173732094Y-68497344D01*
X173670938Y-68725586D01*
X173670936Y-68725596D01*
X173650341Y-68960999D01*
X173650341Y-68961000D01*
X173670936Y-69196403D01*
X173670938Y-69196413D01*
X173732094Y-69424655D01*
X173732096Y-69424659D01*
X173732097Y-69424663D01*
X173748202Y-69459200D01*
X173831965Y-69638830D01*
X173831967Y-69638834D01*
X173910744Y-69751338D01*
X173967501Y-69832396D01*
X173967506Y-69832402D01*
X174134597Y-69999493D01*
X174134603Y-69999498D01*
X174320158Y-70129425D01*
X174363783Y-70184002D01*
X174370977Y-70253500D01*
X174339454Y-70315855D01*
X174320158Y-70332575D01*
X174134597Y-70462505D01*
X173967505Y-70629597D01*
X173831965Y-70823169D01*
X173831964Y-70823171D01*
X173732098Y-71037335D01*
X173732094Y-71037344D01*
X173670938Y-71265586D01*
X173670936Y-71265596D01*
X173650341Y-71500999D01*
X173650341Y-71501000D01*
X173670936Y-71736403D01*
X173670938Y-71736413D01*
X173732094Y-71964655D01*
X173732096Y-71964659D01*
X173732097Y-71964663D01*
X173736000Y-71973032D01*
X173831965Y-72178830D01*
X173831967Y-72178834D01*
X173846312Y-72199320D01*
X173967501Y-72372396D01*
X173967506Y-72372402D01*
X174134597Y-72539493D01*
X174134603Y-72539498D01*
X174320158Y-72669425D01*
X174363783Y-72724002D01*
X174370977Y-72793500D01*
X174339454Y-72855855D01*
X174320158Y-72872575D01*
X174134597Y-73002505D01*
X173967505Y-73169597D01*
X173831965Y-73363169D01*
X173831964Y-73363171D01*
X173732098Y-73577335D01*
X173732094Y-73577344D01*
X173670938Y-73805586D01*
X173670936Y-73805596D01*
X173650341Y-74040999D01*
X173650341Y-74041000D01*
X173670936Y-74276403D01*
X173670938Y-74276413D01*
X173732094Y-74504655D01*
X173732096Y-74504659D01*
X173732097Y-74504663D01*
X173736000Y-74513032D01*
X173831965Y-74718830D01*
X173831967Y-74718834D01*
X173846312Y-74739320D01*
X173967501Y-74912396D01*
X173967506Y-74912402D01*
X174134597Y-75079493D01*
X174134603Y-75079498D01*
X174320158Y-75209425D01*
X174363783Y-75264002D01*
X174370977Y-75333500D01*
X174339454Y-75395855D01*
X174320158Y-75412575D01*
X174134597Y-75542505D01*
X173967505Y-75709597D01*
X173831965Y-75903169D01*
X173831964Y-75903171D01*
X173732098Y-76117335D01*
X173732094Y-76117344D01*
X173670938Y-76345586D01*
X173670936Y-76345596D01*
X173650341Y-76580999D01*
X173650341Y-76581000D01*
X173670936Y-76816403D01*
X173670938Y-76816413D01*
X173732094Y-77044655D01*
X173732096Y-77044659D01*
X173732097Y-77044663D01*
X173740000Y-77061610D01*
X173831965Y-77258830D01*
X173831967Y-77258834D01*
X173847720Y-77281331D01*
X173967501Y-77452396D01*
X173967506Y-77452402D01*
X174134597Y-77619493D01*
X174134603Y-77619498D01*
X174320158Y-77749425D01*
X174363783Y-77804002D01*
X174370977Y-77873500D01*
X174339454Y-77935855D01*
X174320158Y-77952575D01*
X174134597Y-78082505D01*
X173967505Y-78249597D01*
X173831965Y-78443169D01*
X173831964Y-78443171D01*
X173732098Y-78657335D01*
X173732094Y-78657344D01*
X173670938Y-78885586D01*
X173670936Y-78885596D01*
X173650341Y-79120999D01*
X173650341Y-79121000D01*
X173670936Y-79356403D01*
X173670938Y-79356413D01*
X173732094Y-79584655D01*
X173732096Y-79584659D01*
X173732097Y-79584663D01*
X173736000Y-79593032D01*
X173831965Y-79798830D01*
X173831967Y-79798834D01*
X173846312Y-79819320D01*
X173967501Y-79992396D01*
X173967506Y-79992402D01*
X174134597Y-80159493D01*
X174134603Y-80159498D01*
X174320158Y-80289425D01*
X174363783Y-80344002D01*
X174370977Y-80413500D01*
X174339454Y-80475855D01*
X174320158Y-80492575D01*
X174134597Y-80622505D01*
X173967505Y-80789597D01*
X173831965Y-80983169D01*
X173831964Y-80983171D01*
X173732098Y-81197335D01*
X173732094Y-81197344D01*
X173670938Y-81425586D01*
X173670936Y-81425596D01*
X173650341Y-81660999D01*
X173650341Y-81661000D01*
X173670936Y-81896403D01*
X173670938Y-81896413D01*
X173732094Y-82124655D01*
X173732096Y-82124659D01*
X173732097Y-82124663D01*
X173736000Y-82133032D01*
X173831965Y-82338830D01*
X173831967Y-82338834D01*
X173846312Y-82359320D01*
X173967501Y-82532396D01*
X173967506Y-82532402D01*
X174134597Y-82699493D01*
X174134603Y-82699498D01*
X174320158Y-82829425D01*
X174363783Y-82884002D01*
X174370977Y-82953500D01*
X174339454Y-83015855D01*
X174320158Y-83032575D01*
X174134597Y-83162505D01*
X173967505Y-83329597D01*
X173831965Y-83523169D01*
X173831964Y-83523171D01*
X173732098Y-83737335D01*
X173732094Y-83737344D01*
X173670938Y-83965586D01*
X173670936Y-83965596D01*
X173650341Y-84200999D01*
X173650341Y-84201000D01*
X173670936Y-84436403D01*
X173670938Y-84436413D01*
X173732094Y-84664655D01*
X173732096Y-84664659D01*
X173732097Y-84664663D01*
X173736000Y-84673032D01*
X173831965Y-84878830D01*
X173831967Y-84878834D01*
X173846312Y-84899320D01*
X173967501Y-85072396D01*
X173967506Y-85072402D01*
X174134597Y-85239493D01*
X174134603Y-85239498D01*
X174320158Y-85369425D01*
X174363783Y-85424002D01*
X174370977Y-85493500D01*
X174339454Y-85555855D01*
X174320158Y-85572575D01*
X174134597Y-85702505D01*
X173967505Y-85869597D01*
X173831965Y-86063169D01*
X173831964Y-86063171D01*
X173732098Y-86277335D01*
X173732094Y-86277344D01*
X173670938Y-86505586D01*
X173670936Y-86505596D01*
X173650341Y-86740999D01*
X173650341Y-86741000D01*
X173670936Y-86976403D01*
X173670938Y-86976413D01*
X173732094Y-87204655D01*
X173732096Y-87204659D01*
X173732097Y-87204663D01*
X173795988Y-87341677D01*
X173831965Y-87418830D01*
X173831967Y-87418834D01*
X173906412Y-87525151D01*
X173967501Y-87612396D01*
X173967506Y-87612402D01*
X174134597Y-87779493D01*
X174134603Y-87779498D01*
X174320158Y-87909425D01*
X174363783Y-87964002D01*
X174370977Y-88033500D01*
X174339454Y-88095855D01*
X174320158Y-88112575D01*
X174134597Y-88242505D01*
X173967508Y-88409595D01*
X173967501Y-88409603D01*
X173967138Y-88410123D01*
X173966918Y-88410298D01*
X173964023Y-88413749D01*
X173963329Y-88413167D01*
X173912561Y-88453748D01*
X173865563Y-88463000D01*
X171112420Y-88463000D01*
X171045381Y-88443315D01*
X171005033Y-88400999D01*
X170912536Y-88240788D01*
X170912534Y-88240785D01*
X170785870Y-88100111D01*
X170632734Y-87988851D01*
X170632729Y-87988848D01*
X170459807Y-87911857D01*
X170459802Y-87911855D01*
X170314001Y-87880865D01*
X170274646Y-87872500D01*
X170085354Y-87872500D01*
X170052897Y-87879398D01*
X169900197Y-87911855D01*
X169900192Y-87911857D01*
X169727270Y-87988848D01*
X169727265Y-87988851D01*
X169574129Y-88100111D01*
X169447466Y-88240785D01*
X169352821Y-88404715D01*
X169352818Y-88404722D01*
X169324895Y-88490662D01*
X169294326Y-88584744D01*
X169274540Y-88773000D01*
X166980218Y-88773000D01*
X167102871Y-88683888D01*
X167229533Y-88543216D01*
X167324179Y-88379284D01*
X167382674Y-88199256D01*
X167402460Y-88011000D01*
X167382674Y-87822744D01*
X167324179Y-87642716D01*
X167229533Y-87478784D01*
X167102871Y-87338112D01*
X167102870Y-87338111D01*
X166949734Y-87226851D01*
X166949729Y-87226848D01*
X166776807Y-87149857D01*
X166776802Y-87149855D01*
X166631001Y-87118865D01*
X166591646Y-87110500D01*
X166402354Y-87110500D01*
X166369897Y-87117398D01*
X166217197Y-87149855D01*
X166217193Y-87149857D01*
X166144374Y-87182279D01*
X166093938Y-87193000D01*
X162455062Y-87193000D01*
X162404626Y-87182279D01*
X162331806Y-87149857D01*
X162331802Y-87149855D01*
X162186001Y-87118865D01*
X162146646Y-87110500D01*
X161957354Y-87110500D01*
X161924897Y-87117398D01*
X161772197Y-87149855D01*
X161772192Y-87149857D01*
X161599270Y-87226848D01*
X161599265Y-87226851D01*
X161446129Y-87338111D01*
X161319466Y-87478785D01*
X161224821Y-87642715D01*
X161224818Y-87642722D01*
X161166327Y-87822740D01*
X161166326Y-87822744D01*
X161146540Y-88011000D01*
X137978988Y-88011000D01*
X137992262Y-87950579D01*
X138041769Y-87901275D01*
X138047101Y-87898543D01*
X138191153Y-87829172D01*
X138375005Y-87695596D01*
X138425558Y-87642722D01*
X138468979Y-87597308D01*
X138529535Y-87562456D01*
X138558605Y-87559000D01*
X147170938Y-87559000D01*
X147221374Y-87569721D01*
X147258405Y-87586208D01*
X147294197Y-87602144D01*
X147479354Y-87641500D01*
X147479355Y-87641500D01*
X147668644Y-87641500D01*
X147668646Y-87641500D01*
X147853803Y-87602144D01*
X148026730Y-87525151D01*
X148179871Y-87413888D01*
X148306533Y-87273216D01*
X148401179Y-87109284D01*
X148459674Y-86929256D01*
X148479460Y-86741000D01*
X148459674Y-86552744D01*
X148401179Y-86372716D01*
X148306533Y-86208784D01*
X148179871Y-86068112D01*
X148179870Y-86068111D01*
X148026734Y-85956851D01*
X148026729Y-85956848D01*
X147853807Y-85879857D01*
X147853802Y-85879855D01*
X147708001Y-85848865D01*
X147668646Y-85840500D01*
X147479354Y-85840500D01*
X147446897Y-85847398D01*
X147294197Y-85879855D01*
X147294193Y-85879857D01*
X147221374Y-85912279D01*
X147170938Y-85923000D01*
X138563180Y-85923000D01*
X138496141Y-85903315D01*
X138466232Y-85876311D01*
X138457218Y-85865008D01*
X138286084Y-85715493D01*
X138286082Y-85715491D01*
X138286078Y-85715488D01*
X138237306Y-85686348D01*
X138090998Y-85598932D01*
X138090996Y-85598931D01*
X138090994Y-85598930D01*
X138090992Y-85598929D01*
X138057399Y-85586321D01*
X138001552Y-85544335D01*
X137977270Y-85478821D01*
X137992262Y-85410579D01*
X138041769Y-85361275D01*
X138047101Y-85358543D01*
X138191153Y-85289172D01*
X138375005Y-85155596D01*
X138532052Y-84991338D01*
X138657246Y-84801677D01*
X138746562Y-84592711D01*
X138797131Y-84371154D01*
X138807327Y-84144129D01*
X138776822Y-83918932D01*
X138706596Y-83702800D01*
X138598908Y-83502681D01*
X138525525Y-83410662D01*
X138457217Y-83325006D01*
X138286084Y-83175493D01*
X138286082Y-83175491D01*
X138286078Y-83175488D01*
X138237306Y-83146348D01*
X138090998Y-83058932D01*
X138090996Y-83058931D01*
X138090994Y-83058930D01*
X138090992Y-83058929D01*
X138057399Y-83046321D01*
X138001552Y-83004335D01*
X137977270Y-82938821D01*
X137992262Y-82870579D01*
X138041769Y-82821275D01*
X138047101Y-82818543D01*
X138191153Y-82749172D01*
X138375005Y-82615596D01*
X138532052Y-82451338D01*
X138657246Y-82261677D01*
X138746562Y-82052711D01*
X138797131Y-81831154D01*
X138807327Y-81604129D01*
X138776822Y-81378932D01*
X138706596Y-81162800D01*
X138598908Y-80962681D01*
X138525525Y-80870662D01*
X138457217Y-80785006D01*
X138286084Y-80635493D01*
X138286082Y-80635491D01*
X138286078Y-80635488D01*
X138237306Y-80606348D01*
X138090998Y-80518932D01*
X138090996Y-80518931D01*
X138090994Y-80518930D01*
X138090992Y-80518929D01*
X138057399Y-80506321D01*
X138001552Y-80464335D01*
X137977270Y-80398821D01*
X137992262Y-80330579D01*
X138041769Y-80281275D01*
X138047101Y-80278543D01*
X138191153Y-80209172D01*
X138375005Y-80075596D01*
X138532052Y-79911338D01*
X138657246Y-79721677D01*
X138746562Y-79512711D01*
X138797131Y-79291154D01*
X138807327Y-79064129D01*
X138776822Y-78838932D01*
X138706596Y-78622800D01*
X138598908Y-78422681D01*
X138525525Y-78330662D01*
X138457217Y-78245006D01*
X138286084Y-78095493D01*
X138286082Y-78095491D01*
X138286078Y-78095488D01*
X138228797Y-78061264D01*
X138090998Y-77978932D01*
X138090996Y-77978931D01*
X138090994Y-77978930D01*
X138090992Y-77978929D01*
X138057399Y-77966321D01*
X138001552Y-77924335D01*
X137977270Y-77858821D01*
X137992262Y-77790579D01*
X138041769Y-77741275D01*
X138047101Y-77738543D01*
X138162708Y-77682870D01*
X147162500Y-77682870D01*
X147162501Y-77682876D01*
X147168908Y-77742483D01*
X147219202Y-77877328D01*
X147219206Y-77877335D01*
X147305452Y-77992544D01*
X147305455Y-77992547D01*
X147420664Y-78078793D01*
X147420671Y-78078797D01*
X147555517Y-78129091D01*
X147555516Y-78129091D01*
X147562444Y-78129835D01*
X147615127Y-78135500D01*
X149310872Y-78135499D01*
X149370483Y-78129091D01*
X149505331Y-78078796D01*
X149620546Y-77992546D01*
X149706796Y-77877331D01*
X149757091Y-77742483D01*
X149763500Y-77682873D01*
X149763500Y-76835002D01*
X162398034Y-76835002D01*
X162417858Y-77061599D01*
X162417860Y-77061610D01*
X162476730Y-77281317D01*
X162476735Y-77281331D01*
X162572863Y-77487478D01*
X162623974Y-77560472D01*
X163305046Y-76879400D01*
X163317835Y-76960148D01*
X163375359Y-77073045D01*
X163464955Y-77162641D01*
X163577852Y-77220165D01*
X163658599Y-77232953D01*
X162977526Y-77914025D01*
X163050513Y-77965132D01*
X163050521Y-77965136D01*
X163256668Y-78061264D01*
X163256682Y-78061269D01*
X163476389Y-78120139D01*
X163476400Y-78120141D01*
X163702998Y-78139966D01*
X163703002Y-78139966D01*
X163929599Y-78120141D01*
X163929610Y-78120139D01*
X164149317Y-78061269D01*
X164149331Y-78061264D01*
X164355478Y-77965136D01*
X164428471Y-77914024D01*
X163747400Y-77232953D01*
X163828148Y-77220165D01*
X163941045Y-77162641D01*
X164030641Y-77073045D01*
X164088165Y-76960148D01*
X164100953Y-76879400D01*
X164782024Y-77560471D01*
X164833136Y-77487478D01*
X164929264Y-77281331D01*
X164929269Y-77281317D01*
X164988139Y-77061610D01*
X164988141Y-77061599D01*
X165007966Y-76835002D01*
X165007966Y-76834997D01*
X164988141Y-76608400D01*
X164988139Y-76608389D01*
X164929269Y-76388682D01*
X164929264Y-76388668D01*
X164833136Y-76182521D01*
X164833132Y-76182513D01*
X164782025Y-76109526D01*
X164100953Y-76790598D01*
X164088165Y-76709852D01*
X164030641Y-76596955D01*
X163941045Y-76507359D01*
X163828148Y-76449835D01*
X163747401Y-76437046D01*
X164428472Y-75755974D01*
X164355478Y-75704863D01*
X164149331Y-75608735D01*
X164149317Y-75608730D01*
X163929610Y-75549860D01*
X163929599Y-75549858D01*
X163703002Y-75530034D01*
X163702998Y-75530034D01*
X163476400Y-75549858D01*
X163476389Y-75549860D01*
X163256682Y-75608730D01*
X163256673Y-75608734D01*
X163050516Y-75704866D01*
X163050512Y-75704868D01*
X162977526Y-75755973D01*
X162977526Y-75755974D01*
X163658599Y-76437046D01*
X163577852Y-76449835D01*
X163464955Y-76507359D01*
X163375359Y-76596955D01*
X163317835Y-76709852D01*
X163305046Y-76790598D01*
X162623974Y-76109526D01*
X162623973Y-76109526D01*
X162572868Y-76182512D01*
X162572866Y-76182516D01*
X162476734Y-76388673D01*
X162476730Y-76388682D01*
X162417860Y-76608389D01*
X162417858Y-76608400D01*
X162398034Y-76834997D01*
X162398034Y-76835002D01*
X149763500Y-76835002D01*
X149763499Y-75987128D01*
X149757091Y-75927517D01*
X149740368Y-75882681D01*
X149706797Y-75792671D01*
X149706793Y-75792664D01*
X149620547Y-75677455D01*
X149620544Y-75677452D01*
X149505335Y-75591206D01*
X149505328Y-75591202D01*
X149370482Y-75540908D01*
X149370483Y-75540908D01*
X149310883Y-75534501D01*
X149310881Y-75534500D01*
X149310873Y-75534500D01*
X149310864Y-75534500D01*
X147615129Y-75534500D01*
X147615123Y-75534501D01*
X147555516Y-75540908D01*
X147420671Y-75591202D01*
X147420664Y-75591206D01*
X147305455Y-75677452D01*
X147305452Y-75677455D01*
X147219206Y-75792664D01*
X147219202Y-75792671D01*
X147168908Y-75927517D01*
X147162501Y-75987116D01*
X147162501Y-75987123D01*
X147162500Y-75987135D01*
X147162500Y-77682870D01*
X138162708Y-77682870D01*
X138191153Y-77669172D01*
X138375005Y-77535596D01*
X138532052Y-77371338D01*
X138657246Y-77181677D01*
X138746562Y-76972711D01*
X138797131Y-76751154D01*
X138807327Y-76524129D01*
X138776822Y-76298932D01*
X138706596Y-76082800D01*
X138598908Y-75882681D01*
X138527127Y-75792671D01*
X138457217Y-75705006D01*
X138286084Y-75555493D01*
X138286082Y-75555491D01*
X138286078Y-75555488D01*
X138237306Y-75526348D01*
X138090998Y-75438932D01*
X138090996Y-75438931D01*
X138090994Y-75438930D01*
X138090992Y-75438929D01*
X138057399Y-75426321D01*
X138001552Y-75384335D01*
X137977270Y-75318821D01*
X137992262Y-75250579D01*
X138041769Y-75201275D01*
X138047101Y-75198543D01*
X138191153Y-75129172D01*
X138375005Y-74995596D01*
X138532052Y-74831338D01*
X138657246Y-74641677D01*
X138746562Y-74432711D01*
X138797131Y-74211154D01*
X138807327Y-73984129D01*
X138776822Y-73758932D01*
X138706596Y-73542800D01*
X138598908Y-73342681D01*
X138525525Y-73250662D01*
X138457217Y-73165006D01*
X138286084Y-73015493D01*
X138286082Y-73015491D01*
X138286078Y-73015488D01*
X138237306Y-72986348D01*
X138090998Y-72898932D01*
X138090996Y-72898931D01*
X138090994Y-72898930D01*
X138090992Y-72898929D01*
X138057399Y-72886321D01*
X138001552Y-72844335D01*
X137977270Y-72778821D01*
X137992262Y-72710579D01*
X138041769Y-72661275D01*
X138047101Y-72658543D01*
X138191153Y-72589172D01*
X138375005Y-72455596D01*
X138532052Y-72291338D01*
X138657246Y-72101677D01*
X138746562Y-71892711D01*
X138797131Y-71671154D01*
X138807327Y-71444129D01*
X138776822Y-71218932D01*
X138706596Y-71002800D01*
X138598908Y-70802681D01*
X138525525Y-70710662D01*
X138457217Y-70625006D01*
X138286084Y-70475493D01*
X138286082Y-70475491D01*
X138286078Y-70475488D01*
X138229590Y-70441738D01*
X138090998Y-70358932D01*
X138090996Y-70358931D01*
X138090994Y-70358930D01*
X138090992Y-70358929D01*
X138057399Y-70346321D01*
X138001552Y-70304335D01*
X137977270Y-70238821D01*
X137992262Y-70170579D01*
X138041769Y-70121275D01*
X138047101Y-70118543D01*
X138191153Y-70049172D01*
X138375005Y-69915596D01*
X138532052Y-69751338D01*
X138657246Y-69561677D01*
X138746562Y-69352711D01*
X138777993Y-69215001D01*
X147157532Y-69215001D01*
X147177364Y-69441686D01*
X147177366Y-69441697D01*
X147236258Y-69661488D01*
X147236261Y-69661497D01*
X147332431Y-69867732D01*
X147332432Y-69867734D01*
X147462954Y-70054141D01*
X147623858Y-70215045D01*
X147635933Y-70223500D01*
X147810266Y-70345568D01*
X148016504Y-70441739D01*
X148236308Y-70500635D01*
X148398230Y-70514801D01*
X148462998Y-70520468D01*
X148463000Y-70520468D01*
X148463002Y-70520468D01*
X148519673Y-70515509D01*
X148689692Y-70500635D01*
X148909496Y-70441739D01*
X149115734Y-70345568D01*
X149302139Y-70215047D01*
X149463047Y-70054139D01*
X149593568Y-69867734D01*
X149689739Y-69661496D01*
X149748635Y-69441692D01*
X149768468Y-69215001D01*
X162397532Y-69215001D01*
X162417364Y-69441686D01*
X162417366Y-69441697D01*
X162476258Y-69661488D01*
X162476261Y-69661497D01*
X162572431Y-69867732D01*
X162572432Y-69867734D01*
X162702954Y-70054141D01*
X162863858Y-70215045D01*
X162875933Y-70223500D01*
X163050266Y-70345568D01*
X163256504Y-70441739D01*
X163476308Y-70500635D01*
X163638230Y-70514801D01*
X163702998Y-70520468D01*
X163703000Y-70520468D01*
X163703002Y-70520468D01*
X163759673Y-70515509D01*
X163929692Y-70500635D01*
X164149496Y-70441739D01*
X164355734Y-70345568D01*
X164542139Y-70215047D01*
X164703047Y-70054139D01*
X164833568Y-69867734D01*
X164929739Y-69661496D01*
X164988635Y-69441692D01*
X165008468Y-69215000D01*
X165006841Y-69196408D01*
X164988635Y-68988313D01*
X164988635Y-68988308D01*
X164935727Y-68790851D01*
X164929741Y-68768511D01*
X164929738Y-68768502D01*
X164833568Y-68562266D01*
X164703047Y-68375861D01*
X164703045Y-68375858D01*
X164542141Y-68214954D01*
X164355734Y-68084432D01*
X164355732Y-68084431D01*
X164149497Y-67988261D01*
X164149488Y-67988258D01*
X163929697Y-67929366D01*
X163929693Y-67929365D01*
X163929692Y-67929365D01*
X163929691Y-67929364D01*
X163929686Y-67929364D01*
X163703002Y-67909532D01*
X163702998Y-67909532D01*
X163476313Y-67929364D01*
X163476302Y-67929366D01*
X163256511Y-67988258D01*
X163256502Y-67988261D01*
X163050267Y-68084431D01*
X163050265Y-68084432D01*
X162863858Y-68214954D01*
X162702954Y-68375858D01*
X162572432Y-68562265D01*
X162572431Y-68562267D01*
X162476261Y-68768502D01*
X162476258Y-68768511D01*
X162417366Y-68988302D01*
X162417364Y-68988313D01*
X162397532Y-69214998D01*
X162397532Y-69215001D01*
X149768468Y-69215001D01*
X149768468Y-69215000D01*
X149766841Y-69196408D01*
X149748635Y-68988313D01*
X149748635Y-68988308D01*
X149695727Y-68790851D01*
X149689741Y-68768511D01*
X149689738Y-68768502D01*
X149593568Y-68562266D01*
X149463047Y-68375861D01*
X149463045Y-68375858D01*
X149302141Y-68214954D01*
X149115734Y-68084432D01*
X149115732Y-68084431D01*
X148909497Y-67988261D01*
X148909488Y-67988258D01*
X148689697Y-67929366D01*
X148689693Y-67929365D01*
X148689692Y-67929365D01*
X148689691Y-67929364D01*
X148689686Y-67929364D01*
X148463002Y-67909532D01*
X148462998Y-67909532D01*
X148236313Y-67929364D01*
X148236302Y-67929366D01*
X148016511Y-67988258D01*
X148016502Y-67988261D01*
X147810267Y-68084431D01*
X147810265Y-68084432D01*
X147623858Y-68214954D01*
X147462954Y-68375858D01*
X147332432Y-68562265D01*
X147332431Y-68562267D01*
X147236261Y-68768502D01*
X147236258Y-68768511D01*
X147177366Y-68988302D01*
X147177364Y-68988313D01*
X147157532Y-69214998D01*
X147157532Y-69215001D01*
X138777993Y-69215001D01*
X138797131Y-69131154D01*
X138807327Y-68904129D01*
X138776822Y-68678932D01*
X138706596Y-68462800D01*
X138598908Y-68262681D01*
X138525525Y-68170662D01*
X138457217Y-68085006D01*
X138286084Y-67935493D01*
X138286082Y-67935491D01*
X138286078Y-67935488D01*
X138237306Y-67906348D01*
X138090998Y-67818932D01*
X138090996Y-67818931D01*
X138090994Y-67818930D01*
X138090992Y-67818929D01*
X138057399Y-67806321D01*
X138001552Y-67764335D01*
X137977270Y-67698821D01*
X137992262Y-67630579D01*
X138041769Y-67581275D01*
X138047101Y-67578543D01*
X138191153Y-67509172D01*
X138375005Y-67375596D01*
X138532052Y-67211338D01*
X138657246Y-67021677D01*
X138746562Y-66812711D01*
X138797131Y-66591154D01*
X138807327Y-66364129D01*
X138797827Y-66294000D01*
X154542540Y-66294000D01*
X154562326Y-66482256D01*
X154562327Y-66482259D01*
X154620818Y-66662277D01*
X154620821Y-66662284D01*
X154715467Y-66826216D01*
X154799192Y-66919202D01*
X154842129Y-66966888D01*
X154995265Y-67078148D01*
X154995270Y-67078151D01*
X155168192Y-67155142D01*
X155168197Y-67155144D01*
X155353354Y-67194500D01*
X155353355Y-67194500D01*
X155542644Y-67194500D01*
X155542646Y-67194500D01*
X155727803Y-67155144D01*
X155900730Y-67078151D01*
X156053871Y-66966888D01*
X156180533Y-66826216D01*
X156275179Y-66662284D01*
X156333674Y-66482256D01*
X156353460Y-66294000D01*
X161400540Y-66294000D01*
X161420326Y-66482256D01*
X161420327Y-66482259D01*
X161478818Y-66662277D01*
X161478821Y-66662284D01*
X161573467Y-66826216D01*
X161657192Y-66919202D01*
X161700129Y-66966888D01*
X161853265Y-67078148D01*
X161853270Y-67078151D01*
X162026192Y-67155142D01*
X162026197Y-67155144D01*
X162211354Y-67194500D01*
X162211355Y-67194500D01*
X162400644Y-67194500D01*
X162400646Y-67194500D01*
X162585803Y-67155144D01*
X162758730Y-67078151D01*
X162911871Y-66966888D01*
X163038533Y-66826216D01*
X163133179Y-66662284D01*
X163191674Y-66482256D01*
X163211460Y-66294000D01*
X163191674Y-66105744D01*
X163133179Y-65925716D01*
X163085856Y-65843750D01*
X163038534Y-65761785D01*
X163038529Y-65761778D01*
X162990750Y-65708714D01*
X162960520Y-65645722D01*
X162958900Y-65625742D01*
X162958900Y-63279256D01*
X162978585Y-63212217D01*
X162990750Y-63196284D01*
X163003000Y-63182679D01*
X163038533Y-63143216D01*
X163133179Y-62979284D01*
X163191674Y-62799256D01*
X163211460Y-62611000D01*
X163191674Y-62422744D01*
X163133179Y-62242716D01*
X163038533Y-62078784D01*
X162911871Y-61938112D01*
X162911870Y-61938111D01*
X162758734Y-61826851D01*
X162758729Y-61826848D01*
X162585807Y-61749857D01*
X162585802Y-61749855D01*
X162440001Y-61718865D01*
X162400646Y-61710500D01*
X162211354Y-61710500D01*
X162178897Y-61717398D01*
X162026197Y-61749855D01*
X162026192Y-61749857D01*
X161853270Y-61826848D01*
X161853265Y-61826851D01*
X161700129Y-61938111D01*
X161573466Y-62078785D01*
X161478821Y-62242715D01*
X161478818Y-62242722D01*
X161420327Y-62422740D01*
X161420326Y-62422744D01*
X161400540Y-62611000D01*
X161420326Y-62799256D01*
X161420327Y-62799259D01*
X161478818Y-62979277D01*
X161478821Y-62979284D01*
X161573467Y-63143216D01*
X161609000Y-63182679D01*
X161621250Y-63196284D01*
X161651480Y-63259275D01*
X161653100Y-63279256D01*
X161653100Y-65625742D01*
X161633415Y-65692781D01*
X161621250Y-65708714D01*
X161573470Y-65761778D01*
X161573465Y-65761785D01*
X161478821Y-65925715D01*
X161478818Y-65925722D01*
X161420327Y-66105740D01*
X161420326Y-66105744D01*
X161400540Y-66294000D01*
X156353460Y-66294000D01*
X156333674Y-66105744D01*
X156275179Y-65925716D01*
X156227856Y-65843750D01*
X156180534Y-65761785D01*
X156180529Y-65761778D01*
X156132750Y-65708714D01*
X156102520Y-65645722D01*
X156100900Y-65625742D01*
X156100900Y-63279256D01*
X156120585Y-63212217D01*
X156132750Y-63196284D01*
X156145000Y-63182679D01*
X156180533Y-63143216D01*
X156275179Y-62979284D01*
X156333674Y-62799256D01*
X156353460Y-62611000D01*
X156333674Y-62422744D01*
X156275179Y-62242716D01*
X156180533Y-62078784D01*
X156053871Y-61938112D01*
X156053870Y-61938111D01*
X155900734Y-61826851D01*
X155900729Y-61826848D01*
X155727807Y-61749857D01*
X155727802Y-61749855D01*
X155582001Y-61718865D01*
X155542646Y-61710500D01*
X155353354Y-61710500D01*
X155320897Y-61717398D01*
X155168197Y-61749855D01*
X155168192Y-61749857D01*
X154995270Y-61826848D01*
X154995265Y-61826851D01*
X154842129Y-61938111D01*
X154715466Y-62078785D01*
X154620821Y-62242715D01*
X154620818Y-62242722D01*
X154562327Y-62422740D01*
X154562326Y-62422744D01*
X154542540Y-62611000D01*
X154562326Y-62799256D01*
X154562327Y-62799259D01*
X154620818Y-62979277D01*
X154620821Y-62979284D01*
X154715467Y-63143216D01*
X154751000Y-63182679D01*
X154763250Y-63196284D01*
X154793480Y-63259275D01*
X154795100Y-63279256D01*
X154795100Y-65625742D01*
X154775415Y-65692781D01*
X154763250Y-65708714D01*
X154715470Y-65761778D01*
X154715465Y-65761785D01*
X154620821Y-65925715D01*
X154620818Y-65925722D01*
X154562327Y-66105740D01*
X154562326Y-66105744D01*
X154542540Y-66294000D01*
X138797827Y-66294000D01*
X138776822Y-66138932D01*
X138706596Y-65922800D01*
X138598908Y-65722681D01*
X138525525Y-65630662D01*
X138457217Y-65545006D01*
X138286084Y-65395493D01*
X138286082Y-65395491D01*
X138286078Y-65395488D01*
X138237306Y-65366348D01*
X138090998Y-65278932D01*
X138090996Y-65278931D01*
X138090994Y-65278930D01*
X138090992Y-65278929D01*
X138057399Y-65266321D01*
X138001552Y-65224335D01*
X137977270Y-65158821D01*
X137992262Y-65090579D01*
X138041769Y-65041275D01*
X138047101Y-65038543D01*
X138191153Y-64969172D01*
X138375005Y-64835596D01*
X138532052Y-64671338D01*
X138657246Y-64481677D01*
X138746562Y-64272711D01*
X138797131Y-64051154D01*
X138807327Y-63824129D01*
X138776822Y-63598932D01*
X138706596Y-63382800D01*
X138598908Y-63182681D01*
X138525525Y-63090662D01*
X138457217Y-63005006D01*
X138286084Y-62855493D01*
X138286082Y-62855491D01*
X138286078Y-62855488D01*
X138191962Y-62799256D01*
X138090998Y-62738932D01*
X138090996Y-62738931D01*
X138090994Y-62738930D01*
X138090992Y-62738929D01*
X138057399Y-62726321D01*
X138001552Y-62684335D01*
X137977270Y-62618821D01*
X137992262Y-62550579D01*
X138041769Y-62501275D01*
X138047101Y-62498543D01*
X138191153Y-62429172D01*
X138375005Y-62295596D01*
X138532052Y-62131338D01*
X138657246Y-61941677D01*
X138746562Y-61732711D01*
X138797131Y-61511154D01*
X138807327Y-61284129D01*
X138776822Y-61058932D01*
X138706596Y-60842800D01*
X138598908Y-60642681D01*
X138525525Y-60550662D01*
X138457217Y-60465006D01*
X138286084Y-60315493D01*
X138286082Y-60315491D01*
X138286078Y-60315488D01*
X138237306Y-60286348D01*
X138090998Y-60198932D01*
X138090996Y-60198931D01*
X138090994Y-60198930D01*
X138090992Y-60198929D01*
X138057399Y-60186321D01*
X138001552Y-60144335D01*
X137977270Y-60078821D01*
X137992262Y-60010579D01*
X138041769Y-59961275D01*
X138047101Y-59958543D01*
X138191153Y-59889172D01*
X138375005Y-59755596D01*
X138532052Y-59591338D01*
X138657246Y-59401677D01*
X138746562Y-59192711D01*
X138797131Y-58971154D01*
X138807327Y-58744129D01*
X138776822Y-58518932D01*
X138706596Y-58302800D01*
X138598908Y-58102681D01*
X138525525Y-58010662D01*
X138457217Y-57925006D01*
X138286084Y-57775493D01*
X138286082Y-57775491D01*
X138286078Y-57775488D01*
X138237306Y-57746348D01*
X138090998Y-57658932D01*
X138090996Y-57658931D01*
X138090994Y-57658930D01*
X138090992Y-57658929D01*
X138057399Y-57646321D01*
X138001552Y-57604335D01*
X137977270Y-57538821D01*
X137992262Y-57470579D01*
X138041769Y-57421275D01*
X138047101Y-57418543D01*
X138191153Y-57349172D01*
X138375005Y-57215596D01*
X138532052Y-57051338D01*
X138657246Y-56861677D01*
X138746562Y-56652711D01*
X138797131Y-56431154D01*
X138807327Y-56204129D01*
X138776822Y-55978932D01*
X138706596Y-55762800D01*
X138598908Y-55562681D01*
X138525525Y-55470662D01*
X138457217Y-55385006D01*
X138286084Y-55235493D01*
X138286082Y-55235491D01*
X138286078Y-55235488D01*
X138237306Y-55206348D01*
X138090998Y-55118932D01*
X138090996Y-55118931D01*
X138090994Y-55118930D01*
X138090992Y-55118929D01*
X138057399Y-55106321D01*
X138001552Y-55064335D01*
X137977270Y-54998821D01*
X137992262Y-54930579D01*
X138041769Y-54881275D01*
X138047101Y-54878543D01*
X138191153Y-54809172D01*
X138375005Y-54675596D01*
X138532052Y-54511338D01*
X138657246Y-54321677D01*
X138746562Y-54112711D01*
X138797131Y-53891154D01*
X138807327Y-53664129D01*
X138776822Y-53438932D01*
X138706596Y-53222800D01*
X138598908Y-53022681D01*
X138525525Y-52930662D01*
X138457217Y-52845006D01*
X138286084Y-52695493D01*
X138286082Y-52695491D01*
X138286078Y-52695488D01*
X138232260Y-52663333D01*
X138090998Y-52578932D01*
X138090996Y-52578931D01*
X138090994Y-52578930D01*
X138090992Y-52578929D01*
X138057399Y-52566321D01*
X138001552Y-52524335D01*
X137977270Y-52458821D01*
X137992262Y-52390579D01*
X138041769Y-52341275D01*
X138047101Y-52338543D01*
X138191153Y-52269172D01*
X138375005Y-52135596D01*
X138532052Y-51971338D01*
X138657246Y-51781677D01*
X138746562Y-51572711D01*
X138797131Y-51351154D01*
X138801973Y-51243336D01*
X140966057Y-51243336D01*
X140985807Y-51557273D01*
X140985808Y-51557280D01*
X141044755Y-51866289D01*
X141141963Y-52165463D01*
X141141965Y-52165468D01*
X141275900Y-52450092D01*
X141275903Y-52450098D01*
X141444457Y-52715698D01*
X141444460Y-52715702D01*
X141535286Y-52825491D01*
X142173266Y-52187511D01*
X142336130Y-52378201D01*
X142526818Y-52541063D01*
X141885971Y-53181910D01*
X141885972Y-53181912D01*
X142128772Y-53358316D01*
X142128790Y-53358327D01*
X142404447Y-53509871D01*
X142404455Y-53509875D01*
X142696926Y-53625671D01*
X143001620Y-53703904D01*
X143001629Y-53703906D01*
X143313701Y-53743330D01*
X143313715Y-53743331D01*
X143628285Y-53743331D01*
X143628298Y-53743330D01*
X143940370Y-53703906D01*
X143940379Y-53703904D01*
X144245073Y-53625671D01*
X144537544Y-53509875D01*
X144537552Y-53509871D01*
X144813209Y-53358327D01*
X144813219Y-53358321D01*
X145056026Y-53181910D01*
X145056027Y-53181910D01*
X144415180Y-52541064D01*
X144605870Y-52378201D01*
X144768733Y-52187511D01*
X145406712Y-52825491D01*
X145497544Y-52715695D01*
X145666096Y-52450098D01*
X145666099Y-52450092D01*
X145800034Y-52165468D01*
X145800036Y-52165463D01*
X145897244Y-51866289D01*
X145956191Y-51557280D01*
X145956192Y-51557273D01*
X145975943Y-51243336D01*
X145975943Y-51243325D01*
X145956192Y-50929388D01*
X145956191Y-50929381D01*
X145909255Y-50683333D01*
X149206034Y-50683333D01*
X149225858Y-50909930D01*
X149225860Y-50909941D01*
X149284730Y-51129648D01*
X149284735Y-51129662D01*
X149380863Y-51335809D01*
X149431974Y-51408803D01*
X150027923Y-50812854D01*
X150051507Y-50893175D01*
X150129239Y-51014129D01*
X150237900Y-51108283D01*
X150368685Y-51168011D01*
X150378464Y-51169417D01*
X149785526Y-51762356D01*
X149858513Y-51813463D01*
X149858521Y-51813467D01*
X150064668Y-51909595D01*
X150064682Y-51909600D01*
X150263593Y-51962898D01*
X150323254Y-51999263D01*
X150353783Y-52062110D01*
X150355500Y-52082673D01*
X150355500Y-53511201D01*
X150355501Y-53511207D01*
X150361908Y-53570814D01*
X150412202Y-53705659D01*
X150412206Y-53705666D01*
X150498452Y-53820875D01*
X150498455Y-53820878D01*
X150613664Y-53907124D01*
X150613671Y-53907128D01*
X150748517Y-53957422D01*
X150748516Y-53957422D01*
X150755444Y-53958166D01*
X150808127Y-53963831D01*
X152503872Y-53963830D01*
X152563483Y-53957422D01*
X152698331Y-53907127D01*
X152813546Y-53820877D01*
X152899796Y-53705662D01*
X152900104Y-53704837D01*
X152900630Y-53704133D01*
X152904047Y-53697877D01*
X152904946Y-53698368D01*
X152941974Y-53648902D01*
X153007437Y-53624483D01*
X153075711Y-53639333D01*
X153103968Y-53660486D01*
X153106858Y-53663376D01*
X153107938Y-53664132D01*
X153293266Y-53793899D01*
X153499504Y-53890070D01*
X153499509Y-53890071D01*
X153499511Y-53890072D01*
X153503568Y-53891159D01*
X153719308Y-53948966D01*
X153881230Y-53963132D01*
X153945998Y-53968799D01*
X153946000Y-53968799D01*
X153946002Y-53968799D01*
X154002807Y-53963829D01*
X154172692Y-53948966D01*
X154392496Y-53890070D01*
X154598734Y-53793899D01*
X154785139Y-53663378D01*
X154946047Y-53502470D01*
X154989425Y-53440519D01*
X155044001Y-53396894D01*
X155113499Y-53389700D01*
X155175854Y-53421222D01*
X155192576Y-53440520D01*
X155235955Y-53502473D01*
X155396858Y-53663376D01*
X155397938Y-53664132D01*
X155583266Y-53793899D01*
X155789504Y-53890070D01*
X155789509Y-53890071D01*
X155789511Y-53890072D01*
X155793568Y-53891159D01*
X156009308Y-53948966D01*
X156171230Y-53963132D01*
X156235998Y-53968799D01*
X156236000Y-53968799D01*
X156236002Y-53968799D01*
X156292807Y-53963829D01*
X156462692Y-53948966D01*
X156682496Y-53890070D01*
X156888734Y-53793899D01*
X157075139Y-53663378D01*
X157236047Y-53502470D01*
X157279425Y-53440519D01*
X157334001Y-53396894D01*
X157403499Y-53389700D01*
X157465854Y-53421222D01*
X157482576Y-53440520D01*
X157525955Y-53502473D01*
X157686858Y-53663376D01*
X157687938Y-53664132D01*
X157873266Y-53793899D01*
X158079504Y-53890070D01*
X158079509Y-53890071D01*
X158079511Y-53890072D01*
X158083568Y-53891159D01*
X158299308Y-53948966D01*
X158461230Y-53963132D01*
X158525998Y-53968799D01*
X158526000Y-53968799D01*
X158526002Y-53968799D01*
X158582807Y-53963829D01*
X158752692Y-53948966D01*
X158972496Y-53890070D01*
X159178734Y-53793899D01*
X159365139Y-53663378D01*
X159526047Y-53502470D01*
X159572155Y-53436620D01*
X159626731Y-53392995D01*
X159684538Y-53384215D01*
X159736974Y-53388803D01*
X160332922Y-52792854D01*
X160356507Y-52873175D01*
X160434239Y-52994129D01*
X160542900Y-53088283D01*
X160673685Y-53148011D01*
X160683466Y-53149417D01*
X160090526Y-53742356D01*
X160163513Y-53793463D01*
X160163521Y-53793467D01*
X160369668Y-53889595D01*
X160369682Y-53889600D01*
X160589389Y-53948470D01*
X160589400Y-53948472D01*
X160815998Y-53968297D01*
X160816002Y-53968297D01*
X161042599Y-53948472D01*
X161042610Y-53948470D01*
X161262317Y-53889600D01*
X161262331Y-53889595D01*
X161468478Y-53793467D01*
X161541471Y-53742355D01*
X160948533Y-53149417D01*
X160958315Y-53148011D01*
X161089100Y-53088283D01*
X161197761Y-52994129D01*
X161275493Y-52873175D01*
X161299076Y-52792854D01*
X161895024Y-53388802D01*
X161946136Y-53315809D01*
X162042264Y-53109662D01*
X162042269Y-53109648D01*
X162101139Y-52889941D01*
X162101141Y-52889930D01*
X162120966Y-52663333D01*
X162120966Y-52663328D01*
X162101141Y-52436731D01*
X162101139Y-52436720D01*
X162042269Y-52217013D01*
X162042264Y-52216999D01*
X161946136Y-52010852D01*
X161946132Y-52010844D01*
X161895025Y-51937857D01*
X161299076Y-52533806D01*
X161275493Y-52453487D01*
X161197761Y-52332533D01*
X161089100Y-52238379D01*
X160958315Y-52178651D01*
X160948532Y-52177244D01*
X161541472Y-51584305D01*
X161468478Y-51533194D01*
X161262331Y-51437066D01*
X161262317Y-51437061D01*
X161042610Y-51378191D01*
X161042600Y-51378189D01*
X160968028Y-51371665D01*
X160902959Y-51346212D01*
X160861981Y-51289621D01*
X160859408Y-51243336D01*
X165966057Y-51243336D01*
X165985807Y-51557273D01*
X165985808Y-51557280D01*
X166044755Y-51866289D01*
X166141963Y-52165463D01*
X166141965Y-52165468D01*
X166275900Y-52450092D01*
X166275903Y-52450098D01*
X166444457Y-52715698D01*
X166444460Y-52715702D01*
X166535286Y-52825491D01*
X167173266Y-52187511D01*
X167336130Y-52378201D01*
X167526818Y-52541063D01*
X166885971Y-53181910D01*
X166885972Y-53181912D01*
X167128772Y-53358316D01*
X167128790Y-53358327D01*
X167404447Y-53509871D01*
X167404455Y-53509875D01*
X167696926Y-53625671D01*
X168001620Y-53703904D01*
X168001629Y-53703906D01*
X168313701Y-53743330D01*
X168313715Y-53743331D01*
X168628285Y-53743331D01*
X168628298Y-53743330D01*
X168940370Y-53703906D01*
X168940379Y-53703904D01*
X169245073Y-53625671D01*
X169537544Y-53509875D01*
X169537552Y-53509871D01*
X169813209Y-53358327D01*
X169813219Y-53358321D01*
X170056026Y-53181910D01*
X170056027Y-53181910D01*
X169415180Y-52541064D01*
X169605870Y-52378201D01*
X169768733Y-52187512D01*
X170406712Y-52825491D01*
X170497544Y-52715695D01*
X170666096Y-52450098D01*
X170666099Y-52450092D01*
X170800034Y-52165468D01*
X170800036Y-52165463D01*
X170897244Y-51866289D01*
X170956191Y-51557280D01*
X170956192Y-51557273D01*
X170975943Y-51243336D01*
X170975943Y-51243325D01*
X170956192Y-50929388D01*
X170956191Y-50929381D01*
X170897244Y-50620372D01*
X170800036Y-50321198D01*
X170800034Y-50321193D01*
X170666099Y-50036569D01*
X170666096Y-50036563D01*
X170497542Y-49770963D01*
X170497539Y-49770959D01*
X170406712Y-49661169D01*
X169768732Y-50299149D01*
X169605870Y-50108461D01*
X169415180Y-49945597D01*
X170056027Y-49304750D01*
X170056026Y-49304748D01*
X169813227Y-49128345D01*
X169813209Y-49128334D01*
X169537552Y-48976790D01*
X169537544Y-48976786D01*
X169245073Y-48860990D01*
X168940379Y-48782757D01*
X168940370Y-48782755D01*
X168628298Y-48743331D01*
X168313701Y-48743331D01*
X168001629Y-48782755D01*
X168001620Y-48782757D01*
X167696926Y-48860990D01*
X167404455Y-48976786D01*
X167404447Y-48976790D01*
X167128787Y-49128335D01*
X167128782Y-49128338D01*
X166885972Y-49304749D01*
X166885971Y-49304750D01*
X167526819Y-49945597D01*
X167336130Y-50108461D01*
X167173266Y-50299149D01*
X166535286Y-49661169D01*
X166535285Y-49661169D01*
X166444459Y-49770960D01*
X166444457Y-49770963D01*
X166275903Y-50036563D01*
X166275900Y-50036569D01*
X166141965Y-50321193D01*
X166141963Y-50321198D01*
X166044755Y-50620372D01*
X165985808Y-50929381D01*
X165985807Y-50929388D01*
X165966057Y-51243325D01*
X165966057Y-51243336D01*
X160859408Y-51243336D01*
X160858103Y-51219859D01*
X160866454Y-51195731D01*
X160897270Y-51129648D01*
X160956139Y-50909941D01*
X160956141Y-50909930D01*
X160975966Y-50683333D01*
X160975966Y-50683328D01*
X160956141Y-50456731D01*
X160956139Y-50456720D01*
X160897269Y-50237013D01*
X160897266Y-50237004D01*
X160866679Y-50171411D01*
X160856187Y-50102334D01*
X160884706Y-50038550D01*
X160943183Y-50000310D01*
X160968249Y-49995478D01*
X161042692Y-49988966D01*
X161262496Y-49930070D01*
X161468734Y-49833899D01*
X161655139Y-49703378D01*
X161816047Y-49542470D01*
X161946568Y-49356065D01*
X162042739Y-49149827D01*
X162101635Y-48930023D01*
X162121468Y-48703331D01*
X162101635Y-48476639D01*
X162042739Y-48256835D01*
X161946568Y-48050597D01*
X161816047Y-47864192D01*
X161816045Y-47864189D01*
X161655141Y-47703285D01*
X161468734Y-47572763D01*
X161468732Y-47572762D01*
X161262497Y-47476592D01*
X161262488Y-47476589D01*
X161042697Y-47417697D01*
X161042693Y-47417696D01*
X161042692Y-47417696D01*
X161042691Y-47417695D01*
X161042686Y-47417695D01*
X160816002Y-47397863D01*
X160815998Y-47397863D01*
X160589313Y-47417695D01*
X160589302Y-47417697D01*
X160369511Y-47476589D01*
X160369502Y-47476592D01*
X160163267Y-47572762D01*
X160163265Y-47572763D01*
X159976858Y-47703285D01*
X159815953Y-47864190D01*
X159772575Y-47926142D01*
X159717998Y-47969767D01*
X159648500Y-47976961D01*
X159586145Y-47945438D01*
X159569425Y-47926142D01*
X159526046Y-47864190D01*
X159365141Y-47703285D01*
X159178734Y-47572763D01*
X159178732Y-47572762D01*
X158972497Y-47476592D01*
X158972488Y-47476589D01*
X158752697Y-47417697D01*
X158752693Y-47417696D01*
X158752692Y-47417696D01*
X158752691Y-47417695D01*
X158752686Y-47417695D01*
X158526002Y-47397863D01*
X158525998Y-47397863D01*
X158299313Y-47417695D01*
X158299302Y-47417697D01*
X158079511Y-47476589D01*
X158079502Y-47476592D01*
X157873267Y-47572762D01*
X157873265Y-47572763D01*
X157686858Y-47703285D01*
X157525953Y-47864190D01*
X157482575Y-47926142D01*
X157427998Y-47969767D01*
X157358500Y-47976961D01*
X157296145Y-47945438D01*
X157279425Y-47926142D01*
X157236046Y-47864190D01*
X157075141Y-47703285D01*
X156888734Y-47572763D01*
X156888732Y-47572762D01*
X156682497Y-47476592D01*
X156682488Y-47476589D01*
X156462697Y-47417697D01*
X156462693Y-47417696D01*
X156462692Y-47417696D01*
X156462691Y-47417695D01*
X156462686Y-47417695D01*
X156236002Y-47397863D01*
X156235998Y-47397863D01*
X156009313Y-47417695D01*
X156009302Y-47417697D01*
X155789511Y-47476589D01*
X155789502Y-47476592D01*
X155583267Y-47572762D01*
X155583265Y-47572763D01*
X155396858Y-47703285D01*
X155235953Y-47864190D01*
X155192575Y-47926142D01*
X155137998Y-47969767D01*
X155068500Y-47976961D01*
X155006145Y-47945438D01*
X154989425Y-47926142D01*
X154946046Y-47864190D01*
X154785141Y-47703285D01*
X154598734Y-47572763D01*
X154598732Y-47572762D01*
X154392497Y-47476592D01*
X154392488Y-47476589D01*
X154172697Y-47417697D01*
X154172693Y-47417696D01*
X154172692Y-47417696D01*
X154172691Y-47417695D01*
X154172686Y-47417695D01*
X153946002Y-47397863D01*
X153945998Y-47397863D01*
X153719313Y-47417695D01*
X153719302Y-47417697D01*
X153499511Y-47476589D01*
X153499502Y-47476592D01*
X153293267Y-47572762D01*
X153293265Y-47572763D01*
X153106858Y-47703285D01*
X152945953Y-47864190D01*
X152902575Y-47926142D01*
X152847998Y-47969767D01*
X152778500Y-47976961D01*
X152716145Y-47945438D01*
X152699425Y-47926142D01*
X152656046Y-47864190D01*
X152495141Y-47703285D01*
X152308734Y-47572763D01*
X152308732Y-47572762D01*
X152102497Y-47476592D01*
X152102488Y-47476589D01*
X151882697Y-47417697D01*
X151882693Y-47417696D01*
X151882692Y-47417696D01*
X151882691Y-47417695D01*
X151882686Y-47417695D01*
X151656002Y-47397863D01*
X151655998Y-47397863D01*
X151429313Y-47417695D01*
X151429302Y-47417697D01*
X151209511Y-47476589D01*
X151209502Y-47476592D01*
X151003267Y-47572762D01*
X151003265Y-47572763D01*
X150816858Y-47703285D01*
X150655954Y-47864189D01*
X150525432Y-48050596D01*
X150525431Y-48050598D01*
X150429261Y-48256833D01*
X150429258Y-48256842D01*
X150370366Y-48476633D01*
X150370364Y-48476644D01*
X150350532Y-48703329D01*
X150350532Y-48703332D01*
X150370364Y-48930017D01*
X150370366Y-48930028D01*
X150429258Y-49149819D01*
X150429261Y-49149828D01*
X150460015Y-49215778D01*
X150470507Y-49284855D01*
X150441988Y-49348639D01*
X150383511Y-49386879D01*
X150358442Y-49391711D01*
X150284399Y-49398189D01*
X150284389Y-49398191D01*
X150064682Y-49457061D01*
X150064673Y-49457065D01*
X149858516Y-49553197D01*
X149858512Y-49553199D01*
X149785526Y-49604304D01*
X149785526Y-49604305D01*
X150378466Y-50197244D01*
X150368685Y-50198651D01*
X150237900Y-50258379D01*
X150129239Y-50352533D01*
X150051507Y-50473487D01*
X150027923Y-50553806D01*
X149431974Y-49957857D01*
X149431973Y-49957857D01*
X149380868Y-50030843D01*
X149380866Y-50030847D01*
X149284734Y-50237004D01*
X149284730Y-50237013D01*
X149225860Y-50456720D01*
X149225858Y-50456731D01*
X149206034Y-50683328D01*
X149206034Y-50683333D01*
X145909255Y-50683333D01*
X145897244Y-50620372D01*
X145800036Y-50321198D01*
X145800034Y-50321193D01*
X145666099Y-50036569D01*
X145666096Y-50036563D01*
X145497542Y-49770963D01*
X145497539Y-49770959D01*
X145406712Y-49661169D01*
X144768732Y-50299149D01*
X144605870Y-50108461D01*
X144415180Y-49945597D01*
X145056027Y-49304750D01*
X145056026Y-49304748D01*
X144813227Y-49128345D01*
X144813209Y-49128334D01*
X144537552Y-48976790D01*
X144537544Y-48976786D01*
X144245073Y-48860990D01*
X143940379Y-48782757D01*
X143940370Y-48782755D01*
X143628298Y-48743331D01*
X143313701Y-48743331D01*
X143001629Y-48782755D01*
X143001620Y-48782757D01*
X142696926Y-48860990D01*
X142404455Y-48976786D01*
X142404447Y-48976790D01*
X142128787Y-49128335D01*
X142128782Y-49128338D01*
X141885972Y-49304749D01*
X141885971Y-49304750D01*
X142526819Y-49945597D01*
X142336130Y-50108461D01*
X142173266Y-50299149D01*
X141535286Y-49661169D01*
X141535285Y-49661169D01*
X141444459Y-49770960D01*
X141444457Y-49770963D01*
X141275903Y-50036563D01*
X141275900Y-50036569D01*
X141141965Y-50321193D01*
X141141963Y-50321198D01*
X141044755Y-50620372D01*
X140985808Y-50929381D01*
X140985807Y-50929388D01*
X140966057Y-51243325D01*
X140966057Y-51243336D01*
X138801973Y-51243336D01*
X138807327Y-51124129D01*
X138776822Y-50898932D01*
X138706596Y-50682800D01*
X138598908Y-50482681D01*
X138525525Y-50390662D01*
X138457217Y-50305006D01*
X138286084Y-50155493D01*
X138286082Y-50155491D01*
X138286078Y-50155488D01*
X138237306Y-50126348D01*
X138090998Y-50038932D01*
X138090996Y-50038931D01*
X138090994Y-50038930D01*
X138090992Y-50038929D01*
X138057399Y-50026321D01*
X138001552Y-49984335D01*
X137977270Y-49918821D01*
X137992262Y-49850579D01*
X138041769Y-49801275D01*
X138047101Y-49798543D01*
X138191153Y-49729172D01*
X138375005Y-49595596D01*
X138532052Y-49431338D01*
X138657246Y-49241677D01*
X138746562Y-49032711D01*
X138797131Y-48811154D01*
X138807327Y-48584129D01*
X138776822Y-48358932D01*
X138706596Y-48142800D01*
X138598908Y-47942681D01*
X138536313Y-47864190D01*
X138457217Y-47765006D01*
X138286084Y-47615493D01*
X138286082Y-47615491D01*
X138286078Y-47615488D01*
X138214567Y-47572762D01*
X138090998Y-47498932D01*
X138090996Y-47498931D01*
X138090994Y-47498930D01*
X138090992Y-47498929D01*
X138057399Y-47486321D01*
X138001552Y-47444335D01*
X137977270Y-47378821D01*
X137992262Y-47310579D01*
X138041769Y-47261275D01*
X138047101Y-47258543D01*
X138191153Y-47189172D01*
X138375005Y-47055596D01*
X138532052Y-46891338D01*
X138657246Y-46701677D01*
X138746562Y-46492711D01*
X138797131Y-46271154D01*
X138807327Y-46044129D01*
X138776822Y-45818932D01*
X138706596Y-45602800D01*
X138598908Y-45402681D01*
X138525525Y-45310662D01*
X138457217Y-45225006D01*
X138286084Y-45075493D01*
X138286082Y-45075491D01*
X138286078Y-45075488D01*
X138237306Y-45046348D01*
X138090998Y-44958932D01*
X138090996Y-44958931D01*
X138090994Y-44958930D01*
X138090992Y-44958929D01*
X138057399Y-44946321D01*
X138001552Y-44904335D01*
X137977270Y-44838821D01*
X137992262Y-44770579D01*
X138041769Y-44721275D01*
X138047101Y-44718543D01*
X138191153Y-44649172D01*
X138375005Y-44515596D01*
X138532052Y-44351338D01*
X138657246Y-44161677D01*
X138746562Y-43952711D01*
X138797131Y-43731154D01*
X138807327Y-43504129D01*
X138776822Y-43278932D01*
X138706596Y-43062800D01*
X138598908Y-42862681D01*
X138525525Y-42770662D01*
X138457217Y-42685006D01*
X138286084Y-42535493D01*
X138286082Y-42535491D01*
X138286078Y-42535488D01*
X138237306Y-42506348D01*
X138090998Y-42418932D01*
X138090995Y-42418930D01*
X138090992Y-42418929D01*
X137971868Y-42374221D01*
X137878228Y-42339077D01*
X137654631Y-42298500D01*
X137654627Y-42298500D01*
X136722301Y-42298500D01*
X136690714Y-42301342D01*
X136552659Y-42313767D01*
X136333607Y-42374221D01*
X136333592Y-42374227D01*
X136128853Y-42472824D01*
X136128845Y-42472828D01*
X135945000Y-42606399D01*
X135944992Y-42606405D01*
X135787949Y-42770660D01*
X135662755Y-42960319D01*
X135573438Y-43169290D01*
X135573435Y-43169299D01*
X135522870Y-43390840D01*
X135522868Y-43390851D01*
X135517781Y-43504129D01*
X135512673Y-43617871D01*
X135528018Y-43731154D01*
X135543178Y-43843070D01*
X135613405Y-44059202D01*
X135721093Y-44259320D01*
X135862782Y-44436993D01*
X135952756Y-44515600D01*
X136033922Y-44586512D01*
X136229008Y-44703071D01*
X136262597Y-44715677D01*
X136318445Y-44757662D01*
X136342729Y-44823176D01*
X136327738Y-44891419D01*
X136278232Y-44940723D01*
X136272829Y-44943490D01*
X136128849Y-45012826D01*
X136128845Y-45012828D01*
X135945000Y-45146399D01*
X135944992Y-45146405D01*
X135787949Y-45310660D01*
X135662755Y-45500319D01*
X135573438Y-45709290D01*
X135573435Y-45709299D01*
X135522870Y-45930840D01*
X135522868Y-45930851D01*
X135517781Y-46044129D01*
X135512673Y-46157871D01*
X135528018Y-46271154D01*
X135543178Y-46383070D01*
X135613405Y-46599202D01*
X135721093Y-46799320D01*
X135862782Y-46976993D01*
X135952756Y-47055600D01*
X136033922Y-47126512D01*
X136229008Y-47243071D01*
X136262597Y-47255677D01*
X136318445Y-47297662D01*
X136342729Y-47363176D01*
X136327738Y-47431419D01*
X136278232Y-47480723D01*
X136272829Y-47483490D01*
X136128849Y-47552826D01*
X136128845Y-47552828D01*
X135945000Y-47686399D01*
X135944992Y-47686405D01*
X135787949Y-47850660D01*
X135662755Y-48040319D01*
X135573438Y-48249290D01*
X135573435Y-48249299D01*
X135522870Y-48470840D01*
X135522868Y-48470851D01*
X135517781Y-48584129D01*
X135512673Y-48697871D01*
X135528018Y-48811154D01*
X135543178Y-48923070D01*
X135545439Y-48930028D01*
X135613404Y-49139200D01*
X135721092Y-49339319D01*
X135734445Y-49356063D01*
X135862782Y-49516993D01*
X135962720Y-49604305D01*
X136033922Y-49666512D01*
X136229008Y-49783071D01*
X136262597Y-49795677D01*
X136318445Y-49837662D01*
X136342729Y-49903176D01*
X136327738Y-49971419D01*
X136278232Y-50020723D01*
X136272829Y-50023490D01*
X136128849Y-50092826D01*
X136128845Y-50092828D01*
X135945000Y-50226399D01*
X135944992Y-50226405D01*
X135787949Y-50390660D01*
X135662755Y-50580319D01*
X135607011Y-50710740D01*
X135581251Y-50771011D01*
X135573438Y-50789290D01*
X135573435Y-50789299D01*
X135522870Y-51010840D01*
X135522868Y-51010851D01*
X135513482Y-51219859D01*
X135512673Y-51237871D01*
X135528018Y-51351154D01*
X135543178Y-51463070D01*
X135586658Y-51596884D01*
X135613404Y-51679200D01*
X135714080Y-51866289D01*
X135721093Y-51879320D01*
X135862782Y-52056993D01*
X136033915Y-52206506D01*
X136033922Y-52206512D01*
X136229008Y-52323071D01*
X136254220Y-52332533D01*
X136262597Y-52335677D01*
X136318445Y-52377662D01*
X136342729Y-52443176D01*
X136327738Y-52511419D01*
X136278232Y-52560723D01*
X136272829Y-52563490D01*
X136128849Y-52632826D01*
X136128845Y-52632828D01*
X135945000Y-52766399D01*
X135944992Y-52766405D01*
X135787949Y-52930660D01*
X135662755Y-53120319D01*
X135618955Y-53222797D01*
X135579091Y-53316065D01*
X135573438Y-53329290D01*
X135573435Y-53329299D01*
X135522870Y-53550840D01*
X135522868Y-53550851D01*
X135514268Y-53742355D01*
X135512673Y-53777871D01*
X135528018Y-53891154D01*
X135543178Y-54003070D01*
X135613405Y-54219202D01*
X135721093Y-54419320D01*
X135862782Y-54596993D01*
X135952756Y-54675600D01*
X136033922Y-54746512D01*
X136229008Y-54863071D01*
X136262597Y-54875677D01*
X136318445Y-54917662D01*
X136342729Y-54983176D01*
X136327738Y-55051419D01*
X136278232Y-55100723D01*
X136272829Y-55103490D01*
X136128849Y-55172826D01*
X136128845Y-55172828D01*
X135945000Y-55306399D01*
X135944992Y-55306405D01*
X135787949Y-55470660D01*
X135662755Y-55660319D01*
X135573438Y-55869290D01*
X135573435Y-55869299D01*
X135522870Y-56090840D01*
X135522868Y-56090851D01*
X135517781Y-56204129D01*
X135512673Y-56317871D01*
X135528018Y-56431154D01*
X135543178Y-56543070D01*
X135613405Y-56759202D01*
X135721093Y-56959320D01*
X135862782Y-57136993D01*
X135952756Y-57215600D01*
X136033922Y-57286512D01*
X136229008Y-57403071D01*
X136262597Y-57415677D01*
X136318445Y-57457662D01*
X136342729Y-57523176D01*
X136327738Y-57591419D01*
X136278232Y-57640723D01*
X136272829Y-57643490D01*
X136128849Y-57712826D01*
X136128845Y-57712828D01*
X135945000Y-57846399D01*
X135944992Y-57846405D01*
X135787949Y-58010660D01*
X135662755Y-58200319D01*
X135573438Y-58409290D01*
X135573435Y-58409299D01*
X135522870Y-58630840D01*
X135522868Y-58630851D01*
X135517781Y-58744129D01*
X135512673Y-58857871D01*
X135528018Y-58971154D01*
X135543178Y-59083070D01*
X135613405Y-59299202D01*
X135721093Y-59499320D01*
X135862782Y-59676993D01*
X135952756Y-59755600D01*
X136033922Y-59826512D01*
X136229008Y-59943071D01*
X136262597Y-59955677D01*
X136318445Y-59997662D01*
X136342729Y-60063176D01*
X136327738Y-60131419D01*
X136278232Y-60180723D01*
X136272829Y-60183490D01*
X136128849Y-60252826D01*
X136128845Y-60252828D01*
X135945000Y-60386399D01*
X135944992Y-60386405D01*
X135787949Y-60550660D01*
X135662755Y-60740319D01*
X135573438Y-60949290D01*
X135573435Y-60949299D01*
X135522870Y-61170840D01*
X135522868Y-61170851D01*
X135517781Y-61284129D01*
X135512673Y-61397871D01*
X135528018Y-61511154D01*
X135543178Y-61623070D01*
X135613405Y-61839202D01*
X135721093Y-62039320D01*
X135862782Y-62216993D01*
X135952756Y-62295600D01*
X136033922Y-62366512D01*
X136229008Y-62483071D01*
X136262597Y-62495677D01*
X136318445Y-62537662D01*
X136342729Y-62603176D01*
X136327738Y-62671419D01*
X136278232Y-62720723D01*
X136272829Y-62723490D01*
X136128849Y-62792826D01*
X136128845Y-62792828D01*
X135945000Y-62926399D01*
X135944992Y-62926405D01*
X135787949Y-63090660D01*
X135662755Y-63280319D01*
X135618955Y-63382797D01*
X135604193Y-63417335D01*
X135573438Y-63489290D01*
X135573435Y-63489299D01*
X135522870Y-63710840D01*
X135522868Y-63710851D01*
X135517781Y-63824129D01*
X135512673Y-63937871D01*
X135528018Y-64051154D01*
X135543178Y-64163070D01*
X135578800Y-64272700D01*
X135613404Y-64379200D01*
X135710066Y-64558830D01*
X135721093Y-64579320D01*
X135862782Y-64756993D01*
X136033915Y-64906506D01*
X136033922Y-64906512D01*
X136229008Y-65023071D01*
X136262597Y-65035677D01*
X136318445Y-65077662D01*
X136342729Y-65143176D01*
X136327738Y-65211419D01*
X136278232Y-65260723D01*
X136272829Y-65263490D01*
X136128849Y-65332826D01*
X136128845Y-65332828D01*
X135945000Y-65466399D01*
X135944992Y-65466405D01*
X135787949Y-65630660D01*
X135662755Y-65820319D01*
X135618955Y-65922797D01*
X135604193Y-65957335D01*
X135573438Y-66029290D01*
X135573435Y-66029299D01*
X135522870Y-66250840D01*
X135522868Y-66250851D01*
X135517781Y-66364129D01*
X135512673Y-66477871D01*
X135528018Y-66591154D01*
X135543178Y-66703070D01*
X135578800Y-66812700D01*
X135613404Y-66919200D01*
X135710066Y-67098830D01*
X135721093Y-67119320D01*
X135862782Y-67296993D01*
X135952756Y-67375600D01*
X136033922Y-67446512D01*
X136229008Y-67563071D01*
X136262597Y-67575677D01*
X136318445Y-67617662D01*
X136342729Y-67683176D01*
X136327738Y-67751419D01*
X136278232Y-67800723D01*
X136272829Y-67803490D01*
X136128849Y-67872826D01*
X136128845Y-67872828D01*
X135945000Y-68006399D01*
X135944992Y-68006405D01*
X135787949Y-68170660D01*
X135662755Y-68360319D01*
X135618955Y-68462797D01*
X135576440Y-68562267D01*
X135573438Y-68569290D01*
X135573435Y-68569299D01*
X135522870Y-68790840D01*
X135522868Y-68790851D01*
X135514000Y-68988313D01*
X135512673Y-69017871D01*
X135528018Y-69131154D01*
X135543178Y-69243070D01*
X135578800Y-69352700D01*
X135613404Y-69459200D01*
X135710066Y-69638830D01*
X135721093Y-69659320D01*
X135862782Y-69836993D01*
X135952756Y-69915600D01*
X136033922Y-69986512D01*
X136229008Y-70103071D01*
X136262597Y-70115677D01*
X136318445Y-70157662D01*
X136342729Y-70223176D01*
X136327738Y-70291419D01*
X136278232Y-70340723D01*
X136272829Y-70343490D01*
X136128849Y-70412826D01*
X136128845Y-70412828D01*
X135945000Y-70546399D01*
X135944992Y-70546405D01*
X135787949Y-70710660D01*
X135662755Y-70900319D01*
X135618955Y-71002797D01*
X135604193Y-71037335D01*
X135573438Y-71109290D01*
X135573435Y-71109299D01*
X135522870Y-71330840D01*
X135522868Y-71330851D01*
X135517781Y-71444129D01*
X135512673Y-71557871D01*
X135528018Y-71671154D01*
X135543178Y-71783070D01*
X135578800Y-71892700D01*
X135613404Y-71999200D01*
X135710066Y-72178830D01*
X135721093Y-72199320D01*
X135862782Y-72376993D01*
X135952756Y-72455600D01*
X136033922Y-72526512D01*
X136229008Y-72643071D01*
X136262597Y-72655677D01*
X136318445Y-72697662D01*
X136342729Y-72763176D01*
X136327738Y-72831419D01*
X136278232Y-72880723D01*
X136272829Y-72883490D01*
X136128849Y-72952826D01*
X136128845Y-72952828D01*
X135945000Y-73086399D01*
X135944992Y-73086405D01*
X135787949Y-73250660D01*
X135662755Y-73440319D01*
X135618955Y-73542797D01*
X135604193Y-73577335D01*
X135573438Y-73649290D01*
X135573435Y-73649299D01*
X135522870Y-73870840D01*
X135522868Y-73870851D01*
X135517781Y-73984129D01*
X135512673Y-74097871D01*
X135528018Y-74211154D01*
X135543178Y-74323070D01*
X135578800Y-74432700D01*
X135613404Y-74539200D01*
X135710066Y-74718830D01*
X135721093Y-74739320D01*
X135862782Y-74916993D01*
X135952756Y-74995600D01*
X136033922Y-75066512D01*
X136229008Y-75183071D01*
X136262597Y-75195677D01*
X136318445Y-75237662D01*
X136342729Y-75303176D01*
X136327738Y-75371419D01*
X136278232Y-75420723D01*
X136272829Y-75423490D01*
X136128849Y-75492826D01*
X136128845Y-75492828D01*
X135945000Y-75626399D01*
X135944992Y-75626405D01*
X135787949Y-75790660D01*
X135662755Y-75980319D01*
X135659842Y-75987135D01*
X135576335Y-76182513D01*
X135573438Y-76189290D01*
X135573435Y-76189299D01*
X135522870Y-76410840D01*
X135522868Y-76410851D01*
X135512673Y-76637867D01*
X135512673Y-76637871D01*
X135528018Y-76751154D01*
X135543178Y-76863070D01*
X135574721Y-76960148D01*
X135613404Y-77079200D01*
X135721092Y-77279319D01*
X135722697Y-77281331D01*
X135862782Y-77456993D01*
X136033915Y-77606506D01*
X136033922Y-77606512D01*
X136229008Y-77723071D01*
X136262597Y-77735677D01*
X136318445Y-77777662D01*
X136342729Y-77843176D01*
X136327738Y-77911419D01*
X136278232Y-77960723D01*
X136272829Y-77963490D01*
X136128849Y-78032826D01*
X136128845Y-78032828D01*
X135945000Y-78166399D01*
X135944992Y-78166405D01*
X135787949Y-78330660D01*
X135662755Y-78520319D01*
X135618955Y-78622797D01*
X135604193Y-78657335D01*
X135573438Y-78729290D01*
X135573435Y-78729299D01*
X135522870Y-78950840D01*
X135522868Y-78950851D01*
X135517781Y-79064129D01*
X135512673Y-79177871D01*
X135528018Y-79291154D01*
X135543178Y-79403070D01*
X135578800Y-79512700D01*
X135613404Y-79619200D01*
X135710066Y-79798830D01*
X135721093Y-79819320D01*
X135862782Y-79996993D01*
X135952756Y-80075600D01*
X136033922Y-80146512D01*
X136229008Y-80263071D01*
X136262597Y-80275677D01*
X136318445Y-80317662D01*
X136342729Y-80383176D01*
X136327738Y-80451419D01*
X136278232Y-80500723D01*
X136272829Y-80503490D01*
X136128849Y-80572826D01*
X136128845Y-80572828D01*
X135945000Y-80706399D01*
X135944992Y-80706405D01*
X135787949Y-80870660D01*
X135662755Y-81060319D01*
X135618955Y-81162797D01*
X135604193Y-81197335D01*
X135573438Y-81269290D01*
X135573435Y-81269299D01*
X135522870Y-81490840D01*
X135522868Y-81490851D01*
X135517781Y-81604129D01*
X135512673Y-81717871D01*
X135528018Y-81831154D01*
X135543178Y-81943070D01*
X135578800Y-82052700D01*
X135613404Y-82159200D01*
X135710066Y-82338830D01*
X135721093Y-82359320D01*
X135862782Y-82536993D01*
X135952756Y-82615600D01*
X136033922Y-82686512D01*
X136229008Y-82803071D01*
X136262597Y-82815677D01*
X136318445Y-82857662D01*
X136342729Y-82923176D01*
X136327738Y-82991419D01*
X136278232Y-83040723D01*
X136272829Y-83043490D01*
X136128849Y-83112826D01*
X136128845Y-83112828D01*
X135945000Y-83246399D01*
X135944992Y-83246405D01*
X135787949Y-83410660D01*
X135662755Y-83600319D01*
X135618955Y-83702797D01*
X135604193Y-83737335D01*
X135573438Y-83809290D01*
X135573435Y-83809299D01*
X135522870Y-84030840D01*
X135522868Y-84030851D01*
X135517781Y-84144129D01*
X135512673Y-84257871D01*
X135528018Y-84371154D01*
X135543178Y-84483070D01*
X135578800Y-84592700D01*
X135613404Y-84699200D01*
X135710066Y-84878830D01*
X135721093Y-84899320D01*
X135862782Y-85076993D01*
X135952756Y-85155600D01*
X136033922Y-85226512D01*
X136229008Y-85343071D01*
X136262597Y-85355677D01*
X136318445Y-85397662D01*
X136342729Y-85463176D01*
X136327738Y-85531419D01*
X136278232Y-85580723D01*
X136272829Y-85583490D01*
X136128849Y-85652826D01*
X136128845Y-85652828D01*
X135945000Y-85786399D01*
X135944992Y-85786405D01*
X135787949Y-85950660D01*
X135662755Y-86140319D01*
X135633492Y-86208784D01*
X135604193Y-86277335D01*
X135573438Y-86349290D01*
X135573435Y-86349299D01*
X135522870Y-86570840D01*
X135522868Y-86570851D01*
X135517781Y-86684129D01*
X135512673Y-86797871D01*
X135528018Y-86911154D01*
X135543178Y-87023070D01*
X135588814Y-87163522D01*
X135613404Y-87239200D01*
X135710066Y-87418830D01*
X135721093Y-87439320D01*
X135862782Y-87616993D01*
X135952756Y-87695600D01*
X136033922Y-87766512D01*
X136229008Y-87883071D01*
X136262597Y-87895677D01*
X136318445Y-87937662D01*
X136342729Y-88003176D01*
X136327738Y-88071419D01*
X136278232Y-88120723D01*
X136272829Y-88123490D01*
X136128849Y-88192826D01*
X136128845Y-88192828D01*
X135945000Y-88326399D01*
X135944992Y-88326405D01*
X135787949Y-88490660D01*
X135662755Y-88680319D01*
X135661230Y-88683888D01*
X135604193Y-88817335D01*
X135573438Y-88889290D01*
X135573435Y-88889299D01*
X135522870Y-89110840D01*
X135522868Y-89110851D01*
X135512673Y-89337867D01*
X135512673Y-89337871D01*
X135528018Y-89451154D01*
X135543178Y-89563070D01*
X135562131Y-89621399D01*
X135613404Y-89779200D01*
X135710066Y-89958830D01*
X135721093Y-89979320D01*
X135862782Y-90156993D01*
X135952756Y-90235600D01*
X136033922Y-90306512D01*
X136229008Y-90423071D01*
X136262597Y-90435677D01*
X136318445Y-90477662D01*
X136342729Y-90543176D01*
X136327738Y-90611419D01*
X136278232Y-90660723D01*
X136272829Y-90663490D01*
X136128849Y-90732826D01*
X136128845Y-90732828D01*
X135945000Y-90866399D01*
X135944992Y-90866405D01*
X135787949Y-91030660D01*
X135662755Y-91220319D01*
X135618955Y-91322797D01*
X135604193Y-91357335D01*
X135573438Y-91429290D01*
X135573435Y-91429299D01*
X135522870Y-91650840D01*
X135522868Y-91650851D01*
X135517781Y-91764129D01*
X135512673Y-91877871D01*
X135528018Y-91991154D01*
X135543178Y-92103070D01*
X135578800Y-92212700D01*
X135613404Y-92319200D01*
X135710066Y-92498830D01*
X135721093Y-92519320D01*
X135862782Y-92696993D01*
X135952756Y-92775600D01*
X136033922Y-92846512D01*
X136229008Y-92963071D01*
X136262597Y-92975677D01*
X136318445Y-93017662D01*
X136342729Y-93083176D01*
X136327738Y-93151419D01*
X136278232Y-93200723D01*
X136272829Y-93203490D01*
X136128849Y-93272826D01*
X136128845Y-93272828D01*
X135945000Y-93406399D01*
X135944992Y-93406405D01*
X135787949Y-93570660D01*
X135662755Y-93760319D01*
X135618955Y-93862797D01*
X135604193Y-93897335D01*
X135573438Y-93969290D01*
X135573435Y-93969299D01*
X135522870Y-94190840D01*
X135522868Y-94190851D01*
X135517781Y-94304129D01*
X135512673Y-94417871D01*
X135528018Y-94531154D01*
X135543178Y-94643070D01*
X135578800Y-94752700D01*
X135613404Y-94859200D01*
X135710066Y-95038830D01*
X135721093Y-95059320D01*
X135862782Y-95236993D01*
X135952756Y-95315600D01*
X136033922Y-95386512D01*
X136229008Y-95503071D01*
X136262597Y-95515677D01*
X136318445Y-95557662D01*
X136342729Y-95623176D01*
X136327738Y-95691419D01*
X136278232Y-95740723D01*
X136272829Y-95743490D01*
X136128849Y-95812826D01*
X136128845Y-95812828D01*
X135945000Y-95946399D01*
X135944992Y-95946405D01*
X135787949Y-96110660D01*
X135662755Y-96300319D01*
X135618955Y-96402797D01*
X135604193Y-96437335D01*
X135573438Y-96509290D01*
X135573435Y-96509299D01*
X135522870Y-96730840D01*
X135522868Y-96730851D01*
X135517781Y-96844129D01*
X135512673Y-96957871D01*
X135528018Y-97071154D01*
X135543178Y-97183070D01*
X135578800Y-97292700D01*
X135613404Y-97399200D01*
X135710066Y-97578830D01*
X135721093Y-97599320D01*
X135862782Y-97776993D01*
X135952756Y-97855600D01*
X136033922Y-97926512D01*
X136229008Y-98043071D01*
X136263245Y-98055920D01*
X136319093Y-98097905D01*
X136343377Y-98163419D01*
X136328386Y-98231661D01*
X136278880Y-98280966D01*
X136273477Y-98283733D01*
X136129104Y-98353259D01*
X136129098Y-98353262D01*
X135945327Y-98486780D01*
X135945322Y-98486784D01*
X135788340Y-98650976D01*
X135663196Y-98840560D01*
X135573916Y-99049440D01*
X135573913Y-99049449D01*
X135541605Y-99190999D01*
X135541606Y-99191000D01*
X136872283Y-99191000D01*
X136836629Y-99229731D01*
X136785552Y-99346177D01*
X136775051Y-99472898D01*
X136806266Y-99596162D01*
X136868227Y-99691000D01*
X135539339Y-99691000D01*
X135543669Y-99722959D01*
X135543669Y-99722961D01*
X135613865Y-99939003D01*
X135721509Y-100139039D01*
X135721511Y-100139042D01*
X135863145Y-100316646D01*
X136034210Y-100466100D01*
X136034218Y-100466107D01*
X136229218Y-100582615D01*
X136229226Y-100582619D01*
X136263219Y-100595377D01*
X136319067Y-100637362D01*
X136343351Y-100702876D01*
X136328360Y-100771119D01*
X136278854Y-100820423D01*
X136273451Y-100823190D01*
X136128849Y-100892826D01*
X136128845Y-100892828D01*
X135945000Y-101026399D01*
X135944992Y-101026405D01*
X135787949Y-101190660D01*
X135662755Y-101380319D01*
X135618955Y-101482797D01*
X135604193Y-101517335D01*
X135573438Y-101589290D01*
X135573435Y-101589299D01*
X135522870Y-101810840D01*
X135522868Y-101810851D01*
X135517781Y-101924129D01*
X135512673Y-102037871D01*
X115942219Y-102037871D01*
X115947327Y-101924129D01*
X115916822Y-101698932D01*
X115846596Y-101482800D01*
X115738908Y-101282681D01*
X115665525Y-101190662D01*
X115597217Y-101105006D01*
X115426084Y-100955493D01*
X115426082Y-100955491D01*
X115426078Y-100955488D01*
X115377306Y-100926348D01*
X115230998Y-100838932D01*
X115230996Y-100838931D01*
X115230994Y-100838930D01*
X115230992Y-100838929D01*
X115197399Y-100826321D01*
X115141552Y-100784335D01*
X115117270Y-100718821D01*
X115132262Y-100650579D01*
X115181769Y-100601275D01*
X115187101Y-100598543D01*
X115331153Y-100529172D01*
X115515005Y-100395596D01*
X115515366Y-100395219D01*
X115590489Y-100316646D01*
X115672052Y-100231338D01*
X115797246Y-100041677D01*
X115886562Y-99832711D01*
X115937131Y-99611154D01*
X115947327Y-99384129D01*
X115916822Y-99158932D01*
X115846596Y-98942800D01*
X115738908Y-98742681D01*
X115691180Y-98682833D01*
X115597217Y-98565006D01*
X115426084Y-98415493D01*
X115426082Y-98415491D01*
X115426078Y-98415488D01*
X115321925Y-98353259D01*
X115230998Y-98298932D01*
X115230996Y-98298931D01*
X115230994Y-98298930D01*
X115230992Y-98298929D01*
X115197399Y-98286321D01*
X115141552Y-98244335D01*
X115117270Y-98178821D01*
X115132262Y-98110579D01*
X115181769Y-98061275D01*
X115187101Y-98058543D01*
X115331153Y-97989172D01*
X115515005Y-97855596D01*
X115672052Y-97691338D01*
X115797246Y-97501677D01*
X115886562Y-97292711D01*
X115937131Y-97071154D01*
X115947327Y-96844129D01*
X115916822Y-96618932D01*
X115846596Y-96402800D01*
X115738908Y-96202681D01*
X115665525Y-96110662D01*
X115597217Y-96025006D01*
X115426084Y-95875493D01*
X115426082Y-95875491D01*
X115426078Y-95875488D01*
X115377306Y-95846348D01*
X115230998Y-95758932D01*
X115230996Y-95758931D01*
X115230994Y-95758930D01*
X115230992Y-95758929D01*
X115197399Y-95746321D01*
X115141552Y-95704335D01*
X115117270Y-95638821D01*
X115132262Y-95570579D01*
X115181769Y-95521275D01*
X115187101Y-95518543D01*
X115331153Y-95449172D01*
X115515005Y-95315596D01*
X115672052Y-95151338D01*
X115797246Y-94961677D01*
X115886562Y-94752711D01*
X115937131Y-94531154D01*
X115947327Y-94304129D01*
X115916822Y-94078932D01*
X115846596Y-93862800D01*
X115738908Y-93662681D01*
X115665525Y-93570662D01*
X115597217Y-93485006D01*
X115426084Y-93335493D01*
X115426082Y-93335491D01*
X115426078Y-93335488D01*
X115377306Y-93306348D01*
X115230998Y-93218932D01*
X115230996Y-93218931D01*
X115230994Y-93218930D01*
X115230992Y-93218929D01*
X115197399Y-93206321D01*
X115141552Y-93164335D01*
X115117270Y-93098821D01*
X115132262Y-93030579D01*
X115181769Y-92981275D01*
X115187101Y-92978543D01*
X115331153Y-92909172D01*
X115515005Y-92775596D01*
X115672052Y-92611338D01*
X115797246Y-92421677D01*
X115886562Y-92212711D01*
X115937131Y-91991154D01*
X115947327Y-91764129D01*
X115916822Y-91538932D01*
X115846596Y-91322800D01*
X115738908Y-91122681D01*
X115665525Y-91030662D01*
X115597217Y-90945006D01*
X115426084Y-90795493D01*
X115426082Y-90795491D01*
X115426078Y-90795488D01*
X115377306Y-90766348D01*
X115230998Y-90678932D01*
X115230996Y-90678931D01*
X115230994Y-90678930D01*
X115230992Y-90678929D01*
X115197399Y-90666321D01*
X115141552Y-90624335D01*
X115117270Y-90558821D01*
X115132262Y-90490579D01*
X115181769Y-90441275D01*
X115187101Y-90438543D01*
X115331153Y-90369172D01*
X115515005Y-90235596D01*
X115672052Y-90071338D01*
X115797246Y-89881677D01*
X115886562Y-89672711D01*
X115937131Y-89451154D01*
X115947327Y-89224129D01*
X115916822Y-88998932D01*
X115846596Y-88782800D01*
X115738908Y-88582681D01*
X115665525Y-88490662D01*
X115597217Y-88405006D01*
X115426084Y-88255493D01*
X115426082Y-88255491D01*
X115426078Y-88255488D01*
X115331962Y-88199256D01*
X115230998Y-88138932D01*
X115230996Y-88138931D01*
X115230994Y-88138930D01*
X115230992Y-88138929D01*
X115197399Y-88126321D01*
X115141552Y-88084335D01*
X115117270Y-88018821D01*
X115132262Y-87950579D01*
X115181769Y-87901275D01*
X115187101Y-87898543D01*
X115331153Y-87829172D01*
X115515005Y-87695596D01*
X115672052Y-87531338D01*
X115797246Y-87341677D01*
X115886562Y-87132711D01*
X115937131Y-86911154D01*
X115947327Y-86684129D01*
X115916822Y-86458932D01*
X115846596Y-86242800D01*
X115738908Y-86042681D01*
X115665525Y-85950662D01*
X115597217Y-85865006D01*
X115426084Y-85715493D01*
X115426082Y-85715491D01*
X115426078Y-85715488D01*
X115377306Y-85686348D01*
X115230998Y-85598932D01*
X115230996Y-85598931D01*
X115230994Y-85598930D01*
X115230992Y-85598929D01*
X115197399Y-85586321D01*
X115141552Y-85544335D01*
X115117270Y-85478821D01*
X115132262Y-85410579D01*
X115181769Y-85361275D01*
X115187101Y-85358543D01*
X115331153Y-85289172D01*
X115515005Y-85155596D01*
X115672052Y-84991338D01*
X115797246Y-84801677D01*
X115886562Y-84592711D01*
X115937131Y-84371154D01*
X115947327Y-84144129D01*
X115916822Y-83918932D01*
X115846596Y-83702800D01*
X115738908Y-83502681D01*
X115665525Y-83410662D01*
X115597217Y-83325006D01*
X115426084Y-83175493D01*
X115426082Y-83175491D01*
X115426078Y-83175488D01*
X115377306Y-83146348D01*
X115230998Y-83058932D01*
X115230996Y-83058931D01*
X115230994Y-83058930D01*
X115230992Y-83058929D01*
X115197399Y-83046321D01*
X115141552Y-83004335D01*
X115117270Y-82938821D01*
X115132262Y-82870579D01*
X115181769Y-82821275D01*
X115187101Y-82818543D01*
X115331153Y-82749172D01*
X115515005Y-82615596D01*
X115672052Y-82451338D01*
X115797246Y-82261677D01*
X115886562Y-82052711D01*
X115937131Y-81831154D01*
X115947327Y-81604129D01*
X115916822Y-81378932D01*
X115846596Y-81162800D01*
X115738908Y-80962681D01*
X115665525Y-80870662D01*
X115597217Y-80785006D01*
X115426084Y-80635493D01*
X115426082Y-80635491D01*
X115426078Y-80635488D01*
X115377306Y-80606348D01*
X115230998Y-80518932D01*
X115230996Y-80518931D01*
X115230994Y-80518930D01*
X115230992Y-80518929D01*
X115197399Y-80506321D01*
X115141552Y-80464335D01*
X115117270Y-80398821D01*
X115132262Y-80330579D01*
X115181769Y-80281275D01*
X115187101Y-80278543D01*
X115331153Y-80209172D01*
X115515005Y-80075596D01*
X115672052Y-79911338D01*
X115797246Y-79721677D01*
X115886562Y-79512711D01*
X115937131Y-79291154D01*
X115947327Y-79064129D01*
X115916822Y-78838932D01*
X115846596Y-78622800D01*
X115738908Y-78422681D01*
X115665525Y-78330662D01*
X115597217Y-78245006D01*
X115426084Y-78095493D01*
X115426082Y-78095491D01*
X115426078Y-78095488D01*
X115368797Y-78061264D01*
X115230998Y-77978932D01*
X115230996Y-77978931D01*
X115230994Y-77978930D01*
X115230992Y-77978929D01*
X115197399Y-77966321D01*
X115141552Y-77924335D01*
X115117270Y-77858821D01*
X115132262Y-77790579D01*
X115181769Y-77741275D01*
X115187101Y-77738543D01*
X115331153Y-77669172D01*
X115515005Y-77535596D01*
X115672052Y-77371338D01*
X115797246Y-77181677D01*
X115886562Y-76972711D01*
X115937131Y-76751154D01*
X115947327Y-76524129D01*
X115916822Y-76298932D01*
X115846596Y-76082800D01*
X115738908Y-75882681D01*
X115667127Y-75792671D01*
X115597217Y-75705006D01*
X115426084Y-75555493D01*
X115426082Y-75555491D01*
X115426078Y-75555488D01*
X115377306Y-75526348D01*
X115230998Y-75438932D01*
X115230996Y-75438931D01*
X115230994Y-75438930D01*
X115230992Y-75438929D01*
X115197399Y-75426321D01*
X115141552Y-75384335D01*
X115117270Y-75318821D01*
X115132262Y-75250579D01*
X115181769Y-75201275D01*
X115187101Y-75198543D01*
X115331153Y-75129172D01*
X115515005Y-74995596D01*
X115672052Y-74831338D01*
X115797246Y-74641677D01*
X115886562Y-74432711D01*
X115937131Y-74211154D01*
X115947327Y-73984129D01*
X115916822Y-73758932D01*
X115846596Y-73542800D01*
X115738908Y-73342681D01*
X115665525Y-73250662D01*
X115597217Y-73165006D01*
X115426084Y-73015493D01*
X115426082Y-73015491D01*
X115426078Y-73015488D01*
X115377306Y-72986348D01*
X115230998Y-72898932D01*
X115230996Y-72898931D01*
X115230994Y-72898930D01*
X115230992Y-72898929D01*
X115197399Y-72886321D01*
X115141552Y-72844335D01*
X115117270Y-72778821D01*
X115132262Y-72710579D01*
X115181769Y-72661275D01*
X115187101Y-72658543D01*
X115331153Y-72589172D01*
X115515005Y-72455596D01*
X115672052Y-72291338D01*
X115797246Y-72101677D01*
X115886562Y-71892711D01*
X115937131Y-71671154D01*
X115947327Y-71444129D01*
X115916822Y-71218932D01*
X115846596Y-71002800D01*
X115738908Y-70802681D01*
X115665525Y-70710662D01*
X115597217Y-70625006D01*
X115426084Y-70475493D01*
X115426082Y-70475491D01*
X115426078Y-70475488D01*
X115369590Y-70441738D01*
X115230998Y-70358932D01*
X115230996Y-70358931D01*
X115230994Y-70358930D01*
X115230992Y-70358929D01*
X115197399Y-70346321D01*
X115141552Y-70304335D01*
X115117270Y-70238821D01*
X115132262Y-70170579D01*
X115181769Y-70121275D01*
X115187101Y-70118543D01*
X115331153Y-70049172D01*
X115515005Y-69915596D01*
X115672052Y-69751338D01*
X115797246Y-69561677D01*
X115886562Y-69352711D01*
X115937131Y-69131154D01*
X115947327Y-68904129D01*
X115916822Y-68678932D01*
X115846596Y-68462800D01*
X115738908Y-68262681D01*
X115665525Y-68170662D01*
X115597217Y-68085006D01*
X115426084Y-67935493D01*
X115426082Y-67935491D01*
X115426078Y-67935488D01*
X115377306Y-67906348D01*
X115230998Y-67818932D01*
X115230996Y-67818931D01*
X115230994Y-67818930D01*
X115230992Y-67818929D01*
X115197399Y-67806321D01*
X115141552Y-67764335D01*
X115117270Y-67698821D01*
X115132262Y-67630579D01*
X115181769Y-67581275D01*
X115187101Y-67578543D01*
X115331153Y-67509172D01*
X115515005Y-67375596D01*
X115672052Y-67211338D01*
X115797246Y-67021677D01*
X115886562Y-66812711D01*
X115937131Y-66591154D01*
X115947327Y-66364129D01*
X115916822Y-66138932D01*
X115846596Y-65922800D01*
X115738908Y-65722681D01*
X115665525Y-65630662D01*
X115597217Y-65545006D01*
X115426084Y-65395493D01*
X115426082Y-65395491D01*
X115426078Y-65395488D01*
X115377306Y-65366348D01*
X115230998Y-65278932D01*
X115230996Y-65278931D01*
X115230994Y-65278930D01*
X115230992Y-65278929D01*
X115197399Y-65266321D01*
X115141552Y-65224335D01*
X115117270Y-65158821D01*
X115132262Y-65090579D01*
X115181769Y-65041275D01*
X115187101Y-65038543D01*
X115331153Y-64969172D01*
X115515005Y-64835596D01*
X115672052Y-64671338D01*
X115797246Y-64481677D01*
X115886562Y-64272711D01*
X115937131Y-64051154D01*
X115947327Y-63824129D01*
X115916822Y-63598932D01*
X115846596Y-63382800D01*
X115738908Y-63182681D01*
X115665525Y-63090662D01*
X115597217Y-63005006D01*
X115426084Y-62855493D01*
X115426082Y-62855491D01*
X115426078Y-62855488D01*
X115331962Y-62799256D01*
X115230998Y-62738932D01*
X115230996Y-62738931D01*
X115230994Y-62738930D01*
X115230992Y-62738929D01*
X115197399Y-62726321D01*
X115141552Y-62684335D01*
X115117270Y-62618821D01*
X115132262Y-62550579D01*
X115181769Y-62501275D01*
X115187101Y-62498543D01*
X115331153Y-62429172D01*
X115515005Y-62295596D01*
X115672052Y-62131338D01*
X115797246Y-61941677D01*
X115886562Y-61732711D01*
X115937131Y-61511154D01*
X115947327Y-61284129D01*
X115916822Y-61058932D01*
X115846596Y-60842800D01*
X115738908Y-60642681D01*
X115665525Y-60550662D01*
X115597217Y-60465006D01*
X115426084Y-60315493D01*
X115426082Y-60315491D01*
X115426078Y-60315488D01*
X115377306Y-60286348D01*
X115230998Y-60198932D01*
X115230996Y-60198931D01*
X115230994Y-60198930D01*
X115230992Y-60198929D01*
X115197399Y-60186321D01*
X115141552Y-60144335D01*
X115117270Y-60078821D01*
X115132262Y-60010579D01*
X115181769Y-59961275D01*
X115187101Y-59958543D01*
X115331153Y-59889172D01*
X115515005Y-59755596D01*
X115672052Y-59591338D01*
X115797246Y-59401677D01*
X115886562Y-59192711D01*
X115937131Y-58971154D01*
X115947327Y-58744129D01*
X115916822Y-58518932D01*
X115846596Y-58302800D01*
X115738908Y-58102681D01*
X115665525Y-58010662D01*
X115597217Y-57925006D01*
X115426084Y-57775493D01*
X115426082Y-57775491D01*
X115426078Y-57775488D01*
X115377306Y-57746348D01*
X115230998Y-57658932D01*
X115230996Y-57658931D01*
X115230994Y-57658930D01*
X115230992Y-57658929D01*
X115197399Y-57646321D01*
X115141552Y-57604335D01*
X115117270Y-57538821D01*
X115132262Y-57470579D01*
X115181769Y-57421275D01*
X115187101Y-57418543D01*
X115331153Y-57349172D01*
X115515005Y-57215596D01*
X115672052Y-57051338D01*
X115797246Y-56861677D01*
X115886562Y-56652711D01*
X115937131Y-56431154D01*
X115947327Y-56204129D01*
X115916822Y-55978932D01*
X115846596Y-55762800D01*
X115738908Y-55562681D01*
X115665525Y-55470662D01*
X115597217Y-55385006D01*
X115426084Y-55235493D01*
X115426082Y-55235491D01*
X115426078Y-55235488D01*
X115377306Y-55206348D01*
X115230998Y-55118932D01*
X115230996Y-55118931D01*
X115230994Y-55118930D01*
X115230992Y-55118929D01*
X115197399Y-55106321D01*
X115141552Y-55064335D01*
X115117270Y-54998821D01*
X115132262Y-54930579D01*
X115181769Y-54881275D01*
X115187101Y-54878543D01*
X115331153Y-54809172D01*
X115515005Y-54675596D01*
X115672052Y-54511338D01*
X115797246Y-54321677D01*
X115886562Y-54112711D01*
X115937131Y-53891154D01*
X115947327Y-53664129D01*
X115916822Y-53438932D01*
X115846596Y-53222800D01*
X115738908Y-53022681D01*
X115665525Y-52930662D01*
X115597217Y-52845006D01*
X115426084Y-52695493D01*
X115426082Y-52695491D01*
X115426078Y-52695488D01*
X115372260Y-52663333D01*
X115230998Y-52578932D01*
X115230996Y-52578931D01*
X115230994Y-52578930D01*
X115230992Y-52578929D01*
X115197399Y-52566321D01*
X115141552Y-52524335D01*
X115117270Y-52458821D01*
X115132262Y-52390579D01*
X115181769Y-52341275D01*
X115187101Y-52338543D01*
X115331153Y-52269172D01*
X115515005Y-52135596D01*
X115672052Y-51971338D01*
X115797246Y-51781677D01*
X115886562Y-51572711D01*
X115937131Y-51351154D01*
X115947327Y-51124129D01*
X115916822Y-50898932D01*
X115846596Y-50682800D01*
X115738908Y-50482681D01*
X115665525Y-50390662D01*
X115597217Y-50305006D01*
X115426084Y-50155493D01*
X115426082Y-50155491D01*
X115426078Y-50155488D01*
X115377306Y-50126348D01*
X115230998Y-50038932D01*
X115230996Y-50038931D01*
X115230994Y-50038930D01*
X115230992Y-50038929D01*
X115197399Y-50026321D01*
X115141552Y-49984335D01*
X115117270Y-49918821D01*
X115132262Y-49850579D01*
X115181769Y-49801275D01*
X115187101Y-49798543D01*
X115331153Y-49729172D01*
X115515005Y-49595596D01*
X115672052Y-49431338D01*
X115797246Y-49241677D01*
X115886562Y-49032711D01*
X115937131Y-48811154D01*
X115947327Y-48584129D01*
X115916822Y-48358932D01*
X115846596Y-48142800D01*
X115738908Y-47942681D01*
X115676313Y-47864190D01*
X115597217Y-47765006D01*
X115426084Y-47615493D01*
X115426082Y-47615491D01*
X115426078Y-47615488D01*
X115354567Y-47572762D01*
X115230998Y-47498932D01*
X115230996Y-47498931D01*
X115230994Y-47498930D01*
X115230992Y-47498929D01*
X115197399Y-47486321D01*
X115141552Y-47444335D01*
X115117270Y-47378821D01*
X115132262Y-47310579D01*
X115181769Y-47261275D01*
X115187101Y-47258543D01*
X115331153Y-47189172D01*
X115515005Y-47055596D01*
X115672052Y-46891338D01*
X115797246Y-46701677D01*
X115886562Y-46492711D01*
X115937131Y-46271154D01*
X115947327Y-46044129D01*
X115916822Y-45818932D01*
X115846596Y-45602800D01*
X115738908Y-45402681D01*
X115665525Y-45310662D01*
X115597217Y-45225006D01*
X115426084Y-45075493D01*
X115426082Y-45075491D01*
X115426078Y-45075488D01*
X115377306Y-45046348D01*
X115230998Y-44958932D01*
X115230996Y-44958931D01*
X115230994Y-44958930D01*
X115230992Y-44958929D01*
X115197399Y-44946321D01*
X115141552Y-44904335D01*
X115117270Y-44838821D01*
X115132262Y-44770579D01*
X115181769Y-44721275D01*
X115187101Y-44718543D01*
X115331153Y-44649172D01*
X115515005Y-44515596D01*
X115672052Y-44351338D01*
X115797246Y-44161677D01*
X115886562Y-43952711D01*
X115937131Y-43731154D01*
X115947327Y-43504129D01*
X115916822Y-43278932D01*
X115846596Y-43062800D01*
X115738908Y-42862681D01*
X115665525Y-42770662D01*
X115597217Y-42685006D01*
X115426084Y-42535493D01*
X115426082Y-42535491D01*
X115426078Y-42535488D01*
X115377306Y-42506348D01*
X115230998Y-42418932D01*
X115230995Y-42418930D01*
X115230992Y-42418929D01*
X115111868Y-42374221D01*
X115018228Y-42339077D01*
X114794631Y-42298500D01*
X114794627Y-42298500D01*
X113862301Y-42298500D01*
X113830714Y-42301342D01*
X113692659Y-42313767D01*
X113473607Y-42374221D01*
X113473592Y-42374227D01*
X113268853Y-42472824D01*
X113268845Y-42472828D01*
X113085000Y-42606399D01*
X113084992Y-42606405D01*
X112927949Y-42770660D01*
X112802755Y-42960319D01*
X112713438Y-43169290D01*
X112713435Y-43169299D01*
X112662870Y-43390840D01*
X112662868Y-43390851D01*
X112657781Y-43504129D01*
X112652673Y-43617871D01*
X112668018Y-43731154D01*
X112683178Y-43843070D01*
X112753405Y-44059202D01*
X112861093Y-44259320D01*
X113002782Y-44436993D01*
X113092756Y-44515600D01*
X113173922Y-44586512D01*
X113369008Y-44703071D01*
X113402597Y-44715677D01*
X113458445Y-44757662D01*
X113482729Y-44823176D01*
X113467738Y-44891419D01*
X113418232Y-44940723D01*
X113412829Y-44943490D01*
X113268849Y-45012826D01*
X113268845Y-45012828D01*
X113085000Y-45146399D01*
X113084992Y-45146405D01*
X112927949Y-45310660D01*
X112802755Y-45500319D01*
X112713438Y-45709290D01*
X112713435Y-45709299D01*
X112662870Y-45930840D01*
X112662868Y-45930851D01*
X112657781Y-46044129D01*
X112652673Y-46157871D01*
X112668018Y-46271154D01*
X112683178Y-46383070D01*
X112753405Y-46599202D01*
X112861093Y-46799320D01*
X113002782Y-46976993D01*
X113092756Y-47055600D01*
X113173922Y-47126512D01*
X113369008Y-47243071D01*
X113402597Y-47255677D01*
X113458445Y-47297662D01*
X113482729Y-47363176D01*
X113467738Y-47431419D01*
X113418232Y-47480723D01*
X113412829Y-47483490D01*
X113268849Y-47552826D01*
X113268845Y-47552828D01*
X113085000Y-47686399D01*
X113084992Y-47686405D01*
X112927949Y-47850660D01*
X112802755Y-48040319D01*
X112713438Y-48249290D01*
X112713435Y-48249299D01*
X112662870Y-48470840D01*
X112662868Y-48470851D01*
X112657781Y-48584129D01*
X112652673Y-48697871D01*
X112668018Y-48811154D01*
X112683178Y-48923070D01*
X112685439Y-48930028D01*
X112753404Y-49139200D01*
X112861092Y-49339319D01*
X112874445Y-49356063D01*
X113002782Y-49516993D01*
X113102720Y-49604305D01*
X113173922Y-49666512D01*
X113369008Y-49783071D01*
X113402597Y-49795677D01*
X113458445Y-49837662D01*
X113482729Y-49903176D01*
X113467738Y-49971419D01*
X113418232Y-50020723D01*
X113412829Y-50023490D01*
X113268849Y-50092826D01*
X113268845Y-50092828D01*
X113085000Y-50226399D01*
X113084992Y-50226405D01*
X112927949Y-50390660D01*
X112802755Y-50580319D01*
X112747011Y-50710740D01*
X112721251Y-50771011D01*
X112713438Y-50789290D01*
X112713435Y-50789299D01*
X112662870Y-51010840D01*
X112662868Y-51010851D01*
X112653482Y-51219859D01*
X112652673Y-51237871D01*
X112668018Y-51351154D01*
X112683178Y-51463070D01*
X112726658Y-51596884D01*
X112753404Y-51679200D01*
X112854080Y-51866289D01*
X112861093Y-51879320D01*
X113002782Y-52056993D01*
X113173915Y-52206506D01*
X113173922Y-52206512D01*
X113369008Y-52323071D01*
X113394220Y-52332533D01*
X113402597Y-52335677D01*
X113458445Y-52377662D01*
X113482729Y-52443176D01*
X113467738Y-52511419D01*
X113418232Y-52560723D01*
X113412829Y-52563490D01*
X113268849Y-52632826D01*
X113268845Y-52632828D01*
X113085000Y-52766399D01*
X113084992Y-52766405D01*
X112927949Y-52930660D01*
X112802755Y-53120319D01*
X112758955Y-53222797D01*
X112719091Y-53316065D01*
X112713438Y-53329290D01*
X112713435Y-53329299D01*
X112662870Y-53550840D01*
X112662868Y-53550851D01*
X112654268Y-53742355D01*
X112652673Y-53777871D01*
X112668018Y-53891154D01*
X112683178Y-54003070D01*
X112753405Y-54219202D01*
X112861093Y-54419320D01*
X113002782Y-54596993D01*
X113092756Y-54675600D01*
X113173922Y-54746512D01*
X113369008Y-54863071D01*
X113402597Y-54875677D01*
X113458445Y-54917662D01*
X113482729Y-54983176D01*
X113467738Y-55051419D01*
X113418232Y-55100723D01*
X113412829Y-55103490D01*
X113268849Y-55172826D01*
X113268845Y-55172828D01*
X113085000Y-55306399D01*
X113084992Y-55306405D01*
X112927949Y-55470660D01*
X112802755Y-55660319D01*
X112713438Y-55869290D01*
X112713435Y-55869299D01*
X112662870Y-56090840D01*
X112662868Y-56090851D01*
X112657781Y-56204129D01*
X112652673Y-56317871D01*
X112668018Y-56431154D01*
X112683178Y-56543070D01*
X112753405Y-56759202D01*
X112861093Y-56959320D01*
X113002782Y-57136993D01*
X113092756Y-57215600D01*
X113173922Y-57286512D01*
X113369008Y-57403071D01*
X113402597Y-57415677D01*
X113458445Y-57457662D01*
X113482729Y-57523176D01*
X113467738Y-57591419D01*
X113418232Y-57640723D01*
X113412829Y-57643490D01*
X113268849Y-57712826D01*
X113268845Y-57712828D01*
X113085000Y-57846399D01*
X113084992Y-57846405D01*
X112927949Y-58010660D01*
X112802755Y-58200319D01*
X112713438Y-58409290D01*
X112713435Y-58409299D01*
X112662870Y-58630840D01*
X112662868Y-58630851D01*
X112657781Y-58744129D01*
X112652673Y-58857871D01*
X112668018Y-58971154D01*
X112683178Y-59083070D01*
X112753405Y-59299202D01*
X112861093Y-59499320D01*
X113002782Y-59676993D01*
X113092756Y-59755600D01*
X113173922Y-59826512D01*
X113369008Y-59943071D01*
X113402597Y-59955677D01*
X113458445Y-59997662D01*
X113482729Y-60063176D01*
X113467738Y-60131419D01*
X113418232Y-60180723D01*
X113412829Y-60183490D01*
X113268849Y-60252826D01*
X113268845Y-60252828D01*
X113085000Y-60386399D01*
X113084992Y-60386405D01*
X112927949Y-60550660D01*
X112802755Y-60740319D01*
X112713438Y-60949290D01*
X112713435Y-60949299D01*
X112662870Y-61170840D01*
X112662868Y-61170851D01*
X112657781Y-61284129D01*
X112652673Y-61397871D01*
X112668018Y-61511154D01*
X112683178Y-61623070D01*
X112753405Y-61839202D01*
X112861093Y-62039320D01*
X113002782Y-62216993D01*
X113092756Y-62295600D01*
X113173922Y-62366512D01*
X113369008Y-62483071D01*
X113402597Y-62495677D01*
X113458445Y-62537662D01*
X113482729Y-62603176D01*
X113467738Y-62671419D01*
X113418232Y-62720723D01*
X113412829Y-62723490D01*
X113268849Y-62792826D01*
X113268845Y-62792828D01*
X113085000Y-62926399D01*
X113084992Y-62926405D01*
X112927949Y-63090660D01*
X112802755Y-63280319D01*
X112758955Y-63382797D01*
X112744193Y-63417335D01*
X112713438Y-63489290D01*
X112713435Y-63489299D01*
X112662870Y-63710840D01*
X112662868Y-63710851D01*
X112657781Y-63824129D01*
X112652673Y-63937871D01*
X112668018Y-64051154D01*
X112683178Y-64163070D01*
X112718800Y-64272700D01*
X112753404Y-64379200D01*
X112850066Y-64558830D01*
X112861093Y-64579320D01*
X113002782Y-64756993D01*
X113173915Y-64906506D01*
X113173922Y-64906512D01*
X113369008Y-65023071D01*
X113402597Y-65035677D01*
X113458445Y-65077662D01*
X113482729Y-65143176D01*
X113467738Y-65211419D01*
X113418232Y-65260723D01*
X113412829Y-65263490D01*
X113268849Y-65332826D01*
X113268845Y-65332828D01*
X113085000Y-65466399D01*
X113084992Y-65466405D01*
X112927949Y-65630660D01*
X112802755Y-65820319D01*
X112758955Y-65922797D01*
X112744193Y-65957335D01*
X112713438Y-66029290D01*
X112713435Y-66029299D01*
X112662870Y-66250840D01*
X112662868Y-66250851D01*
X112657781Y-66364129D01*
X112652673Y-66477871D01*
X112668018Y-66591154D01*
X112683178Y-66703070D01*
X112718800Y-66812700D01*
X112753404Y-66919200D01*
X112850066Y-67098830D01*
X112861093Y-67119320D01*
X113002782Y-67296993D01*
X113092756Y-67375600D01*
X113173922Y-67446512D01*
X113369008Y-67563071D01*
X113402597Y-67575677D01*
X113458445Y-67617662D01*
X113482729Y-67683176D01*
X113467738Y-67751419D01*
X113418232Y-67800723D01*
X113412829Y-67803490D01*
X113268849Y-67872826D01*
X113268845Y-67872828D01*
X113085000Y-68006399D01*
X113084992Y-68006405D01*
X112927949Y-68170660D01*
X112802755Y-68360319D01*
X112758955Y-68462797D01*
X112716440Y-68562267D01*
X112713438Y-68569290D01*
X112713435Y-68569299D01*
X112662870Y-68790840D01*
X112662868Y-68790851D01*
X112654000Y-68988313D01*
X112652673Y-69017871D01*
X112668018Y-69131154D01*
X112683178Y-69243070D01*
X112718800Y-69352700D01*
X112753404Y-69459200D01*
X112850066Y-69638830D01*
X112861093Y-69659320D01*
X113002782Y-69836993D01*
X113092756Y-69915600D01*
X113173922Y-69986512D01*
X113369008Y-70103071D01*
X113402597Y-70115677D01*
X113458445Y-70157662D01*
X113482729Y-70223176D01*
X113467738Y-70291419D01*
X113418232Y-70340723D01*
X113412829Y-70343490D01*
X113268849Y-70412826D01*
X113268845Y-70412828D01*
X113085000Y-70546399D01*
X113084992Y-70546405D01*
X112927949Y-70710660D01*
X112802755Y-70900319D01*
X112758955Y-71002797D01*
X112744193Y-71037335D01*
X112713438Y-71109290D01*
X112713435Y-71109299D01*
X112662870Y-71330840D01*
X112662868Y-71330851D01*
X112657781Y-71444129D01*
X112652673Y-71557871D01*
X112668018Y-71671154D01*
X112683178Y-71783070D01*
X112718800Y-71892700D01*
X112753404Y-71999200D01*
X112850066Y-72178830D01*
X112861093Y-72199320D01*
X113002782Y-72376993D01*
X113092756Y-72455600D01*
X113173922Y-72526512D01*
X113369008Y-72643071D01*
X113402597Y-72655677D01*
X113458445Y-72697662D01*
X113482729Y-72763176D01*
X113467738Y-72831419D01*
X113418232Y-72880723D01*
X113412829Y-72883490D01*
X113268849Y-72952826D01*
X113268845Y-72952828D01*
X113085000Y-73086399D01*
X113084992Y-73086405D01*
X112927949Y-73250660D01*
X112802755Y-73440319D01*
X112758955Y-73542797D01*
X112744193Y-73577335D01*
X112713438Y-73649290D01*
X112713435Y-73649299D01*
X112662870Y-73870840D01*
X112662868Y-73870851D01*
X112657781Y-73984129D01*
X112652673Y-74097871D01*
X112668018Y-74211154D01*
X112683178Y-74323070D01*
X112718800Y-74432700D01*
X112753404Y-74539200D01*
X112850066Y-74718830D01*
X112861093Y-74739320D01*
X113002782Y-74916993D01*
X113092756Y-74995600D01*
X113173922Y-75066512D01*
X113369008Y-75183071D01*
X113402597Y-75195677D01*
X113458445Y-75237662D01*
X113482729Y-75303176D01*
X113467738Y-75371419D01*
X113418232Y-75420723D01*
X113412829Y-75423490D01*
X113268849Y-75492826D01*
X113268845Y-75492828D01*
X113085000Y-75626399D01*
X113084992Y-75626405D01*
X112927949Y-75790660D01*
X112802755Y-75980319D01*
X112799842Y-75987135D01*
X112716335Y-76182513D01*
X112713438Y-76189290D01*
X112713435Y-76189299D01*
X112662870Y-76410840D01*
X112662868Y-76410851D01*
X112652673Y-76637867D01*
X112652673Y-76637871D01*
X112668018Y-76751154D01*
X112683178Y-76863070D01*
X112714721Y-76960148D01*
X112753404Y-77079200D01*
X112861092Y-77279319D01*
X112862697Y-77281331D01*
X113002782Y-77456993D01*
X113173915Y-77606506D01*
X113173922Y-77606512D01*
X113369008Y-77723071D01*
X113402597Y-77735677D01*
X113458445Y-77777662D01*
X113482729Y-77843176D01*
X113467738Y-77911419D01*
X113418232Y-77960723D01*
X113412829Y-77963490D01*
X113268849Y-78032826D01*
X113268845Y-78032828D01*
X113085000Y-78166399D01*
X113084992Y-78166405D01*
X112927949Y-78330660D01*
X112802755Y-78520319D01*
X112758955Y-78622797D01*
X112744193Y-78657335D01*
X112713438Y-78729290D01*
X112713435Y-78729299D01*
X112662870Y-78950840D01*
X112662868Y-78950851D01*
X112657781Y-79064129D01*
X112652673Y-79177871D01*
X112668018Y-79291154D01*
X112683178Y-79403070D01*
X112718800Y-79512700D01*
X112753404Y-79619200D01*
X112850066Y-79798830D01*
X112861093Y-79819320D01*
X113002782Y-79996993D01*
X113092756Y-80075600D01*
X113173922Y-80146512D01*
X113369008Y-80263071D01*
X113402597Y-80275677D01*
X113458445Y-80317662D01*
X113482729Y-80383176D01*
X113467738Y-80451419D01*
X113418232Y-80500723D01*
X113412829Y-80503490D01*
X113268849Y-80572826D01*
X113268845Y-80572828D01*
X113085000Y-80706399D01*
X113084992Y-80706405D01*
X112927949Y-80870660D01*
X112802755Y-81060319D01*
X112758955Y-81162797D01*
X112744193Y-81197335D01*
X112713438Y-81269290D01*
X112713435Y-81269299D01*
X112662870Y-81490840D01*
X112662868Y-81490851D01*
X112657781Y-81604129D01*
X112652673Y-81717871D01*
X112668018Y-81831154D01*
X112683178Y-81943070D01*
X112718800Y-82052700D01*
X112753404Y-82159200D01*
X112850066Y-82338830D01*
X112861093Y-82359320D01*
X113002782Y-82536993D01*
X113092756Y-82615600D01*
X113173922Y-82686512D01*
X113369008Y-82803071D01*
X113402597Y-82815677D01*
X113458445Y-82857662D01*
X113482729Y-82923176D01*
X113467738Y-82991419D01*
X113418232Y-83040723D01*
X113412829Y-83043490D01*
X113268849Y-83112826D01*
X113268845Y-83112828D01*
X113085000Y-83246399D01*
X113084992Y-83246405D01*
X112927949Y-83410660D01*
X112802755Y-83600319D01*
X112758955Y-83702797D01*
X112744193Y-83737335D01*
X112713438Y-83809290D01*
X112713435Y-83809299D01*
X112662870Y-84030840D01*
X112662868Y-84030851D01*
X112657781Y-84144129D01*
X112652673Y-84257871D01*
X112668018Y-84371154D01*
X112683178Y-84483070D01*
X112718800Y-84592700D01*
X112753404Y-84699200D01*
X112850066Y-84878830D01*
X112861093Y-84899320D01*
X113002782Y-85076993D01*
X113092756Y-85155600D01*
X113173922Y-85226512D01*
X113369008Y-85343071D01*
X113402597Y-85355677D01*
X113458445Y-85397662D01*
X113482729Y-85463176D01*
X113467738Y-85531419D01*
X113418232Y-85580723D01*
X113412829Y-85583490D01*
X113268849Y-85652826D01*
X113268845Y-85652828D01*
X113085000Y-85786399D01*
X113084992Y-85786405D01*
X112927949Y-85950660D01*
X112802755Y-86140319D01*
X112773492Y-86208784D01*
X112744193Y-86277335D01*
X112713438Y-86349290D01*
X112713435Y-86349299D01*
X112662870Y-86570840D01*
X112662868Y-86570851D01*
X112657781Y-86684129D01*
X112652673Y-86797871D01*
X112668018Y-86911154D01*
X112683178Y-87023070D01*
X112728814Y-87163522D01*
X112753404Y-87239200D01*
X112850066Y-87418830D01*
X112861093Y-87439320D01*
X113002782Y-87616993D01*
X113092756Y-87695600D01*
X113173922Y-87766512D01*
X113369008Y-87883071D01*
X113402597Y-87895677D01*
X113458445Y-87937662D01*
X113482729Y-88003176D01*
X113467738Y-88071419D01*
X113418232Y-88120723D01*
X113412829Y-88123490D01*
X113268849Y-88192826D01*
X113268845Y-88192828D01*
X113085000Y-88326399D01*
X113084992Y-88326405D01*
X112927949Y-88490660D01*
X112802755Y-88680319D01*
X112801230Y-88683888D01*
X112744193Y-88817335D01*
X112713438Y-88889290D01*
X112713435Y-88889299D01*
X112662870Y-89110840D01*
X112662868Y-89110851D01*
X112652673Y-89337867D01*
X112652673Y-89337871D01*
X112668018Y-89451154D01*
X112683178Y-89563070D01*
X112702131Y-89621399D01*
X112753404Y-89779200D01*
X112850066Y-89958830D01*
X112861093Y-89979320D01*
X113002782Y-90156993D01*
X113092756Y-90235600D01*
X113173922Y-90306512D01*
X113369008Y-90423071D01*
X113402597Y-90435677D01*
X113458445Y-90477662D01*
X113482729Y-90543176D01*
X113467738Y-90611419D01*
X113418232Y-90660723D01*
X113412829Y-90663490D01*
X113268849Y-90732826D01*
X113268845Y-90732828D01*
X113085000Y-90866399D01*
X113084992Y-90866405D01*
X112927949Y-91030660D01*
X112802755Y-91220319D01*
X112758955Y-91322797D01*
X112744193Y-91357335D01*
X112713438Y-91429290D01*
X112713435Y-91429299D01*
X112662870Y-91650840D01*
X112662868Y-91650851D01*
X112657781Y-91764129D01*
X112652673Y-91877871D01*
X112668018Y-91991154D01*
X112683178Y-92103070D01*
X112718800Y-92212700D01*
X112753404Y-92319200D01*
X112850066Y-92498830D01*
X112861093Y-92519320D01*
X113002782Y-92696993D01*
X113092756Y-92775600D01*
X113173922Y-92846512D01*
X113369008Y-92963071D01*
X113402597Y-92975677D01*
X113458445Y-93017662D01*
X113482729Y-93083176D01*
X113467738Y-93151419D01*
X113418232Y-93200723D01*
X113412829Y-93203490D01*
X113268849Y-93272826D01*
X113268845Y-93272828D01*
X113085000Y-93406399D01*
X113084992Y-93406405D01*
X112927949Y-93570660D01*
X112802755Y-93760319D01*
X112758955Y-93862797D01*
X112744193Y-93897335D01*
X112713438Y-93969290D01*
X112713435Y-93969299D01*
X112662870Y-94190840D01*
X112662868Y-94190851D01*
X112657781Y-94304129D01*
X112652673Y-94417871D01*
X112668018Y-94531154D01*
X112683178Y-94643070D01*
X112718800Y-94752700D01*
X112753404Y-94859200D01*
X112850066Y-95038830D01*
X112861093Y-95059320D01*
X113002782Y-95236993D01*
X113092756Y-95315600D01*
X113173922Y-95386512D01*
X113369008Y-95503071D01*
X113402597Y-95515677D01*
X113458445Y-95557662D01*
X113482729Y-95623176D01*
X113467738Y-95691419D01*
X113418232Y-95740723D01*
X113412829Y-95743490D01*
X113268849Y-95812826D01*
X113268845Y-95812828D01*
X113085000Y-95946399D01*
X113084992Y-95946405D01*
X112927949Y-96110660D01*
X112802755Y-96300319D01*
X112758955Y-96402797D01*
X112744193Y-96437335D01*
X112713438Y-96509290D01*
X112713435Y-96509299D01*
X112662870Y-96730840D01*
X112662868Y-96730851D01*
X112657781Y-96844129D01*
X112652673Y-96957871D01*
X112668018Y-97071154D01*
X112683178Y-97183070D01*
X112718800Y-97292700D01*
X112753404Y-97399200D01*
X112850066Y-97578830D01*
X112861093Y-97599320D01*
X113002782Y-97776993D01*
X113092756Y-97855600D01*
X113173922Y-97926512D01*
X113369008Y-98043071D01*
X113402597Y-98055677D01*
X113458445Y-98097662D01*
X113482729Y-98163176D01*
X113467738Y-98231419D01*
X113418232Y-98280723D01*
X113412829Y-98283490D01*
X113268849Y-98352826D01*
X113268845Y-98352828D01*
X113085000Y-98486399D01*
X113084992Y-98486405D01*
X112927949Y-98650660D01*
X112802755Y-98840319D01*
X112747769Y-98968967D01*
X112744193Y-98977335D01*
X112713438Y-99049290D01*
X112713435Y-99049299D01*
X112662870Y-99270840D01*
X112662868Y-99270851D01*
X112652673Y-99497867D01*
X112652673Y-99497871D01*
X112668018Y-99611154D01*
X112683178Y-99723070D01*
X112715323Y-99822000D01*
X112753404Y-99939200D01*
X112860941Y-100139039D01*
X112861093Y-100139320D01*
X113002782Y-100316993D01*
X113092756Y-100395600D01*
X113173922Y-100466512D01*
X113278797Y-100529172D01*
X113368244Y-100582615D01*
X113369008Y-100583071D01*
X113402597Y-100595677D01*
X113458445Y-100637662D01*
X113482729Y-100703176D01*
X113467738Y-100771419D01*
X113418232Y-100820723D01*
X113412829Y-100823490D01*
X113268849Y-100892826D01*
X113268845Y-100892828D01*
X113085000Y-101026399D01*
X113084992Y-101026405D01*
X112927949Y-101190660D01*
X112802755Y-101380319D01*
X112758955Y-101482797D01*
X112744193Y-101517335D01*
X112713438Y-101589290D01*
X112713435Y-101589299D01*
X112662870Y-101810840D01*
X112662868Y-101810851D01*
X112657781Y-101924129D01*
X112652673Y-102037871D01*
X111176300Y-102037871D01*
X111176300Y-43056245D01*
X111176470Y-43049755D01*
X111186274Y-42862679D01*
X111192376Y-42746244D01*
X111193733Y-42733338D01*
X111213837Y-42606405D01*
X111240769Y-42436365D01*
X111243465Y-42423680D01*
X111321290Y-42133233D01*
X111325299Y-42120898D01*
X111433047Y-41840204D01*
X111433051Y-41840193D01*
X111438326Y-41828346D01*
X111574844Y-41560414D01*
X111581310Y-41549216D01*
X111745090Y-41297017D01*
X111752692Y-41286554D01*
X111941939Y-41052852D01*
X111950606Y-41043227D01*
X112163227Y-40830606D01*
X112172852Y-40821939D01*
X112406554Y-40632692D01*
X112417017Y-40625090D01*
X112669216Y-40461310D01*
X112680414Y-40454844D01*
X112948354Y-40318321D01*
X112960193Y-40313051D01*
X113240905Y-40205296D01*
X113253233Y-40201290D01*
X113543689Y-40123462D01*
X113556365Y-40120769D01*
X113853340Y-40073732D01*
X113866244Y-40072376D01*
X114169755Y-40056469D01*
X114176245Y-40056300D01*
X176202977Y-40056300D01*
X176202981Y-40056301D01*
G37*
%TD.AperFunction*%
%TD*%
M02*
