M48
; DRILL file {KiCad 7.0.10} date Mon 22 Jan 2024 09:54:39 PM EST
; FORMAT={-:-/ absolute / inch / decimal}
; #@! TF.CreationDate,2024-01-22T21:54:39-05:00
; #@! TF.GenerationSoftware,Kicad,Pcbnew,7.0.10
; #@! TF.FileFunction,MixedPlating,1,2
FMAT,2
INCH
; #@! TA.AperFunction,Plated,PTH,ViaDrill
T1C0.0157
; #@! TA.AperFunction,Plated,PTH,ComponentDrill
T2C0.0300
; #@! TA.AperFunction,Plated,PTH,ComponentDrill
T3C0.0315
; #@! TA.AperFunction,Plated,PTH,ComponentDrill
T4C0.0394
; #@! TA.AperFunction,Plated,PTH,ComponentDrill
T5C0.1260
%
G90
G05
T1
X5.81Y-3.415
X6.12Y-2.465
X6.12Y-2.61
X6.325Y-4.215
X6.33Y-3.975
X6.335Y-3.56
X6.335Y-3.8
X6.38Y-3.465
X6.39Y-2.465
X6.39Y-2.61
X6.555Y-3.465
X6.63Y-3.52
X6.695Y-3.57
X6.7Y-3.495
X6.71Y-3.96
X6.71Y-4.015
T2
X4.5Y-1.715
X4.5Y-1.815
X4.5Y-1.915
X4.5Y-2.015
X4.5Y-2.115
X4.5Y-2.215
X4.5Y-2.315
X4.5Y-2.415
X4.5Y-2.515
X4.5Y-2.615
X4.5Y-2.715
X4.5Y-2.815
X4.5Y-2.915
X4.5Y-3.015
X4.5Y-3.115
X4.5Y-3.215
X4.5Y-3.315
X4.5Y-3.415
X4.5Y-3.515
X4.5Y-3.615
X4.5Y-3.715
X4.5Y-3.815
X4.5Y-3.915
X4.5Y-4.015
X5.4Y-1.715
X5.4Y-1.815
X5.4Y-1.915
X5.4Y-2.015
X5.4Y-2.115
X5.4Y-2.215
X5.4Y-2.315
X5.4Y-2.415
X5.4Y-2.515
X5.4Y-2.615
X5.4Y-2.715
X5.4Y-2.815
X5.4Y-2.915
X5.4Y-3.015
X5.4Y-3.115
X5.4Y-3.215
X5.4Y-3.315
X5.4Y-3.415
X5.4Y-3.515
X5.4Y-3.615
X5.4Y-3.715
X5.4Y-3.815
X5.4Y-3.915
X5.4Y-4.015
T3
X5.845Y-2.725
X5.845Y-3.025
X6.445Y-2.725
X6.445Y-3.025
T4
X5.9256Y-1.9954
X5.9707Y-1.9175
X5.9707Y-2.0734
X6.0158Y-1.9954
X6.0609Y-1.9175
X6.0609Y-2.0734
X6.1059Y-1.9954
X6.151Y-1.9175
X6.151Y-2.0734
X6.1961Y-1.9954
X6.2412Y-1.9175
X6.2412Y-2.0734
X6.2863Y-1.9954
X6.3313Y-1.9175
X6.3313Y-2.0734
X6.6448Y-4.415
X6.7448Y-4.415
X6.89Y-2.515
X6.89Y-2.615
X6.89Y-2.715
X6.89Y-2.815
X6.89Y-2.915
X6.89Y-3.015
X6.89Y-3.115
X6.89Y-3.215
X6.89Y-3.315
X6.89Y-3.415
X6.89Y-3.515
X6.89Y-3.615
X6.89Y-3.715
X6.89Y-3.815
X6.89Y-3.915
X6.89Y-4.015
X6.89Y-4.115
X6.89Y-4.215
X6.89Y-4.315
X6.89Y-4.415
X6.99Y-2.515
X6.99Y-2.615
X6.99Y-2.715
X6.99Y-2.815
X6.99Y-2.915
X6.99Y-3.015
X6.99Y-3.115
X6.99Y-3.215
X6.99Y-3.315
X6.99Y-3.415
X6.99Y-3.515
X6.99Y-3.615
X6.99Y-3.715
X6.99Y-3.815
X6.99Y-3.915
X6.99Y-4.015
X6.99Y-4.115
X6.99Y-4.215
X6.99Y-4.315
X6.99Y-4.415
T5
X5.6485Y-2.0175
X6.6327Y-2.0175
M30
