%TF.GenerationSoftware,KiCad,Pcbnew,7.0.10*%
%TF.CreationDate,2024-01-21T15:51:14-05:00*%
%TF.ProjectId,jml-8-mini-vga,6a6d6c2d-382d-46d6-996e-692d7667612e,rev?*%
%TF.SameCoordinates,Original*%
%TF.FileFunction,Paste,Top*%
%TF.FilePolarity,Positive*%
%FSLAX46Y46*%
G04 Gerber Fmt 4.6, Leading zero omitted, Abs format (unit mm)*
G04 Created by KiCad (PCBNEW 7.0.10) date 2024-01-21 15:51:14*
%MOMM*%
%LPD*%
G01*
G04 APERTURE LIST*
G04 Aperture macros list*
%AMRoundRect*
0 Rectangle with rounded corners*
0 $1 Rounding radius*
0 $2 $3 $4 $5 $6 $7 $8 $9 X,Y pos of 4 corners*
0 Add a 4 corners polygon primitive as box body*
4,1,4,$2,$3,$4,$5,$6,$7,$8,$9,$2,$3,0*
0 Add four circle primitives for the rounded corners*
1,1,$1+$1,$2,$3*
1,1,$1+$1,$4,$5*
1,1,$1+$1,$6,$7*
1,1,$1+$1,$8,$9*
0 Add four rect primitives between the rounded corners*
20,1,$1+$1,$2,$3,$4,$5,0*
20,1,$1+$1,$4,$5,$6,$7,0*
20,1,$1+$1,$6,$7,$8,$9,0*
20,1,$1+$1,$8,$9,$2,$3,0*%
G04 Aperture macros list end*
%ADD10RoundRect,0.100000X0.637500X0.100000X-0.637500X0.100000X-0.637500X-0.100000X0.637500X-0.100000X0*%
%ADD11RoundRect,0.250000X0.450000X-0.350000X0.450000X0.350000X-0.450000X0.350000X-0.450000X-0.350000X0*%
G04 APERTURE END LIST*
D10*
%TO.C,U3*%
X168343500Y-110363000D03*
X168343500Y-109713000D03*
X168343500Y-109063000D03*
X168343500Y-108413000D03*
X168343500Y-107763000D03*
X168343500Y-107113000D03*
X168343500Y-106463000D03*
X168343500Y-105813000D03*
X168343500Y-105163000D03*
X168343500Y-104513000D03*
X168343500Y-103863000D03*
X168343500Y-103213000D03*
X162618500Y-103213000D03*
X162618500Y-103863000D03*
X162618500Y-104513000D03*
X162618500Y-105163000D03*
X162618500Y-105813000D03*
X162618500Y-106463000D03*
X162618500Y-107113000D03*
X162618500Y-107763000D03*
X162618500Y-108413000D03*
X162618500Y-109063000D03*
X162618500Y-109713000D03*
X162618500Y-110363000D03*
%TD*%
D11*
%TO.C,R7*%
X165735000Y-60309000D03*
X165735000Y-58309000D03*
%TD*%
%TO.C,R1*%
X142748000Y-60325000D03*
X142748000Y-58325000D03*
%TD*%
%TO.C,R5*%
X158877000Y-60309000D03*
X158877000Y-58309000D03*
%TD*%
%TO.C,R8*%
X169164000Y-60309000D03*
X169164000Y-58309000D03*
%TD*%
%TO.C,R2*%
X146101000Y-60325000D03*
X146101000Y-58325000D03*
%TD*%
%TO.C,R4*%
X155459000Y-60325000D03*
X155459000Y-58325000D03*
%TD*%
%TO.C,R6*%
X162306000Y-60309000D03*
X162306000Y-58309000D03*
%TD*%
%TO.C,R3*%
X152001000Y-60325000D03*
X152001000Y-58325000D03*
%TD*%
D10*
%TO.C,U2*%
X168343500Y-97682000D03*
X168343500Y-97032000D03*
X168343500Y-96382000D03*
X168343500Y-95732000D03*
X168343500Y-95082000D03*
X168343500Y-94432000D03*
X168343500Y-93782000D03*
X168343500Y-93132000D03*
X168343500Y-92482000D03*
X168343500Y-91832000D03*
X168343500Y-91182000D03*
X168343500Y-90532000D03*
X162618500Y-90532000D03*
X162618500Y-91182000D03*
X162618500Y-91832000D03*
X162618500Y-92482000D03*
X162618500Y-93132000D03*
X162618500Y-93782000D03*
X162618500Y-94432000D03*
X162618500Y-95082000D03*
X162618500Y-95732000D03*
X162618500Y-96382000D03*
X162618500Y-97032000D03*
X162618500Y-97682000D03*
%TD*%
M02*
