%TF.GenerationSoftware,KiCad,Pcbnew,7.0.8*%
%TF.CreationDate,2023-10-16T19:11:18-04:00*%
%TF.ProjectId,jml-8-mini,6a6d6c2d-382d-46d6-996e-692e6b696361,rev?*%
%TF.SameCoordinates,Original*%
%TF.FileFunction,Legend,Bot*%
%TF.FilePolarity,Positive*%
%FSLAX46Y46*%
G04 Gerber Fmt 4.6, Leading zero omitted, Abs format (unit mm)*
G04 Created by KiCad (PCBNEW 7.0.8) date 2023-10-16 19:11:18*
%MOMM*%
%LPD*%
G01*
G04 APERTURE LIST*
%ADD10C,0.152400*%
G04 APERTURE END LIST*
D10*
X176847500Y-51181000D02*
X178498500Y-51181000D01*
X174879000Y-53213000D02*
X174879000Y-50546000D01*
X171640500Y-50800000D02*
X171259500Y-51181000D01*
X178117500Y-51562000D02*
X178498500Y-51181000D01*
X171640500Y-51562000D02*
X171259500Y-51181000D01*
X178117500Y-50800000D02*
X178498500Y-51181000D01*
X172910500Y-51181000D02*
X171259500Y-51181000D01*
X202051735Y-60564358D02*
X202051735Y-59983786D01*
X202051735Y-60274072D02*
X201035735Y-60274072D01*
X201035735Y-60274072D02*
X201180878Y-60177310D01*
X201180878Y-60177310D02*
X201277640Y-60080548D01*
X201277640Y-60080548D02*
X201326021Y-59983786D01*
X201471164Y-61144929D02*
X201422783Y-61048167D01*
X201422783Y-61048167D02*
X201374402Y-60999786D01*
X201374402Y-60999786D02*
X201277640Y-60951405D01*
X201277640Y-60951405D02*
X201229259Y-60951405D01*
X201229259Y-60951405D02*
X201132497Y-60999786D01*
X201132497Y-60999786D02*
X201084116Y-61048167D01*
X201084116Y-61048167D02*
X201035735Y-61144929D01*
X201035735Y-61144929D02*
X201035735Y-61338453D01*
X201035735Y-61338453D02*
X201084116Y-61435215D01*
X201084116Y-61435215D02*
X201132497Y-61483596D01*
X201132497Y-61483596D02*
X201229259Y-61531977D01*
X201229259Y-61531977D02*
X201277640Y-61531977D01*
X201277640Y-61531977D02*
X201374402Y-61483596D01*
X201374402Y-61483596D02*
X201422783Y-61435215D01*
X201422783Y-61435215D02*
X201471164Y-61338453D01*
X201471164Y-61338453D02*
X201471164Y-61144929D01*
X201471164Y-61144929D02*
X201519545Y-61048167D01*
X201519545Y-61048167D02*
X201567926Y-60999786D01*
X201567926Y-60999786D02*
X201664688Y-60951405D01*
X201664688Y-60951405D02*
X201858212Y-60951405D01*
X201858212Y-60951405D02*
X201954974Y-60999786D01*
X201954974Y-60999786D02*
X202003355Y-61048167D01*
X202003355Y-61048167D02*
X202051735Y-61144929D01*
X202051735Y-61144929D02*
X202051735Y-61338453D01*
X202051735Y-61338453D02*
X202003355Y-61435215D01*
X202003355Y-61435215D02*
X201954974Y-61483596D01*
X201954974Y-61483596D02*
X201858212Y-61531977D01*
X201858212Y-61531977D02*
X201664688Y-61531977D01*
X201664688Y-61531977D02*
X201567926Y-61483596D01*
X201567926Y-61483596D02*
X201519545Y-61435215D01*
X201519545Y-61435215D02*
X201471164Y-61338453D01*
X173708308Y-51199926D02*
X173708308Y-51683735D01*
X174046975Y-50667735D02*
X173708308Y-51199926D01*
X173708308Y-51199926D02*
X173369641Y-50667735D01*
X153802264Y-85098594D02*
X153802264Y-84421260D01*
X153802264Y-84421260D02*
X152786264Y-84856689D01*
X153463597Y-83598784D02*
X152786264Y-83598784D01*
X153850645Y-83840689D02*
X153124930Y-84082594D01*
X153124930Y-84082594D02*
X153124930Y-83453641D01*
X152786264Y-82582784D02*
X152786264Y-83066594D01*
X152786264Y-83066594D02*
X153802264Y-83066594D01*
X152834645Y-82292499D02*
X152786264Y-82147356D01*
X152786264Y-82147356D02*
X152786264Y-81905451D01*
X152786264Y-81905451D02*
X152834645Y-81808689D01*
X152834645Y-81808689D02*
X152883025Y-81760308D01*
X152883025Y-81760308D02*
X152979787Y-81711927D01*
X152979787Y-81711927D02*
X153076549Y-81711927D01*
X153076549Y-81711927D02*
X153173311Y-81760308D01*
X153173311Y-81760308D02*
X153221692Y-81808689D01*
X153221692Y-81808689D02*
X153270073Y-81905451D01*
X153270073Y-81905451D02*
X153318454Y-82098975D01*
X153318454Y-82098975D02*
X153366835Y-82195737D01*
X153366835Y-82195737D02*
X153415216Y-82244118D01*
X153415216Y-82244118D02*
X153511978Y-82292499D01*
X153511978Y-82292499D02*
X153608740Y-82292499D01*
X153608740Y-82292499D02*
X153705502Y-82244118D01*
X153705502Y-82244118D02*
X153753883Y-82195737D01*
X153753883Y-82195737D02*
X153802264Y-82098975D01*
X153802264Y-82098975D02*
X153802264Y-81857070D01*
X153802264Y-81857070D02*
X153753883Y-81711927D01*
X153802264Y-81373261D02*
X153802264Y-80695927D01*
X153802264Y-80695927D02*
X152786264Y-81131356D01*
X153463597Y-79873451D02*
X152786264Y-79873451D01*
X153850645Y-80115356D02*
X153124930Y-80357261D01*
X153124930Y-80357261D02*
X153124930Y-79728308D01*
X218448594Y-112135735D02*
X217771260Y-112135735D01*
X217771260Y-112135735D02*
X218448594Y-113151735D01*
X218448594Y-113151735D02*
X217771260Y-113151735D01*
X216803641Y-113054974D02*
X216852022Y-113103355D01*
X216852022Y-113103355D02*
X216997165Y-113151735D01*
X216997165Y-113151735D02*
X217093927Y-113151735D01*
X217093927Y-113151735D02*
X217239070Y-113103355D01*
X217239070Y-113103355D02*
X217335832Y-113006593D01*
X217335832Y-113006593D02*
X217384213Y-112909831D01*
X217384213Y-112909831D02*
X217432594Y-112716307D01*
X217432594Y-112716307D02*
X217432594Y-112571164D01*
X217432594Y-112571164D02*
X217384213Y-112377640D01*
X217384213Y-112377640D02*
X217335832Y-112280878D01*
X217335832Y-112280878D02*
X217239070Y-112184116D01*
X217239070Y-112184116D02*
X217093927Y-112135735D01*
X217093927Y-112135735D02*
X216997165Y-112135735D01*
X216997165Y-112135735D02*
X216852022Y-112184116D01*
X216852022Y-112184116D02*
X216803641Y-112232497D01*
X216416594Y-112232497D02*
X216368213Y-112184116D01*
X216368213Y-112184116D02*
X216271451Y-112135735D01*
X216271451Y-112135735D02*
X216029546Y-112135735D01*
X216029546Y-112135735D02*
X215932784Y-112184116D01*
X215932784Y-112184116D02*
X215884403Y-112232497D01*
X215884403Y-112232497D02*
X215836022Y-112329259D01*
X215836022Y-112329259D02*
X215836022Y-112426021D01*
X215836022Y-112426021D02*
X215884403Y-112571164D01*
X215884403Y-112571164D02*
X216464975Y-113151735D01*
X216464975Y-113151735D02*
X215836022Y-113151735D01*
X136993213Y-124932497D02*
X136944832Y-124884116D01*
X136944832Y-124884116D02*
X136848070Y-124835735D01*
X136848070Y-124835735D02*
X136606165Y-124835735D01*
X136606165Y-124835735D02*
X136509403Y-124884116D01*
X136509403Y-124884116D02*
X136461022Y-124932497D01*
X136461022Y-124932497D02*
X136412641Y-125029259D01*
X136412641Y-125029259D02*
X136412641Y-125126021D01*
X136412641Y-125126021D02*
X136461022Y-125271164D01*
X136461022Y-125271164D02*
X137041594Y-125851735D01*
X137041594Y-125851735D02*
X136412641Y-125851735D01*
X135832070Y-125271164D02*
X135928832Y-125222783D01*
X135928832Y-125222783D02*
X135977213Y-125174402D01*
X135977213Y-125174402D02*
X136025594Y-125077640D01*
X136025594Y-125077640D02*
X136025594Y-125029259D01*
X136025594Y-125029259D02*
X135977213Y-124932497D01*
X135977213Y-124932497D02*
X135928832Y-124884116D01*
X135928832Y-124884116D02*
X135832070Y-124835735D01*
X135832070Y-124835735D02*
X135638546Y-124835735D01*
X135638546Y-124835735D02*
X135541784Y-124884116D01*
X135541784Y-124884116D02*
X135493403Y-124932497D01*
X135493403Y-124932497D02*
X135445022Y-125029259D01*
X135445022Y-125029259D02*
X135445022Y-125077640D01*
X135445022Y-125077640D02*
X135493403Y-125174402D01*
X135493403Y-125174402D02*
X135541784Y-125222783D01*
X135541784Y-125222783D02*
X135638546Y-125271164D01*
X135638546Y-125271164D02*
X135832070Y-125271164D01*
X135832070Y-125271164D02*
X135928832Y-125319545D01*
X135928832Y-125319545D02*
X135977213Y-125367926D01*
X135977213Y-125367926D02*
X136025594Y-125464688D01*
X136025594Y-125464688D02*
X136025594Y-125658212D01*
X136025594Y-125658212D02*
X135977213Y-125754974D01*
X135977213Y-125754974D02*
X135928832Y-125803355D01*
X135928832Y-125803355D02*
X135832070Y-125851735D01*
X135832070Y-125851735D02*
X135638546Y-125851735D01*
X135638546Y-125851735D02*
X135541784Y-125803355D01*
X135541784Y-125803355D02*
X135493403Y-125754974D01*
X135493403Y-125754974D02*
X135445022Y-125658212D01*
X135445022Y-125658212D02*
X135445022Y-125464688D01*
X135445022Y-125464688D02*
X135493403Y-125367926D01*
X135493403Y-125367926D02*
X135541784Y-125319545D01*
X135541784Y-125319545D02*
X135638546Y-125271164D01*
X135009594Y-125851735D02*
X135009594Y-124835735D01*
X135009594Y-125319545D02*
X134429022Y-125319545D01*
X134429022Y-125851735D02*
X134429022Y-124835735D01*
X133364641Y-125754974D02*
X133413022Y-125803355D01*
X133413022Y-125803355D02*
X133558165Y-125851735D01*
X133558165Y-125851735D02*
X133654927Y-125851735D01*
X133654927Y-125851735D02*
X133800070Y-125803355D01*
X133800070Y-125803355D02*
X133896832Y-125706593D01*
X133896832Y-125706593D02*
X133945213Y-125609831D01*
X133945213Y-125609831D02*
X133993594Y-125416307D01*
X133993594Y-125416307D02*
X133993594Y-125271164D01*
X133993594Y-125271164D02*
X133945213Y-125077640D01*
X133945213Y-125077640D02*
X133896832Y-124980878D01*
X133896832Y-124980878D02*
X133800070Y-124884116D01*
X133800070Y-124884116D02*
X133654927Y-124835735D01*
X133654927Y-124835735D02*
X133558165Y-124835735D01*
X133558165Y-124835735D02*
X133413022Y-124884116D01*
X133413022Y-124884116D02*
X133364641Y-124932497D01*
X132493784Y-124835735D02*
X132687308Y-124835735D01*
X132687308Y-124835735D02*
X132784070Y-124884116D01*
X132784070Y-124884116D02*
X132832451Y-124932497D01*
X132832451Y-124932497D02*
X132929213Y-125077640D01*
X132929213Y-125077640D02*
X132977594Y-125271164D01*
X132977594Y-125271164D02*
X132977594Y-125658212D01*
X132977594Y-125658212D02*
X132929213Y-125754974D01*
X132929213Y-125754974D02*
X132880832Y-125803355D01*
X132880832Y-125803355D02*
X132784070Y-125851735D01*
X132784070Y-125851735D02*
X132590546Y-125851735D01*
X132590546Y-125851735D02*
X132493784Y-125803355D01*
X132493784Y-125803355D02*
X132445403Y-125754974D01*
X132445403Y-125754974D02*
X132397022Y-125658212D01*
X132397022Y-125658212D02*
X132397022Y-125416307D01*
X132397022Y-125416307D02*
X132445403Y-125319545D01*
X132445403Y-125319545D02*
X132493784Y-125271164D01*
X132493784Y-125271164D02*
X132590546Y-125222783D01*
X132590546Y-125222783D02*
X132784070Y-125222783D01*
X132784070Y-125222783D02*
X132880832Y-125271164D01*
X132880832Y-125271164D02*
X132929213Y-125319545D01*
X132929213Y-125319545D02*
X132977594Y-125416307D01*
X131526165Y-125174402D02*
X131526165Y-125851735D01*
X131768070Y-124787355D02*
X132009975Y-125513069D01*
X132009975Y-125513069D02*
X131381022Y-125513069D01*
X209207832Y-115691735D02*
X209207832Y-114675735D01*
X209207832Y-114675735D02*
X208965927Y-114675735D01*
X208965927Y-114675735D02*
X208820784Y-114724116D01*
X208820784Y-114724116D02*
X208724022Y-114820878D01*
X208724022Y-114820878D02*
X208675641Y-114917640D01*
X208675641Y-114917640D02*
X208627260Y-115111164D01*
X208627260Y-115111164D02*
X208627260Y-115256307D01*
X208627260Y-115256307D02*
X208675641Y-115449831D01*
X208675641Y-115449831D02*
X208724022Y-115546593D01*
X208724022Y-115546593D02*
X208820784Y-115643355D01*
X208820784Y-115643355D02*
X208965927Y-115691735D01*
X208965927Y-115691735D02*
X209207832Y-115691735D01*
X208336975Y-114675735D02*
X207756403Y-114675735D01*
X208046689Y-115691735D02*
X208046689Y-114675735D01*
X206837165Y-115691735D02*
X207175832Y-115207926D01*
X207417737Y-115691735D02*
X207417737Y-114675735D01*
X207417737Y-114675735D02*
X207030689Y-114675735D01*
X207030689Y-114675735D02*
X206933927Y-114724116D01*
X206933927Y-114724116D02*
X206885546Y-114772497D01*
X206885546Y-114772497D02*
X206837165Y-114869259D01*
X206837165Y-114869259D02*
X206837165Y-115014402D01*
X206837165Y-115014402D02*
X206885546Y-115111164D01*
X206885546Y-115111164D02*
X206933927Y-115159545D01*
X206933927Y-115159545D02*
X207030689Y-115207926D01*
X207030689Y-115207926D02*
X207417737Y-115207926D01*
X209348137Y-114393675D02*
X206745242Y-114393675D01*
X208699832Y-100451735D02*
X208699832Y-99435735D01*
X208216022Y-99919545D02*
X207877355Y-99919545D01*
X207732212Y-100451735D02*
X208216022Y-100451735D01*
X208216022Y-100451735D02*
X208216022Y-99435735D01*
X208216022Y-99435735D02*
X207732212Y-99435735D01*
X207103260Y-99435735D02*
X206909736Y-99435735D01*
X206909736Y-99435735D02*
X206812974Y-99484116D01*
X206812974Y-99484116D02*
X206716212Y-99580878D01*
X206716212Y-99580878D02*
X206667831Y-99774402D01*
X206667831Y-99774402D02*
X206667831Y-100113069D01*
X206667831Y-100113069D02*
X206716212Y-100306593D01*
X206716212Y-100306593D02*
X206812974Y-100403355D01*
X206812974Y-100403355D02*
X206909736Y-100451735D01*
X206909736Y-100451735D02*
X207103260Y-100451735D01*
X207103260Y-100451735D02*
X207200022Y-100403355D01*
X207200022Y-100403355D02*
X207296784Y-100306593D01*
X207296784Y-100306593D02*
X207345165Y-100113069D01*
X207345165Y-100113069D02*
X207345165Y-99774402D01*
X207345165Y-99774402D02*
X207296784Y-99580878D01*
X207296784Y-99580878D02*
X207200022Y-99484116D01*
X207200022Y-99484116D02*
X207103260Y-99435735D01*
X178186264Y-85225594D02*
X178186264Y-84548260D01*
X178186264Y-84548260D02*
X177170264Y-84983689D01*
X177847597Y-83725784D02*
X177170264Y-83725784D01*
X178234645Y-83967689D02*
X177508930Y-84209594D01*
X177508930Y-84209594D02*
X177508930Y-83580641D01*
X177170264Y-82709784D02*
X177170264Y-83193594D01*
X177170264Y-83193594D02*
X178186264Y-83193594D01*
X177218645Y-82419499D02*
X177170264Y-82274356D01*
X177170264Y-82274356D02*
X177170264Y-82032451D01*
X177170264Y-82032451D02*
X177218645Y-81935689D01*
X177218645Y-81935689D02*
X177267025Y-81887308D01*
X177267025Y-81887308D02*
X177363787Y-81838927D01*
X177363787Y-81838927D02*
X177460549Y-81838927D01*
X177460549Y-81838927D02*
X177557311Y-81887308D01*
X177557311Y-81887308D02*
X177605692Y-81935689D01*
X177605692Y-81935689D02*
X177654073Y-82032451D01*
X177654073Y-82032451D02*
X177702454Y-82225975D01*
X177702454Y-82225975D02*
X177750835Y-82322737D01*
X177750835Y-82322737D02*
X177799216Y-82371118D01*
X177799216Y-82371118D02*
X177895978Y-82419499D01*
X177895978Y-82419499D02*
X177992740Y-82419499D01*
X177992740Y-82419499D02*
X178089502Y-82371118D01*
X178089502Y-82371118D02*
X178137883Y-82322737D01*
X178137883Y-82322737D02*
X178186264Y-82225975D01*
X178186264Y-82225975D02*
X178186264Y-81984070D01*
X178186264Y-81984070D02*
X178137883Y-81838927D01*
X177170264Y-80871308D02*
X177170264Y-81451880D01*
X177170264Y-81161594D02*
X178186264Y-81161594D01*
X178186264Y-81161594D02*
X178041121Y-81258356D01*
X178041121Y-81258356D02*
X177944359Y-81355118D01*
X177944359Y-81355118D02*
X177895978Y-81451880D01*
X178186264Y-80532642D02*
X178186264Y-79903689D01*
X178186264Y-79903689D02*
X177799216Y-80242356D01*
X177799216Y-80242356D02*
X177799216Y-80097213D01*
X177799216Y-80097213D02*
X177750835Y-80000451D01*
X177750835Y-80000451D02*
X177702454Y-79952070D01*
X177702454Y-79952070D02*
X177605692Y-79903689D01*
X177605692Y-79903689D02*
X177363787Y-79903689D01*
X177363787Y-79903689D02*
X177267025Y-79952070D01*
X177267025Y-79952070D02*
X177218645Y-80000451D01*
X177218645Y-80000451D02*
X177170264Y-80097213D01*
X177170264Y-80097213D02*
X177170264Y-80387499D01*
X177170264Y-80387499D02*
X177218645Y-80484261D01*
X177218645Y-80484261D02*
X177267025Y-80532642D01*
X177170264Y-79419880D02*
X177170264Y-79226356D01*
X177170264Y-79226356D02*
X177218645Y-79129594D01*
X177218645Y-79129594D02*
X177267025Y-79081213D01*
X177267025Y-79081213D02*
X177412168Y-78984451D01*
X177412168Y-78984451D02*
X177605692Y-78936070D01*
X177605692Y-78936070D02*
X177992740Y-78936070D01*
X177992740Y-78936070D02*
X178089502Y-78984451D01*
X178089502Y-78984451D02*
X178137883Y-79032832D01*
X178137883Y-79032832D02*
X178186264Y-79129594D01*
X178186264Y-79129594D02*
X178186264Y-79323118D01*
X178186264Y-79323118D02*
X178137883Y-79419880D01*
X178137883Y-79419880D02*
X178089502Y-79468261D01*
X178089502Y-79468261D02*
X177992740Y-79516642D01*
X177992740Y-79516642D02*
X177750835Y-79516642D01*
X177750835Y-79516642D02*
X177654073Y-79468261D01*
X177654073Y-79468261D02*
X177605692Y-79419880D01*
X177605692Y-79419880D02*
X177557311Y-79323118D01*
X177557311Y-79323118D02*
X177557311Y-79129594D01*
X177557311Y-79129594D02*
X177605692Y-79032832D01*
X177605692Y-79032832D02*
X177654073Y-78984451D01*
X177654073Y-78984451D02*
X177750835Y-78936070D01*
X214596260Y-71271974D02*
X214644641Y-71320355D01*
X214644641Y-71320355D02*
X214789784Y-71368735D01*
X214789784Y-71368735D02*
X214886546Y-71368735D01*
X214886546Y-71368735D02*
X215031689Y-71320355D01*
X215031689Y-71320355D02*
X215128451Y-71223593D01*
X215128451Y-71223593D02*
X215176832Y-71126831D01*
X215176832Y-71126831D02*
X215225213Y-70933307D01*
X215225213Y-70933307D02*
X215225213Y-70788164D01*
X215225213Y-70788164D02*
X215176832Y-70594640D01*
X215176832Y-70594640D02*
X215128451Y-70497878D01*
X215128451Y-70497878D02*
X215031689Y-70401116D01*
X215031689Y-70401116D02*
X214886546Y-70352735D01*
X214886546Y-70352735D02*
X214789784Y-70352735D01*
X214789784Y-70352735D02*
X214644641Y-70401116D01*
X214644641Y-70401116D02*
X214596260Y-70449497D01*
X214160832Y-71368735D02*
X214160832Y-70352735D01*
X214160832Y-70352735D02*
X213918927Y-70352735D01*
X213918927Y-70352735D02*
X213773784Y-70401116D01*
X213773784Y-70401116D02*
X213677022Y-70497878D01*
X213677022Y-70497878D02*
X213628641Y-70594640D01*
X213628641Y-70594640D02*
X213580260Y-70788164D01*
X213580260Y-70788164D02*
X213580260Y-70933307D01*
X213580260Y-70933307D02*
X213628641Y-71126831D01*
X213628641Y-71126831D02*
X213677022Y-71223593D01*
X213677022Y-71223593D02*
X213773784Y-71320355D01*
X213773784Y-71320355D02*
X213918927Y-71368735D01*
X213918927Y-71368735D02*
X214160832Y-71368735D01*
X213241594Y-70352735D02*
X212564260Y-70352735D01*
X212564260Y-70352735D02*
X212999689Y-71368735D01*
X211741784Y-70691402D02*
X211741784Y-71368735D01*
X211983689Y-70304355D02*
X212225594Y-71030069D01*
X212225594Y-71030069D02*
X211596641Y-71030069D01*
X211209594Y-71368735D02*
X211209594Y-70352735D01*
X211209594Y-70836545D02*
X210629022Y-70836545D01*
X210629022Y-71368735D02*
X210629022Y-70352735D01*
X209564641Y-71271974D02*
X209613022Y-71320355D01*
X209613022Y-71320355D02*
X209758165Y-71368735D01*
X209758165Y-71368735D02*
X209854927Y-71368735D01*
X209854927Y-71368735D02*
X210000070Y-71320355D01*
X210000070Y-71320355D02*
X210096832Y-71223593D01*
X210096832Y-71223593D02*
X210145213Y-71126831D01*
X210145213Y-71126831D02*
X210193594Y-70933307D01*
X210193594Y-70933307D02*
X210193594Y-70788164D01*
X210193594Y-70788164D02*
X210145213Y-70594640D01*
X210145213Y-70594640D02*
X210096832Y-70497878D01*
X210096832Y-70497878D02*
X210000070Y-70401116D01*
X210000070Y-70401116D02*
X209854927Y-70352735D01*
X209854927Y-70352735D02*
X209758165Y-70352735D01*
X209758165Y-70352735D02*
X209613022Y-70401116D01*
X209613022Y-70401116D02*
X209564641Y-70449497D01*
X209274356Y-70352735D02*
X208693784Y-70352735D01*
X208984070Y-71368735D02*
X208984070Y-70352735D01*
X207919689Y-70691402D02*
X207919689Y-71368735D01*
X208161594Y-70304355D02*
X208403499Y-71030069D01*
X208403499Y-71030069D02*
X207774546Y-71030069D01*
X206903689Y-70352735D02*
X207387499Y-70352735D01*
X207387499Y-70352735D02*
X207435880Y-70836545D01*
X207435880Y-70836545D02*
X207387499Y-70788164D01*
X207387499Y-70788164D02*
X207290737Y-70739783D01*
X207290737Y-70739783D02*
X207048832Y-70739783D01*
X207048832Y-70739783D02*
X206952070Y-70788164D01*
X206952070Y-70788164D02*
X206903689Y-70836545D01*
X206903689Y-70836545D02*
X206855308Y-70933307D01*
X206855308Y-70933307D02*
X206855308Y-71175212D01*
X206855308Y-71175212D02*
X206903689Y-71271974D01*
X206903689Y-71271974D02*
X206952070Y-71320355D01*
X206952070Y-71320355D02*
X207048832Y-71368735D01*
X207048832Y-71368735D02*
X207290737Y-71368735D01*
X207290737Y-71368735D02*
X207387499Y-71320355D01*
X207387499Y-71320355D02*
X207435880Y-71271974D01*
X205887689Y-71368735D02*
X206468261Y-71368735D01*
X206177975Y-71368735D02*
X206177975Y-70352735D01*
X206177975Y-70352735D02*
X206274737Y-70497878D01*
X206274737Y-70497878D02*
X206371499Y-70594640D01*
X206371499Y-70594640D02*
X206468261Y-70643021D01*
X205016832Y-70691402D02*
X205016832Y-71368735D01*
X205258737Y-70304355D02*
X205500642Y-71030069D01*
X205500642Y-71030069D02*
X204871689Y-71030069D01*
X204484642Y-70836545D02*
X204145975Y-70836545D01*
X204000832Y-71368735D02*
X204484642Y-71368735D01*
X204484642Y-71368735D02*
X204484642Y-70352735D01*
X204484642Y-70352735D02*
X204000832Y-70352735D01*
X202051735Y-52055358D02*
X202051735Y-51474786D01*
X202051735Y-51765072D02*
X201035735Y-51765072D01*
X201035735Y-51765072D02*
X201180878Y-51668310D01*
X201180878Y-51668310D02*
X201277640Y-51571548D01*
X201277640Y-51571548D02*
X201326021Y-51474786D01*
X201374402Y-52926215D02*
X202051735Y-52926215D01*
X200987355Y-52684310D02*
X201713069Y-52442405D01*
X201713069Y-52442405D02*
X201713069Y-53071358D01*
X209671735Y-52055358D02*
X209671735Y-51474786D01*
X209671735Y-51765072D02*
X208655735Y-51765072D01*
X208655735Y-51765072D02*
X208800878Y-51668310D01*
X208800878Y-51668310D02*
X208897640Y-51571548D01*
X208897640Y-51571548D02*
X208946021Y-51474786D01*
X208752497Y-52442405D02*
X208704116Y-52490786D01*
X208704116Y-52490786D02*
X208655735Y-52587548D01*
X208655735Y-52587548D02*
X208655735Y-52829453D01*
X208655735Y-52829453D02*
X208704116Y-52926215D01*
X208704116Y-52926215D02*
X208752497Y-52974596D01*
X208752497Y-52974596D02*
X208849259Y-53022977D01*
X208849259Y-53022977D02*
X208946021Y-53022977D01*
X208946021Y-53022977D02*
X209091164Y-52974596D01*
X209091164Y-52974596D02*
X209671735Y-52394024D01*
X209671735Y-52394024D02*
X209671735Y-53022977D01*
X128645735Y-60310358D02*
X128645735Y-59729786D01*
X128645735Y-60020072D02*
X127629735Y-60020072D01*
X127629735Y-60020072D02*
X127774878Y-59923310D01*
X127774878Y-59923310D02*
X127871640Y-59826548D01*
X127871640Y-59826548D02*
X127920021Y-59729786D01*
X158710213Y-109692497D02*
X158661832Y-109644116D01*
X158661832Y-109644116D02*
X158565070Y-109595735D01*
X158565070Y-109595735D02*
X158323165Y-109595735D01*
X158323165Y-109595735D02*
X158226403Y-109644116D01*
X158226403Y-109644116D02*
X158178022Y-109692497D01*
X158178022Y-109692497D02*
X158129641Y-109789259D01*
X158129641Y-109789259D02*
X158129641Y-109886021D01*
X158129641Y-109886021D02*
X158178022Y-110031164D01*
X158178022Y-110031164D02*
X158758594Y-110611735D01*
X158758594Y-110611735D02*
X158129641Y-110611735D01*
X157162022Y-110611735D02*
X157742594Y-110611735D01*
X157452308Y-110611735D02*
X157452308Y-109595735D01*
X157452308Y-109595735D02*
X157549070Y-109740878D01*
X157549070Y-109740878D02*
X157645832Y-109837640D01*
X157645832Y-109837640D02*
X157742594Y-109886021D01*
X210272213Y-105483355D02*
X210127070Y-105531735D01*
X210127070Y-105531735D02*
X209885165Y-105531735D01*
X209885165Y-105531735D02*
X209788403Y-105483355D01*
X209788403Y-105483355D02*
X209740022Y-105434974D01*
X209740022Y-105434974D02*
X209691641Y-105338212D01*
X209691641Y-105338212D02*
X209691641Y-105241450D01*
X209691641Y-105241450D02*
X209740022Y-105144688D01*
X209740022Y-105144688D02*
X209788403Y-105096307D01*
X209788403Y-105096307D02*
X209885165Y-105047926D01*
X209885165Y-105047926D02*
X210078689Y-104999545D01*
X210078689Y-104999545D02*
X210175451Y-104951164D01*
X210175451Y-104951164D02*
X210223832Y-104902783D01*
X210223832Y-104902783D02*
X210272213Y-104806021D01*
X210272213Y-104806021D02*
X210272213Y-104709259D01*
X210272213Y-104709259D02*
X210223832Y-104612497D01*
X210223832Y-104612497D02*
X210175451Y-104564116D01*
X210175451Y-104564116D02*
X210078689Y-104515735D01*
X210078689Y-104515735D02*
X209836784Y-104515735D01*
X209836784Y-104515735D02*
X209691641Y-104564116D01*
X209062689Y-105047926D02*
X209062689Y-105531735D01*
X209401356Y-104515735D02*
X209062689Y-105047926D01*
X209062689Y-105047926D02*
X208724022Y-104515735D01*
X208385356Y-105531735D02*
X208385356Y-104515735D01*
X208385356Y-104515735D02*
X207804784Y-105531735D01*
X207804784Y-105531735D02*
X207804784Y-104515735D01*
X206740403Y-105434974D02*
X206788784Y-105483355D01*
X206788784Y-105483355D02*
X206933927Y-105531735D01*
X206933927Y-105531735D02*
X207030689Y-105531735D01*
X207030689Y-105531735D02*
X207175832Y-105483355D01*
X207175832Y-105483355D02*
X207272594Y-105386593D01*
X207272594Y-105386593D02*
X207320975Y-105289831D01*
X207320975Y-105289831D02*
X207369356Y-105096307D01*
X207369356Y-105096307D02*
X207369356Y-104951164D01*
X207369356Y-104951164D02*
X207320975Y-104757640D01*
X207320975Y-104757640D02*
X207272594Y-104660878D01*
X207272594Y-104660878D02*
X207175832Y-104564116D01*
X207175832Y-104564116D02*
X207030689Y-104515735D01*
X207030689Y-104515735D02*
X206933927Y-104515735D01*
X206933927Y-104515735D02*
X206788784Y-104564116D01*
X206788784Y-104564116D02*
X206740403Y-104612497D01*
X210364137Y-104233675D02*
X206648480Y-104233675D01*
X188101641Y-77591735D02*
X188682213Y-77591735D01*
X188391927Y-77591735D02*
X188391927Y-76575735D01*
X188391927Y-76575735D02*
X188488689Y-76720878D01*
X188488689Y-76720878D02*
X188585451Y-76817640D01*
X188585451Y-76817640D02*
X188682213Y-76866021D01*
X177506213Y-109692497D02*
X177457832Y-109644116D01*
X177457832Y-109644116D02*
X177361070Y-109595735D01*
X177361070Y-109595735D02*
X177119165Y-109595735D01*
X177119165Y-109595735D02*
X177022403Y-109644116D01*
X177022403Y-109644116D02*
X176974022Y-109692497D01*
X176974022Y-109692497D02*
X176925641Y-109789259D01*
X176925641Y-109789259D02*
X176925641Y-109886021D01*
X176925641Y-109886021D02*
X176974022Y-110031164D01*
X176974022Y-110031164D02*
X177554594Y-110611735D01*
X177554594Y-110611735D02*
X176925641Y-110611735D01*
X175958022Y-110611735D02*
X176538594Y-110611735D01*
X176248308Y-110611735D02*
X176248308Y-109595735D01*
X176248308Y-109595735D02*
X176345070Y-109740878D01*
X176345070Y-109740878D02*
X176441832Y-109837640D01*
X176441832Y-109837640D02*
X176538594Y-109886021D01*
X147207641Y-92831735D02*
X147788213Y-92831735D01*
X147497927Y-92831735D02*
X147497927Y-91815735D01*
X147497927Y-91815735D02*
X147594689Y-91960878D01*
X147594689Y-91960878D02*
X147691451Y-92057640D01*
X147691451Y-92057640D02*
X147788213Y-92106021D01*
X177179641Y-66923735D02*
X177760213Y-66923735D01*
X177469927Y-66923735D02*
X177469927Y-65907735D01*
X177469927Y-65907735D02*
X177566689Y-66052878D01*
X177566689Y-66052878D02*
X177663451Y-66149640D01*
X177663451Y-66149640D02*
X177760213Y-66198021D01*
X191891735Y-52055358D02*
X191891735Y-51474786D01*
X191891735Y-51765072D02*
X190875735Y-51765072D01*
X190875735Y-51765072D02*
X191020878Y-51668310D01*
X191020878Y-51668310D02*
X191117640Y-51571548D01*
X191117640Y-51571548D02*
X191166021Y-51474786D01*
X190875735Y-52684310D02*
X190875735Y-52781072D01*
X190875735Y-52781072D02*
X190924116Y-52877834D01*
X190924116Y-52877834D02*
X190972497Y-52926215D01*
X190972497Y-52926215D02*
X191069259Y-52974596D01*
X191069259Y-52974596D02*
X191262783Y-53022977D01*
X191262783Y-53022977D02*
X191504688Y-53022977D01*
X191504688Y-53022977D02*
X191698212Y-52974596D01*
X191698212Y-52974596D02*
X191794974Y-52926215D01*
X191794974Y-52926215D02*
X191843355Y-52877834D01*
X191843355Y-52877834D02*
X191891735Y-52781072D01*
X191891735Y-52781072D02*
X191891735Y-52684310D01*
X191891735Y-52684310D02*
X191843355Y-52587548D01*
X191843355Y-52587548D02*
X191794974Y-52539167D01*
X191794974Y-52539167D02*
X191698212Y-52490786D01*
X191698212Y-52490786D02*
X191504688Y-52442405D01*
X191504688Y-52442405D02*
X191262783Y-52442405D01*
X191262783Y-52442405D02*
X191069259Y-52490786D01*
X191069259Y-52490786D02*
X190972497Y-52539167D01*
X190972497Y-52539167D02*
X190924116Y-52587548D01*
X190924116Y-52587548D02*
X190875735Y-52684310D01*
X196391164Y-52684310D02*
X196342783Y-52587548D01*
X196342783Y-52587548D02*
X196294402Y-52539167D01*
X196294402Y-52539167D02*
X196197640Y-52490786D01*
X196197640Y-52490786D02*
X196149259Y-52490786D01*
X196149259Y-52490786D02*
X196052497Y-52539167D01*
X196052497Y-52539167D02*
X196004116Y-52587548D01*
X196004116Y-52587548D02*
X195955735Y-52684310D01*
X195955735Y-52684310D02*
X195955735Y-52877834D01*
X195955735Y-52877834D02*
X196004116Y-52974596D01*
X196004116Y-52974596D02*
X196052497Y-53022977D01*
X196052497Y-53022977D02*
X196149259Y-53071358D01*
X196149259Y-53071358D02*
X196197640Y-53071358D01*
X196197640Y-53071358D02*
X196294402Y-53022977D01*
X196294402Y-53022977D02*
X196342783Y-52974596D01*
X196342783Y-52974596D02*
X196391164Y-52877834D01*
X196391164Y-52877834D02*
X196391164Y-52684310D01*
X196391164Y-52684310D02*
X196439545Y-52587548D01*
X196439545Y-52587548D02*
X196487926Y-52539167D01*
X196487926Y-52539167D02*
X196584688Y-52490786D01*
X196584688Y-52490786D02*
X196778212Y-52490786D01*
X196778212Y-52490786D02*
X196874974Y-52539167D01*
X196874974Y-52539167D02*
X196923355Y-52587548D01*
X196923355Y-52587548D02*
X196971735Y-52684310D01*
X196971735Y-52684310D02*
X196971735Y-52877834D01*
X196971735Y-52877834D02*
X196923355Y-52974596D01*
X196923355Y-52974596D02*
X196874974Y-53022977D01*
X196874974Y-53022977D02*
X196778212Y-53071358D01*
X196778212Y-53071358D02*
X196584688Y-53071358D01*
X196584688Y-53071358D02*
X196487926Y-53022977D01*
X196487926Y-53022977D02*
X196439545Y-52974596D01*
X196439545Y-52974596D02*
X196391164Y-52877834D01*
X217208832Y-115691735D02*
X217208832Y-114675735D01*
X216725022Y-115159545D02*
X216386355Y-115159545D01*
X216241212Y-115691735D02*
X216725022Y-115691735D01*
X216725022Y-115691735D02*
X216725022Y-114675735D01*
X216725022Y-114675735D02*
X216241212Y-114675735D01*
X215805784Y-115691735D02*
X215805784Y-114675735D01*
X165475735Y-52732691D02*
X165475735Y-52829453D01*
X165475735Y-52829453D02*
X165524116Y-52926215D01*
X165524116Y-52926215D02*
X165572497Y-52974596D01*
X165572497Y-52974596D02*
X165669259Y-53022977D01*
X165669259Y-53022977D02*
X165862783Y-53071358D01*
X165862783Y-53071358D02*
X166104688Y-53071358D01*
X166104688Y-53071358D02*
X166298212Y-53022977D01*
X166298212Y-53022977D02*
X166394974Y-52974596D01*
X166394974Y-52974596D02*
X166443355Y-52926215D01*
X166443355Y-52926215D02*
X166491735Y-52829453D01*
X166491735Y-52829453D02*
X166491735Y-52732691D01*
X166491735Y-52732691D02*
X166443355Y-52635929D01*
X166443355Y-52635929D02*
X166394974Y-52587548D01*
X166394974Y-52587548D02*
X166298212Y-52539167D01*
X166298212Y-52539167D02*
X166104688Y-52490786D01*
X166104688Y-52490786D02*
X165862783Y-52490786D01*
X165862783Y-52490786D02*
X165669259Y-52539167D01*
X165669259Y-52539167D02*
X165572497Y-52587548D01*
X165572497Y-52587548D02*
X165524116Y-52635929D01*
X165524116Y-52635929D02*
X165475735Y-52732691D01*
X206212497Y-52490786D02*
X206164116Y-52539167D01*
X206164116Y-52539167D02*
X206115735Y-52635929D01*
X206115735Y-52635929D02*
X206115735Y-52877834D01*
X206115735Y-52877834D02*
X206164116Y-52974596D01*
X206164116Y-52974596D02*
X206212497Y-53022977D01*
X206212497Y-53022977D02*
X206309259Y-53071358D01*
X206309259Y-53071358D02*
X206406021Y-53071358D01*
X206406021Y-53071358D02*
X206551164Y-53022977D01*
X206551164Y-53022977D02*
X207131735Y-52442405D01*
X207131735Y-52442405D02*
X207131735Y-53071358D01*
X208500260Y-108071735D02*
X208838927Y-107587926D01*
X209080832Y-108071735D02*
X209080832Y-107055735D01*
X209080832Y-107055735D02*
X208693784Y-107055735D01*
X208693784Y-107055735D02*
X208597022Y-107104116D01*
X208597022Y-107104116D02*
X208548641Y-107152497D01*
X208548641Y-107152497D02*
X208500260Y-107249259D01*
X208500260Y-107249259D02*
X208500260Y-107394402D01*
X208500260Y-107394402D02*
X208548641Y-107491164D01*
X208548641Y-107491164D02*
X208597022Y-107539545D01*
X208597022Y-107539545D02*
X208693784Y-107587926D01*
X208693784Y-107587926D02*
X209080832Y-107587926D01*
X208161594Y-108071735D02*
X207629403Y-107394402D01*
X208161594Y-107394402D02*
X207629403Y-108071735D01*
X207242356Y-108071735D02*
X207242356Y-107055735D01*
X207242356Y-107055735D02*
X207000451Y-107055735D01*
X207000451Y-107055735D02*
X206855308Y-107104116D01*
X206855308Y-107104116D02*
X206758546Y-107200878D01*
X206758546Y-107200878D02*
X206710165Y-107297640D01*
X206710165Y-107297640D02*
X206661784Y-107491164D01*
X206661784Y-107491164D02*
X206661784Y-107636307D01*
X206661784Y-107636307D02*
X206710165Y-107829831D01*
X206710165Y-107829831D02*
X206758546Y-107926593D01*
X206758546Y-107926593D02*
X206855308Y-108023355D01*
X206855308Y-108023355D02*
X207000451Y-108071735D01*
X207000451Y-108071735D02*
X207242356Y-108071735D01*
X199511735Y-52587548D02*
X199511735Y-52781072D01*
X199511735Y-52781072D02*
X199463355Y-52877834D01*
X199463355Y-52877834D02*
X199414974Y-52926215D01*
X199414974Y-52926215D02*
X199269831Y-53022977D01*
X199269831Y-53022977D02*
X199076307Y-53071358D01*
X199076307Y-53071358D02*
X198689259Y-53071358D01*
X198689259Y-53071358D02*
X198592497Y-53022977D01*
X198592497Y-53022977D02*
X198544116Y-52974596D01*
X198544116Y-52974596D02*
X198495735Y-52877834D01*
X198495735Y-52877834D02*
X198495735Y-52684310D01*
X198495735Y-52684310D02*
X198544116Y-52587548D01*
X198544116Y-52587548D02*
X198592497Y-52539167D01*
X198592497Y-52539167D02*
X198689259Y-52490786D01*
X198689259Y-52490786D02*
X198931164Y-52490786D01*
X198931164Y-52490786D02*
X199027926Y-52539167D01*
X199027926Y-52539167D02*
X199076307Y-52587548D01*
X199076307Y-52587548D02*
X199124688Y-52684310D01*
X199124688Y-52684310D02*
X199124688Y-52877834D01*
X199124688Y-52877834D02*
X199076307Y-52974596D01*
X199076307Y-52974596D02*
X199027926Y-53022977D01*
X199027926Y-53022977D02*
X198931164Y-53071358D01*
X152795641Y-69463735D02*
X153376213Y-69463735D01*
X153085927Y-69463735D02*
X153085927Y-68447735D01*
X153085927Y-68447735D02*
X153182689Y-68592878D01*
X153182689Y-68592878D02*
X153279451Y-68689640D01*
X153279451Y-68689640D02*
X153376213Y-68738021D01*
X117610594Y-101975735D02*
X116981641Y-101975735D01*
X116981641Y-101975735D02*
X117320308Y-102362783D01*
X117320308Y-102362783D02*
X117175165Y-102362783D01*
X117175165Y-102362783D02*
X117078403Y-102411164D01*
X117078403Y-102411164D02*
X117030022Y-102459545D01*
X117030022Y-102459545D02*
X116981641Y-102556307D01*
X116981641Y-102556307D02*
X116981641Y-102798212D01*
X116981641Y-102798212D02*
X117030022Y-102894974D01*
X117030022Y-102894974D02*
X117078403Y-102943355D01*
X117078403Y-102943355D02*
X117175165Y-102991735D01*
X117175165Y-102991735D02*
X117465451Y-102991735D01*
X117465451Y-102991735D02*
X117562213Y-102943355D01*
X117562213Y-102943355D02*
X117610594Y-102894974D01*
X116352689Y-101975735D02*
X116255927Y-101975735D01*
X116255927Y-101975735D02*
X116159165Y-102024116D01*
X116159165Y-102024116D02*
X116110784Y-102072497D01*
X116110784Y-102072497D02*
X116062403Y-102169259D01*
X116062403Y-102169259D02*
X116014022Y-102362783D01*
X116014022Y-102362783D02*
X116014022Y-102604688D01*
X116014022Y-102604688D02*
X116062403Y-102798212D01*
X116062403Y-102798212D02*
X116110784Y-102894974D01*
X116110784Y-102894974D02*
X116159165Y-102943355D01*
X116159165Y-102943355D02*
X116255927Y-102991735D01*
X116255927Y-102991735D02*
X116352689Y-102991735D01*
X116352689Y-102991735D02*
X116449451Y-102943355D01*
X116449451Y-102943355D02*
X116497832Y-102894974D01*
X116497832Y-102894974D02*
X116546213Y-102798212D01*
X116546213Y-102798212D02*
X116594594Y-102604688D01*
X116594594Y-102604688D02*
X116594594Y-102362783D01*
X116594594Y-102362783D02*
X116546213Y-102169259D01*
X116546213Y-102169259D02*
X116497832Y-102072497D01*
X116497832Y-102072497D02*
X116449451Y-102024116D01*
X116449451Y-102024116D02*
X116352689Y-101975735D01*
X183594402Y-52847596D02*
X184271735Y-52847596D01*
X183207355Y-52605691D02*
X183933069Y-52363786D01*
X183933069Y-52363786D02*
X183933069Y-52992739D01*
X175762735Y-52315405D02*
X175762735Y-52992739D01*
X175762735Y-52992739D02*
X176778735Y-52557310D01*
X147695735Y-60310358D02*
X147695735Y-59729786D01*
X147695735Y-60020072D02*
X146679735Y-60020072D01*
X146679735Y-60020072D02*
X146824878Y-59923310D01*
X146824878Y-59923310D02*
X146921640Y-59826548D01*
X146921640Y-59826548D02*
X146970021Y-59729786D01*
X198495735Y-71262596D02*
X198495735Y-71069072D01*
X198495735Y-71069072D02*
X198544116Y-70972310D01*
X198544116Y-70972310D02*
X198592497Y-70923929D01*
X198592497Y-70923929D02*
X198737640Y-70827167D01*
X198737640Y-70827167D02*
X198931164Y-70778786D01*
X198931164Y-70778786D02*
X199318212Y-70778786D01*
X199318212Y-70778786D02*
X199414974Y-70827167D01*
X199414974Y-70827167D02*
X199463355Y-70875548D01*
X199463355Y-70875548D02*
X199511735Y-70972310D01*
X199511735Y-70972310D02*
X199511735Y-71165834D01*
X199511735Y-71165834D02*
X199463355Y-71262596D01*
X199463355Y-71262596D02*
X199414974Y-71310977D01*
X199414974Y-71310977D02*
X199318212Y-71359358D01*
X199318212Y-71359358D02*
X199076307Y-71359358D01*
X199076307Y-71359358D02*
X198979545Y-71310977D01*
X198979545Y-71310977D02*
X198931164Y-71262596D01*
X198931164Y-71262596D02*
X198882783Y-71165834D01*
X198882783Y-71165834D02*
X198882783Y-70972310D01*
X198882783Y-70972310D02*
X198931164Y-70875548D01*
X198931164Y-70875548D02*
X198979545Y-70827167D01*
X198979545Y-70827167D02*
X199076307Y-70778786D01*
X107075641Y-100451735D02*
X107656213Y-100451735D01*
X107365927Y-100451735D02*
X107365927Y-99435735D01*
X107365927Y-99435735D02*
X107462689Y-99580878D01*
X107462689Y-99580878D02*
X107559451Y-99677640D01*
X107559451Y-99677640D02*
X107656213Y-99726021D01*
X106446689Y-99435735D02*
X106349927Y-99435735D01*
X106349927Y-99435735D02*
X106253165Y-99484116D01*
X106253165Y-99484116D02*
X106204784Y-99532497D01*
X106204784Y-99532497D02*
X106156403Y-99629259D01*
X106156403Y-99629259D02*
X106108022Y-99822783D01*
X106108022Y-99822783D02*
X106108022Y-100064688D01*
X106108022Y-100064688D02*
X106156403Y-100258212D01*
X106156403Y-100258212D02*
X106204784Y-100354974D01*
X106204784Y-100354974D02*
X106253165Y-100403355D01*
X106253165Y-100403355D02*
X106349927Y-100451735D01*
X106349927Y-100451735D02*
X106446689Y-100451735D01*
X106446689Y-100451735D02*
X106543451Y-100403355D01*
X106543451Y-100403355D02*
X106591832Y-100354974D01*
X106591832Y-100354974D02*
X106640213Y-100258212D01*
X106640213Y-100258212D02*
X106688594Y-100064688D01*
X106688594Y-100064688D02*
X106688594Y-99822783D01*
X106688594Y-99822783D02*
X106640213Y-99629259D01*
X106640213Y-99629259D02*
X106591832Y-99532497D01*
X106591832Y-99532497D02*
X106543451Y-99484116D01*
X106543451Y-99484116D02*
X106446689Y-99435735D01*
X128411641Y-92831735D02*
X128992213Y-92831735D01*
X128701927Y-92831735D02*
X128701927Y-91815735D01*
X128701927Y-91815735D02*
X128798689Y-91960878D01*
X128798689Y-91960878D02*
X128895451Y-92057640D01*
X128895451Y-92057640D02*
X128992213Y-92106021D01*
X199652594Y-101975735D02*
X199023641Y-101975735D01*
X199023641Y-101975735D02*
X199362308Y-102362783D01*
X199362308Y-102362783D02*
X199217165Y-102362783D01*
X199217165Y-102362783D02*
X199120403Y-102411164D01*
X199120403Y-102411164D02*
X199072022Y-102459545D01*
X199072022Y-102459545D02*
X199023641Y-102556307D01*
X199023641Y-102556307D02*
X199023641Y-102798212D01*
X199023641Y-102798212D02*
X199072022Y-102894974D01*
X199072022Y-102894974D02*
X199120403Y-102943355D01*
X199120403Y-102943355D02*
X199217165Y-102991735D01*
X199217165Y-102991735D02*
X199507451Y-102991735D01*
X199507451Y-102991735D02*
X199604213Y-102943355D01*
X199604213Y-102943355D02*
X199652594Y-102894974D01*
X198394689Y-101975735D02*
X198297927Y-101975735D01*
X198297927Y-101975735D02*
X198201165Y-102024116D01*
X198201165Y-102024116D02*
X198152784Y-102072497D01*
X198152784Y-102072497D02*
X198104403Y-102169259D01*
X198104403Y-102169259D02*
X198056022Y-102362783D01*
X198056022Y-102362783D02*
X198056022Y-102604688D01*
X198056022Y-102604688D02*
X198104403Y-102798212D01*
X198104403Y-102798212D02*
X198152784Y-102894974D01*
X198152784Y-102894974D02*
X198201165Y-102943355D01*
X198201165Y-102943355D02*
X198297927Y-102991735D01*
X198297927Y-102991735D02*
X198394689Y-102991735D01*
X198394689Y-102991735D02*
X198491451Y-102943355D01*
X198491451Y-102943355D02*
X198539832Y-102894974D01*
X198539832Y-102894974D02*
X198588213Y-102798212D01*
X198588213Y-102798212D02*
X198636594Y-102604688D01*
X198636594Y-102604688D02*
X198636594Y-102362783D01*
X198636594Y-102362783D02*
X198588213Y-102169259D01*
X198588213Y-102169259D02*
X198539832Y-102072497D01*
X198539832Y-102072497D02*
X198491451Y-102024116D01*
X198491451Y-102024116D02*
X198394689Y-101975735D01*
X114689594Y-125089735D02*
X114012260Y-125089735D01*
X114012260Y-125089735D02*
X114689594Y-126105735D01*
X114689594Y-126105735D02*
X114012260Y-126105735D01*
X113480070Y-125525164D02*
X113576832Y-125476783D01*
X113576832Y-125476783D02*
X113625213Y-125428402D01*
X113625213Y-125428402D02*
X113673594Y-125331640D01*
X113673594Y-125331640D02*
X113673594Y-125283259D01*
X113673594Y-125283259D02*
X113625213Y-125186497D01*
X113625213Y-125186497D02*
X113576832Y-125138116D01*
X113576832Y-125138116D02*
X113480070Y-125089735D01*
X113480070Y-125089735D02*
X113286546Y-125089735D01*
X113286546Y-125089735D02*
X113189784Y-125138116D01*
X113189784Y-125138116D02*
X113141403Y-125186497D01*
X113141403Y-125186497D02*
X113093022Y-125283259D01*
X113093022Y-125283259D02*
X113093022Y-125331640D01*
X113093022Y-125331640D02*
X113141403Y-125428402D01*
X113141403Y-125428402D02*
X113189784Y-125476783D01*
X113189784Y-125476783D02*
X113286546Y-125525164D01*
X113286546Y-125525164D02*
X113480070Y-125525164D01*
X113480070Y-125525164D02*
X113576832Y-125573545D01*
X113576832Y-125573545D02*
X113625213Y-125621926D01*
X113625213Y-125621926D02*
X113673594Y-125718688D01*
X113673594Y-125718688D02*
X113673594Y-125912212D01*
X113673594Y-125912212D02*
X113625213Y-126008974D01*
X113625213Y-126008974D02*
X113576832Y-126057355D01*
X113576832Y-126057355D02*
X113480070Y-126105735D01*
X113480070Y-126105735D02*
X113286546Y-126105735D01*
X113286546Y-126105735D02*
X113189784Y-126057355D01*
X113189784Y-126057355D02*
X113141403Y-126008974D01*
X113141403Y-126008974D02*
X113093022Y-125912212D01*
X113093022Y-125912212D02*
X113093022Y-125718688D01*
X113093022Y-125718688D02*
X113141403Y-125621926D01*
X113141403Y-125621926D02*
X113189784Y-125573545D01*
X113189784Y-125573545D02*
X113286546Y-125525164D01*
X112464070Y-125089735D02*
X112367308Y-125089735D01*
X112367308Y-125089735D02*
X112270546Y-125138116D01*
X112270546Y-125138116D02*
X112222165Y-125186497D01*
X112222165Y-125186497D02*
X112173784Y-125283259D01*
X112173784Y-125283259D02*
X112125403Y-125476783D01*
X112125403Y-125476783D02*
X112125403Y-125718688D01*
X112125403Y-125718688D02*
X112173784Y-125912212D01*
X112173784Y-125912212D02*
X112222165Y-126008974D01*
X112222165Y-126008974D02*
X112270546Y-126057355D01*
X112270546Y-126057355D02*
X112367308Y-126105735D01*
X112367308Y-126105735D02*
X112464070Y-126105735D01*
X112464070Y-126105735D02*
X112560832Y-126057355D01*
X112560832Y-126057355D02*
X112609213Y-126008974D01*
X112609213Y-126008974D02*
X112657594Y-125912212D01*
X112657594Y-125912212D02*
X112705975Y-125718688D01*
X112705975Y-125718688D02*
X112705975Y-125476783D01*
X112705975Y-125476783D02*
X112657594Y-125283259D01*
X112657594Y-125283259D02*
X112609213Y-125186497D01*
X112609213Y-125186497D02*
X112560832Y-125138116D01*
X112560832Y-125138116D02*
X112464070Y-125089735D01*
X111109403Y-126008974D02*
X111157784Y-126057355D01*
X111157784Y-126057355D02*
X111302927Y-126105735D01*
X111302927Y-126105735D02*
X111399689Y-126105735D01*
X111399689Y-126105735D02*
X111544832Y-126057355D01*
X111544832Y-126057355D02*
X111641594Y-125960593D01*
X111641594Y-125960593D02*
X111689975Y-125863831D01*
X111689975Y-125863831D02*
X111738356Y-125670307D01*
X111738356Y-125670307D02*
X111738356Y-125525164D01*
X111738356Y-125525164D02*
X111689975Y-125331640D01*
X111689975Y-125331640D02*
X111641594Y-125234878D01*
X111641594Y-125234878D02*
X111544832Y-125138116D01*
X111544832Y-125138116D02*
X111399689Y-125089735D01*
X111399689Y-125089735D02*
X111302927Y-125089735D01*
X111302927Y-125089735D02*
X111157784Y-125138116D01*
X111157784Y-125138116D02*
X111109403Y-125186497D01*
X110673975Y-126105735D02*
X110673975Y-125089735D01*
X110673975Y-125089735D02*
X110286927Y-125089735D01*
X110286927Y-125089735D02*
X110190165Y-125138116D01*
X110190165Y-125138116D02*
X110141784Y-125186497D01*
X110141784Y-125186497D02*
X110093403Y-125283259D01*
X110093403Y-125283259D02*
X110093403Y-125428402D01*
X110093403Y-125428402D02*
X110141784Y-125525164D01*
X110141784Y-125525164D02*
X110190165Y-125573545D01*
X110190165Y-125573545D02*
X110286927Y-125621926D01*
X110286927Y-125621926D02*
X110673975Y-125621926D01*
X109657975Y-125089735D02*
X109657975Y-125912212D01*
X109657975Y-125912212D02*
X109609594Y-126008974D01*
X109609594Y-126008974D02*
X109561213Y-126057355D01*
X109561213Y-126057355D02*
X109464451Y-126105735D01*
X109464451Y-126105735D02*
X109270927Y-126105735D01*
X109270927Y-126105735D02*
X109174165Y-126057355D01*
X109174165Y-126057355D02*
X109125784Y-126008974D01*
X109125784Y-126008974D02*
X109077403Y-125912212D01*
X109077403Y-125912212D02*
X109077403Y-125089735D01*
X210278260Y-110611735D02*
X210616927Y-110127926D01*
X210858832Y-110611735D02*
X210858832Y-109595735D01*
X210858832Y-109595735D02*
X210471784Y-109595735D01*
X210471784Y-109595735D02*
X210375022Y-109644116D01*
X210375022Y-109644116D02*
X210326641Y-109692497D01*
X210326641Y-109692497D02*
X210278260Y-109789259D01*
X210278260Y-109789259D02*
X210278260Y-109934402D01*
X210278260Y-109934402D02*
X210326641Y-110031164D01*
X210326641Y-110031164D02*
X210375022Y-110079545D01*
X210375022Y-110079545D02*
X210471784Y-110127926D01*
X210471784Y-110127926D02*
X210858832Y-110127926D01*
X209939594Y-110611735D02*
X209407403Y-109934402D01*
X209939594Y-109934402D02*
X209407403Y-110611735D01*
X209165499Y-109595735D02*
X208584927Y-109595735D01*
X208875213Y-110611735D02*
X208875213Y-109595735D01*
X208343023Y-110611735D02*
X207810832Y-109934402D01*
X208343023Y-109934402D02*
X207810832Y-110611735D01*
X206843213Y-110514974D02*
X206891594Y-110563355D01*
X206891594Y-110563355D02*
X207036737Y-110611735D01*
X207036737Y-110611735D02*
X207133499Y-110611735D01*
X207133499Y-110611735D02*
X207278642Y-110563355D01*
X207278642Y-110563355D02*
X207375404Y-110466593D01*
X207375404Y-110466593D02*
X207423785Y-110369831D01*
X207423785Y-110369831D02*
X207472166Y-110176307D01*
X207472166Y-110176307D02*
X207472166Y-110031164D01*
X207472166Y-110031164D02*
X207423785Y-109837640D01*
X207423785Y-109837640D02*
X207375404Y-109740878D01*
X207375404Y-109740878D02*
X207278642Y-109644116D01*
X207278642Y-109644116D02*
X207133499Y-109595735D01*
X207133499Y-109595735D02*
X207036737Y-109595735D01*
X207036737Y-109595735D02*
X206891594Y-109644116D01*
X206891594Y-109644116D02*
X206843213Y-109692497D01*
X210999137Y-109313675D02*
X206751290Y-109313675D01*
X196350594Y-125089735D02*
X195673260Y-125089735D01*
X195673260Y-125089735D02*
X196350594Y-126105735D01*
X196350594Y-126105735D02*
X195673260Y-126105735D01*
X195141070Y-125525164D02*
X195237832Y-125476783D01*
X195237832Y-125476783D02*
X195286213Y-125428402D01*
X195286213Y-125428402D02*
X195334594Y-125331640D01*
X195334594Y-125331640D02*
X195334594Y-125283259D01*
X195334594Y-125283259D02*
X195286213Y-125186497D01*
X195286213Y-125186497D02*
X195237832Y-125138116D01*
X195237832Y-125138116D02*
X195141070Y-125089735D01*
X195141070Y-125089735D02*
X194947546Y-125089735D01*
X194947546Y-125089735D02*
X194850784Y-125138116D01*
X194850784Y-125138116D02*
X194802403Y-125186497D01*
X194802403Y-125186497D02*
X194754022Y-125283259D01*
X194754022Y-125283259D02*
X194754022Y-125331640D01*
X194754022Y-125331640D02*
X194802403Y-125428402D01*
X194802403Y-125428402D02*
X194850784Y-125476783D01*
X194850784Y-125476783D02*
X194947546Y-125525164D01*
X194947546Y-125525164D02*
X195141070Y-125525164D01*
X195141070Y-125525164D02*
X195237832Y-125573545D01*
X195237832Y-125573545D02*
X195286213Y-125621926D01*
X195286213Y-125621926D02*
X195334594Y-125718688D01*
X195334594Y-125718688D02*
X195334594Y-125912212D01*
X195334594Y-125912212D02*
X195286213Y-126008974D01*
X195286213Y-126008974D02*
X195237832Y-126057355D01*
X195237832Y-126057355D02*
X195141070Y-126105735D01*
X195141070Y-126105735D02*
X194947546Y-126105735D01*
X194947546Y-126105735D02*
X194850784Y-126057355D01*
X194850784Y-126057355D02*
X194802403Y-126008974D01*
X194802403Y-126008974D02*
X194754022Y-125912212D01*
X194754022Y-125912212D02*
X194754022Y-125718688D01*
X194754022Y-125718688D02*
X194802403Y-125621926D01*
X194802403Y-125621926D02*
X194850784Y-125573545D01*
X194850784Y-125573545D02*
X194947546Y-125525164D01*
X194125070Y-125089735D02*
X194028308Y-125089735D01*
X194028308Y-125089735D02*
X193931546Y-125138116D01*
X193931546Y-125138116D02*
X193883165Y-125186497D01*
X193883165Y-125186497D02*
X193834784Y-125283259D01*
X193834784Y-125283259D02*
X193786403Y-125476783D01*
X193786403Y-125476783D02*
X193786403Y-125718688D01*
X193786403Y-125718688D02*
X193834784Y-125912212D01*
X193834784Y-125912212D02*
X193883165Y-126008974D01*
X193883165Y-126008974D02*
X193931546Y-126057355D01*
X193931546Y-126057355D02*
X194028308Y-126105735D01*
X194028308Y-126105735D02*
X194125070Y-126105735D01*
X194125070Y-126105735D02*
X194221832Y-126057355D01*
X194221832Y-126057355D02*
X194270213Y-126008974D01*
X194270213Y-126008974D02*
X194318594Y-125912212D01*
X194318594Y-125912212D02*
X194366975Y-125718688D01*
X194366975Y-125718688D02*
X194366975Y-125476783D01*
X194366975Y-125476783D02*
X194318594Y-125283259D01*
X194318594Y-125283259D02*
X194270213Y-125186497D01*
X194270213Y-125186497D02*
X194221832Y-125138116D01*
X194221832Y-125138116D02*
X194125070Y-125089735D01*
X193399356Y-126057355D02*
X193254213Y-126105735D01*
X193254213Y-126105735D02*
X193012308Y-126105735D01*
X193012308Y-126105735D02*
X192915546Y-126057355D01*
X192915546Y-126057355D02*
X192867165Y-126008974D01*
X192867165Y-126008974D02*
X192818784Y-125912212D01*
X192818784Y-125912212D02*
X192818784Y-125815450D01*
X192818784Y-125815450D02*
X192867165Y-125718688D01*
X192867165Y-125718688D02*
X192915546Y-125670307D01*
X192915546Y-125670307D02*
X193012308Y-125621926D01*
X193012308Y-125621926D02*
X193205832Y-125573545D01*
X193205832Y-125573545D02*
X193302594Y-125525164D01*
X193302594Y-125525164D02*
X193350975Y-125476783D01*
X193350975Y-125476783D02*
X193399356Y-125380021D01*
X193399356Y-125380021D02*
X193399356Y-125283259D01*
X193399356Y-125283259D02*
X193350975Y-125186497D01*
X193350975Y-125186497D02*
X193302594Y-125138116D01*
X193302594Y-125138116D02*
X193205832Y-125089735D01*
X193205832Y-125089735D02*
X192963927Y-125089735D01*
X192963927Y-125089735D02*
X192818784Y-125138116D01*
X192383356Y-126105735D02*
X192383356Y-125089735D01*
X191706022Y-125089735D02*
X191512498Y-125089735D01*
X191512498Y-125089735D02*
X191415736Y-125138116D01*
X191415736Y-125138116D02*
X191318974Y-125234878D01*
X191318974Y-125234878D02*
X191270593Y-125428402D01*
X191270593Y-125428402D02*
X191270593Y-125767069D01*
X191270593Y-125767069D02*
X191318974Y-125960593D01*
X191318974Y-125960593D02*
X191415736Y-126057355D01*
X191415736Y-126057355D02*
X191512498Y-126105735D01*
X191512498Y-126105735D02*
X191706022Y-126105735D01*
X191706022Y-126105735D02*
X191802784Y-126057355D01*
X191802784Y-126057355D02*
X191899546Y-125960593D01*
X191899546Y-125960593D02*
X191947927Y-125767069D01*
X191947927Y-125767069D02*
X191947927Y-125428402D01*
X191947927Y-125428402D02*
X191899546Y-125234878D01*
X191899546Y-125234878D02*
X191802784Y-125138116D01*
X191802784Y-125138116D02*
X191706022Y-125089735D01*
X129418264Y-85098594D02*
X129418264Y-84421260D01*
X129418264Y-84421260D02*
X128402264Y-84856689D01*
X129079597Y-83598784D02*
X128402264Y-83598784D01*
X129466645Y-83840689D02*
X128740930Y-84082594D01*
X128740930Y-84082594D02*
X128740930Y-83453641D01*
X128402264Y-82582784D02*
X128402264Y-83066594D01*
X128402264Y-83066594D02*
X129418264Y-83066594D01*
X128450645Y-82292499D02*
X128402264Y-82147356D01*
X128402264Y-82147356D02*
X128402264Y-81905451D01*
X128402264Y-81905451D02*
X128450645Y-81808689D01*
X128450645Y-81808689D02*
X128499025Y-81760308D01*
X128499025Y-81760308D02*
X128595787Y-81711927D01*
X128595787Y-81711927D02*
X128692549Y-81711927D01*
X128692549Y-81711927D02*
X128789311Y-81760308D01*
X128789311Y-81760308D02*
X128837692Y-81808689D01*
X128837692Y-81808689D02*
X128886073Y-81905451D01*
X128886073Y-81905451D02*
X128934454Y-82098975D01*
X128934454Y-82098975D02*
X128982835Y-82195737D01*
X128982835Y-82195737D02*
X129031216Y-82244118D01*
X129031216Y-82244118D02*
X129127978Y-82292499D01*
X129127978Y-82292499D02*
X129224740Y-82292499D01*
X129224740Y-82292499D02*
X129321502Y-82244118D01*
X129321502Y-82244118D02*
X129369883Y-82195737D01*
X129369883Y-82195737D02*
X129418264Y-82098975D01*
X129418264Y-82098975D02*
X129418264Y-81857070D01*
X129418264Y-81857070D02*
X129369883Y-81711927D01*
X129418264Y-81082975D02*
X129418264Y-80986213D01*
X129418264Y-80986213D02*
X129369883Y-80889451D01*
X129369883Y-80889451D02*
X129321502Y-80841070D01*
X129321502Y-80841070D02*
X129224740Y-80792689D01*
X129224740Y-80792689D02*
X129031216Y-80744308D01*
X129031216Y-80744308D02*
X128789311Y-80744308D01*
X128789311Y-80744308D02*
X128595787Y-80792689D01*
X128595787Y-80792689D02*
X128499025Y-80841070D01*
X128499025Y-80841070D02*
X128450645Y-80889451D01*
X128450645Y-80889451D02*
X128402264Y-80986213D01*
X128402264Y-80986213D02*
X128402264Y-81082975D01*
X128402264Y-81082975D02*
X128450645Y-81179737D01*
X128450645Y-81179737D02*
X128499025Y-81228118D01*
X128499025Y-81228118D02*
X128595787Y-81276499D01*
X128595787Y-81276499D02*
X128789311Y-81324880D01*
X128789311Y-81324880D02*
X129031216Y-81324880D01*
X129031216Y-81324880D02*
X129224740Y-81276499D01*
X129224740Y-81276499D02*
X129321502Y-81228118D01*
X129321502Y-81228118D02*
X129369883Y-81179737D01*
X129369883Y-81179737D02*
X129418264Y-81082975D01*
X129079597Y-79873451D02*
X128402264Y-79873451D01*
X129466645Y-80115356D02*
X128740930Y-80357261D01*
X128740930Y-80357261D02*
X128740930Y-79728308D01*
X218660260Y-110514974D02*
X218708641Y-110563355D01*
X218708641Y-110563355D02*
X218853784Y-110611735D01*
X218853784Y-110611735D02*
X218950546Y-110611735D01*
X218950546Y-110611735D02*
X219095689Y-110563355D01*
X219095689Y-110563355D02*
X219192451Y-110466593D01*
X219192451Y-110466593D02*
X219240832Y-110369831D01*
X219240832Y-110369831D02*
X219289213Y-110176307D01*
X219289213Y-110176307D02*
X219289213Y-110031164D01*
X219289213Y-110031164D02*
X219240832Y-109837640D01*
X219240832Y-109837640D02*
X219192451Y-109740878D01*
X219192451Y-109740878D02*
X219095689Y-109644116D01*
X219095689Y-109644116D02*
X218950546Y-109595735D01*
X218950546Y-109595735D02*
X218853784Y-109595735D01*
X218853784Y-109595735D02*
X218708641Y-109644116D01*
X218708641Y-109644116D02*
X218660260Y-109692497D01*
X217741022Y-110611735D02*
X218224832Y-110611735D01*
X218224832Y-110611735D02*
X218224832Y-109595735D01*
X217402356Y-110611735D02*
X217402356Y-109595735D01*
X216821784Y-110611735D02*
X217257213Y-110031164D01*
X216821784Y-109595735D02*
X217402356Y-110176307D01*
X216483118Y-109595735D02*
X215854165Y-109595735D01*
X215854165Y-109595735D02*
X216192832Y-109982783D01*
X216192832Y-109982783D02*
X216047689Y-109982783D01*
X216047689Y-109982783D02*
X215950927Y-110031164D01*
X215950927Y-110031164D02*
X215902546Y-110079545D01*
X215902546Y-110079545D02*
X215854165Y-110176307D01*
X215854165Y-110176307D02*
X215854165Y-110418212D01*
X215854165Y-110418212D02*
X215902546Y-110514974D01*
X215902546Y-110514974D02*
X215950927Y-110563355D01*
X215950927Y-110563355D02*
X216047689Y-110611735D01*
X216047689Y-110611735D02*
X216337975Y-110611735D01*
X216337975Y-110611735D02*
X216434737Y-110563355D01*
X216434737Y-110563355D02*
X216483118Y-110514974D01*
X174506594Y-125089735D02*
X173829260Y-125089735D01*
X173829260Y-125089735D02*
X174506594Y-126105735D01*
X174506594Y-126105735D02*
X173829260Y-126105735D01*
X173297070Y-125525164D02*
X173393832Y-125476783D01*
X173393832Y-125476783D02*
X173442213Y-125428402D01*
X173442213Y-125428402D02*
X173490594Y-125331640D01*
X173490594Y-125331640D02*
X173490594Y-125283259D01*
X173490594Y-125283259D02*
X173442213Y-125186497D01*
X173442213Y-125186497D02*
X173393832Y-125138116D01*
X173393832Y-125138116D02*
X173297070Y-125089735D01*
X173297070Y-125089735D02*
X173103546Y-125089735D01*
X173103546Y-125089735D02*
X173006784Y-125138116D01*
X173006784Y-125138116D02*
X172958403Y-125186497D01*
X172958403Y-125186497D02*
X172910022Y-125283259D01*
X172910022Y-125283259D02*
X172910022Y-125331640D01*
X172910022Y-125331640D02*
X172958403Y-125428402D01*
X172958403Y-125428402D02*
X173006784Y-125476783D01*
X173006784Y-125476783D02*
X173103546Y-125525164D01*
X173103546Y-125525164D02*
X173297070Y-125525164D01*
X173297070Y-125525164D02*
X173393832Y-125573545D01*
X173393832Y-125573545D02*
X173442213Y-125621926D01*
X173442213Y-125621926D02*
X173490594Y-125718688D01*
X173490594Y-125718688D02*
X173490594Y-125912212D01*
X173490594Y-125912212D02*
X173442213Y-126008974D01*
X173442213Y-126008974D02*
X173393832Y-126057355D01*
X173393832Y-126057355D02*
X173297070Y-126105735D01*
X173297070Y-126105735D02*
X173103546Y-126105735D01*
X173103546Y-126105735D02*
X173006784Y-126057355D01*
X173006784Y-126057355D02*
X172958403Y-126008974D01*
X172958403Y-126008974D02*
X172910022Y-125912212D01*
X172910022Y-125912212D02*
X172910022Y-125718688D01*
X172910022Y-125718688D02*
X172958403Y-125621926D01*
X172958403Y-125621926D02*
X173006784Y-125573545D01*
X173006784Y-125573545D02*
X173103546Y-125525164D01*
X172281070Y-125089735D02*
X172184308Y-125089735D01*
X172184308Y-125089735D02*
X172087546Y-125138116D01*
X172087546Y-125138116D02*
X172039165Y-125186497D01*
X172039165Y-125186497D02*
X171990784Y-125283259D01*
X171990784Y-125283259D02*
X171942403Y-125476783D01*
X171942403Y-125476783D02*
X171942403Y-125718688D01*
X171942403Y-125718688D02*
X171990784Y-125912212D01*
X171990784Y-125912212D02*
X172039165Y-126008974D01*
X172039165Y-126008974D02*
X172087546Y-126057355D01*
X172087546Y-126057355D02*
X172184308Y-126105735D01*
X172184308Y-126105735D02*
X172281070Y-126105735D01*
X172281070Y-126105735D02*
X172377832Y-126057355D01*
X172377832Y-126057355D02*
X172426213Y-126008974D01*
X172426213Y-126008974D02*
X172474594Y-125912212D01*
X172474594Y-125912212D02*
X172522975Y-125718688D01*
X172522975Y-125718688D02*
X172522975Y-125476783D01*
X172522975Y-125476783D02*
X172474594Y-125283259D01*
X172474594Y-125283259D02*
X172426213Y-125186497D01*
X172426213Y-125186497D02*
X172377832Y-125138116D01*
X172377832Y-125138116D02*
X172281070Y-125089735D01*
X170926403Y-126008974D02*
X170974784Y-126057355D01*
X170974784Y-126057355D02*
X171119927Y-126105735D01*
X171119927Y-126105735D02*
X171216689Y-126105735D01*
X171216689Y-126105735D02*
X171361832Y-126057355D01*
X171361832Y-126057355D02*
X171458594Y-125960593D01*
X171458594Y-125960593D02*
X171506975Y-125863831D01*
X171506975Y-125863831D02*
X171555356Y-125670307D01*
X171555356Y-125670307D02*
X171555356Y-125525164D01*
X171555356Y-125525164D02*
X171506975Y-125331640D01*
X171506975Y-125331640D02*
X171458594Y-125234878D01*
X171458594Y-125234878D02*
X171361832Y-125138116D01*
X171361832Y-125138116D02*
X171216689Y-125089735D01*
X171216689Y-125089735D02*
X171119927Y-125089735D01*
X171119927Y-125089735D02*
X170974784Y-125138116D01*
X170974784Y-125138116D02*
X170926403Y-125186497D01*
X170636118Y-125089735D02*
X170055546Y-125089735D01*
X170345832Y-126105735D02*
X170345832Y-125089735D01*
X169136308Y-126008974D02*
X169184689Y-126057355D01*
X169184689Y-126057355D02*
X169329832Y-126105735D01*
X169329832Y-126105735D02*
X169426594Y-126105735D01*
X169426594Y-126105735D02*
X169571737Y-126057355D01*
X169571737Y-126057355D02*
X169668499Y-125960593D01*
X169668499Y-125960593D02*
X169716880Y-125863831D01*
X169716880Y-125863831D02*
X169765261Y-125670307D01*
X169765261Y-125670307D02*
X169765261Y-125525164D01*
X169765261Y-125525164D02*
X169716880Y-125331640D01*
X169716880Y-125331640D02*
X169668499Y-125234878D01*
X169668499Y-125234878D02*
X169571737Y-125138116D01*
X169571737Y-125138116D02*
X169426594Y-125089735D01*
X169426594Y-125089735D02*
X169329832Y-125089735D01*
X169329832Y-125089735D02*
X169184689Y-125138116D01*
X169184689Y-125138116D02*
X169136308Y-125186497D01*
X155178403Y-125089735D02*
X155371927Y-125089735D01*
X155371927Y-125089735D02*
X155468689Y-125138116D01*
X155468689Y-125138116D02*
X155517070Y-125186497D01*
X155517070Y-125186497D02*
X155613832Y-125331640D01*
X155613832Y-125331640D02*
X155662213Y-125525164D01*
X155662213Y-125525164D02*
X155662213Y-125912212D01*
X155662213Y-125912212D02*
X155613832Y-126008974D01*
X155613832Y-126008974D02*
X155565451Y-126057355D01*
X155565451Y-126057355D02*
X155468689Y-126105735D01*
X155468689Y-126105735D02*
X155275165Y-126105735D01*
X155275165Y-126105735D02*
X155178403Y-126057355D01*
X155178403Y-126057355D02*
X155130022Y-126008974D01*
X155130022Y-126008974D02*
X155081641Y-125912212D01*
X155081641Y-125912212D02*
X155081641Y-125670307D01*
X155081641Y-125670307D02*
X155130022Y-125573545D01*
X155130022Y-125573545D02*
X155178403Y-125525164D01*
X155178403Y-125525164D02*
X155275165Y-125476783D01*
X155275165Y-125476783D02*
X155468689Y-125476783D01*
X155468689Y-125476783D02*
X155565451Y-125525164D01*
X155565451Y-125525164D02*
X155613832Y-125573545D01*
X155613832Y-125573545D02*
X155662213Y-125670307D01*
X154452689Y-125089735D02*
X154355927Y-125089735D01*
X154355927Y-125089735D02*
X154259165Y-125138116D01*
X154259165Y-125138116D02*
X154210784Y-125186497D01*
X154210784Y-125186497D02*
X154162403Y-125283259D01*
X154162403Y-125283259D02*
X154114022Y-125476783D01*
X154114022Y-125476783D02*
X154114022Y-125718688D01*
X154114022Y-125718688D02*
X154162403Y-125912212D01*
X154162403Y-125912212D02*
X154210784Y-126008974D01*
X154210784Y-126008974D02*
X154259165Y-126057355D01*
X154259165Y-126057355D02*
X154355927Y-126105735D01*
X154355927Y-126105735D02*
X154452689Y-126105735D01*
X154452689Y-126105735D02*
X154549451Y-126057355D01*
X154549451Y-126057355D02*
X154597832Y-126008974D01*
X154597832Y-126008974D02*
X154646213Y-125912212D01*
X154646213Y-125912212D02*
X154694594Y-125718688D01*
X154694594Y-125718688D02*
X154694594Y-125476783D01*
X154694594Y-125476783D02*
X154646213Y-125283259D01*
X154646213Y-125283259D02*
X154597832Y-125186497D01*
X154597832Y-125186497D02*
X154549451Y-125138116D01*
X154549451Y-125138116D02*
X154452689Y-125089735D01*
X153194784Y-126105735D02*
X153678594Y-126105735D01*
X153678594Y-126105735D02*
X153678594Y-125089735D01*
X152904499Y-125186497D02*
X152856118Y-125138116D01*
X152856118Y-125138116D02*
X152759356Y-125089735D01*
X152759356Y-125089735D02*
X152517451Y-125089735D01*
X152517451Y-125089735D02*
X152420689Y-125138116D01*
X152420689Y-125138116D02*
X152372308Y-125186497D01*
X152372308Y-125186497D02*
X152323927Y-125283259D01*
X152323927Y-125283259D02*
X152323927Y-125380021D01*
X152323927Y-125380021D02*
X152372308Y-125525164D01*
X152372308Y-125525164D02*
X152952880Y-126105735D01*
X152952880Y-126105735D02*
X152323927Y-126105735D01*
X151404689Y-125089735D02*
X151888499Y-125089735D01*
X151888499Y-125089735D02*
X151936880Y-125573545D01*
X151936880Y-125573545D02*
X151888499Y-125525164D01*
X151888499Y-125525164D02*
X151791737Y-125476783D01*
X151791737Y-125476783D02*
X151549832Y-125476783D01*
X151549832Y-125476783D02*
X151453070Y-125525164D01*
X151453070Y-125525164D02*
X151404689Y-125573545D01*
X151404689Y-125573545D02*
X151356308Y-125670307D01*
X151356308Y-125670307D02*
X151356308Y-125912212D01*
X151356308Y-125912212D02*
X151404689Y-126008974D01*
X151404689Y-126008974D02*
X151453070Y-126057355D01*
X151453070Y-126057355D02*
X151549832Y-126105735D01*
X151549832Y-126105735D02*
X151791737Y-126105735D01*
X151791737Y-126105735D02*
X151888499Y-126057355D01*
X151888499Y-126057355D02*
X151936880Y-126008974D01*
X150485451Y-125089735D02*
X150678975Y-125089735D01*
X150678975Y-125089735D02*
X150775737Y-125138116D01*
X150775737Y-125138116D02*
X150824118Y-125186497D01*
X150824118Y-125186497D02*
X150920880Y-125331640D01*
X150920880Y-125331640D02*
X150969261Y-125525164D01*
X150969261Y-125525164D02*
X150969261Y-125912212D01*
X150969261Y-125912212D02*
X150920880Y-126008974D01*
X150920880Y-126008974D02*
X150872499Y-126057355D01*
X150872499Y-126057355D02*
X150775737Y-126105735D01*
X150775737Y-126105735D02*
X150582213Y-126105735D01*
X150582213Y-126105735D02*
X150485451Y-126057355D01*
X150485451Y-126057355D02*
X150437070Y-126008974D01*
X150437070Y-126008974D02*
X150388689Y-125912212D01*
X150388689Y-125912212D02*
X150388689Y-125670307D01*
X150388689Y-125670307D02*
X150437070Y-125573545D01*
X150437070Y-125573545D02*
X150485451Y-125525164D01*
X150485451Y-125525164D02*
X150582213Y-125476783D01*
X150582213Y-125476783D02*
X150775737Y-125476783D01*
X150775737Y-125476783D02*
X150872499Y-125525164D01*
X150872499Y-125525164D02*
X150920880Y-125573545D01*
X150920880Y-125573545D02*
X150969261Y-125670307D01*
X173095735Y-52442405D02*
X173095735Y-53071358D01*
X173095735Y-53071358D02*
X173482783Y-52732691D01*
X173482783Y-52732691D02*
X173482783Y-52877834D01*
X173482783Y-52877834D02*
X173531164Y-52974596D01*
X173531164Y-52974596D02*
X173579545Y-53022977D01*
X173579545Y-53022977D02*
X173676307Y-53071358D01*
X173676307Y-53071358D02*
X173918212Y-53071358D01*
X173918212Y-53071358D02*
X174014974Y-53022977D01*
X174014974Y-53022977D02*
X174063355Y-52974596D01*
X174063355Y-52974596D02*
X174111735Y-52877834D01*
X174111735Y-52877834D02*
X174111735Y-52587548D01*
X174111735Y-52587548D02*
X174063355Y-52490786D01*
X174063355Y-52490786D02*
X174014974Y-52442405D01*
X139914213Y-109692497D02*
X139865832Y-109644116D01*
X139865832Y-109644116D02*
X139769070Y-109595735D01*
X139769070Y-109595735D02*
X139527165Y-109595735D01*
X139527165Y-109595735D02*
X139430403Y-109644116D01*
X139430403Y-109644116D02*
X139382022Y-109692497D01*
X139382022Y-109692497D02*
X139333641Y-109789259D01*
X139333641Y-109789259D02*
X139333641Y-109886021D01*
X139333641Y-109886021D02*
X139382022Y-110031164D01*
X139382022Y-110031164D02*
X139962594Y-110611735D01*
X139962594Y-110611735D02*
X139333641Y-110611735D01*
X138366022Y-110611735D02*
X138946594Y-110611735D01*
X138656308Y-110611735D02*
X138656308Y-109595735D01*
X138656308Y-109595735D02*
X138753070Y-109740878D01*
X138753070Y-109740878D02*
X138849832Y-109837640D01*
X138849832Y-109837640D02*
X138946594Y-109886021D01*
X147963594Y-107055735D02*
X147286260Y-107055735D01*
X147286260Y-107055735D02*
X147721689Y-108071735D01*
X211195735Y-52732691D02*
X211195735Y-52829453D01*
X211195735Y-52829453D02*
X211244116Y-52926215D01*
X211244116Y-52926215D02*
X211292497Y-52974596D01*
X211292497Y-52974596D02*
X211389259Y-53022977D01*
X211389259Y-53022977D02*
X211582783Y-53071358D01*
X211582783Y-53071358D02*
X211824688Y-53071358D01*
X211824688Y-53071358D02*
X212018212Y-53022977D01*
X212018212Y-53022977D02*
X212114974Y-52974596D01*
X212114974Y-52974596D02*
X212163355Y-52926215D01*
X212163355Y-52926215D02*
X212211735Y-52829453D01*
X212211735Y-52829453D02*
X212211735Y-52732691D01*
X212211735Y-52732691D02*
X212163355Y-52635929D01*
X212163355Y-52635929D02*
X212114974Y-52587548D01*
X212114974Y-52587548D02*
X212018212Y-52539167D01*
X212018212Y-52539167D02*
X211824688Y-52490786D01*
X211824688Y-52490786D02*
X211582783Y-52490786D01*
X211582783Y-52490786D02*
X211389259Y-52539167D01*
X211389259Y-52539167D02*
X211292497Y-52587548D01*
X211292497Y-52587548D02*
X211244116Y-52635929D01*
X211244116Y-52635929D02*
X211195735Y-52732691D01*
X211590594Y-101975735D02*
X211348689Y-102991735D01*
X211348689Y-102991735D02*
X211155165Y-102266021D01*
X211155165Y-102266021D02*
X210961641Y-102991735D01*
X210961641Y-102991735D02*
X210719737Y-101975735D01*
X211634137Y-101693675D02*
X210676194Y-101693675D01*
X209606974Y-101927355D02*
X210477832Y-103233640D01*
X208687736Y-102991735D02*
X209026403Y-102507926D01*
X209268308Y-102991735D02*
X209268308Y-101975735D01*
X209268308Y-101975735D02*
X208881260Y-101975735D01*
X208881260Y-101975735D02*
X208784498Y-102024116D01*
X208784498Y-102024116D02*
X208736117Y-102072497D01*
X208736117Y-102072497D02*
X208687736Y-102169259D01*
X208687736Y-102169259D02*
X208687736Y-102314402D01*
X208687736Y-102314402D02*
X208736117Y-102411164D01*
X208736117Y-102411164D02*
X208784498Y-102459545D01*
X208784498Y-102459545D02*
X208881260Y-102507926D01*
X208881260Y-102507926D02*
X209268308Y-102507926D01*
X208252308Y-102991735D02*
X208252308Y-101975735D01*
X208252308Y-101975735D02*
X208010403Y-101975735D01*
X208010403Y-101975735D02*
X207865260Y-102024116D01*
X207865260Y-102024116D02*
X207768498Y-102120878D01*
X207768498Y-102120878D02*
X207720117Y-102217640D01*
X207720117Y-102217640D02*
X207671736Y-102411164D01*
X207671736Y-102411164D02*
X207671736Y-102556307D01*
X207671736Y-102556307D02*
X207720117Y-102749831D01*
X207720117Y-102749831D02*
X207768498Y-102846593D01*
X207768498Y-102846593D02*
X207865260Y-102943355D01*
X207865260Y-102943355D02*
X208010403Y-102991735D01*
X208010403Y-102991735D02*
X208252308Y-102991735D01*
X207042784Y-102507926D02*
X207042784Y-102991735D01*
X207381451Y-101975735D02*
X207042784Y-102507926D01*
X207042784Y-102507926D02*
X206704117Y-101975735D01*
X209408613Y-101693675D02*
X206708956Y-101693675D01*
X185795735Y-52442405D02*
X185795735Y-53071358D01*
X185795735Y-53071358D02*
X186182783Y-52732691D01*
X186182783Y-52732691D02*
X186182783Y-52877834D01*
X186182783Y-52877834D02*
X186231164Y-52974596D01*
X186231164Y-52974596D02*
X186279545Y-53022977D01*
X186279545Y-53022977D02*
X186376307Y-53071358D01*
X186376307Y-53071358D02*
X186618212Y-53071358D01*
X186618212Y-53071358D02*
X186714974Y-53022977D01*
X186714974Y-53022977D02*
X186763355Y-52974596D01*
X186763355Y-52974596D02*
X186811735Y-52877834D01*
X186811735Y-52877834D02*
X186811735Y-52587548D01*
X186811735Y-52587548D02*
X186763355Y-52490786D01*
X186763355Y-52490786D02*
X186714974Y-52442405D01*
X169031735Y-53071358D02*
X169031735Y-52490786D01*
X169031735Y-52781072D02*
X168015735Y-52781072D01*
X168015735Y-52781072D02*
X168160878Y-52684310D01*
X168160878Y-52684310D02*
X168257640Y-52587548D01*
X168257640Y-52587548D02*
X168306021Y-52490786D01*
X189117641Y-100451735D02*
X189698213Y-100451735D01*
X189407927Y-100451735D02*
X189407927Y-99435735D01*
X189407927Y-99435735D02*
X189504689Y-99580878D01*
X189504689Y-99580878D02*
X189601451Y-99677640D01*
X189601451Y-99677640D02*
X189698213Y-99726021D01*
X188488689Y-99435735D02*
X188391927Y-99435735D01*
X188391927Y-99435735D02*
X188295165Y-99484116D01*
X188295165Y-99484116D02*
X188246784Y-99532497D01*
X188246784Y-99532497D02*
X188198403Y-99629259D01*
X188198403Y-99629259D02*
X188150022Y-99822783D01*
X188150022Y-99822783D02*
X188150022Y-100064688D01*
X188150022Y-100064688D02*
X188198403Y-100258212D01*
X188198403Y-100258212D02*
X188246784Y-100354974D01*
X188246784Y-100354974D02*
X188295165Y-100403355D01*
X188295165Y-100403355D02*
X188391927Y-100451735D01*
X188391927Y-100451735D02*
X188488689Y-100451735D01*
X188488689Y-100451735D02*
X188585451Y-100403355D01*
X188585451Y-100403355D02*
X188633832Y-100354974D01*
X188633832Y-100354974D02*
X188682213Y-100258212D01*
X188682213Y-100258212D02*
X188730594Y-100064688D01*
X188730594Y-100064688D02*
X188730594Y-99822783D01*
X188730594Y-99822783D02*
X188682213Y-99629259D01*
X188682213Y-99629259D02*
X188633832Y-99532497D01*
X188633832Y-99532497D02*
X188585451Y-99484116D01*
X188585451Y-99484116D02*
X188488689Y-99435735D01*
X136817832Y-60319735D02*
X136817832Y-59303735D01*
X136817832Y-59303735D02*
X136237260Y-60319735D01*
X136237260Y-60319735D02*
X136237260Y-59303735D01*
X135753451Y-59787545D02*
X135414784Y-59787545D01*
X135269641Y-60319735D02*
X135753451Y-60319735D01*
X135753451Y-60319735D02*
X135753451Y-59303735D01*
X135753451Y-59303735D02*
X135269641Y-59303735D01*
X134350403Y-59303735D02*
X134834213Y-59303735D01*
X134834213Y-59303735D02*
X134882594Y-59787545D01*
X134882594Y-59787545D02*
X134834213Y-59739164D01*
X134834213Y-59739164D02*
X134737451Y-59690783D01*
X134737451Y-59690783D02*
X134495546Y-59690783D01*
X134495546Y-59690783D02*
X134398784Y-59739164D01*
X134398784Y-59739164D02*
X134350403Y-59787545D01*
X134350403Y-59787545D02*
X134302022Y-59884307D01*
X134302022Y-59884307D02*
X134302022Y-60126212D01*
X134302022Y-60126212D02*
X134350403Y-60222974D01*
X134350403Y-60222974D02*
X134398784Y-60271355D01*
X134398784Y-60271355D02*
X134495546Y-60319735D01*
X134495546Y-60319735D02*
X134737451Y-60319735D01*
X134737451Y-60319735D02*
X134834213Y-60271355D01*
X134834213Y-60271355D02*
X134882594Y-60222974D01*
X133382784Y-59303735D02*
X133866594Y-59303735D01*
X133866594Y-59303735D02*
X133914975Y-59787545D01*
X133914975Y-59787545D02*
X133866594Y-59739164D01*
X133866594Y-59739164D02*
X133769832Y-59690783D01*
X133769832Y-59690783D02*
X133527927Y-59690783D01*
X133527927Y-59690783D02*
X133431165Y-59739164D01*
X133431165Y-59739164D02*
X133382784Y-59787545D01*
X133382784Y-59787545D02*
X133334403Y-59884307D01*
X133334403Y-59884307D02*
X133334403Y-60126212D01*
X133334403Y-60126212D02*
X133382784Y-60222974D01*
X133382784Y-60222974D02*
X133431165Y-60271355D01*
X133431165Y-60271355D02*
X133527927Y-60319735D01*
X133527927Y-60319735D02*
X133769832Y-60319735D01*
X133769832Y-60319735D02*
X133866594Y-60271355D01*
X133866594Y-60271355D02*
X133914975Y-60222974D01*
X132415165Y-59303735D02*
X132898975Y-59303735D01*
X132898975Y-59303735D02*
X132947356Y-59787545D01*
X132947356Y-59787545D02*
X132898975Y-59739164D01*
X132898975Y-59739164D02*
X132802213Y-59690783D01*
X132802213Y-59690783D02*
X132560308Y-59690783D01*
X132560308Y-59690783D02*
X132463546Y-59739164D01*
X132463546Y-59739164D02*
X132415165Y-59787545D01*
X132415165Y-59787545D02*
X132366784Y-59884307D01*
X132366784Y-59884307D02*
X132366784Y-60126212D01*
X132366784Y-60126212D02*
X132415165Y-60222974D01*
X132415165Y-60222974D02*
X132463546Y-60271355D01*
X132463546Y-60271355D02*
X132560308Y-60319735D01*
X132560308Y-60319735D02*
X132802213Y-60319735D01*
X132802213Y-60319735D02*
X132898975Y-60271355D01*
X132898975Y-60271355D02*
X132947356Y-60222974D01*
X106059641Y-77591735D02*
X106640213Y-77591735D01*
X106349927Y-77591735D02*
X106349927Y-76575735D01*
X106349927Y-76575735D02*
X106446689Y-76720878D01*
X106446689Y-76720878D02*
X106543451Y-76817640D01*
X106543451Y-76817640D02*
X106640213Y-76866021D01*
X129167594Y-107055735D02*
X128490260Y-107055735D01*
X128490260Y-107055735D02*
X128925689Y-108071735D01*
X175637498Y-51780497D02*
X175734260Y-51732116D01*
X175734260Y-51732116D02*
X175831022Y-51635355D01*
X175831022Y-51635355D02*
X175976165Y-51490212D01*
X175976165Y-51490212D02*
X176072927Y-51441831D01*
X176072927Y-51441831D02*
X176169689Y-51441831D01*
X176121308Y-51683735D02*
X176218070Y-51635355D01*
X176218070Y-51635355D02*
X176314832Y-51538593D01*
X176314832Y-51538593D02*
X176363213Y-51345069D01*
X176363213Y-51345069D02*
X176363213Y-51006402D01*
X176363213Y-51006402D02*
X176314832Y-50812878D01*
X176314832Y-50812878D02*
X176218070Y-50716116D01*
X176218070Y-50716116D02*
X176121308Y-50667735D01*
X176121308Y-50667735D02*
X175927784Y-50667735D01*
X175927784Y-50667735D02*
X175831022Y-50716116D01*
X175831022Y-50716116D02*
X175734260Y-50812878D01*
X175734260Y-50812878D02*
X175685879Y-51006402D01*
X175685879Y-51006402D02*
X175685879Y-51345069D01*
X175685879Y-51345069D02*
X175734260Y-51538593D01*
X175734260Y-51538593D02*
X175831022Y-51635355D01*
X175831022Y-51635355D02*
X175927784Y-51683735D01*
X175927784Y-51683735D02*
X176121308Y-51683735D01*
X170652497Y-52490786D02*
X170604116Y-52539167D01*
X170604116Y-52539167D02*
X170555735Y-52635929D01*
X170555735Y-52635929D02*
X170555735Y-52877834D01*
X170555735Y-52877834D02*
X170604116Y-52974596D01*
X170604116Y-52974596D02*
X170652497Y-53022977D01*
X170652497Y-53022977D02*
X170749259Y-53071358D01*
X170749259Y-53071358D02*
X170846021Y-53071358D01*
X170846021Y-53071358D02*
X170991164Y-53022977D01*
X170991164Y-53022977D02*
X171571735Y-52442405D01*
X171571735Y-52442405D02*
X171571735Y-53071358D01*
X208971975Y-112135735D02*
X208391403Y-112135735D01*
X208681689Y-113151735D02*
X208681689Y-112135735D01*
X208149499Y-113151735D02*
X207617308Y-112474402D01*
X208149499Y-112474402D02*
X207617308Y-113151735D01*
X207230261Y-113151735D02*
X207230261Y-112135735D01*
X207230261Y-112135735D02*
X206988356Y-112135735D01*
X206988356Y-112135735D02*
X206843213Y-112184116D01*
X206843213Y-112184116D02*
X206746451Y-112280878D01*
X206746451Y-112280878D02*
X206698070Y-112377640D01*
X206698070Y-112377640D02*
X206649689Y-112571164D01*
X206649689Y-112571164D02*
X206649689Y-112716307D01*
X206649689Y-112716307D02*
X206698070Y-112909831D01*
X206698070Y-112909831D02*
X206746451Y-113006593D01*
X206746451Y-113006593D02*
X206843213Y-113103355D01*
X206843213Y-113103355D02*
X206988356Y-113151735D01*
X206988356Y-113151735D02*
X207230261Y-113151735D01*
X180715735Y-53022977D02*
X180715735Y-52539167D01*
X180715735Y-52539167D02*
X181199545Y-52490786D01*
X181199545Y-52490786D02*
X181151164Y-52539167D01*
X181151164Y-52539167D02*
X181102783Y-52635929D01*
X181102783Y-52635929D02*
X181102783Y-52877834D01*
X181102783Y-52877834D02*
X181151164Y-52974596D01*
X181151164Y-52974596D02*
X181199545Y-53022977D01*
X181199545Y-53022977D02*
X181296307Y-53071358D01*
X181296307Y-53071358D02*
X181538212Y-53071358D01*
X181538212Y-53071358D02*
X181634974Y-53022977D01*
X181634974Y-53022977D02*
X181683355Y-52974596D01*
X181683355Y-52974596D02*
X181731735Y-52877834D01*
X181731735Y-52877834D02*
X181731735Y-52635929D01*
X181731735Y-52635929D02*
X181683355Y-52539167D01*
X181683355Y-52539167D02*
X181634974Y-52490786D01*
X166759594Y-107055735D02*
X166082260Y-107055735D01*
X166082260Y-107055735D02*
X166517689Y-108071735D01*
X186684735Y-71359358D02*
X186684735Y-70778786D01*
X186684735Y-71069072D02*
X185668735Y-71069072D01*
X185668735Y-71069072D02*
X185813878Y-70972310D01*
X185813878Y-70972310D02*
X185910640Y-70875548D01*
X185910640Y-70875548D02*
X185959021Y-70778786D01*
X208500260Y-120674974D02*
X208548641Y-120723355D01*
X208548641Y-120723355D02*
X208693784Y-120771735D01*
X208693784Y-120771735D02*
X208790546Y-120771735D01*
X208790546Y-120771735D02*
X208935689Y-120723355D01*
X208935689Y-120723355D02*
X209032451Y-120626593D01*
X209032451Y-120626593D02*
X209080832Y-120529831D01*
X209080832Y-120529831D02*
X209129213Y-120336307D01*
X209129213Y-120336307D02*
X209129213Y-120191164D01*
X209129213Y-120191164D02*
X209080832Y-119997640D01*
X209080832Y-119997640D02*
X209032451Y-119900878D01*
X209032451Y-119900878D02*
X208935689Y-119804116D01*
X208935689Y-119804116D02*
X208790546Y-119755735D01*
X208790546Y-119755735D02*
X208693784Y-119755735D01*
X208693784Y-119755735D02*
X208548641Y-119804116D01*
X208548641Y-119804116D02*
X208500260Y-119852497D01*
X208209975Y-119755735D02*
X207629403Y-119755735D01*
X207919689Y-120771735D02*
X207919689Y-119755735D01*
X207339118Y-120723355D02*
X207193975Y-120771735D01*
X207193975Y-120771735D02*
X206952070Y-120771735D01*
X206952070Y-120771735D02*
X206855308Y-120723355D01*
X206855308Y-120723355D02*
X206806927Y-120674974D01*
X206806927Y-120674974D02*
X206758546Y-120578212D01*
X206758546Y-120578212D02*
X206758546Y-120481450D01*
X206758546Y-120481450D02*
X206806927Y-120384688D01*
X206806927Y-120384688D02*
X206855308Y-120336307D01*
X206855308Y-120336307D02*
X206952070Y-120287926D01*
X206952070Y-120287926D02*
X207145594Y-120239545D01*
X207145594Y-120239545D02*
X207242356Y-120191164D01*
X207242356Y-120191164D02*
X207290737Y-120142783D01*
X207290737Y-120142783D02*
X207339118Y-120046021D01*
X207339118Y-120046021D02*
X207339118Y-119949259D01*
X207339118Y-119949259D02*
X207290737Y-119852497D01*
X207290737Y-119852497D02*
X207242356Y-119804116D01*
X207242356Y-119804116D02*
X207145594Y-119755735D01*
X207145594Y-119755735D02*
X206903689Y-119755735D01*
X206903689Y-119755735D02*
X206758546Y-119804116D01*
X209221137Y-119473675D02*
X206666623Y-119473675D01*
X163457594Y-59303735D02*
X162780260Y-59303735D01*
X162780260Y-59303735D02*
X163215689Y-60319735D01*
X161957784Y-59642402D02*
X161957784Y-60319735D01*
X162199689Y-59255355D02*
X162441594Y-59981069D01*
X162441594Y-59981069D02*
X161812641Y-59981069D01*
X160941784Y-60319735D02*
X161425594Y-60319735D01*
X161425594Y-60319735D02*
X161425594Y-59303735D01*
X160651499Y-60271355D02*
X160506356Y-60319735D01*
X160506356Y-60319735D02*
X160264451Y-60319735D01*
X160264451Y-60319735D02*
X160167689Y-60271355D01*
X160167689Y-60271355D02*
X160119308Y-60222974D01*
X160119308Y-60222974D02*
X160070927Y-60126212D01*
X160070927Y-60126212D02*
X160070927Y-60029450D01*
X160070927Y-60029450D02*
X160119308Y-59932688D01*
X160119308Y-59932688D02*
X160167689Y-59884307D01*
X160167689Y-59884307D02*
X160264451Y-59835926D01*
X160264451Y-59835926D02*
X160457975Y-59787545D01*
X160457975Y-59787545D02*
X160554737Y-59739164D01*
X160554737Y-59739164D02*
X160603118Y-59690783D01*
X160603118Y-59690783D02*
X160651499Y-59594021D01*
X160651499Y-59594021D02*
X160651499Y-59497259D01*
X160651499Y-59497259D02*
X160603118Y-59400497D01*
X160603118Y-59400497D02*
X160554737Y-59352116D01*
X160554737Y-59352116D02*
X160457975Y-59303735D01*
X160457975Y-59303735D02*
X160216070Y-59303735D01*
X160216070Y-59303735D02*
X160070927Y-59352116D01*
X159732261Y-59303735D02*
X159103308Y-59303735D01*
X159103308Y-59303735D02*
X159441975Y-59690783D01*
X159441975Y-59690783D02*
X159296832Y-59690783D01*
X159296832Y-59690783D02*
X159200070Y-59739164D01*
X159200070Y-59739164D02*
X159151689Y-59787545D01*
X159151689Y-59787545D02*
X159103308Y-59884307D01*
X159103308Y-59884307D02*
X159103308Y-60126212D01*
X159103308Y-60126212D02*
X159151689Y-60222974D01*
X159151689Y-60222974D02*
X159200070Y-60271355D01*
X159200070Y-60271355D02*
X159296832Y-60319735D01*
X159296832Y-60319735D02*
X159587118Y-60319735D01*
X159587118Y-60319735D02*
X159683880Y-60271355D01*
X159683880Y-60271355D02*
X159732261Y-60222974D01*
X158716261Y-59400497D02*
X158667880Y-59352116D01*
X158667880Y-59352116D02*
X158571118Y-59303735D01*
X158571118Y-59303735D02*
X158329213Y-59303735D01*
X158329213Y-59303735D02*
X158232451Y-59352116D01*
X158232451Y-59352116D02*
X158184070Y-59400497D01*
X158184070Y-59400497D02*
X158135689Y-59497259D01*
X158135689Y-59497259D02*
X158135689Y-59594021D01*
X158135689Y-59594021D02*
X158184070Y-59739164D01*
X158184070Y-59739164D02*
X158764642Y-60319735D01*
X158764642Y-60319735D02*
X158135689Y-60319735D01*
X189351735Y-53071358D02*
X189351735Y-52490786D01*
X189351735Y-52781072D02*
X188335735Y-52781072D01*
X188335735Y-52781072D02*
X188480878Y-52684310D01*
X188480878Y-52684310D02*
X188577640Y-52587548D01*
X188577640Y-52587548D02*
X188626021Y-52490786D01*
X214838095Y-52055358D02*
X214838095Y-51474786D01*
X214838095Y-51765072D02*
X213822095Y-51765072D01*
X213822095Y-51765072D02*
X213967238Y-51668310D01*
X213967238Y-51668310D02*
X214064000Y-51571548D01*
X214064000Y-51571548D02*
X214112381Y-51474786D01*
X213822095Y-52394024D02*
X213822095Y-53022977D01*
X213822095Y-53022977D02*
X214209143Y-52684310D01*
X214209143Y-52684310D02*
X214209143Y-52829453D01*
X214209143Y-52829453D02*
X214257524Y-52926215D01*
X214257524Y-52926215D02*
X214305905Y-52974596D01*
X214305905Y-52974596D02*
X214402667Y-53022977D01*
X214402667Y-53022977D02*
X214644572Y-53022977D01*
X214644572Y-53022977D02*
X214741334Y-52974596D01*
X214741334Y-52974596D02*
X214789715Y-52926215D01*
X214789715Y-52926215D02*
X214838095Y-52829453D01*
X214838095Y-52829453D02*
X214838095Y-52539167D01*
X214838095Y-52539167D02*
X214789715Y-52442405D01*
X214789715Y-52442405D02*
X214741334Y-52394024D01*
X208500260Y-118231735D02*
X208838927Y-117747926D01*
X209080832Y-118231735D02*
X209080832Y-117215735D01*
X209080832Y-117215735D02*
X208693784Y-117215735D01*
X208693784Y-117215735D02*
X208597022Y-117264116D01*
X208597022Y-117264116D02*
X208548641Y-117312497D01*
X208548641Y-117312497D02*
X208500260Y-117409259D01*
X208500260Y-117409259D02*
X208500260Y-117554402D01*
X208500260Y-117554402D02*
X208548641Y-117651164D01*
X208548641Y-117651164D02*
X208597022Y-117699545D01*
X208597022Y-117699545D02*
X208693784Y-117747926D01*
X208693784Y-117747926D02*
X209080832Y-117747926D01*
X208209975Y-117215735D02*
X207629403Y-117215735D01*
X207919689Y-118231735D02*
X207919689Y-117215735D01*
X207339118Y-118183355D02*
X207193975Y-118231735D01*
X207193975Y-118231735D02*
X206952070Y-118231735D01*
X206952070Y-118231735D02*
X206855308Y-118183355D01*
X206855308Y-118183355D02*
X206806927Y-118134974D01*
X206806927Y-118134974D02*
X206758546Y-118038212D01*
X206758546Y-118038212D02*
X206758546Y-117941450D01*
X206758546Y-117941450D02*
X206806927Y-117844688D01*
X206806927Y-117844688D02*
X206855308Y-117796307D01*
X206855308Y-117796307D02*
X206952070Y-117747926D01*
X206952070Y-117747926D02*
X207145594Y-117699545D01*
X207145594Y-117699545D02*
X207242356Y-117651164D01*
X207242356Y-117651164D02*
X207290737Y-117602783D01*
X207290737Y-117602783D02*
X207339118Y-117506021D01*
X207339118Y-117506021D02*
X207339118Y-117409259D01*
X207339118Y-117409259D02*
X207290737Y-117312497D01*
X207290737Y-117312497D02*
X207242356Y-117264116D01*
X207242356Y-117264116D02*
X207145594Y-117215735D01*
X207145594Y-117215735D02*
X206903689Y-117215735D01*
X206903689Y-117215735D02*
X206758546Y-117264116D01*
X209221137Y-116933675D02*
X206666623Y-116933675D01*
X209334832Y-123311735D02*
X209334832Y-122295735D01*
X209334832Y-122295735D02*
X209092927Y-122295735D01*
X209092927Y-122295735D02*
X208947784Y-122344116D01*
X208947784Y-122344116D02*
X208851022Y-122440878D01*
X208851022Y-122440878D02*
X208802641Y-122537640D01*
X208802641Y-122537640D02*
X208754260Y-122731164D01*
X208754260Y-122731164D02*
X208754260Y-122876307D01*
X208754260Y-122876307D02*
X208802641Y-123069831D01*
X208802641Y-123069831D02*
X208851022Y-123166593D01*
X208851022Y-123166593D02*
X208947784Y-123263355D01*
X208947784Y-123263355D02*
X209092927Y-123311735D01*
X209092927Y-123311735D02*
X209334832Y-123311735D01*
X207738260Y-123214974D02*
X207786641Y-123263355D01*
X207786641Y-123263355D02*
X207931784Y-123311735D01*
X207931784Y-123311735D02*
X208028546Y-123311735D01*
X208028546Y-123311735D02*
X208173689Y-123263355D01*
X208173689Y-123263355D02*
X208270451Y-123166593D01*
X208270451Y-123166593D02*
X208318832Y-123069831D01*
X208318832Y-123069831D02*
X208367213Y-122876307D01*
X208367213Y-122876307D02*
X208367213Y-122731164D01*
X208367213Y-122731164D02*
X208318832Y-122537640D01*
X208318832Y-122537640D02*
X208270451Y-122440878D01*
X208270451Y-122440878D02*
X208173689Y-122344116D01*
X208173689Y-122344116D02*
X208028546Y-122295735D01*
X208028546Y-122295735D02*
X207931784Y-122295735D01*
X207931784Y-122295735D02*
X207786641Y-122344116D01*
X207786641Y-122344116D02*
X207738260Y-122392497D01*
X207302832Y-123311735D02*
X207302832Y-122295735D01*
X207302832Y-122295735D02*
X207060927Y-122295735D01*
X207060927Y-122295735D02*
X206915784Y-122344116D01*
X206915784Y-122344116D02*
X206819022Y-122440878D01*
X206819022Y-122440878D02*
X206770641Y-122537640D01*
X206770641Y-122537640D02*
X206722260Y-122731164D01*
X206722260Y-122731164D02*
X206722260Y-122876307D01*
X206722260Y-122876307D02*
X206770641Y-123069831D01*
X206770641Y-123069831D02*
X206819022Y-123166593D01*
X206819022Y-123166593D02*
X206915784Y-123263355D01*
X206915784Y-123263355D02*
X207060927Y-123311735D01*
X207060927Y-123311735D02*
X207302832Y-123311735D01*
X209475137Y-122013675D02*
X206630337Y-122013675D01*
X194431735Y-52055358D02*
X194431735Y-51474786D01*
X194431735Y-51765072D02*
X193415735Y-51765072D01*
X193415735Y-51765072D02*
X193560878Y-51668310D01*
X193560878Y-51668310D02*
X193657640Y-51571548D01*
X193657640Y-51571548D02*
X193706021Y-51474786D01*
X194431735Y-53022977D02*
X194431735Y-52442405D01*
X194431735Y-52732691D02*
X193415735Y-52732691D01*
X193415735Y-52732691D02*
X193560878Y-52635929D01*
X193560878Y-52635929D02*
X193657640Y-52539167D01*
X193657640Y-52539167D02*
X193706021Y-52442405D01*
X218448594Y-101975735D02*
X217771260Y-101975735D01*
X217771260Y-101975735D02*
X218448594Y-102991735D01*
X218448594Y-102991735D02*
X217771260Y-102991735D01*
X216803641Y-102894974D02*
X216852022Y-102943355D01*
X216852022Y-102943355D02*
X216997165Y-102991735D01*
X216997165Y-102991735D02*
X217093927Y-102991735D01*
X217093927Y-102991735D02*
X217239070Y-102943355D01*
X217239070Y-102943355D02*
X217335832Y-102846593D01*
X217335832Y-102846593D02*
X217384213Y-102749831D01*
X217384213Y-102749831D02*
X217432594Y-102556307D01*
X217432594Y-102556307D02*
X217432594Y-102411164D01*
X217432594Y-102411164D02*
X217384213Y-102217640D01*
X217384213Y-102217640D02*
X217335832Y-102120878D01*
X217335832Y-102120878D02*
X217239070Y-102024116D01*
X217239070Y-102024116D02*
X217093927Y-101975735D01*
X217093927Y-101975735D02*
X216997165Y-101975735D01*
X216997165Y-101975735D02*
X216852022Y-102024116D01*
X216852022Y-102024116D02*
X216803641Y-102072497D01*
X215836022Y-102991735D02*
X216416594Y-102991735D01*
X216126308Y-102991735D02*
X216126308Y-101975735D01*
X216126308Y-101975735D02*
X216223070Y-102120878D01*
X216223070Y-102120878D02*
X216319832Y-102217640D01*
X216319832Y-102217640D02*
X216416594Y-102266021D01*
X178175735Y-52974596D02*
X178175735Y-52781072D01*
X178175735Y-52781072D02*
X178224116Y-52684310D01*
X178224116Y-52684310D02*
X178272497Y-52635929D01*
X178272497Y-52635929D02*
X178417640Y-52539167D01*
X178417640Y-52539167D02*
X178611164Y-52490786D01*
X178611164Y-52490786D02*
X178998212Y-52490786D01*
X178998212Y-52490786D02*
X179094974Y-52539167D01*
X179094974Y-52539167D02*
X179143355Y-52587548D01*
X179143355Y-52587548D02*
X179191735Y-52684310D01*
X179191735Y-52684310D02*
X179191735Y-52877834D01*
X179191735Y-52877834D02*
X179143355Y-52974596D01*
X179143355Y-52974596D02*
X179094974Y-53022977D01*
X179094974Y-53022977D02*
X178998212Y-53071358D01*
X178998212Y-53071358D02*
X178756307Y-53071358D01*
X178756307Y-53071358D02*
X178659545Y-53022977D01*
X178659545Y-53022977D02*
X178611164Y-52974596D01*
X178611164Y-52974596D02*
X178562783Y-52877834D01*
X178562783Y-52877834D02*
X178562783Y-52684310D01*
X178562783Y-52684310D02*
X178611164Y-52587548D01*
X178611164Y-52587548D02*
X178659545Y-52539167D01*
X178659545Y-52539167D02*
X178756307Y-52490786D01*
X218660260Y-105434974D02*
X218708641Y-105483355D01*
X218708641Y-105483355D02*
X218853784Y-105531735D01*
X218853784Y-105531735D02*
X218950546Y-105531735D01*
X218950546Y-105531735D02*
X219095689Y-105483355D01*
X219095689Y-105483355D02*
X219192451Y-105386593D01*
X219192451Y-105386593D02*
X219240832Y-105289831D01*
X219240832Y-105289831D02*
X219289213Y-105096307D01*
X219289213Y-105096307D02*
X219289213Y-104951164D01*
X219289213Y-104951164D02*
X219240832Y-104757640D01*
X219240832Y-104757640D02*
X219192451Y-104660878D01*
X219192451Y-104660878D02*
X219095689Y-104564116D01*
X219095689Y-104564116D02*
X218950546Y-104515735D01*
X218950546Y-104515735D02*
X218853784Y-104515735D01*
X218853784Y-104515735D02*
X218708641Y-104564116D01*
X218708641Y-104564116D02*
X218660260Y-104612497D01*
X217741022Y-105531735D02*
X218224832Y-105531735D01*
X218224832Y-105531735D02*
X218224832Y-104515735D01*
X217402356Y-105531735D02*
X217402356Y-104515735D01*
X216821784Y-105531735D02*
X217257213Y-104951164D01*
X216821784Y-104515735D02*
X217402356Y-105096307D01*
X215854165Y-105531735D02*
X216434737Y-105531735D01*
X216144451Y-105531735D02*
X216144451Y-104515735D01*
X216144451Y-104515735D02*
X216241213Y-104660878D01*
X216241213Y-104660878D02*
X216337975Y-104757640D01*
X216337975Y-104757640D02*
X216434737Y-104806021D01*
X218660260Y-107974974D02*
X218708641Y-108023355D01*
X218708641Y-108023355D02*
X218853784Y-108071735D01*
X218853784Y-108071735D02*
X218950546Y-108071735D01*
X218950546Y-108071735D02*
X219095689Y-108023355D01*
X219095689Y-108023355D02*
X219192451Y-107926593D01*
X219192451Y-107926593D02*
X219240832Y-107829831D01*
X219240832Y-107829831D02*
X219289213Y-107636307D01*
X219289213Y-107636307D02*
X219289213Y-107491164D01*
X219289213Y-107491164D02*
X219240832Y-107297640D01*
X219240832Y-107297640D02*
X219192451Y-107200878D01*
X219192451Y-107200878D02*
X219095689Y-107104116D01*
X219095689Y-107104116D02*
X218950546Y-107055735D01*
X218950546Y-107055735D02*
X218853784Y-107055735D01*
X218853784Y-107055735D02*
X218708641Y-107104116D01*
X218708641Y-107104116D02*
X218660260Y-107152497D01*
X217741022Y-108071735D02*
X218224832Y-108071735D01*
X218224832Y-108071735D02*
X218224832Y-107055735D01*
X217402356Y-108071735D02*
X217402356Y-107055735D01*
X216821784Y-108071735D02*
X217257213Y-107491164D01*
X216821784Y-107055735D02*
X217402356Y-107636307D01*
X216434737Y-107152497D02*
X216386356Y-107104116D01*
X216386356Y-107104116D02*
X216289594Y-107055735D01*
X216289594Y-107055735D02*
X216047689Y-107055735D01*
X216047689Y-107055735D02*
X215950927Y-107104116D01*
X215950927Y-107104116D02*
X215902546Y-107152497D01*
X215902546Y-107152497D02*
X215854165Y-107249259D01*
X215854165Y-107249259D02*
X215854165Y-107346021D01*
X215854165Y-107346021D02*
X215902546Y-107491164D01*
X215902546Y-107491164D02*
X216483118Y-108071735D01*
X216483118Y-108071735D02*
X215854165Y-108071735D01*
X166003641Y-92831735D02*
X166584213Y-92831735D01*
X166293927Y-92831735D02*
X166293927Y-91815735D01*
X166293927Y-91815735D02*
X166390689Y-91960878D01*
X166390689Y-91960878D02*
X166487451Y-92057640D01*
X166487451Y-92057640D02*
X166584213Y-92106021D01*
X204591735Y-52055358D02*
X204591735Y-51474786D01*
X204591735Y-51765072D02*
X203575735Y-51765072D01*
X203575735Y-51765072D02*
X203720878Y-51668310D01*
X203720878Y-51668310D02*
X203817640Y-51571548D01*
X203817640Y-51571548D02*
X203866021Y-51474786D01*
X203575735Y-52974596D02*
X203575735Y-52490786D01*
X203575735Y-52490786D02*
X204059545Y-52442405D01*
X204059545Y-52442405D02*
X204011164Y-52490786D01*
X204011164Y-52490786D02*
X203962783Y-52587548D01*
X203962783Y-52587548D02*
X203962783Y-52829453D01*
X203962783Y-52829453D02*
X204011164Y-52926215D01*
X204011164Y-52926215D02*
X204059545Y-52974596D01*
X204059545Y-52974596D02*
X204156307Y-53022977D01*
X204156307Y-53022977D02*
X204398212Y-53022977D01*
X204398212Y-53022977D02*
X204494974Y-52974596D01*
X204494974Y-52974596D02*
X204543355Y-52926215D01*
X204543355Y-52926215D02*
X204591735Y-52829453D01*
X204591735Y-52829453D02*
X204591735Y-52587548D01*
X204591735Y-52587548D02*
X204543355Y-52490786D01*
X204543355Y-52490786D02*
X204494974Y-52442405D01*
X128411641Y-69463735D02*
X128992213Y-69463735D01*
X128701927Y-69463735D02*
X128701927Y-68447735D01*
X128701927Y-68447735D02*
X128798689Y-68592878D01*
X128798689Y-68592878D02*
X128895451Y-68689640D01*
X128895451Y-68689640D02*
X128992213Y-68738021D01*
%TO.C,U1*%
X102812000Y-75639000D02*
X120932000Y-75639000D01*
X102812000Y-126679000D02*
X102812000Y-75639000D01*
X105812000Y-75699000D02*
X110872000Y-75699000D01*
X105812000Y-126619000D02*
X105812000Y-75699000D01*
X112872000Y-75699000D02*
X117932000Y-75699000D01*
X117932000Y-75699000D02*
X117932000Y-126619000D01*
X117932000Y-126619000D02*
X105812000Y-126619000D01*
X120932000Y-75639000D02*
X120932000Y-126679000D01*
X120932000Y-126679000D02*
X102812000Y-126679000D01*
X110872000Y-75699000D02*
G75*
G03*
X112872000Y-75699000I1000000J0D01*
G01*
%TO.C,U8*%
X173922000Y-65031000D02*
X184422000Y-65031000D01*
X173922000Y-85591000D02*
X173922000Y-65031000D01*
X176922000Y-65091000D02*
X178172000Y-65091000D01*
X176922000Y-85531000D02*
X176922000Y-65091000D01*
X180172000Y-65091000D02*
X181422000Y-65091000D01*
X181422000Y-65091000D02*
X181422000Y-85531000D01*
X181422000Y-85531000D02*
X176922000Y-85531000D01*
X184422000Y-65031000D02*
X184422000Y-85591000D01*
X184422000Y-85591000D02*
X173922000Y-85591000D01*
X178172000Y-65091000D02*
G75*
G03*
X180172000Y-65091000I1000000J0D01*
G01*
%TO.C,U11*%
X126758000Y-63513000D02*
X126758000Y-53013000D01*
X137158000Y-63513000D02*
X126758000Y-63513000D01*
X126818000Y-60513000D02*
X126818000Y-59263000D01*
X137098000Y-60513000D02*
X126818000Y-60513000D01*
X126818000Y-57263000D02*
X126818000Y-56013000D01*
X126818000Y-56013000D02*
X137098000Y-56013000D01*
X137098000Y-56013000D02*
X137098000Y-60513000D01*
X126758000Y-53013000D02*
X137158000Y-53013000D01*
X137158000Y-53013000D02*
X137158000Y-63513000D01*
X126818000Y-59263000D02*
G75*
G03*
X126818000Y-57263000I0J1000000D01*
G01*
%TO.C,U3*%
X143940000Y-90924000D02*
X162060000Y-90924000D01*
X143940000Y-126724000D02*
X143940000Y-90924000D01*
X146940000Y-90984000D02*
X152000000Y-90984000D01*
X146940000Y-126664000D02*
X146940000Y-90984000D01*
X154000000Y-90984000D02*
X159060000Y-90984000D01*
X159060000Y-90984000D02*
X159060000Y-126664000D01*
X159060000Y-126664000D02*
X146940000Y-126664000D01*
X162060000Y-90924000D02*
X162060000Y-126724000D01*
X162060000Y-126724000D02*
X143940000Y-126724000D01*
X152000000Y-90984000D02*
G75*
G03*
X154000000Y-90984000I1000000J0D01*
G01*
%TO.C,U7*%
X184914000Y-74689000D02*
X184914000Y-56569000D01*
X215634000Y-74689000D02*
X184914000Y-74689000D01*
X184974000Y-71689000D02*
X184974000Y-66629000D01*
X215574000Y-71689000D02*
X184974000Y-71689000D01*
X184974000Y-64629000D02*
X184974000Y-59569000D01*
X184974000Y-59569000D02*
X215574000Y-59569000D01*
X215574000Y-59569000D02*
X215574000Y-71689000D01*
X184914000Y-56569000D02*
X215634000Y-56569000D01*
X215634000Y-56569000D02*
X215634000Y-74689000D01*
X184974000Y-66629000D02*
G75*
G03*
X184974000Y-64629000I0J1000000D01*
G01*
%TO.C,U5*%
X184839000Y-75674000D02*
X202959000Y-75674000D01*
X184839000Y-126714000D02*
X184839000Y-75674000D01*
X187839000Y-75734000D02*
X192899000Y-75734000D01*
X187839000Y-126654000D02*
X187839000Y-75734000D01*
X194899000Y-75734000D02*
X199959000Y-75734000D01*
X199959000Y-75734000D02*
X199959000Y-126654000D01*
X199959000Y-126654000D02*
X187839000Y-126654000D01*
X202959000Y-75674000D02*
X202959000Y-126714000D01*
X202959000Y-126714000D02*
X184839000Y-126714000D01*
X192899000Y-75734000D02*
G75*
G03*
X194899000Y-75734000I1000000J0D01*
G01*
%TO.C,U9*%
X145793000Y-63513000D02*
X145793000Y-53013000D01*
X163813000Y-63513000D02*
X145793000Y-63513000D01*
X145853000Y-60513000D02*
X145853000Y-59263000D01*
X163753000Y-60513000D02*
X145853000Y-60513000D01*
X145853000Y-57263000D02*
X145853000Y-56013000D01*
X145853000Y-56013000D02*
X163753000Y-56013000D01*
X163753000Y-56013000D02*
X163753000Y-60513000D01*
X145793000Y-53013000D02*
X163813000Y-53013000D01*
X163813000Y-53013000D02*
X163813000Y-63513000D01*
X145853000Y-59263000D02*
G75*
G03*
X145853000Y-57263000I0J1000000D01*
G01*
%TO.C,U4*%
X162776000Y-90914000D02*
X180896000Y-90914000D01*
X162776000Y-126714000D02*
X162776000Y-90914000D01*
X165776000Y-90974000D02*
X170836000Y-90974000D01*
X165776000Y-126654000D02*
X165776000Y-90974000D01*
X172836000Y-90974000D02*
X177896000Y-90974000D01*
X177896000Y-90974000D02*
X177896000Y-126654000D01*
X177896000Y-126654000D02*
X165776000Y-126654000D01*
X180896000Y-90914000D02*
X180896000Y-126714000D01*
X180896000Y-126714000D02*
X162776000Y-126714000D01*
X170836000Y-90974000D02*
G75*
G03*
X172836000Y-90974000I1000000J0D01*
G01*
%TO.C,U2*%
X125179000Y-90899000D02*
X143299000Y-90899000D01*
X125179000Y-126699000D02*
X125179000Y-90899000D01*
X128179000Y-90959000D02*
X133239000Y-90959000D01*
X128179000Y-126639000D02*
X128179000Y-90959000D01*
X135239000Y-90959000D02*
X140299000Y-90959000D01*
X140299000Y-90959000D02*
X140299000Y-126639000D01*
X140299000Y-126639000D02*
X128179000Y-126639000D01*
X143299000Y-90899000D02*
X143299000Y-126699000D01*
X143299000Y-126699000D02*
X125179000Y-126699000D01*
X133239000Y-90959000D02*
G75*
G03*
X135239000Y-90959000I1000000J0D01*
G01*
%TO.C,U6*%
X125144000Y-67541000D02*
X135644000Y-67541000D01*
X125144000Y-85561000D02*
X125144000Y-67541000D01*
X128144000Y-67601000D02*
X129394000Y-67601000D01*
X128144000Y-85501000D02*
X128144000Y-67601000D01*
X131394000Y-67601000D02*
X132644000Y-67601000D01*
X132644000Y-67601000D02*
X132644000Y-85501000D01*
X132644000Y-85501000D02*
X128144000Y-85501000D01*
X135644000Y-67541000D02*
X135644000Y-85561000D01*
X135644000Y-85561000D02*
X125144000Y-85561000D01*
X129394000Y-67601000D02*
G75*
G03*
X131394000Y-67601000I1000000J0D01*
G01*
%TO.C,U10*%
X149548000Y-67536000D02*
X160048000Y-67536000D01*
X149548000Y-85556000D02*
X149548000Y-67536000D01*
X152548000Y-67596000D02*
X153798000Y-67596000D01*
X152548000Y-85496000D02*
X152548000Y-67596000D01*
X155798000Y-67596000D02*
X157048000Y-67596000D01*
X157048000Y-67596000D02*
X157048000Y-85496000D01*
X157048000Y-85496000D02*
X152548000Y-85496000D01*
X160048000Y-67536000D02*
X160048000Y-85556000D01*
X160048000Y-85556000D02*
X149548000Y-85556000D01*
X153798000Y-67596000D02*
G75*
G03*
X155798000Y-67596000I1000000J0D01*
G01*
%TD*%
M02*
