%TF.GenerationSoftware,KiCad,Pcbnew,7.0.8*%
%TF.CreationDate,2023-10-16T13:19:17-04:00*%
%TF.ProjectId,jml-8-mini,6a6d6c2d-382d-46d6-996e-692e6b696361,rev?*%
%TF.SameCoordinates,Original*%
%TF.FileFunction,Legend,Bot*%
%TF.FilePolarity,Positive*%
%FSLAX46Y46*%
G04 Gerber Fmt 4.6, Leading zero omitted, Abs format (unit mm)*
G04 Created by KiCad (PCBNEW 7.0.8) date 2023-10-16 13:19:17*
%MOMM*%
%LPD*%
G01*
G04 APERTURE LIST*
%ADD10C,0.152400*%
G04 APERTURE END LIST*
D10*
X202051735Y-60564358D02*
X202051735Y-59983786D01*
X202051735Y-60274072D02*
X201035735Y-60274072D01*
X201035735Y-60274072D02*
X201180878Y-60177310D01*
X201180878Y-60177310D02*
X201277640Y-60080548D01*
X201277640Y-60080548D02*
X201326021Y-59983786D01*
X201471164Y-61144929D02*
X201422783Y-61048167D01*
X201422783Y-61048167D02*
X201374402Y-60999786D01*
X201374402Y-60999786D02*
X201277640Y-60951405D01*
X201277640Y-60951405D02*
X201229259Y-60951405D01*
X201229259Y-60951405D02*
X201132497Y-60999786D01*
X201132497Y-60999786D02*
X201084116Y-61048167D01*
X201084116Y-61048167D02*
X201035735Y-61144929D01*
X201035735Y-61144929D02*
X201035735Y-61338453D01*
X201035735Y-61338453D02*
X201084116Y-61435215D01*
X201084116Y-61435215D02*
X201132497Y-61483596D01*
X201132497Y-61483596D02*
X201229259Y-61531977D01*
X201229259Y-61531977D02*
X201277640Y-61531977D01*
X201277640Y-61531977D02*
X201374402Y-61483596D01*
X201374402Y-61483596D02*
X201422783Y-61435215D01*
X201422783Y-61435215D02*
X201471164Y-61338453D01*
X201471164Y-61338453D02*
X201471164Y-61144929D01*
X201471164Y-61144929D02*
X201519545Y-61048167D01*
X201519545Y-61048167D02*
X201567926Y-60999786D01*
X201567926Y-60999786D02*
X201664688Y-60951405D01*
X201664688Y-60951405D02*
X201858212Y-60951405D01*
X201858212Y-60951405D02*
X201954974Y-60999786D01*
X201954974Y-60999786D02*
X202003355Y-61048167D01*
X202003355Y-61048167D02*
X202051735Y-61144929D01*
X202051735Y-61144929D02*
X202051735Y-61338453D01*
X202051735Y-61338453D02*
X202003355Y-61435215D01*
X202003355Y-61435215D02*
X201954974Y-61483596D01*
X201954974Y-61483596D02*
X201858212Y-61531977D01*
X201858212Y-61531977D02*
X201664688Y-61531977D01*
X201664688Y-61531977D02*
X201567926Y-61483596D01*
X201567926Y-61483596D02*
X201519545Y-61435215D01*
X201519545Y-61435215D02*
X201471164Y-61338453D01*
X153802264Y-85098594D02*
X153802264Y-84421260D01*
X153802264Y-84421260D02*
X152786264Y-84856689D01*
X153463597Y-83598784D02*
X152786264Y-83598784D01*
X153850645Y-83840689D02*
X153124930Y-84082594D01*
X153124930Y-84082594D02*
X153124930Y-83453641D01*
X152786264Y-82582784D02*
X152786264Y-83066594D01*
X152786264Y-83066594D02*
X153802264Y-83066594D01*
X152834645Y-82292499D02*
X152786264Y-82147356D01*
X152786264Y-82147356D02*
X152786264Y-81905451D01*
X152786264Y-81905451D02*
X152834645Y-81808689D01*
X152834645Y-81808689D02*
X152883025Y-81760308D01*
X152883025Y-81760308D02*
X152979787Y-81711927D01*
X152979787Y-81711927D02*
X153076549Y-81711927D01*
X153076549Y-81711927D02*
X153173311Y-81760308D01*
X153173311Y-81760308D02*
X153221692Y-81808689D01*
X153221692Y-81808689D02*
X153270073Y-81905451D01*
X153270073Y-81905451D02*
X153318454Y-82098975D01*
X153318454Y-82098975D02*
X153366835Y-82195737D01*
X153366835Y-82195737D02*
X153415216Y-82244118D01*
X153415216Y-82244118D02*
X153511978Y-82292499D01*
X153511978Y-82292499D02*
X153608740Y-82292499D01*
X153608740Y-82292499D02*
X153705502Y-82244118D01*
X153705502Y-82244118D02*
X153753883Y-82195737D01*
X153753883Y-82195737D02*
X153802264Y-82098975D01*
X153802264Y-82098975D02*
X153802264Y-81857070D01*
X153802264Y-81857070D02*
X153753883Y-81711927D01*
X153802264Y-81373261D02*
X153802264Y-80695927D01*
X153802264Y-80695927D02*
X152786264Y-81131356D01*
X153463597Y-79873451D02*
X152786264Y-79873451D01*
X153850645Y-80115356D02*
X153124930Y-80357261D01*
X153124930Y-80357261D02*
X153124930Y-79728308D01*
X136993213Y-124932497D02*
X136944832Y-124884116D01*
X136944832Y-124884116D02*
X136848070Y-124835735D01*
X136848070Y-124835735D02*
X136606165Y-124835735D01*
X136606165Y-124835735D02*
X136509403Y-124884116D01*
X136509403Y-124884116D02*
X136461022Y-124932497D01*
X136461022Y-124932497D02*
X136412641Y-125029259D01*
X136412641Y-125029259D02*
X136412641Y-125126021D01*
X136412641Y-125126021D02*
X136461022Y-125271164D01*
X136461022Y-125271164D02*
X137041594Y-125851735D01*
X137041594Y-125851735D02*
X136412641Y-125851735D01*
X135832070Y-125271164D02*
X135928832Y-125222783D01*
X135928832Y-125222783D02*
X135977213Y-125174402D01*
X135977213Y-125174402D02*
X136025594Y-125077640D01*
X136025594Y-125077640D02*
X136025594Y-125029259D01*
X136025594Y-125029259D02*
X135977213Y-124932497D01*
X135977213Y-124932497D02*
X135928832Y-124884116D01*
X135928832Y-124884116D02*
X135832070Y-124835735D01*
X135832070Y-124835735D02*
X135638546Y-124835735D01*
X135638546Y-124835735D02*
X135541784Y-124884116D01*
X135541784Y-124884116D02*
X135493403Y-124932497D01*
X135493403Y-124932497D02*
X135445022Y-125029259D01*
X135445022Y-125029259D02*
X135445022Y-125077640D01*
X135445022Y-125077640D02*
X135493403Y-125174402D01*
X135493403Y-125174402D02*
X135541784Y-125222783D01*
X135541784Y-125222783D02*
X135638546Y-125271164D01*
X135638546Y-125271164D02*
X135832070Y-125271164D01*
X135832070Y-125271164D02*
X135928832Y-125319545D01*
X135928832Y-125319545D02*
X135977213Y-125367926D01*
X135977213Y-125367926D02*
X136025594Y-125464688D01*
X136025594Y-125464688D02*
X136025594Y-125658212D01*
X136025594Y-125658212D02*
X135977213Y-125754974D01*
X135977213Y-125754974D02*
X135928832Y-125803355D01*
X135928832Y-125803355D02*
X135832070Y-125851735D01*
X135832070Y-125851735D02*
X135638546Y-125851735D01*
X135638546Y-125851735D02*
X135541784Y-125803355D01*
X135541784Y-125803355D02*
X135493403Y-125754974D01*
X135493403Y-125754974D02*
X135445022Y-125658212D01*
X135445022Y-125658212D02*
X135445022Y-125464688D01*
X135445022Y-125464688D02*
X135493403Y-125367926D01*
X135493403Y-125367926D02*
X135541784Y-125319545D01*
X135541784Y-125319545D02*
X135638546Y-125271164D01*
X135009594Y-125851735D02*
X135009594Y-124835735D01*
X135009594Y-125319545D02*
X134429022Y-125319545D01*
X134429022Y-125851735D02*
X134429022Y-124835735D01*
X133364641Y-125754974D02*
X133413022Y-125803355D01*
X133413022Y-125803355D02*
X133558165Y-125851735D01*
X133558165Y-125851735D02*
X133654927Y-125851735D01*
X133654927Y-125851735D02*
X133800070Y-125803355D01*
X133800070Y-125803355D02*
X133896832Y-125706593D01*
X133896832Y-125706593D02*
X133945213Y-125609831D01*
X133945213Y-125609831D02*
X133993594Y-125416307D01*
X133993594Y-125416307D02*
X133993594Y-125271164D01*
X133993594Y-125271164D02*
X133945213Y-125077640D01*
X133945213Y-125077640D02*
X133896832Y-124980878D01*
X133896832Y-124980878D02*
X133800070Y-124884116D01*
X133800070Y-124884116D02*
X133654927Y-124835735D01*
X133654927Y-124835735D02*
X133558165Y-124835735D01*
X133558165Y-124835735D02*
X133413022Y-124884116D01*
X133413022Y-124884116D02*
X133364641Y-124932497D01*
X132493784Y-124835735D02*
X132687308Y-124835735D01*
X132687308Y-124835735D02*
X132784070Y-124884116D01*
X132784070Y-124884116D02*
X132832451Y-124932497D01*
X132832451Y-124932497D02*
X132929213Y-125077640D01*
X132929213Y-125077640D02*
X132977594Y-125271164D01*
X132977594Y-125271164D02*
X132977594Y-125658212D01*
X132977594Y-125658212D02*
X132929213Y-125754974D01*
X132929213Y-125754974D02*
X132880832Y-125803355D01*
X132880832Y-125803355D02*
X132784070Y-125851735D01*
X132784070Y-125851735D02*
X132590546Y-125851735D01*
X132590546Y-125851735D02*
X132493784Y-125803355D01*
X132493784Y-125803355D02*
X132445403Y-125754974D01*
X132445403Y-125754974D02*
X132397022Y-125658212D01*
X132397022Y-125658212D02*
X132397022Y-125416307D01*
X132397022Y-125416307D02*
X132445403Y-125319545D01*
X132445403Y-125319545D02*
X132493784Y-125271164D01*
X132493784Y-125271164D02*
X132590546Y-125222783D01*
X132590546Y-125222783D02*
X132784070Y-125222783D01*
X132784070Y-125222783D02*
X132880832Y-125271164D01*
X132880832Y-125271164D02*
X132929213Y-125319545D01*
X132929213Y-125319545D02*
X132977594Y-125416307D01*
X131526165Y-125174402D02*
X131526165Y-125851735D01*
X131768070Y-124787355D02*
X132009975Y-125513069D01*
X132009975Y-125513069D02*
X131381022Y-125513069D01*
X178186264Y-85225594D02*
X178186264Y-84548260D01*
X178186264Y-84548260D02*
X177170264Y-84983689D01*
X177847597Y-83725784D02*
X177170264Y-83725784D01*
X178234645Y-83967689D02*
X177508930Y-84209594D01*
X177508930Y-84209594D02*
X177508930Y-83580641D01*
X177170264Y-82709784D02*
X177170264Y-83193594D01*
X177170264Y-83193594D02*
X178186264Y-83193594D01*
X177218645Y-82419499D02*
X177170264Y-82274356D01*
X177170264Y-82274356D02*
X177170264Y-82032451D01*
X177170264Y-82032451D02*
X177218645Y-81935689D01*
X177218645Y-81935689D02*
X177267025Y-81887308D01*
X177267025Y-81887308D02*
X177363787Y-81838927D01*
X177363787Y-81838927D02*
X177460549Y-81838927D01*
X177460549Y-81838927D02*
X177557311Y-81887308D01*
X177557311Y-81887308D02*
X177605692Y-81935689D01*
X177605692Y-81935689D02*
X177654073Y-82032451D01*
X177654073Y-82032451D02*
X177702454Y-82225975D01*
X177702454Y-82225975D02*
X177750835Y-82322737D01*
X177750835Y-82322737D02*
X177799216Y-82371118D01*
X177799216Y-82371118D02*
X177895978Y-82419499D01*
X177895978Y-82419499D02*
X177992740Y-82419499D01*
X177992740Y-82419499D02*
X178089502Y-82371118D01*
X178089502Y-82371118D02*
X178137883Y-82322737D01*
X178137883Y-82322737D02*
X178186264Y-82225975D01*
X178186264Y-82225975D02*
X178186264Y-81984070D01*
X178186264Y-81984070D02*
X178137883Y-81838927D01*
X177170264Y-80871308D02*
X177170264Y-81451880D01*
X177170264Y-81161594D02*
X178186264Y-81161594D01*
X178186264Y-81161594D02*
X178041121Y-81258356D01*
X178041121Y-81258356D02*
X177944359Y-81355118D01*
X177944359Y-81355118D02*
X177895978Y-81451880D01*
X178186264Y-80532642D02*
X178186264Y-79903689D01*
X178186264Y-79903689D02*
X177799216Y-80242356D01*
X177799216Y-80242356D02*
X177799216Y-80097213D01*
X177799216Y-80097213D02*
X177750835Y-80000451D01*
X177750835Y-80000451D02*
X177702454Y-79952070D01*
X177702454Y-79952070D02*
X177605692Y-79903689D01*
X177605692Y-79903689D02*
X177363787Y-79903689D01*
X177363787Y-79903689D02*
X177267025Y-79952070D01*
X177267025Y-79952070D02*
X177218645Y-80000451D01*
X177218645Y-80000451D02*
X177170264Y-80097213D01*
X177170264Y-80097213D02*
X177170264Y-80387499D01*
X177170264Y-80387499D02*
X177218645Y-80484261D01*
X177218645Y-80484261D02*
X177267025Y-80532642D01*
X177170264Y-79419880D02*
X177170264Y-79226356D01*
X177170264Y-79226356D02*
X177218645Y-79129594D01*
X177218645Y-79129594D02*
X177267025Y-79081213D01*
X177267025Y-79081213D02*
X177412168Y-78984451D01*
X177412168Y-78984451D02*
X177605692Y-78936070D01*
X177605692Y-78936070D02*
X177992740Y-78936070D01*
X177992740Y-78936070D02*
X178089502Y-78984451D01*
X178089502Y-78984451D02*
X178137883Y-79032832D01*
X178137883Y-79032832D02*
X178186264Y-79129594D01*
X178186264Y-79129594D02*
X178186264Y-79323118D01*
X178186264Y-79323118D02*
X178137883Y-79419880D01*
X178137883Y-79419880D02*
X178089502Y-79468261D01*
X178089502Y-79468261D02*
X177992740Y-79516642D01*
X177992740Y-79516642D02*
X177750835Y-79516642D01*
X177750835Y-79516642D02*
X177654073Y-79468261D01*
X177654073Y-79468261D02*
X177605692Y-79419880D01*
X177605692Y-79419880D02*
X177557311Y-79323118D01*
X177557311Y-79323118D02*
X177557311Y-79129594D01*
X177557311Y-79129594D02*
X177605692Y-79032832D01*
X177605692Y-79032832D02*
X177654073Y-78984451D01*
X177654073Y-78984451D02*
X177750835Y-78936070D01*
X214596260Y-71271974D02*
X214644641Y-71320355D01*
X214644641Y-71320355D02*
X214789784Y-71368735D01*
X214789784Y-71368735D02*
X214886546Y-71368735D01*
X214886546Y-71368735D02*
X215031689Y-71320355D01*
X215031689Y-71320355D02*
X215128451Y-71223593D01*
X215128451Y-71223593D02*
X215176832Y-71126831D01*
X215176832Y-71126831D02*
X215225213Y-70933307D01*
X215225213Y-70933307D02*
X215225213Y-70788164D01*
X215225213Y-70788164D02*
X215176832Y-70594640D01*
X215176832Y-70594640D02*
X215128451Y-70497878D01*
X215128451Y-70497878D02*
X215031689Y-70401116D01*
X215031689Y-70401116D02*
X214886546Y-70352735D01*
X214886546Y-70352735D02*
X214789784Y-70352735D01*
X214789784Y-70352735D02*
X214644641Y-70401116D01*
X214644641Y-70401116D02*
X214596260Y-70449497D01*
X214160832Y-71368735D02*
X214160832Y-70352735D01*
X214160832Y-70352735D02*
X213918927Y-70352735D01*
X213918927Y-70352735D02*
X213773784Y-70401116D01*
X213773784Y-70401116D02*
X213677022Y-70497878D01*
X213677022Y-70497878D02*
X213628641Y-70594640D01*
X213628641Y-70594640D02*
X213580260Y-70788164D01*
X213580260Y-70788164D02*
X213580260Y-70933307D01*
X213580260Y-70933307D02*
X213628641Y-71126831D01*
X213628641Y-71126831D02*
X213677022Y-71223593D01*
X213677022Y-71223593D02*
X213773784Y-71320355D01*
X213773784Y-71320355D02*
X213918927Y-71368735D01*
X213918927Y-71368735D02*
X214160832Y-71368735D01*
X213241594Y-70352735D02*
X212564260Y-70352735D01*
X212564260Y-70352735D02*
X212999689Y-71368735D01*
X211741784Y-70691402D02*
X211741784Y-71368735D01*
X211983689Y-70304355D02*
X212225594Y-71030069D01*
X212225594Y-71030069D02*
X211596641Y-71030069D01*
X211209594Y-71368735D02*
X211209594Y-70352735D01*
X211209594Y-70836545D02*
X210629022Y-70836545D01*
X210629022Y-71368735D02*
X210629022Y-70352735D01*
X209564641Y-71271974D02*
X209613022Y-71320355D01*
X209613022Y-71320355D02*
X209758165Y-71368735D01*
X209758165Y-71368735D02*
X209854927Y-71368735D01*
X209854927Y-71368735D02*
X210000070Y-71320355D01*
X210000070Y-71320355D02*
X210096832Y-71223593D01*
X210096832Y-71223593D02*
X210145213Y-71126831D01*
X210145213Y-71126831D02*
X210193594Y-70933307D01*
X210193594Y-70933307D02*
X210193594Y-70788164D01*
X210193594Y-70788164D02*
X210145213Y-70594640D01*
X210145213Y-70594640D02*
X210096832Y-70497878D01*
X210096832Y-70497878D02*
X210000070Y-70401116D01*
X210000070Y-70401116D02*
X209854927Y-70352735D01*
X209854927Y-70352735D02*
X209758165Y-70352735D01*
X209758165Y-70352735D02*
X209613022Y-70401116D01*
X209613022Y-70401116D02*
X209564641Y-70449497D01*
X209274356Y-70352735D02*
X208693784Y-70352735D01*
X208984070Y-71368735D02*
X208984070Y-70352735D01*
X207919689Y-70691402D02*
X207919689Y-71368735D01*
X208161594Y-70304355D02*
X208403499Y-71030069D01*
X208403499Y-71030069D02*
X207774546Y-71030069D01*
X206903689Y-70352735D02*
X207387499Y-70352735D01*
X207387499Y-70352735D02*
X207435880Y-70836545D01*
X207435880Y-70836545D02*
X207387499Y-70788164D01*
X207387499Y-70788164D02*
X207290737Y-70739783D01*
X207290737Y-70739783D02*
X207048832Y-70739783D01*
X207048832Y-70739783D02*
X206952070Y-70788164D01*
X206952070Y-70788164D02*
X206903689Y-70836545D01*
X206903689Y-70836545D02*
X206855308Y-70933307D01*
X206855308Y-70933307D02*
X206855308Y-71175212D01*
X206855308Y-71175212D02*
X206903689Y-71271974D01*
X206903689Y-71271974D02*
X206952070Y-71320355D01*
X206952070Y-71320355D02*
X207048832Y-71368735D01*
X207048832Y-71368735D02*
X207290737Y-71368735D01*
X207290737Y-71368735D02*
X207387499Y-71320355D01*
X207387499Y-71320355D02*
X207435880Y-71271974D01*
X205887689Y-71368735D02*
X206468261Y-71368735D01*
X206177975Y-71368735D02*
X206177975Y-70352735D01*
X206177975Y-70352735D02*
X206274737Y-70497878D01*
X206274737Y-70497878D02*
X206371499Y-70594640D01*
X206371499Y-70594640D02*
X206468261Y-70643021D01*
X205016832Y-70691402D02*
X205016832Y-71368735D01*
X205258737Y-70304355D02*
X205500642Y-71030069D01*
X205500642Y-71030069D02*
X204871689Y-71030069D01*
X204484642Y-70836545D02*
X204145975Y-70836545D01*
X204000832Y-71368735D02*
X204484642Y-71368735D01*
X204484642Y-71368735D02*
X204484642Y-70352735D01*
X204484642Y-70352735D02*
X204000832Y-70352735D01*
X128645735Y-60310358D02*
X128645735Y-59729786D01*
X128645735Y-60020072D02*
X127629735Y-60020072D01*
X127629735Y-60020072D02*
X127774878Y-59923310D01*
X127774878Y-59923310D02*
X127871640Y-59826548D01*
X127871640Y-59826548D02*
X127920021Y-59729786D01*
X158710213Y-109692497D02*
X158661832Y-109644116D01*
X158661832Y-109644116D02*
X158565070Y-109595735D01*
X158565070Y-109595735D02*
X158323165Y-109595735D01*
X158323165Y-109595735D02*
X158226403Y-109644116D01*
X158226403Y-109644116D02*
X158178022Y-109692497D01*
X158178022Y-109692497D02*
X158129641Y-109789259D01*
X158129641Y-109789259D02*
X158129641Y-109886021D01*
X158129641Y-109886021D02*
X158178022Y-110031164D01*
X158178022Y-110031164D02*
X158758594Y-110611735D01*
X158758594Y-110611735D02*
X158129641Y-110611735D01*
X157162022Y-110611735D02*
X157742594Y-110611735D01*
X157452308Y-110611735D02*
X157452308Y-109595735D01*
X157452308Y-109595735D02*
X157549070Y-109740878D01*
X157549070Y-109740878D02*
X157645832Y-109837640D01*
X157645832Y-109837640D02*
X157742594Y-109886021D01*
X188101641Y-77591735D02*
X188682213Y-77591735D01*
X188391927Y-77591735D02*
X188391927Y-76575735D01*
X188391927Y-76575735D02*
X188488689Y-76720878D01*
X188488689Y-76720878D02*
X188585451Y-76817640D01*
X188585451Y-76817640D02*
X188682213Y-76866021D01*
X177506213Y-109692497D02*
X177457832Y-109644116D01*
X177457832Y-109644116D02*
X177361070Y-109595735D01*
X177361070Y-109595735D02*
X177119165Y-109595735D01*
X177119165Y-109595735D02*
X177022403Y-109644116D01*
X177022403Y-109644116D02*
X176974022Y-109692497D01*
X176974022Y-109692497D02*
X176925641Y-109789259D01*
X176925641Y-109789259D02*
X176925641Y-109886021D01*
X176925641Y-109886021D02*
X176974022Y-110031164D01*
X176974022Y-110031164D02*
X177554594Y-110611735D01*
X177554594Y-110611735D02*
X176925641Y-110611735D01*
X175958022Y-110611735D02*
X176538594Y-110611735D01*
X176248308Y-110611735D02*
X176248308Y-109595735D01*
X176248308Y-109595735D02*
X176345070Y-109740878D01*
X176345070Y-109740878D02*
X176441832Y-109837640D01*
X176441832Y-109837640D02*
X176538594Y-109886021D01*
X147207641Y-92831735D02*
X147788213Y-92831735D01*
X147497927Y-92831735D02*
X147497927Y-91815735D01*
X147497927Y-91815735D02*
X147594689Y-91960878D01*
X147594689Y-91960878D02*
X147691451Y-92057640D01*
X147691451Y-92057640D02*
X147788213Y-92106021D01*
X177179641Y-66923735D02*
X177760213Y-66923735D01*
X177469927Y-66923735D02*
X177469927Y-65907735D01*
X177469927Y-65907735D02*
X177566689Y-66052878D01*
X177566689Y-66052878D02*
X177663451Y-66149640D01*
X177663451Y-66149640D02*
X177760213Y-66198021D01*
X152795641Y-69463735D02*
X153376213Y-69463735D01*
X153085927Y-69463735D02*
X153085927Y-68447735D01*
X153085927Y-68447735D02*
X153182689Y-68592878D01*
X153182689Y-68592878D02*
X153279451Y-68689640D01*
X153279451Y-68689640D02*
X153376213Y-68738021D01*
X117610594Y-101975735D02*
X116981641Y-101975735D01*
X116981641Y-101975735D02*
X117320308Y-102362783D01*
X117320308Y-102362783D02*
X117175165Y-102362783D01*
X117175165Y-102362783D02*
X117078403Y-102411164D01*
X117078403Y-102411164D02*
X117030022Y-102459545D01*
X117030022Y-102459545D02*
X116981641Y-102556307D01*
X116981641Y-102556307D02*
X116981641Y-102798212D01*
X116981641Y-102798212D02*
X117030022Y-102894974D01*
X117030022Y-102894974D02*
X117078403Y-102943355D01*
X117078403Y-102943355D02*
X117175165Y-102991735D01*
X117175165Y-102991735D02*
X117465451Y-102991735D01*
X117465451Y-102991735D02*
X117562213Y-102943355D01*
X117562213Y-102943355D02*
X117610594Y-102894974D01*
X116352689Y-101975735D02*
X116255927Y-101975735D01*
X116255927Y-101975735D02*
X116159165Y-102024116D01*
X116159165Y-102024116D02*
X116110784Y-102072497D01*
X116110784Y-102072497D02*
X116062403Y-102169259D01*
X116062403Y-102169259D02*
X116014022Y-102362783D01*
X116014022Y-102362783D02*
X116014022Y-102604688D01*
X116014022Y-102604688D02*
X116062403Y-102798212D01*
X116062403Y-102798212D02*
X116110784Y-102894974D01*
X116110784Y-102894974D02*
X116159165Y-102943355D01*
X116159165Y-102943355D02*
X116255927Y-102991735D01*
X116255927Y-102991735D02*
X116352689Y-102991735D01*
X116352689Y-102991735D02*
X116449451Y-102943355D01*
X116449451Y-102943355D02*
X116497832Y-102894974D01*
X116497832Y-102894974D02*
X116546213Y-102798212D01*
X116546213Y-102798212D02*
X116594594Y-102604688D01*
X116594594Y-102604688D02*
X116594594Y-102362783D01*
X116594594Y-102362783D02*
X116546213Y-102169259D01*
X116546213Y-102169259D02*
X116497832Y-102072497D01*
X116497832Y-102072497D02*
X116449451Y-102024116D01*
X116449451Y-102024116D02*
X116352689Y-101975735D01*
X147695735Y-60310358D02*
X147695735Y-59729786D01*
X147695735Y-60020072D02*
X146679735Y-60020072D01*
X146679735Y-60020072D02*
X146824878Y-59923310D01*
X146824878Y-59923310D02*
X146921640Y-59826548D01*
X146921640Y-59826548D02*
X146970021Y-59729786D01*
X198495735Y-71262596D02*
X198495735Y-71069072D01*
X198495735Y-71069072D02*
X198544116Y-70972310D01*
X198544116Y-70972310D02*
X198592497Y-70923929D01*
X198592497Y-70923929D02*
X198737640Y-70827167D01*
X198737640Y-70827167D02*
X198931164Y-70778786D01*
X198931164Y-70778786D02*
X199318212Y-70778786D01*
X199318212Y-70778786D02*
X199414974Y-70827167D01*
X199414974Y-70827167D02*
X199463355Y-70875548D01*
X199463355Y-70875548D02*
X199511735Y-70972310D01*
X199511735Y-70972310D02*
X199511735Y-71165834D01*
X199511735Y-71165834D02*
X199463355Y-71262596D01*
X199463355Y-71262596D02*
X199414974Y-71310977D01*
X199414974Y-71310977D02*
X199318212Y-71359358D01*
X199318212Y-71359358D02*
X199076307Y-71359358D01*
X199076307Y-71359358D02*
X198979545Y-71310977D01*
X198979545Y-71310977D02*
X198931164Y-71262596D01*
X198931164Y-71262596D02*
X198882783Y-71165834D01*
X198882783Y-71165834D02*
X198882783Y-70972310D01*
X198882783Y-70972310D02*
X198931164Y-70875548D01*
X198931164Y-70875548D02*
X198979545Y-70827167D01*
X198979545Y-70827167D02*
X199076307Y-70778786D01*
X107075641Y-100451735D02*
X107656213Y-100451735D01*
X107365927Y-100451735D02*
X107365927Y-99435735D01*
X107365927Y-99435735D02*
X107462689Y-99580878D01*
X107462689Y-99580878D02*
X107559451Y-99677640D01*
X107559451Y-99677640D02*
X107656213Y-99726021D01*
X106446689Y-99435735D02*
X106349927Y-99435735D01*
X106349927Y-99435735D02*
X106253165Y-99484116D01*
X106253165Y-99484116D02*
X106204784Y-99532497D01*
X106204784Y-99532497D02*
X106156403Y-99629259D01*
X106156403Y-99629259D02*
X106108022Y-99822783D01*
X106108022Y-99822783D02*
X106108022Y-100064688D01*
X106108022Y-100064688D02*
X106156403Y-100258212D01*
X106156403Y-100258212D02*
X106204784Y-100354974D01*
X106204784Y-100354974D02*
X106253165Y-100403355D01*
X106253165Y-100403355D02*
X106349927Y-100451735D01*
X106349927Y-100451735D02*
X106446689Y-100451735D01*
X106446689Y-100451735D02*
X106543451Y-100403355D01*
X106543451Y-100403355D02*
X106591832Y-100354974D01*
X106591832Y-100354974D02*
X106640213Y-100258212D01*
X106640213Y-100258212D02*
X106688594Y-100064688D01*
X106688594Y-100064688D02*
X106688594Y-99822783D01*
X106688594Y-99822783D02*
X106640213Y-99629259D01*
X106640213Y-99629259D02*
X106591832Y-99532497D01*
X106591832Y-99532497D02*
X106543451Y-99484116D01*
X106543451Y-99484116D02*
X106446689Y-99435735D01*
X128411641Y-92831735D02*
X128992213Y-92831735D01*
X128701927Y-92831735D02*
X128701927Y-91815735D01*
X128701927Y-91815735D02*
X128798689Y-91960878D01*
X128798689Y-91960878D02*
X128895451Y-92057640D01*
X128895451Y-92057640D02*
X128992213Y-92106021D01*
X199652594Y-101975735D02*
X199023641Y-101975735D01*
X199023641Y-101975735D02*
X199362308Y-102362783D01*
X199362308Y-102362783D02*
X199217165Y-102362783D01*
X199217165Y-102362783D02*
X199120403Y-102411164D01*
X199120403Y-102411164D02*
X199072022Y-102459545D01*
X199072022Y-102459545D02*
X199023641Y-102556307D01*
X199023641Y-102556307D02*
X199023641Y-102798212D01*
X199023641Y-102798212D02*
X199072022Y-102894974D01*
X199072022Y-102894974D02*
X199120403Y-102943355D01*
X199120403Y-102943355D02*
X199217165Y-102991735D01*
X199217165Y-102991735D02*
X199507451Y-102991735D01*
X199507451Y-102991735D02*
X199604213Y-102943355D01*
X199604213Y-102943355D02*
X199652594Y-102894974D01*
X198394689Y-101975735D02*
X198297927Y-101975735D01*
X198297927Y-101975735D02*
X198201165Y-102024116D01*
X198201165Y-102024116D02*
X198152784Y-102072497D01*
X198152784Y-102072497D02*
X198104403Y-102169259D01*
X198104403Y-102169259D02*
X198056022Y-102362783D01*
X198056022Y-102362783D02*
X198056022Y-102604688D01*
X198056022Y-102604688D02*
X198104403Y-102798212D01*
X198104403Y-102798212D02*
X198152784Y-102894974D01*
X198152784Y-102894974D02*
X198201165Y-102943355D01*
X198201165Y-102943355D02*
X198297927Y-102991735D01*
X198297927Y-102991735D02*
X198394689Y-102991735D01*
X198394689Y-102991735D02*
X198491451Y-102943355D01*
X198491451Y-102943355D02*
X198539832Y-102894974D01*
X198539832Y-102894974D02*
X198588213Y-102798212D01*
X198588213Y-102798212D02*
X198636594Y-102604688D01*
X198636594Y-102604688D02*
X198636594Y-102362783D01*
X198636594Y-102362783D02*
X198588213Y-102169259D01*
X198588213Y-102169259D02*
X198539832Y-102072497D01*
X198539832Y-102072497D02*
X198491451Y-102024116D01*
X198491451Y-102024116D02*
X198394689Y-101975735D01*
X114689594Y-125089735D02*
X114012260Y-125089735D01*
X114012260Y-125089735D02*
X114689594Y-126105735D01*
X114689594Y-126105735D02*
X114012260Y-126105735D01*
X113480070Y-125525164D02*
X113576832Y-125476783D01*
X113576832Y-125476783D02*
X113625213Y-125428402D01*
X113625213Y-125428402D02*
X113673594Y-125331640D01*
X113673594Y-125331640D02*
X113673594Y-125283259D01*
X113673594Y-125283259D02*
X113625213Y-125186497D01*
X113625213Y-125186497D02*
X113576832Y-125138116D01*
X113576832Y-125138116D02*
X113480070Y-125089735D01*
X113480070Y-125089735D02*
X113286546Y-125089735D01*
X113286546Y-125089735D02*
X113189784Y-125138116D01*
X113189784Y-125138116D02*
X113141403Y-125186497D01*
X113141403Y-125186497D02*
X113093022Y-125283259D01*
X113093022Y-125283259D02*
X113093022Y-125331640D01*
X113093022Y-125331640D02*
X113141403Y-125428402D01*
X113141403Y-125428402D02*
X113189784Y-125476783D01*
X113189784Y-125476783D02*
X113286546Y-125525164D01*
X113286546Y-125525164D02*
X113480070Y-125525164D01*
X113480070Y-125525164D02*
X113576832Y-125573545D01*
X113576832Y-125573545D02*
X113625213Y-125621926D01*
X113625213Y-125621926D02*
X113673594Y-125718688D01*
X113673594Y-125718688D02*
X113673594Y-125912212D01*
X113673594Y-125912212D02*
X113625213Y-126008974D01*
X113625213Y-126008974D02*
X113576832Y-126057355D01*
X113576832Y-126057355D02*
X113480070Y-126105735D01*
X113480070Y-126105735D02*
X113286546Y-126105735D01*
X113286546Y-126105735D02*
X113189784Y-126057355D01*
X113189784Y-126057355D02*
X113141403Y-126008974D01*
X113141403Y-126008974D02*
X113093022Y-125912212D01*
X113093022Y-125912212D02*
X113093022Y-125718688D01*
X113093022Y-125718688D02*
X113141403Y-125621926D01*
X113141403Y-125621926D02*
X113189784Y-125573545D01*
X113189784Y-125573545D02*
X113286546Y-125525164D01*
X112464070Y-125089735D02*
X112367308Y-125089735D01*
X112367308Y-125089735D02*
X112270546Y-125138116D01*
X112270546Y-125138116D02*
X112222165Y-125186497D01*
X112222165Y-125186497D02*
X112173784Y-125283259D01*
X112173784Y-125283259D02*
X112125403Y-125476783D01*
X112125403Y-125476783D02*
X112125403Y-125718688D01*
X112125403Y-125718688D02*
X112173784Y-125912212D01*
X112173784Y-125912212D02*
X112222165Y-126008974D01*
X112222165Y-126008974D02*
X112270546Y-126057355D01*
X112270546Y-126057355D02*
X112367308Y-126105735D01*
X112367308Y-126105735D02*
X112464070Y-126105735D01*
X112464070Y-126105735D02*
X112560832Y-126057355D01*
X112560832Y-126057355D02*
X112609213Y-126008974D01*
X112609213Y-126008974D02*
X112657594Y-125912212D01*
X112657594Y-125912212D02*
X112705975Y-125718688D01*
X112705975Y-125718688D02*
X112705975Y-125476783D01*
X112705975Y-125476783D02*
X112657594Y-125283259D01*
X112657594Y-125283259D02*
X112609213Y-125186497D01*
X112609213Y-125186497D02*
X112560832Y-125138116D01*
X112560832Y-125138116D02*
X112464070Y-125089735D01*
X111109403Y-126008974D02*
X111157784Y-126057355D01*
X111157784Y-126057355D02*
X111302927Y-126105735D01*
X111302927Y-126105735D02*
X111399689Y-126105735D01*
X111399689Y-126105735D02*
X111544832Y-126057355D01*
X111544832Y-126057355D02*
X111641594Y-125960593D01*
X111641594Y-125960593D02*
X111689975Y-125863831D01*
X111689975Y-125863831D02*
X111738356Y-125670307D01*
X111738356Y-125670307D02*
X111738356Y-125525164D01*
X111738356Y-125525164D02*
X111689975Y-125331640D01*
X111689975Y-125331640D02*
X111641594Y-125234878D01*
X111641594Y-125234878D02*
X111544832Y-125138116D01*
X111544832Y-125138116D02*
X111399689Y-125089735D01*
X111399689Y-125089735D02*
X111302927Y-125089735D01*
X111302927Y-125089735D02*
X111157784Y-125138116D01*
X111157784Y-125138116D02*
X111109403Y-125186497D01*
X110673975Y-126105735D02*
X110673975Y-125089735D01*
X110673975Y-125089735D02*
X110286927Y-125089735D01*
X110286927Y-125089735D02*
X110190165Y-125138116D01*
X110190165Y-125138116D02*
X110141784Y-125186497D01*
X110141784Y-125186497D02*
X110093403Y-125283259D01*
X110093403Y-125283259D02*
X110093403Y-125428402D01*
X110093403Y-125428402D02*
X110141784Y-125525164D01*
X110141784Y-125525164D02*
X110190165Y-125573545D01*
X110190165Y-125573545D02*
X110286927Y-125621926D01*
X110286927Y-125621926D02*
X110673975Y-125621926D01*
X109657975Y-125089735D02*
X109657975Y-125912212D01*
X109657975Y-125912212D02*
X109609594Y-126008974D01*
X109609594Y-126008974D02*
X109561213Y-126057355D01*
X109561213Y-126057355D02*
X109464451Y-126105735D01*
X109464451Y-126105735D02*
X109270927Y-126105735D01*
X109270927Y-126105735D02*
X109174165Y-126057355D01*
X109174165Y-126057355D02*
X109125784Y-126008974D01*
X109125784Y-126008974D02*
X109077403Y-125912212D01*
X109077403Y-125912212D02*
X109077403Y-125089735D01*
X196350594Y-125089735D02*
X195673260Y-125089735D01*
X195673260Y-125089735D02*
X196350594Y-126105735D01*
X196350594Y-126105735D02*
X195673260Y-126105735D01*
X195141070Y-125525164D02*
X195237832Y-125476783D01*
X195237832Y-125476783D02*
X195286213Y-125428402D01*
X195286213Y-125428402D02*
X195334594Y-125331640D01*
X195334594Y-125331640D02*
X195334594Y-125283259D01*
X195334594Y-125283259D02*
X195286213Y-125186497D01*
X195286213Y-125186497D02*
X195237832Y-125138116D01*
X195237832Y-125138116D02*
X195141070Y-125089735D01*
X195141070Y-125089735D02*
X194947546Y-125089735D01*
X194947546Y-125089735D02*
X194850784Y-125138116D01*
X194850784Y-125138116D02*
X194802403Y-125186497D01*
X194802403Y-125186497D02*
X194754022Y-125283259D01*
X194754022Y-125283259D02*
X194754022Y-125331640D01*
X194754022Y-125331640D02*
X194802403Y-125428402D01*
X194802403Y-125428402D02*
X194850784Y-125476783D01*
X194850784Y-125476783D02*
X194947546Y-125525164D01*
X194947546Y-125525164D02*
X195141070Y-125525164D01*
X195141070Y-125525164D02*
X195237832Y-125573545D01*
X195237832Y-125573545D02*
X195286213Y-125621926D01*
X195286213Y-125621926D02*
X195334594Y-125718688D01*
X195334594Y-125718688D02*
X195334594Y-125912212D01*
X195334594Y-125912212D02*
X195286213Y-126008974D01*
X195286213Y-126008974D02*
X195237832Y-126057355D01*
X195237832Y-126057355D02*
X195141070Y-126105735D01*
X195141070Y-126105735D02*
X194947546Y-126105735D01*
X194947546Y-126105735D02*
X194850784Y-126057355D01*
X194850784Y-126057355D02*
X194802403Y-126008974D01*
X194802403Y-126008974D02*
X194754022Y-125912212D01*
X194754022Y-125912212D02*
X194754022Y-125718688D01*
X194754022Y-125718688D02*
X194802403Y-125621926D01*
X194802403Y-125621926D02*
X194850784Y-125573545D01*
X194850784Y-125573545D02*
X194947546Y-125525164D01*
X194125070Y-125089735D02*
X194028308Y-125089735D01*
X194028308Y-125089735D02*
X193931546Y-125138116D01*
X193931546Y-125138116D02*
X193883165Y-125186497D01*
X193883165Y-125186497D02*
X193834784Y-125283259D01*
X193834784Y-125283259D02*
X193786403Y-125476783D01*
X193786403Y-125476783D02*
X193786403Y-125718688D01*
X193786403Y-125718688D02*
X193834784Y-125912212D01*
X193834784Y-125912212D02*
X193883165Y-126008974D01*
X193883165Y-126008974D02*
X193931546Y-126057355D01*
X193931546Y-126057355D02*
X194028308Y-126105735D01*
X194028308Y-126105735D02*
X194125070Y-126105735D01*
X194125070Y-126105735D02*
X194221832Y-126057355D01*
X194221832Y-126057355D02*
X194270213Y-126008974D01*
X194270213Y-126008974D02*
X194318594Y-125912212D01*
X194318594Y-125912212D02*
X194366975Y-125718688D01*
X194366975Y-125718688D02*
X194366975Y-125476783D01*
X194366975Y-125476783D02*
X194318594Y-125283259D01*
X194318594Y-125283259D02*
X194270213Y-125186497D01*
X194270213Y-125186497D02*
X194221832Y-125138116D01*
X194221832Y-125138116D02*
X194125070Y-125089735D01*
X193399356Y-126057355D02*
X193254213Y-126105735D01*
X193254213Y-126105735D02*
X193012308Y-126105735D01*
X193012308Y-126105735D02*
X192915546Y-126057355D01*
X192915546Y-126057355D02*
X192867165Y-126008974D01*
X192867165Y-126008974D02*
X192818784Y-125912212D01*
X192818784Y-125912212D02*
X192818784Y-125815450D01*
X192818784Y-125815450D02*
X192867165Y-125718688D01*
X192867165Y-125718688D02*
X192915546Y-125670307D01*
X192915546Y-125670307D02*
X193012308Y-125621926D01*
X193012308Y-125621926D02*
X193205832Y-125573545D01*
X193205832Y-125573545D02*
X193302594Y-125525164D01*
X193302594Y-125525164D02*
X193350975Y-125476783D01*
X193350975Y-125476783D02*
X193399356Y-125380021D01*
X193399356Y-125380021D02*
X193399356Y-125283259D01*
X193399356Y-125283259D02*
X193350975Y-125186497D01*
X193350975Y-125186497D02*
X193302594Y-125138116D01*
X193302594Y-125138116D02*
X193205832Y-125089735D01*
X193205832Y-125089735D02*
X192963927Y-125089735D01*
X192963927Y-125089735D02*
X192818784Y-125138116D01*
X192383356Y-126105735D02*
X192383356Y-125089735D01*
X191706022Y-125089735D02*
X191512498Y-125089735D01*
X191512498Y-125089735D02*
X191415736Y-125138116D01*
X191415736Y-125138116D02*
X191318974Y-125234878D01*
X191318974Y-125234878D02*
X191270593Y-125428402D01*
X191270593Y-125428402D02*
X191270593Y-125767069D01*
X191270593Y-125767069D02*
X191318974Y-125960593D01*
X191318974Y-125960593D02*
X191415736Y-126057355D01*
X191415736Y-126057355D02*
X191512498Y-126105735D01*
X191512498Y-126105735D02*
X191706022Y-126105735D01*
X191706022Y-126105735D02*
X191802784Y-126057355D01*
X191802784Y-126057355D02*
X191899546Y-125960593D01*
X191899546Y-125960593D02*
X191947927Y-125767069D01*
X191947927Y-125767069D02*
X191947927Y-125428402D01*
X191947927Y-125428402D02*
X191899546Y-125234878D01*
X191899546Y-125234878D02*
X191802784Y-125138116D01*
X191802784Y-125138116D02*
X191706022Y-125089735D01*
X129418264Y-85098594D02*
X129418264Y-84421260D01*
X129418264Y-84421260D02*
X128402264Y-84856689D01*
X129079597Y-83598784D02*
X128402264Y-83598784D01*
X129466645Y-83840689D02*
X128740930Y-84082594D01*
X128740930Y-84082594D02*
X128740930Y-83453641D01*
X128402264Y-82582784D02*
X128402264Y-83066594D01*
X128402264Y-83066594D02*
X129418264Y-83066594D01*
X128450645Y-82292499D02*
X128402264Y-82147356D01*
X128402264Y-82147356D02*
X128402264Y-81905451D01*
X128402264Y-81905451D02*
X128450645Y-81808689D01*
X128450645Y-81808689D02*
X128499025Y-81760308D01*
X128499025Y-81760308D02*
X128595787Y-81711927D01*
X128595787Y-81711927D02*
X128692549Y-81711927D01*
X128692549Y-81711927D02*
X128789311Y-81760308D01*
X128789311Y-81760308D02*
X128837692Y-81808689D01*
X128837692Y-81808689D02*
X128886073Y-81905451D01*
X128886073Y-81905451D02*
X128934454Y-82098975D01*
X128934454Y-82098975D02*
X128982835Y-82195737D01*
X128982835Y-82195737D02*
X129031216Y-82244118D01*
X129031216Y-82244118D02*
X129127978Y-82292499D01*
X129127978Y-82292499D02*
X129224740Y-82292499D01*
X129224740Y-82292499D02*
X129321502Y-82244118D01*
X129321502Y-82244118D02*
X129369883Y-82195737D01*
X129369883Y-82195737D02*
X129418264Y-82098975D01*
X129418264Y-82098975D02*
X129418264Y-81857070D01*
X129418264Y-81857070D02*
X129369883Y-81711927D01*
X129418264Y-81082975D02*
X129418264Y-80986213D01*
X129418264Y-80986213D02*
X129369883Y-80889451D01*
X129369883Y-80889451D02*
X129321502Y-80841070D01*
X129321502Y-80841070D02*
X129224740Y-80792689D01*
X129224740Y-80792689D02*
X129031216Y-80744308D01*
X129031216Y-80744308D02*
X128789311Y-80744308D01*
X128789311Y-80744308D02*
X128595787Y-80792689D01*
X128595787Y-80792689D02*
X128499025Y-80841070D01*
X128499025Y-80841070D02*
X128450645Y-80889451D01*
X128450645Y-80889451D02*
X128402264Y-80986213D01*
X128402264Y-80986213D02*
X128402264Y-81082975D01*
X128402264Y-81082975D02*
X128450645Y-81179737D01*
X128450645Y-81179737D02*
X128499025Y-81228118D01*
X128499025Y-81228118D02*
X128595787Y-81276499D01*
X128595787Y-81276499D02*
X128789311Y-81324880D01*
X128789311Y-81324880D02*
X129031216Y-81324880D01*
X129031216Y-81324880D02*
X129224740Y-81276499D01*
X129224740Y-81276499D02*
X129321502Y-81228118D01*
X129321502Y-81228118D02*
X129369883Y-81179737D01*
X129369883Y-81179737D02*
X129418264Y-81082975D01*
X129079597Y-79873451D02*
X128402264Y-79873451D01*
X129466645Y-80115356D02*
X128740930Y-80357261D01*
X128740930Y-80357261D02*
X128740930Y-79728308D01*
X174506594Y-125089735D02*
X173829260Y-125089735D01*
X173829260Y-125089735D02*
X174506594Y-126105735D01*
X174506594Y-126105735D02*
X173829260Y-126105735D01*
X173297070Y-125525164D02*
X173393832Y-125476783D01*
X173393832Y-125476783D02*
X173442213Y-125428402D01*
X173442213Y-125428402D02*
X173490594Y-125331640D01*
X173490594Y-125331640D02*
X173490594Y-125283259D01*
X173490594Y-125283259D02*
X173442213Y-125186497D01*
X173442213Y-125186497D02*
X173393832Y-125138116D01*
X173393832Y-125138116D02*
X173297070Y-125089735D01*
X173297070Y-125089735D02*
X173103546Y-125089735D01*
X173103546Y-125089735D02*
X173006784Y-125138116D01*
X173006784Y-125138116D02*
X172958403Y-125186497D01*
X172958403Y-125186497D02*
X172910022Y-125283259D01*
X172910022Y-125283259D02*
X172910022Y-125331640D01*
X172910022Y-125331640D02*
X172958403Y-125428402D01*
X172958403Y-125428402D02*
X173006784Y-125476783D01*
X173006784Y-125476783D02*
X173103546Y-125525164D01*
X173103546Y-125525164D02*
X173297070Y-125525164D01*
X173297070Y-125525164D02*
X173393832Y-125573545D01*
X173393832Y-125573545D02*
X173442213Y-125621926D01*
X173442213Y-125621926D02*
X173490594Y-125718688D01*
X173490594Y-125718688D02*
X173490594Y-125912212D01*
X173490594Y-125912212D02*
X173442213Y-126008974D01*
X173442213Y-126008974D02*
X173393832Y-126057355D01*
X173393832Y-126057355D02*
X173297070Y-126105735D01*
X173297070Y-126105735D02*
X173103546Y-126105735D01*
X173103546Y-126105735D02*
X173006784Y-126057355D01*
X173006784Y-126057355D02*
X172958403Y-126008974D01*
X172958403Y-126008974D02*
X172910022Y-125912212D01*
X172910022Y-125912212D02*
X172910022Y-125718688D01*
X172910022Y-125718688D02*
X172958403Y-125621926D01*
X172958403Y-125621926D02*
X173006784Y-125573545D01*
X173006784Y-125573545D02*
X173103546Y-125525164D01*
X172281070Y-125089735D02*
X172184308Y-125089735D01*
X172184308Y-125089735D02*
X172087546Y-125138116D01*
X172087546Y-125138116D02*
X172039165Y-125186497D01*
X172039165Y-125186497D02*
X171990784Y-125283259D01*
X171990784Y-125283259D02*
X171942403Y-125476783D01*
X171942403Y-125476783D02*
X171942403Y-125718688D01*
X171942403Y-125718688D02*
X171990784Y-125912212D01*
X171990784Y-125912212D02*
X172039165Y-126008974D01*
X172039165Y-126008974D02*
X172087546Y-126057355D01*
X172087546Y-126057355D02*
X172184308Y-126105735D01*
X172184308Y-126105735D02*
X172281070Y-126105735D01*
X172281070Y-126105735D02*
X172377832Y-126057355D01*
X172377832Y-126057355D02*
X172426213Y-126008974D01*
X172426213Y-126008974D02*
X172474594Y-125912212D01*
X172474594Y-125912212D02*
X172522975Y-125718688D01*
X172522975Y-125718688D02*
X172522975Y-125476783D01*
X172522975Y-125476783D02*
X172474594Y-125283259D01*
X172474594Y-125283259D02*
X172426213Y-125186497D01*
X172426213Y-125186497D02*
X172377832Y-125138116D01*
X172377832Y-125138116D02*
X172281070Y-125089735D01*
X170926403Y-126008974D02*
X170974784Y-126057355D01*
X170974784Y-126057355D02*
X171119927Y-126105735D01*
X171119927Y-126105735D02*
X171216689Y-126105735D01*
X171216689Y-126105735D02*
X171361832Y-126057355D01*
X171361832Y-126057355D02*
X171458594Y-125960593D01*
X171458594Y-125960593D02*
X171506975Y-125863831D01*
X171506975Y-125863831D02*
X171555356Y-125670307D01*
X171555356Y-125670307D02*
X171555356Y-125525164D01*
X171555356Y-125525164D02*
X171506975Y-125331640D01*
X171506975Y-125331640D02*
X171458594Y-125234878D01*
X171458594Y-125234878D02*
X171361832Y-125138116D01*
X171361832Y-125138116D02*
X171216689Y-125089735D01*
X171216689Y-125089735D02*
X171119927Y-125089735D01*
X171119927Y-125089735D02*
X170974784Y-125138116D01*
X170974784Y-125138116D02*
X170926403Y-125186497D01*
X170636118Y-125089735D02*
X170055546Y-125089735D01*
X170345832Y-126105735D02*
X170345832Y-125089735D01*
X169136308Y-126008974D02*
X169184689Y-126057355D01*
X169184689Y-126057355D02*
X169329832Y-126105735D01*
X169329832Y-126105735D02*
X169426594Y-126105735D01*
X169426594Y-126105735D02*
X169571737Y-126057355D01*
X169571737Y-126057355D02*
X169668499Y-125960593D01*
X169668499Y-125960593D02*
X169716880Y-125863831D01*
X169716880Y-125863831D02*
X169765261Y-125670307D01*
X169765261Y-125670307D02*
X169765261Y-125525164D01*
X169765261Y-125525164D02*
X169716880Y-125331640D01*
X169716880Y-125331640D02*
X169668499Y-125234878D01*
X169668499Y-125234878D02*
X169571737Y-125138116D01*
X169571737Y-125138116D02*
X169426594Y-125089735D01*
X169426594Y-125089735D02*
X169329832Y-125089735D01*
X169329832Y-125089735D02*
X169184689Y-125138116D01*
X169184689Y-125138116D02*
X169136308Y-125186497D01*
X155178403Y-125089735D02*
X155371927Y-125089735D01*
X155371927Y-125089735D02*
X155468689Y-125138116D01*
X155468689Y-125138116D02*
X155517070Y-125186497D01*
X155517070Y-125186497D02*
X155613832Y-125331640D01*
X155613832Y-125331640D02*
X155662213Y-125525164D01*
X155662213Y-125525164D02*
X155662213Y-125912212D01*
X155662213Y-125912212D02*
X155613832Y-126008974D01*
X155613832Y-126008974D02*
X155565451Y-126057355D01*
X155565451Y-126057355D02*
X155468689Y-126105735D01*
X155468689Y-126105735D02*
X155275165Y-126105735D01*
X155275165Y-126105735D02*
X155178403Y-126057355D01*
X155178403Y-126057355D02*
X155130022Y-126008974D01*
X155130022Y-126008974D02*
X155081641Y-125912212D01*
X155081641Y-125912212D02*
X155081641Y-125670307D01*
X155081641Y-125670307D02*
X155130022Y-125573545D01*
X155130022Y-125573545D02*
X155178403Y-125525164D01*
X155178403Y-125525164D02*
X155275165Y-125476783D01*
X155275165Y-125476783D02*
X155468689Y-125476783D01*
X155468689Y-125476783D02*
X155565451Y-125525164D01*
X155565451Y-125525164D02*
X155613832Y-125573545D01*
X155613832Y-125573545D02*
X155662213Y-125670307D01*
X154452689Y-125089735D02*
X154355927Y-125089735D01*
X154355927Y-125089735D02*
X154259165Y-125138116D01*
X154259165Y-125138116D02*
X154210784Y-125186497D01*
X154210784Y-125186497D02*
X154162403Y-125283259D01*
X154162403Y-125283259D02*
X154114022Y-125476783D01*
X154114022Y-125476783D02*
X154114022Y-125718688D01*
X154114022Y-125718688D02*
X154162403Y-125912212D01*
X154162403Y-125912212D02*
X154210784Y-126008974D01*
X154210784Y-126008974D02*
X154259165Y-126057355D01*
X154259165Y-126057355D02*
X154355927Y-126105735D01*
X154355927Y-126105735D02*
X154452689Y-126105735D01*
X154452689Y-126105735D02*
X154549451Y-126057355D01*
X154549451Y-126057355D02*
X154597832Y-126008974D01*
X154597832Y-126008974D02*
X154646213Y-125912212D01*
X154646213Y-125912212D02*
X154694594Y-125718688D01*
X154694594Y-125718688D02*
X154694594Y-125476783D01*
X154694594Y-125476783D02*
X154646213Y-125283259D01*
X154646213Y-125283259D02*
X154597832Y-125186497D01*
X154597832Y-125186497D02*
X154549451Y-125138116D01*
X154549451Y-125138116D02*
X154452689Y-125089735D01*
X153194784Y-126105735D02*
X153678594Y-126105735D01*
X153678594Y-126105735D02*
X153678594Y-125089735D01*
X152904499Y-125186497D02*
X152856118Y-125138116D01*
X152856118Y-125138116D02*
X152759356Y-125089735D01*
X152759356Y-125089735D02*
X152517451Y-125089735D01*
X152517451Y-125089735D02*
X152420689Y-125138116D01*
X152420689Y-125138116D02*
X152372308Y-125186497D01*
X152372308Y-125186497D02*
X152323927Y-125283259D01*
X152323927Y-125283259D02*
X152323927Y-125380021D01*
X152323927Y-125380021D02*
X152372308Y-125525164D01*
X152372308Y-125525164D02*
X152952880Y-126105735D01*
X152952880Y-126105735D02*
X152323927Y-126105735D01*
X151404689Y-125089735D02*
X151888499Y-125089735D01*
X151888499Y-125089735D02*
X151936880Y-125573545D01*
X151936880Y-125573545D02*
X151888499Y-125525164D01*
X151888499Y-125525164D02*
X151791737Y-125476783D01*
X151791737Y-125476783D02*
X151549832Y-125476783D01*
X151549832Y-125476783D02*
X151453070Y-125525164D01*
X151453070Y-125525164D02*
X151404689Y-125573545D01*
X151404689Y-125573545D02*
X151356308Y-125670307D01*
X151356308Y-125670307D02*
X151356308Y-125912212D01*
X151356308Y-125912212D02*
X151404689Y-126008974D01*
X151404689Y-126008974D02*
X151453070Y-126057355D01*
X151453070Y-126057355D02*
X151549832Y-126105735D01*
X151549832Y-126105735D02*
X151791737Y-126105735D01*
X151791737Y-126105735D02*
X151888499Y-126057355D01*
X151888499Y-126057355D02*
X151936880Y-126008974D01*
X150485451Y-125089735D02*
X150678975Y-125089735D01*
X150678975Y-125089735D02*
X150775737Y-125138116D01*
X150775737Y-125138116D02*
X150824118Y-125186497D01*
X150824118Y-125186497D02*
X150920880Y-125331640D01*
X150920880Y-125331640D02*
X150969261Y-125525164D01*
X150969261Y-125525164D02*
X150969261Y-125912212D01*
X150969261Y-125912212D02*
X150920880Y-126008974D01*
X150920880Y-126008974D02*
X150872499Y-126057355D01*
X150872499Y-126057355D02*
X150775737Y-126105735D01*
X150775737Y-126105735D02*
X150582213Y-126105735D01*
X150582213Y-126105735D02*
X150485451Y-126057355D01*
X150485451Y-126057355D02*
X150437070Y-126008974D01*
X150437070Y-126008974D02*
X150388689Y-125912212D01*
X150388689Y-125912212D02*
X150388689Y-125670307D01*
X150388689Y-125670307D02*
X150437070Y-125573545D01*
X150437070Y-125573545D02*
X150485451Y-125525164D01*
X150485451Y-125525164D02*
X150582213Y-125476783D01*
X150582213Y-125476783D02*
X150775737Y-125476783D01*
X150775737Y-125476783D02*
X150872499Y-125525164D01*
X150872499Y-125525164D02*
X150920880Y-125573545D01*
X150920880Y-125573545D02*
X150969261Y-125670307D01*
X139914213Y-109565497D02*
X139865832Y-109517116D01*
X139865832Y-109517116D02*
X139769070Y-109468735D01*
X139769070Y-109468735D02*
X139527165Y-109468735D01*
X139527165Y-109468735D02*
X139430403Y-109517116D01*
X139430403Y-109517116D02*
X139382022Y-109565497D01*
X139382022Y-109565497D02*
X139333641Y-109662259D01*
X139333641Y-109662259D02*
X139333641Y-109759021D01*
X139333641Y-109759021D02*
X139382022Y-109904164D01*
X139382022Y-109904164D02*
X139962594Y-110484735D01*
X139962594Y-110484735D02*
X139333641Y-110484735D01*
X138366022Y-110484735D02*
X138946594Y-110484735D01*
X138656308Y-110484735D02*
X138656308Y-109468735D01*
X138656308Y-109468735D02*
X138753070Y-109613878D01*
X138753070Y-109613878D02*
X138849832Y-109710640D01*
X138849832Y-109710640D02*
X138946594Y-109759021D01*
X147963594Y-107182735D02*
X147286260Y-107182735D01*
X147286260Y-107182735D02*
X147721689Y-108198735D01*
X189117641Y-100451735D02*
X189698213Y-100451735D01*
X189407927Y-100451735D02*
X189407927Y-99435735D01*
X189407927Y-99435735D02*
X189504689Y-99580878D01*
X189504689Y-99580878D02*
X189601451Y-99677640D01*
X189601451Y-99677640D02*
X189698213Y-99726021D01*
X188488689Y-99435735D02*
X188391927Y-99435735D01*
X188391927Y-99435735D02*
X188295165Y-99484116D01*
X188295165Y-99484116D02*
X188246784Y-99532497D01*
X188246784Y-99532497D02*
X188198403Y-99629259D01*
X188198403Y-99629259D02*
X188150022Y-99822783D01*
X188150022Y-99822783D02*
X188150022Y-100064688D01*
X188150022Y-100064688D02*
X188198403Y-100258212D01*
X188198403Y-100258212D02*
X188246784Y-100354974D01*
X188246784Y-100354974D02*
X188295165Y-100403355D01*
X188295165Y-100403355D02*
X188391927Y-100451735D01*
X188391927Y-100451735D02*
X188488689Y-100451735D01*
X188488689Y-100451735D02*
X188585451Y-100403355D01*
X188585451Y-100403355D02*
X188633832Y-100354974D01*
X188633832Y-100354974D02*
X188682213Y-100258212D01*
X188682213Y-100258212D02*
X188730594Y-100064688D01*
X188730594Y-100064688D02*
X188730594Y-99822783D01*
X188730594Y-99822783D02*
X188682213Y-99629259D01*
X188682213Y-99629259D02*
X188633832Y-99532497D01*
X188633832Y-99532497D02*
X188585451Y-99484116D01*
X188585451Y-99484116D02*
X188488689Y-99435735D01*
X136817832Y-60319735D02*
X136817832Y-59303735D01*
X136817832Y-59303735D02*
X136237260Y-60319735D01*
X136237260Y-60319735D02*
X136237260Y-59303735D01*
X135753451Y-59787545D02*
X135414784Y-59787545D01*
X135269641Y-60319735D02*
X135753451Y-60319735D01*
X135753451Y-60319735D02*
X135753451Y-59303735D01*
X135753451Y-59303735D02*
X135269641Y-59303735D01*
X134350403Y-59303735D02*
X134834213Y-59303735D01*
X134834213Y-59303735D02*
X134882594Y-59787545D01*
X134882594Y-59787545D02*
X134834213Y-59739164D01*
X134834213Y-59739164D02*
X134737451Y-59690783D01*
X134737451Y-59690783D02*
X134495546Y-59690783D01*
X134495546Y-59690783D02*
X134398784Y-59739164D01*
X134398784Y-59739164D02*
X134350403Y-59787545D01*
X134350403Y-59787545D02*
X134302022Y-59884307D01*
X134302022Y-59884307D02*
X134302022Y-60126212D01*
X134302022Y-60126212D02*
X134350403Y-60222974D01*
X134350403Y-60222974D02*
X134398784Y-60271355D01*
X134398784Y-60271355D02*
X134495546Y-60319735D01*
X134495546Y-60319735D02*
X134737451Y-60319735D01*
X134737451Y-60319735D02*
X134834213Y-60271355D01*
X134834213Y-60271355D02*
X134882594Y-60222974D01*
X133382784Y-59303735D02*
X133866594Y-59303735D01*
X133866594Y-59303735D02*
X133914975Y-59787545D01*
X133914975Y-59787545D02*
X133866594Y-59739164D01*
X133866594Y-59739164D02*
X133769832Y-59690783D01*
X133769832Y-59690783D02*
X133527927Y-59690783D01*
X133527927Y-59690783D02*
X133431165Y-59739164D01*
X133431165Y-59739164D02*
X133382784Y-59787545D01*
X133382784Y-59787545D02*
X133334403Y-59884307D01*
X133334403Y-59884307D02*
X133334403Y-60126212D01*
X133334403Y-60126212D02*
X133382784Y-60222974D01*
X133382784Y-60222974D02*
X133431165Y-60271355D01*
X133431165Y-60271355D02*
X133527927Y-60319735D01*
X133527927Y-60319735D02*
X133769832Y-60319735D01*
X133769832Y-60319735D02*
X133866594Y-60271355D01*
X133866594Y-60271355D02*
X133914975Y-60222974D01*
X132415165Y-59303735D02*
X132898975Y-59303735D01*
X132898975Y-59303735D02*
X132947356Y-59787545D01*
X132947356Y-59787545D02*
X132898975Y-59739164D01*
X132898975Y-59739164D02*
X132802213Y-59690783D01*
X132802213Y-59690783D02*
X132560308Y-59690783D01*
X132560308Y-59690783D02*
X132463546Y-59739164D01*
X132463546Y-59739164D02*
X132415165Y-59787545D01*
X132415165Y-59787545D02*
X132366784Y-59884307D01*
X132366784Y-59884307D02*
X132366784Y-60126212D01*
X132366784Y-60126212D02*
X132415165Y-60222974D01*
X132415165Y-60222974D02*
X132463546Y-60271355D01*
X132463546Y-60271355D02*
X132560308Y-60319735D01*
X132560308Y-60319735D02*
X132802213Y-60319735D01*
X132802213Y-60319735D02*
X132898975Y-60271355D01*
X132898975Y-60271355D02*
X132947356Y-60222974D01*
X106059641Y-77591735D02*
X106640213Y-77591735D01*
X106349927Y-77591735D02*
X106349927Y-76575735D01*
X106349927Y-76575735D02*
X106446689Y-76720878D01*
X106446689Y-76720878D02*
X106543451Y-76817640D01*
X106543451Y-76817640D02*
X106640213Y-76866021D01*
X129167594Y-107055735D02*
X128490260Y-107055735D01*
X128490260Y-107055735D02*
X128925689Y-108071735D01*
X166759594Y-107055735D02*
X166082260Y-107055735D01*
X166082260Y-107055735D02*
X166517689Y-108071735D01*
X186684735Y-71359358D02*
X186684735Y-70778786D01*
X186684735Y-71069072D02*
X185668735Y-71069072D01*
X185668735Y-71069072D02*
X185813878Y-70972310D01*
X185813878Y-70972310D02*
X185910640Y-70875548D01*
X185910640Y-70875548D02*
X185959021Y-70778786D01*
X163457594Y-59303735D02*
X162780260Y-59303735D01*
X162780260Y-59303735D02*
X163215689Y-60319735D01*
X161957784Y-59642402D02*
X161957784Y-60319735D01*
X162199689Y-59255355D02*
X162441594Y-59981069D01*
X162441594Y-59981069D02*
X161812641Y-59981069D01*
X160941784Y-60319735D02*
X161425594Y-60319735D01*
X161425594Y-60319735D02*
X161425594Y-59303735D01*
X160651499Y-60271355D02*
X160506356Y-60319735D01*
X160506356Y-60319735D02*
X160264451Y-60319735D01*
X160264451Y-60319735D02*
X160167689Y-60271355D01*
X160167689Y-60271355D02*
X160119308Y-60222974D01*
X160119308Y-60222974D02*
X160070927Y-60126212D01*
X160070927Y-60126212D02*
X160070927Y-60029450D01*
X160070927Y-60029450D02*
X160119308Y-59932688D01*
X160119308Y-59932688D02*
X160167689Y-59884307D01*
X160167689Y-59884307D02*
X160264451Y-59835926D01*
X160264451Y-59835926D02*
X160457975Y-59787545D01*
X160457975Y-59787545D02*
X160554737Y-59739164D01*
X160554737Y-59739164D02*
X160603118Y-59690783D01*
X160603118Y-59690783D02*
X160651499Y-59594021D01*
X160651499Y-59594021D02*
X160651499Y-59497259D01*
X160651499Y-59497259D02*
X160603118Y-59400497D01*
X160603118Y-59400497D02*
X160554737Y-59352116D01*
X160554737Y-59352116D02*
X160457975Y-59303735D01*
X160457975Y-59303735D02*
X160216070Y-59303735D01*
X160216070Y-59303735D02*
X160070927Y-59352116D01*
X159732261Y-59303735D02*
X159103308Y-59303735D01*
X159103308Y-59303735D02*
X159441975Y-59690783D01*
X159441975Y-59690783D02*
X159296832Y-59690783D01*
X159296832Y-59690783D02*
X159200070Y-59739164D01*
X159200070Y-59739164D02*
X159151689Y-59787545D01*
X159151689Y-59787545D02*
X159103308Y-59884307D01*
X159103308Y-59884307D02*
X159103308Y-60126212D01*
X159103308Y-60126212D02*
X159151689Y-60222974D01*
X159151689Y-60222974D02*
X159200070Y-60271355D01*
X159200070Y-60271355D02*
X159296832Y-60319735D01*
X159296832Y-60319735D02*
X159587118Y-60319735D01*
X159587118Y-60319735D02*
X159683880Y-60271355D01*
X159683880Y-60271355D02*
X159732261Y-60222974D01*
X158716261Y-59400497D02*
X158667880Y-59352116D01*
X158667880Y-59352116D02*
X158571118Y-59303735D01*
X158571118Y-59303735D02*
X158329213Y-59303735D01*
X158329213Y-59303735D02*
X158232451Y-59352116D01*
X158232451Y-59352116D02*
X158184070Y-59400497D01*
X158184070Y-59400497D02*
X158135689Y-59497259D01*
X158135689Y-59497259D02*
X158135689Y-59594021D01*
X158135689Y-59594021D02*
X158184070Y-59739164D01*
X158184070Y-59739164D02*
X158764642Y-60319735D01*
X158764642Y-60319735D02*
X158135689Y-60319735D01*
X166003641Y-92831735D02*
X166584213Y-92831735D01*
X166293927Y-92831735D02*
X166293927Y-91815735D01*
X166293927Y-91815735D02*
X166390689Y-91960878D01*
X166390689Y-91960878D02*
X166487451Y-92057640D01*
X166487451Y-92057640D02*
X166584213Y-92106021D01*
X128411641Y-69463735D02*
X128992213Y-69463735D01*
X128701927Y-69463735D02*
X128701927Y-68447735D01*
X128701927Y-68447735D02*
X128798689Y-68592878D01*
X128798689Y-68592878D02*
X128895451Y-68689640D01*
X128895451Y-68689640D02*
X128992213Y-68738021D01*
%TO.C,U1*%
X102812000Y-75639000D02*
X120932000Y-75639000D01*
X102812000Y-126679000D02*
X102812000Y-75639000D01*
X105812000Y-75699000D02*
X110872000Y-75699000D01*
X105812000Y-126619000D02*
X105812000Y-75699000D01*
X112872000Y-75699000D02*
X117932000Y-75699000D01*
X117932000Y-75699000D02*
X117932000Y-126619000D01*
X117932000Y-126619000D02*
X105812000Y-126619000D01*
X120932000Y-75639000D02*
X120932000Y-126679000D01*
X120932000Y-126679000D02*
X102812000Y-126679000D01*
X110872000Y-75699000D02*
G75*
G03*
X112872000Y-75699000I1000000J0D01*
G01*
%TO.C,U8*%
X173922000Y-65031000D02*
X184422000Y-65031000D01*
X173922000Y-85591000D02*
X173922000Y-65031000D01*
X176922000Y-65091000D02*
X178172000Y-65091000D01*
X176922000Y-85531000D02*
X176922000Y-65091000D01*
X180172000Y-65091000D02*
X181422000Y-65091000D01*
X181422000Y-65091000D02*
X181422000Y-85531000D01*
X181422000Y-85531000D02*
X176922000Y-85531000D01*
X184422000Y-65031000D02*
X184422000Y-85591000D01*
X184422000Y-85591000D02*
X173922000Y-85591000D01*
X178172000Y-65091000D02*
G75*
G03*
X180172000Y-65091000I1000000J0D01*
G01*
%TO.C,U11*%
X126758000Y-63513000D02*
X126758000Y-53013000D01*
X137158000Y-63513000D02*
X126758000Y-63513000D01*
X126818000Y-60513000D02*
X126818000Y-59263000D01*
X137098000Y-60513000D02*
X126818000Y-60513000D01*
X126818000Y-57263000D02*
X126818000Y-56013000D01*
X126818000Y-56013000D02*
X137098000Y-56013000D01*
X137098000Y-56013000D02*
X137098000Y-60513000D01*
X126758000Y-53013000D02*
X137158000Y-53013000D01*
X137158000Y-53013000D02*
X137158000Y-63513000D01*
X126818000Y-59263000D02*
G75*
G03*
X126818000Y-57263000I0J1000000D01*
G01*
%TO.C,U3*%
X143940000Y-90924000D02*
X162060000Y-90924000D01*
X143940000Y-126724000D02*
X143940000Y-90924000D01*
X146940000Y-90984000D02*
X152000000Y-90984000D01*
X146940000Y-126664000D02*
X146940000Y-90984000D01*
X154000000Y-90984000D02*
X159060000Y-90984000D01*
X159060000Y-90984000D02*
X159060000Y-126664000D01*
X159060000Y-126664000D02*
X146940000Y-126664000D01*
X162060000Y-90924000D02*
X162060000Y-126724000D01*
X162060000Y-126724000D02*
X143940000Y-126724000D01*
X152000000Y-90984000D02*
G75*
G03*
X154000000Y-90984000I1000000J0D01*
G01*
%TO.C,U7*%
X184914000Y-74689000D02*
X184914000Y-56569000D01*
X215634000Y-74689000D02*
X184914000Y-74689000D01*
X184974000Y-71689000D02*
X184974000Y-66629000D01*
X215574000Y-71689000D02*
X184974000Y-71689000D01*
X184974000Y-64629000D02*
X184974000Y-59569000D01*
X184974000Y-59569000D02*
X215574000Y-59569000D01*
X215574000Y-59569000D02*
X215574000Y-71689000D01*
X184914000Y-56569000D02*
X215634000Y-56569000D01*
X215634000Y-56569000D02*
X215634000Y-74689000D01*
X184974000Y-66629000D02*
G75*
G03*
X184974000Y-64629000I0J1000000D01*
G01*
%TO.C,U5*%
X184839000Y-75674000D02*
X202959000Y-75674000D01*
X184839000Y-126714000D02*
X184839000Y-75674000D01*
X187839000Y-75734000D02*
X192899000Y-75734000D01*
X187839000Y-126654000D02*
X187839000Y-75734000D01*
X194899000Y-75734000D02*
X199959000Y-75734000D01*
X199959000Y-75734000D02*
X199959000Y-126654000D01*
X199959000Y-126654000D02*
X187839000Y-126654000D01*
X202959000Y-75674000D02*
X202959000Y-126714000D01*
X202959000Y-126714000D02*
X184839000Y-126714000D01*
X192899000Y-75734000D02*
G75*
G03*
X194899000Y-75734000I1000000J0D01*
G01*
%TO.C,U9*%
X145793000Y-63513000D02*
X145793000Y-53013000D01*
X163813000Y-63513000D02*
X145793000Y-63513000D01*
X145853000Y-60513000D02*
X145853000Y-59263000D01*
X163753000Y-60513000D02*
X145853000Y-60513000D01*
X145853000Y-57263000D02*
X145853000Y-56013000D01*
X145853000Y-56013000D02*
X163753000Y-56013000D01*
X163753000Y-56013000D02*
X163753000Y-60513000D01*
X145793000Y-53013000D02*
X163813000Y-53013000D01*
X163813000Y-53013000D02*
X163813000Y-63513000D01*
X145853000Y-59263000D02*
G75*
G03*
X145853000Y-57263000I0J1000000D01*
G01*
%TO.C,U4*%
X162776000Y-90914000D02*
X180896000Y-90914000D01*
X162776000Y-126714000D02*
X162776000Y-90914000D01*
X165776000Y-90974000D02*
X170836000Y-90974000D01*
X165776000Y-126654000D02*
X165776000Y-90974000D01*
X172836000Y-90974000D02*
X177896000Y-90974000D01*
X177896000Y-90974000D02*
X177896000Y-126654000D01*
X177896000Y-126654000D02*
X165776000Y-126654000D01*
X180896000Y-90914000D02*
X180896000Y-126714000D01*
X180896000Y-126714000D02*
X162776000Y-126714000D01*
X170836000Y-90974000D02*
G75*
G03*
X172836000Y-90974000I1000000J0D01*
G01*
%TO.C,U2*%
X125179000Y-90899000D02*
X143299000Y-90899000D01*
X125179000Y-126699000D02*
X125179000Y-90899000D01*
X128179000Y-90959000D02*
X133239000Y-90959000D01*
X128179000Y-126639000D02*
X128179000Y-90959000D01*
X135239000Y-90959000D02*
X140299000Y-90959000D01*
X140299000Y-90959000D02*
X140299000Y-126639000D01*
X140299000Y-126639000D02*
X128179000Y-126639000D01*
X143299000Y-90899000D02*
X143299000Y-126699000D01*
X143299000Y-126699000D02*
X125179000Y-126699000D01*
X133239000Y-90959000D02*
G75*
G03*
X135239000Y-90959000I1000000J0D01*
G01*
%TO.C,U6*%
X125144000Y-67541000D02*
X135644000Y-67541000D01*
X125144000Y-85561000D02*
X125144000Y-67541000D01*
X128144000Y-67601000D02*
X129394000Y-67601000D01*
X128144000Y-85501000D02*
X128144000Y-67601000D01*
X131394000Y-67601000D02*
X132644000Y-67601000D01*
X132644000Y-67601000D02*
X132644000Y-85501000D01*
X132644000Y-85501000D02*
X128144000Y-85501000D01*
X135644000Y-67541000D02*
X135644000Y-85561000D01*
X135644000Y-85561000D02*
X125144000Y-85561000D01*
X129394000Y-67601000D02*
G75*
G03*
X131394000Y-67601000I1000000J0D01*
G01*
%TO.C,U10*%
X149548000Y-67536000D02*
X160048000Y-67536000D01*
X149548000Y-85556000D02*
X149548000Y-67536000D01*
X152548000Y-67596000D02*
X153798000Y-67596000D01*
X152548000Y-85496000D02*
X152548000Y-67596000D01*
X155798000Y-67596000D02*
X157048000Y-67596000D01*
X157048000Y-67596000D02*
X157048000Y-85496000D01*
X157048000Y-85496000D02*
X152548000Y-85496000D01*
X160048000Y-67536000D02*
X160048000Y-85556000D01*
X160048000Y-85556000D02*
X149548000Y-85556000D01*
X153798000Y-67596000D02*
G75*
G03*
X155798000Y-67596000I1000000J0D01*
G01*
%TD*%
M02*
