%TF.GenerationSoftware,KiCad,Pcbnew,7.0.8*%
%TF.CreationDate,2023-10-22T22:37:51-04:00*%
%TF.ProjectId,jml-8-mini,6a6d6c2d-382d-46d6-996e-692e6b696361,B*%
%TF.SameCoordinates,Original*%
%TF.FileFunction,Legend,Bot*%
%TF.FilePolarity,Positive*%
%FSLAX46Y46*%
G04 Gerber Fmt 4.6, Leading zero omitted, Abs format (unit mm)*
G04 Created by KiCad (PCBNEW 7.0.8) date 2023-10-22 22:37:51*
%MOMM*%
%LPD*%
G01*
G04 APERTURE LIST*
%ADD10C,0.152400*%
G04 APERTURE END LIST*
D10*
X148785500Y-41940000D02*
X150436500Y-41940000D01*
X146817000Y-43972000D02*
X146817000Y-41305000D01*
X143578500Y-41559000D02*
X143197500Y-41940000D01*
X150055500Y-42321000D02*
X150436500Y-41940000D01*
X143578500Y-42321000D02*
X143197500Y-41940000D01*
X150055500Y-41559000D02*
X150436500Y-41940000D01*
X144848500Y-41940000D02*
X143197500Y-41940000D01*
X145646308Y-41958926D02*
X145646308Y-42442735D01*
X145984975Y-41426735D02*
X145646308Y-41958926D01*
X145646308Y-41958926D02*
X145307641Y-41426735D01*
X177794735Y-134835167D02*
X176778735Y-134835167D01*
X176778735Y-134835167D02*
X176778735Y-135077072D01*
X176778735Y-135077072D02*
X176827116Y-135222215D01*
X176827116Y-135222215D02*
X176923878Y-135318977D01*
X176923878Y-135318977D02*
X177020640Y-135367358D01*
X177020640Y-135367358D02*
X177214164Y-135415739D01*
X177214164Y-135415739D02*
X177359307Y-135415739D01*
X177359307Y-135415739D02*
X177552831Y-135367358D01*
X177552831Y-135367358D02*
X177649593Y-135318977D01*
X177649593Y-135318977D02*
X177746355Y-135222215D01*
X177746355Y-135222215D02*
X177794735Y-135077072D01*
X177794735Y-135077072D02*
X177794735Y-134835167D01*
X176778735Y-135706024D02*
X176778735Y-136286596D01*
X177794735Y-135996310D02*
X176778735Y-135996310D01*
X177794735Y-137205834D02*
X177310926Y-136867167D01*
X177794735Y-136625262D02*
X176778735Y-136625262D01*
X176778735Y-136625262D02*
X176778735Y-137012310D01*
X176778735Y-137012310D02*
X176827116Y-137109072D01*
X176827116Y-137109072D02*
X176875497Y-137157453D01*
X176875497Y-137157453D02*
X176972259Y-137205834D01*
X176972259Y-137205834D02*
X177117402Y-137205834D01*
X177117402Y-137205834D02*
X177214164Y-137157453D01*
X177214164Y-137157453D02*
X177262545Y-137109072D01*
X177262545Y-137109072D02*
X177310926Y-137012310D01*
X177310926Y-137012310D02*
X177310926Y-136625262D01*
X176496675Y-134694863D02*
X176496675Y-137297758D01*
X162554735Y-135343167D02*
X161538735Y-135343167D01*
X162022545Y-135826977D02*
X162022545Y-136165644D01*
X162554735Y-136310787D02*
X162554735Y-135826977D01*
X162554735Y-135826977D02*
X161538735Y-135826977D01*
X161538735Y-135826977D02*
X161538735Y-136310787D01*
X161538735Y-136939739D02*
X161538735Y-137133263D01*
X161538735Y-137133263D02*
X161587116Y-137230025D01*
X161587116Y-137230025D02*
X161683878Y-137326787D01*
X161683878Y-137326787D02*
X161877402Y-137375168D01*
X161877402Y-137375168D02*
X162216069Y-137375168D01*
X162216069Y-137375168D02*
X162409593Y-137326787D01*
X162409593Y-137326787D02*
X162506355Y-137230025D01*
X162506355Y-137230025D02*
X162554735Y-137133263D01*
X162554735Y-137133263D02*
X162554735Y-136939739D01*
X162554735Y-136939739D02*
X162506355Y-136842977D01*
X162506355Y-136842977D02*
X162409593Y-136746215D01*
X162409593Y-136746215D02*
X162216069Y-136697834D01*
X162216069Y-136697834D02*
X161877402Y-136697834D01*
X161877402Y-136697834D02*
X161683878Y-136746215D01*
X161683878Y-136746215D02*
X161587116Y-136842977D01*
X161587116Y-136842977D02*
X161538735Y-136939739D01*
X173989735Y-42814358D02*
X173989735Y-42233786D01*
X173989735Y-42524072D02*
X172973735Y-42524072D01*
X172973735Y-42524072D02*
X173118878Y-42427310D01*
X173118878Y-42427310D02*
X173215640Y-42330548D01*
X173215640Y-42330548D02*
X173264021Y-42233786D01*
X173312402Y-43685215D02*
X173989735Y-43685215D01*
X172925355Y-43443310D02*
X173651069Y-43201405D01*
X173651069Y-43201405D02*
X173651069Y-43830358D01*
X181609735Y-42814358D02*
X181609735Y-42233786D01*
X181609735Y-42524072D02*
X180593735Y-42524072D01*
X180593735Y-42524072D02*
X180738878Y-42427310D01*
X180738878Y-42427310D02*
X180835640Y-42330548D01*
X180835640Y-42330548D02*
X180884021Y-42233786D01*
X180690497Y-43201405D02*
X180642116Y-43249786D01*
X180642116Y-43249786D02*
X180593735Y-43346548D01*
X180593735Y-43346548D02*
X180593735Y-43588453D01*
X180593735Y-43588453D02*
X180642116Y-43685215D01*
X180642116Y-43685215D02*
X180690497Y-43733596D01*
X180690497Y-43733596D02*
X180787259Y-43781977D01*
X180787259Y-43781977D02*
X180884021Y-43781977D01*
X180884021Y-43781977D02*
X181029164Y-43733596D01*
X181029164Y-43733596D02*
X181609735Y-43153024D01*
X181609735Y-43153024D02*
X181609735Y-43781977D01*
X167586355Y-133770786D02*
X167634735Y-133915929D01*
X167634735Y-133915929D02*
X167634735Y-134157834D01*
X167634735Y-134157834D02*
X167586355Y-134254596D01*
X167586355Y-134254596D02*
X167537974Y-134302977D01*
X167537974Y-134302977D02*
X167441212Y-134351358D01*
X167441212Y-134351358D02*
X167344450Y-134351358D01*
X167344450Y-134351358D02*
X167247688Y-134302977D01*
X167247688Y-134302977D02*
X167199307Y-134254596D01*
X167199307Y-134254596D02*
X167150926Y-134157834D01*
X167150926Y-134157834D02*
X167102545Y-133964310D01*
X167102545Y-133964310D02*
X167054164Y-133867548D01*
X167054164Y-133867548D02*
X167005783Y-133819167D01*
X167005783Y-133819167D02*
X166909021Y-133770786D01*
X166909021Y-133770786D02*
X166812259Y-133770786D01*
X166812259Y-133770786D02*
X166715497Y-133819167D01*
X166715497Y-133819167D02*
X166667116Y-133867548D01*
X166667116Y-133867548D02*
X166618735Y-133964310D01*
X166618735Y-133964310D02*
X166618735Y-134206215D01*
X166618735Y-134206215D02*
X166667116Y-134351358D01*
X167150926Y-134980310D02*
X167634735Y-134980310D01*
X166618735Y-134641643D02*
X167150926Y-134980310D01*
X167150926Y-134980310D02*
X166618735Y-135318977D01*
X167634735Y-135657643D02*
X166618735Y-135657643D01*
X166618735Y-135657643D02*
X167634735Y-136238215D01*
X167634735Y-136238215D02*
X166618735Y-136238215D01*
X167537974Y-137302596D02*
X167586355Y-137254215D01*
X167586355Y-137254215D02*
X167634735Y-137109072D01*
X167634735Y-137109072D02*
X167634735Y-137012310D01*
X167634735Y-137012310D02*
X167586355Y-136867167D01*
X167586355Y-136867167D02*
X167489593Y-136770405D01*
X167489593Y-136770405D02*
X167392831Y-136722024D01*
X167392831Y-136722024D02*
X167199307Y-136673643D01*
X167199307Y-136673643D02*
X167054164Y-136673643D01*
X167054164Y-136673643D02*
X166860640Y-136722024D01*
X166860640Y-136722024D02*
X166763878Y-136770405D01*
X166763878Y-136770405D02*
X166667116Y-136867167D01*
X166667116Y-136867167D02*
X166618735Y-137012310D01*
X166618735Y-137012310D02*
X166618735Y-137109072D01*
X166618735Y-137109072D02*
X166667116Y-137254215D01*
X166667116Y-137254215D02*
X166715497Y-137302596D01*
X166336675Y-133678863D02*
X166336675Y-137394520D01*
X163829735Y-42814358D02*
X163829735Y-42233786D01*
X163829735Y-42524072D02*
X162813735Y-42524072D01*
X162813735Y-42524072D02*
X162958878Y-42427310D01*
X162958878Y-42427310D02*
X163055640Y-42330548D01*
X163055640Y-42330548D02*
X163104021Y-42233786D01*
X162813735Y-43443310D02*
X162813735Y-43540072D01*
X162813735Y-43540072D02*
X162862116Y-43636834D01*
X162862116Y-43636834D02*
X162910497Y-43685215D01*
X162910497Y-43685215D02*
X163007259Y-43733596D01*
X163007259Y-43733596D02*
X163200783Y-43781977D01*
X163200783Y-43781977D02*
X163442688Y-43781977D01*
X163442688Y-43781977D02*
X163636212Y-43733596D01*
X163636212Y-43733596D02*
X163732974Y-43685215D01*
X163732974Y-43685215D02*
X163781355Y-43636834D01*
X163781355Y-43636834D02*
X163829735Y-43540072D01*
X163829735Y-43540072D02*
X163829735Y-43443310D01*
X163829735Y-43443310D02*
X163781355Y-43346548D01*
X163781355Y-43346548D02*
X163732974Y-43298167D01*
X163732974Y-43298167D02*
X163636212Y-43249786D01*
X163636212Y-43249786D02*
X163442688Y-43201405D01*
X163442688Y-43201405D02*
X163200783Y-43201405D01*
X163200783Y-43201405D02*
X163007259Y-43249786D01*
X163007259Y-43249786D02*
X162910497Y-43298167D01*
X162910497Y-43298167D02*
X162862116Y-43346548D01*
X162862116Y-43346548D02*
X162813735Y-43443310D01*
X168329164Y-43443310D02*
X168280783Y-43346548D01*
X168280783Y-43346548D02*
X168232402Y-43298167D01*
X168232402Y-43298167D02*
X168135640Y-43249786D01*
X168135640Y-43249786D02*
X168087259Y-43249786D01*
X168087259Y-43249786D02*
X167990497Y-43298167D01*
X167990497Y-43298167D02*
X167942116Y-43346548D01*
X167942116Y-43346548D02*
X167893735Y-43443310D01*
X167893735Y-43443310D02*
X167893735Y-43636834D01*
X167893735Y-43636834D02*
X167942116Y-43733596D01*
X167942116Y-43733596D02*
X167990497Y-43781977D01*
X167990497Y-43781977D02*
X168087259Y-43830358D01*
X168087259Y-43830358D02*
X168135640Y-43830358D01*
X168135640Y-43830358D02*
X168232402Y-43781977D01*
X168232402Y-43781977D02*
X168280783Y-43733596D01*
X168280783Y-43733596D02*
X168329164Y-43636834D01*
X168329164Y-43636834D02*
X168329164Y-43443310D01*
X168329164Y-43443310D02*
X168377545Y-43346548D01*
X168377545Y-43346548D02*
X168425926Y-43298167D01*
X168425926Y-43298167D02*
X168522688Y-43249786D01*
X168522688Y-43249786D02*
X168716212Y-43249786D01*
X168716212Y-43249786D02*
X168812974Y-43298167D01*
X168812974Y-43298167D02*
X168861355Y-43346548D01*
X168861355Y-43346548D02*
X168909735Y-43443310D01*
X168909735Y-43443310D02*
X168909735Y-43636834D01*
X168909735Y-43636834D02*
X168861355Y-43733596D01*
X168861355Y-43733596D02*
X168812974Y-43781977D01*
X168812974Y-43781977D02*
X168716212Y-43830358D01*
X168716212Y-43830358D02*
X168522688Y-43830358D01*
X168522688Y-43830358D02*
X168425926Y-43781977D01*
X168425926Y-43781977D02*
X168377545Y-43733596D01*
X168377545Y-43733596D02*
X168329164Y-43636834D01*
X137413735Y-43491691D02*
X137413735Y-43588453D01*
X137413735Y-43588453D02*
X137462116Y-43685215D01*
X137462116Y-43685215D02*
X137510497Y-43733596D01*
X137510497Y-43733596D02*
X137607259Y-43781977D01*
X137607259Y-43781977D02*
X137800783Y-43830358D01*
X137800783Y-43830358D02*
X138042688Y-43830358D01*
X138042688Y-43830358D02*
X138236212Y-43781977D01*
X138236212Y-43781977D02*
X138332974Y-43733596D01*
X138332974Y-43733596D02*
X138381355Y-43685215D01*
X138381355Y-43685215D02*
X138429735Y-43588453D01*
X138429735Y-43588453D02*
X138429735Y-43491691D01*
X138429735Y-43491691D02*
X138381355Y-43394929D01*
X138381355Y-43394929D02*
X138332974Y-43346548D01*
X138332974Y-43346548D02*
X138236212Y-43298167D01*
X138236212Y-43298167D02*
X138042688Y-43249786D01*
X138042688Y-43249786D02*
X137800783Y-43249786D01*
X137800783Y-43249786D02*
X137607259Y-43298167D01*
X137607259Y-43298167D02*
X137510497Y-43346548D01*
X137510497Y-43346548D02*
X137462116Y-43394929D01*
X137462116Y-43394929D02*
X137413735Y-43491691D01*
X178150497Y-43249786D02*
X178102116Y-43298167D01*
X178102116Y-43298167D02*
X178053735Y-43394929D01*
X178053735Y-43394929D02*
X178053735Y-43636834D01*
X178053735Y-43636834D02*
X178102116Y-43733596D01*
X178102116Y-43733596D02*
X178150497Y-43781977D01*
X178150497Y-43781977D02*
X178247259Y-43830358D01*
X178247259Y-43830358D02*
X178344021Y-43830358D01*
X178344021Y-43830358D02*
X178489164Y-43781977D01*
X178489164Y-43781977D02*
X179069735Y-43201405D01*
X179069735Y-43201405D02*
X179069735Y-43830358D01*
X170174735Y-135542739D02*
X169690926Y-135204072D01*
X170174735Y-134962167D02*
X169158735Y-134962167D01*
X169158735Y-134962167D02*
X169158735Y-135349215D01*
X169158735Y-135349215D02*
X169207116Y-135445977D01*
X169207116Y-135445977D02*
X169255497Y-135494358D01*
X169255497Y-135494358D02*
X169352259Y-135542739D01*
X169352259Y-135542739D02*
X169497402Y-135542739D01*
X169497402Y-135542739D02*
X169594164Y-135494358D01*
X169594164Y-135494358D02*
X169642545Y-135445977D01*
X169642545Y-135445977D02*
X169690926Y-135349215D01*
X169690926Y-135349215D02*
X169690926Y-134962167D01*
X170174735Y-135881405D02*
X169497402Y-136413596D01*
X169497402Y-135881405D02*
X170174735Y-136413596D01*
X170174735Y-136800643D02*
X169158735Y-136800643D01*
X169158735Y-136800643D02*
X169158735Y-137042548D01*
X169158735Y-137042548D02*
X169207116Y-137187691D01*
X169207116Y-137187691D02*
X169303878Y-137284453D01*
X169303878Y-137284453D02*
X169400640Y-137332834D01*
X169400640Y-137332834D02*
X169594164Y-137381215D01*
X169594164Y-137381215D02*
X169739307Y-137381215D01*
X169739307Y-137381215D02*
X169932831Y-137332834D01*
X169932831Y-137332834D02*
X170029593Y-137284453D01*
X170029593Y-137284453D02*
X170126355Y-137187691D01*
X170126355Y-137187691D02*
X170174735Y-137042548D01*
X170174735Y-137042548D02*
X170174735Y-136800643D01*
X171449735Y-43346548D02*
X171449735Y-43540072D01*
X171449735Y-43540072D02*
X171401355Y-43636834D01*
X171401355Y-43636834D02*
X171352974Y-43685215D01*
X171352974Y-43685215D02*
X171207831Y-43781977D01*
X171207831Y-43781977D02*
X171014307Y-43830358D01*
X171014307Y-43830358D02*
X170627259Y-43830358D01*
X170627259Y-43830358D02*
X170530497Y-43781977D01*
X170530497Y-43781977D02*
X170482116Y-43733596D01*
X170482116Y-43733596D02*
X170433735Y-43636834D01*
X170433735Y-43636834D02*
X170433735Y-43443310D01*
X170433735Y-43443310D02*
X170482116Y-43346548D01*
X170482116Y-43346548D02*
X170530497Y-43298167D01*
X170530497Y-43298167D02*
X170627259Y-43249786D01*
X170627259Y-43249786D02*
X170869164Y-43249786D01*
X170869164Y-43249786D02*
X170965926Y-43298167D01*
X170965926Y-43298167D02*
X171014307Y-43346548D01*
X171014307Y-43346548D02*
X171062688Y-43443310D01*
X171062688Y-43443310D02*
X171062688Y-43636834D01*
X171062688Y-43636834D02*
X171014307Y-43733596D01*
X171014307Y-43733596D02*
X170965926Y-43781977D01*
X170965926Y-43781977D02*
X170869164Y-43830358D01*
X155532402Y-43606596D02*
X156209735Y-43606596D01*
X155145355Y-43364691D02*
X155871069Y-43122786D01*
X155871069Y-43122786D02*
X155871069Y-43751739D01*
X147700735Y-43074405D02*
X147700735Y-43751739D01*
X147700735Y-43751739D02*
X148716735Y-43316310D01*
X172714735Y-133764739D02*
X172230926Y-133426072D01*
X172714735Y-133184167D02*
X171698735Y-133184167D01*
X171698735Y-133184167D02*
X171698735Y-133571215D01*
X171698735Y-133571215D02*
X171747116Y-133667977D01*
X171747116Y-133667977D02*
X171795497Y-133716358D01*
X171795497Y-133716358D02*
X171892259Y-133764739D01*
X171892259Y-133764739D02*
X172037402Y-133764739D01*
X172037402Y-133764739D02*
X172134164Y-133716358D01*
X172134164Y-133716358D02*
X172182545Y-133667977D01*
X172182545Y-133667977D02*
X172230926Y-133571215D01*
X172230926Y-133571215D02*
X172230926Y-133184167D01*
X172714735Y-134103405D02*
X172037402Y-134635596D01*
X172037402Y-134103405D02*
X172714735Y-134635596D01*
X171698735Y-134877500D02*
X171698735Y-135458072D01*
X172714735Y-135167786D02*
X171698735Y-135167786D01*
X172714735Y-135699976D02*
X172037402Y-136232167D01*
X172037402Y-135699976D02*
X172714735Y-136232167D01*
X172617974Y-137199786D02*
X172666355Y-137151405D01*
X172666355Y-137151405D02*
X172714735Y-137006262D01*
X172714735Y-137006262D02*
X172714735Y-136909500D01*
X172714735Y-136909500D02*
X172666355Y-136764357D01*
X172666355Y-136764357D02*
X172569593Y-136667595D01*
X172569593Y-136667595D02*
X172472831Y-136619214D01*
X172472831Y-136619214D02*
X172279307Y-136570833D01*
X172279307Y-136570833D02*
X172134164Y-136570833D01*
X172134164Y-136570833D02*
X171940640Y-136619214D01*
X171940640Y-136619214D02*
X171843878Y-136667595D01*
X171843878Y-136667595D02*
X171747116Y-136764357D01*
X171747116Y-136764357D02*
X171698735Y-136909500D01*
X171698735Y-136909500D02*
X171698735Y-137006262D01*
X171698735Y-137006262D02*
X171747116Y-137151405D01*
X171747116Y-137151405D02*
X171795497Y-137199786D01*
X171416675Y-133043863D02*
X171416675Y-137291710D01*
X145033735Y-43201405D02*
X145033735Y-43830358D01*
X145033735Y-43830358D02*
X145420783Y-43491691D01*
X145420783Y-43491691D02*
X145420783Y-43636834D01*
X145420783Y-43636834D02*
X145469164Y-43733596D01*
X145469164Y-43733596D02*
X145517545Y-43781977D01*
X145517545Y-43781977D02*
X145614307Y-43830358D01*
X145614307Y-43830358D02*
X145856212Y-43830358D01*
X145856212Y-43830358D02*
X145952974Y-43781977D01*
X145952974Y-43781977D02*
X146001355Y-43733596D01*
X146001355Y-43733596D02*
X146049735Y-43636834D01*
X146049735Y-43636834D02*
X146049735Y-43346548D01*
X146049735Y-43346548D02*
X146001355Y-43249786D01*
X146001355Y-43249786D02*
X145952974Y-43201405D01*
X183133735Y-43491691D02*
X183133735Y-43588453D01*
X183133735Y-43588453D02*
X183182116Y-43685215D01*
X183182116Y-43685215D02*
X183230497Y-43733596D01*
X183230497Y-43733596D02*
X183327259Y-43781977D01*
X183327259Y-43781977D02*
X183520783Y-43830358D01*
X183520783Y-43830358D02*
X183762688Y-43830358D01*
X183762688Y-43830358D02*
X183956212Y-43781977D01*
X183956212Y-43781977D02*
X184052974Y-43733596D01*
X184052974Y-43733596D02*
X184101355Y-43685215D01*
X184101355Y-43685215D02*
X184149735Y-43588453D01*
X184149735Y-43588453D02*
X184149735Y-43491691D01*
X184149735Y-43491691D02*
X184101355Y-43394929D01*
X184101355Y-43394929D02*
X184052974Y-43346548D01*
X184052974Y-43346548D02*
X183956212Y-43298167D01*
X183956212Y-43298167D02*
X183762688Y-43249786D01*
X183762688Y-43249786D02*
X183520783Y-43249786D01*
X183520783Y-43249786D02*
X183327259Y-43298167D01*
X183327259Y-43298167D02*
X183230497Y-43346548D01*
X183230497Y-43346548D02*
X183182116Y-43394929D01*
X183182116Y-43394929D02*
X183133735Y-43491691D01*
X164078735Y-136389405D02*
X165094735Y-136631310D01*
X165094735Y-136631310D02*
X164369021Y-136824834D01*
X164369021Y-136824834D02*
X165094735Y-137018358D01*
X165094735Y-137018358D02*
X164078735Y-137260263D01*
X163796675Y-136345863D02*
X163796675Y-137303806D01*
X157733735Y-43201405D02*
X157733735Y-43830358D01*
X157733735Y-43830358D02*
X158120783Y-43491691D01*
X158120783Y-43491691D02*
X158120783Y-43636834D01*
X158120783Y-43636834D02*
X158169164Y-43733596D01*
X158169164Y-43733596D02*
X158217545Y-43781977D01*
X158217545Y-43781977D02*
X158314307Y-43830358D01*
X158314307Y-43830358D02*
X158556212Y-43830358D01*
X158556212Y-43830358D02*
X158652974Y-43781977D01*
X158652974Y-43781977D02*
X158701355Y-43733596D01*
X158701355Y-43733596D02*
X158749735Y-43636834D01*
X158749735Y-43636834D02*
X158749735Y-43346548D01*
X158749735Y-43346548D02*
X158701355Y-43249786D01*
X158701355Y-43249786D02*
X158652974Y-43201405D01*
X140969735Y-43830358D02*
X140969735Y-43249786D01*
X140969735Y-43540072D02*
X139953735Y-43540072D01*
X139953735Y-43540072D02*
X140098878Y-43443310D01*
X140098878Y-43443310D02*
X140195640Y-43346548D01*
X140195640Y-43346548D02*
X140244021Y-43249786D01*
X147575498Y-42539497D02*
X147672260Y-42491116D01*
X147672260Y-42491116D02*
X147769022Y-42394355D01*
X147769022Y-42394355D02*
X147914165Y-42249212D01*
X147914165Y-42249212D02*
X148010927Y-42200831D01*
X148010927Y-42200831D02*
X148107689Y-42200831D01*
X148059308Y-42442735D02*
X148156070Y-42394355D01*
X148156070Y-42394355D02*
X148252832Y-42297593D01*
X148252832Y-42297593D02*
X148301213Y-42104069D01*
X148301213Y-42104069D02*
X148301213Y-41765402D01*
X148301213Y-41765402D02*
X148252832Y-41571878D01*
X148252832Y-41571878D02*
X148156070Y-41475116D01*
X148156070Y-41475116D02*
X148059308Y-41426735D01*
X148059308Y-41426735D02*
X147865784Y-41426735D01*
X147865784Y-41426735D02*
X147769022Y-41475116D01*
X147769022Y-41475116D02*
X147672260Y-41571878D01*
X147672260Y-41571878D02*
X147623879Y-41765402D01*
X147623879Y-41765402D02*
X147623879Y-42104069D01*
X147623879Y-42104069D02*
X147672260Y-42297593D01*
X147672260Y-42297593D02*
X147769022Y-42394355D01*
X147769022Y-42394355D02*
X147865784Y-42442735D01*
X147865784Y-42442735D02*
X148059308Y-42442735D01*
X142590497Y-43249786D02*
X142542116Y-43298167D01*
X142542116Y-43298167D02*
X142493735Y-43394929D01*
X142493735Y-43394929D02*
X142493735Y-43636834D01*
X142493735Y-43636834D02*
X142542116Y-43733596D01*
X142542116Y-43733596D02*
X142590497Y-43781977D01*
X142590497Y-43781977D02*
X142687259Y-43830358D01*
X142687259Y-43830358D02*
X142784021Y-43830358D01*
X142784021Y-43830358D02*
X142929164Y-43781977D01*
X142929164Y-43781977D02*
X143509735Y-43201405D01*
X143509735Y-43201405D02*
X143509735Y-43830358D01*
X174238735Y-135071024D02*
X174238735Y-135651596D01*
X175254735Y-135361310D02*
X174238735Y-135361310D01*
X175254735Y-135893500D02*
X174577402Y-136425691D01*
X174577402Y-135893500D02*
X175254735Y-136425691D01*
X175254735Y-136812738D02*
X174238735Y-136812738D01*
X174238735Y-136812738D02*
X174238735Y-137054643D01*
X174238735Y-137054643D02*
X174287116Y-137199786D01*
X174287116Y-137199786D02*
X174383878Y-137296548D01*
X174383878Y-137296548D02*
X174480640Y-137344929D01*
X174480640Y-137344929D02*
X174674164Y-137393310D01*
X174674164Y-137393310D02*
X174819307Y-137393310D01*
X174819307Y-137393310D02*
X175012831Y-137344929D01*
X175012831Y-137344929D02*
X175109593Y-137296548D01*
X175109593Y-137296548D02*
X175206355Y-137199786D01*
X175206355Y-137199786D02*
X175254735Y-137054643D01*
X175254735Y-137054643D02*
X175254735Y-136812738D01*
X152653735Y-43781977D02*
X152653735Y-43298167D01*
X152653735Y-43298167D02*
X153137545Y-43249786D01*
X153137545Y-43249786D02*
X153089164Y-43298167D01*
X153089164Y-43298167D02*
X153040783Y-43394929D01*
X153040783Y-43394929D02*
X153040783Y-43636834D01*
X153040783Y-43636834D02*
X153089164Y-43733596D01*
X153089164Y-43733596D02*
X153137545Y-43781977D01*
X153137545Y-43781977D02*
X153234307Y-43830358D01*
X153234307Y-43830358D02*
X153476212Y-43830358D01*
X153476212Y-43830358D02*
X153572974Y-43781977D01*
X153572974Y-43781977D02*
X153621355Y-43733596D01*
X153621355Y-43733596D02*
X153669735Y-43636834D01*
X153669735Y-43636834D02*
X153669735Y-43394929D01*
X153669735Y-43394929D02*
X153621355Y-43298167D01*
X153621355Y-43298167D02*
X153572974Y-43249786D01*
X182777974Y-135542739D02*
X182826355Y-135494358D01*
X182826355Y-135494358D02*
X182874735Y-135349215D01*
X182874735Y-135349215D02*
X182874735Y-135252453D01*
X182874735Y-135252453D02*
X182826355Y-135107310D01*
X182826355Y-135107310D02*
X182729593Y-135010548D01*
X182729593Y-135010548D02*
X182632831Y-134962167D01*
X182632831Y-134962167D02*
X182439307Y-134913786D01*
X182439307Y-134913786D02*
X182294164Y-134913786D01*
X182294164Y-134913786D02*
X182100640Y-134962167D01*
X182100640Y-134962167D02*
X182003878Y-135010548D01*
X182003878Y-135010548D02*
X181907116Y-135107310D01*
X181907116Y-135107310D02*
X181858735Y-135252453D01*
X181858735Y-135252453D02*
X181858735Y-135349215D01*
X181858735Y-135349215D02*
X181907116Y-135494358D01*
X181907116Y-135494358D02*
X181955497Y-135542739D01*
X181858735Y-135833024D02*
X181858735Y-136413596D01*
X182874735Y-136123310D02*
X181858735Y-136123310D01*
X182826355Y-136703881D02*
X182874735Y-136849024D01*
X182874735Y-136849024D02*
X182874735Y-137090929D01*
X182874735Y-137090929D02*
X182826355Y-137187691D01*
X182826355Y-137187691D02*
X182777974Y-137236072D01*
X182777974Y-137236072D02*
X182681212Y-137284453D01*
X182681212Y-137284453D02*
X182584450Y-137284453D01*
X182584450Y-137284453D02*
X182487688Y-137236072D01*
X182487688Y-137236072D02*
X182439307Y-137187691D01*
X182439307Y-137187691D02*
X182390926Y-137090929D01*
X182390926Y-137090929D02*
X182342545Y-136897405D01*
X182342545Y-136897405D02*
X182294164Y-136800643D01*
X182294164Y-136800643D02*
X182245783Y-136752262D01*
X182245783Y-136752262D02*
X182149021Y-136703881D01*
X182149021Y-136703881D02*
X182052259Y-136703881D01*
X182052259Y-136703881D02*
X181955497Y-136752262D01*
X181955497Y-136752262D02*
X181907116Y-136800643D01*
X181907116Y-136800643D02*
X181858735Y-136897405D01*
X181858735Y-136897405D02*
X181858735Y-137139310D01*
X181858735Y-137139310D02*
X181907116Y-137284453D01*
X181576675Y-134821863D02*
X181576675Y-137376377D01*
X161289735Y-43830358D02*
X161289735Y-43249786D01*
X161289735Y-43540072D02*
X160273735Y-43540072D01*
X160273735Y-43540072D02*
X160418878Y-43443310D01*
X160418878Y-43443310D02*
X160515640Y-43346548D01*
X160515640Y-43346548D02*
X160564021Y-43249786D01*
X186776095Y-42814358D02*
X186776095Y-42233786D01*
X186776095Y-42524072D02*
X185760095Y-42524072D01*
X185760095Y-42524072D02*
X185905238Y-42427310D01*
X185905238Y-42427310D02*
X186002000Y-42330548D01*
X186002000Y-42330548D02*
X186050381Y-42233786D01*
X185760095Y-43153024D02*
X185760095Y-43781977D01*
X185760095Y-43781977D02*
X186147143Y-43443310D01*
X186147143Y-43443310D02*
X186147143Y-43588453D01*
X186147143Y-43588453D02*
X186195524Y-43685215D01*
X186195524Y-43685215D02*
X186243905Y-43733596D01*
X186243905Y-43733596D02*
X186340667Y-43781977D01*
X186340667Y-43781977D02*
X186582572Y-43781977D01*
X186582572Y-43781977D02*
X186679334Y-43733596D01*
X186679334Y-43733596D02*
X186727715Y-43685215D01*
X186727715Y-43685215D02*
X186776095Y-43588453D01*
X186776095Y-43588453D02*
X186776095Y-43298167D01*
X186776095Y-43298167D02*
X186727715Y-43201405D01*
X186727715Y-43201405D02*
X186679334Y-43153024D01*
X180334735Y-135542739D02*
X179850926Y-135204072D01*
X180334735Y-134962167D02*
X179318735Y-134962167D01*
X179318735Y-134962167D02*
X179318735Y-135349215D01*
X179318735Y-135349215D02*
X179367116Y-135445977D01*
X179367116Y-135445977D02*
X179415497Y-135494358D01*
X179415497Y-135494358D02*
X179512259Y-135542739D01*
X179512259Y-135542739D02*
X179657402Y-135542739D01*
X179657402Y-135542739D02*
X179754164Y-135494358D01*
X179754164Y-135494358D02*
X179802545Y-135445977D01*
X179802545Y-135445977D02*
X179850926Y-135349215D01*
X179850926Y-135349215D02*
X179850926Y-134962167D01*
X179318735Y-135833024D02*
X179318735Y-136413596D01*
X180334735Y-136123310D02*
X179318735Y-136123310D01*
X180286355Y-136703881D02*
X180334735Y-136849024D01*
X180334735Y-136849024D02*
X180334735Y-137090929D01*
X180334735Y-137090929D02*
X180286355Y-137187691D01*
X180286355Y-137187691D02*
X180237974Y-137236072D01*
X180237974Y-137236072D02*
X180141212Y-137284453D01*
X180141212Y-137284453D02*
X180044450Y-137284453D01*
X180044450Y-137284453D02*
X179947688Y-137236072D01*
X179947688Y-137236072D02*
X179899307Y-137187691D01*
X179899307Y-137187691D02*
X179850926Y-137090929D01*
X179850926Y-137090929D02*
X179802545Y-136897405D01*
X179802545Y-136897405D02*
X179754164Y-136800643D01*
X179754164Y-136800643D02*
X179705783Y-136752262D01*
X179705783Y-136752262D02*
X179609021Y-136703881D01*
X179609021Y-136703881D02*
X179512259Y-136703881D01*
X179512259Y-136703881D02*
X179415497Y-136752262D01*
X179415497Y-136752262D02*
X179367116Y-136800643D01*
X179367116Y-136800643D02*
X179318735Y-136897405D01*
X179318735Y-136897405D02*
X179318735Y-137139310D01*
X179318735Y-137139310D02*
X179367116Y-137284453D01*
X179036675Y-134821863D02*
X179036675Y-137376377D01*
X185414735Y-134708167D02*
X184398735Y-134708167D01*
X184398735Y-134708167D02*
X184398735Y-134950072D01*
X184398735Y-134950072D02*
X184447116Y-135095215D01*
X184447116Y-135095215D02*
X184543878Y-135191977D01*
X184543878Y-135191977D02*
X184640640Y-135240358D01*
X184640640Y-135240358D02*
X184834164Y-135288739D01*
X184834164Y-135288739D02*
X184979307Y-135288739D01*
X184979307Y-135288739D02*
X185172831Y-135240358D01*
X185172831Y-135240358D02*
X185269593Y-135191977D01*
X185269593Y-135191977D02*
X185366355Y-135095215D01*
X185366355Y-135095215D02*
X185414735Y-134950072D01*
X185414735Y-134950072D02*
X185414735Y-134708167D01*
X185317974Y-136304739D02*
X185366355Y-136256358D01*
X185366355Y-136256358D02*
X185414735Y-136111215D01*
X185414735Y-136111215D02*
X185414735Y-136014453D01*
X185414735Y-136014453D02*
X185366355Y-135869310D01*
X185366355Y-135869310D02*
X185269593Y-135772548D01*
X185269593Y-135772548D02*
X185172831Y-135724167D01*
X185172831Y-135724167D02*
X184979307Y-135675786D01*
X184979307Y-135675786D02*
X184834164Y-135675786D01*
X184834164Y-135675786D02*
X184640640Y-135724167D01*
X184640640Y-135724167D02*
X184543878Y-135772548D01*
X184543878Y-135772548D02*
X184447116Y-135869310D01*
X184447116Y-135869310D02*
X184398735Y-136014453D01*
X184398735Y-136014453D02*
X184398735Y-136111215D01*
X184398735Y-136111215D02*
X184447116Y-136256358D01*
X184447116Y-136256358D02*
X184495497Y-136304739D01*
X185414735Y-136740167D02*
X184398735Y-136740167D01*
X184398735Y-136740167D02*
X184398735Y-136982072D01*
X184398735Y-136982072D02*
X184447116Y-137127215D01*
X184447116Y-137127215D02*
X184543878Y-137223977D01*
X184543878Y-137223977D02*
X184640640Y-137272358D01*
X184640640Y-137272358D02*
X184834164Y-137320739D01*
X184834164Y-137320739D02*
X184979307Y-137320739D01*
X184979307Y-137320739D02*
X185172831Y-137272358D01*
X185172831Y-137272358D02*
X185269593Y-137223977D01*
X185269593Y-137223977D02*
X185366355Y-137127215D01*
X185366355Y-137127215D02*
X185414735Y-136982072D01*
X185414735Y-136982072D02*
X185414735Y-136740167D01*
X184116675Y-134567863D02*
X184116675Y-137412663D01*
X166369735Y-42814358D02*
X166369735Y-42233786D01*
X166369735Y-42524072D02*
X165353735Y-42524072D01*
X165353735Y-42524072D02*
X165498878Y-42427310D01*
X165498878Y-42427310D02*
X165595640Y-42330548D01*
X165595640Y-42330548D02*
X165644021Y-42233786D01*
X166369735Y-43781977D02*
X166369735Y-43201405D01*
X166369735Y-43491691D02*
X165353735Y-43491691D01*
X165353735Y-43491691D02*
X165498878Y-43394929D01*
X165498878Y-43394929D02*
X165595640Y-43298167D01*
X165595640Y-43298167D02*
X165644021Y-43201405D01*
X150113735Y-43733596D02*
X150113735Y-43540072D01*
X150113735Y-43540072D02*
X150162116Y-43443310D01*
X150162116Y-43443310D02*
X150210497Y-43394929D01*
X150210497Y-43394929D02*
X150355640Y-43298167D01*
X150355640Y-43298167D02*
X150549164Y-43249786D01*
X150549164Y-43249786D02*
X150936212Y-43249786D01*
X150936212Y-43249786D02*
X151032974Y-43298167D01*
X151032974Y-43298167D02*
X151081355Y-43346548D01*
X151081355Y-43346548D02*
X151129735Y-43443310D01*
X151129735Y-43443310D02*
X151129735Y-43636834D01*
X151129735Y-43636834D02*
X151081355Y-43733596D01*
X151081355Y-43733596D02*
X151032974Y-43781977D01*
X151032974Y-43781977D02*
X150936212Y-43830358D01*
X150936212Y-43830358D02*
X150694307Y-43830358D01*
X150694307Y-43830358D02*
X150597545Y-43781977D01*
X150597545Y-43781977D02*
X150549164Y-43733596D01*
X150549164Y-43733596D02*
X150500783Y-43636834D01*
X150500783Y-43636834D02*
X150500783Y-43443310D01*
X150500783Y-43443310D02*
X150549164Y-43346548D01*
X150549164Y-43346548D02*
X150597545Y-43298167D01*
X150597545Y-43298167D02*
X150694307Y-43249786D01*
X176529735Y-42814358D02*
X176529735Y-42233786D01*
X176529735Y-42524072D02*
X175513735Y-42524072D01*
X175513735Y-42524072D02*
X175658878Y-42427310D01*
X175658878Y-42427310D02*
X175755640Y-42330548D01*
X175755640Y-42330548D02*
X175804021Y-42233786D01*
X175513735Y-43733596D02*
X175513735Y-43249786D01*
X175513735Y-43249786D02*
X175997545Y-43201405D01*
X175997545Y-43201405D02*
X175949164Y-43249786D01*
X175949164Y-43249786D02*
X175900783Y-43346548D01*
X175900783Y-43346548D02*
X175900783Y-43588453D01*
X175900783Y-43588453D02*
X175949164Y-43685215D01*
X175949164Y-43685215D02*
X175997545Y-43733596D01*
X175997545Y-43733596D02*
X176094307Y-43781977D01*
X176094307Y-43781977D02*
X176336212Y-43781977D01*
X176336212Y-43781977D02*
X176432974Y-43733596D01*
X176432974Y-43733596D02*
X176481355Y-43685215D01*
X176481355Y-43685215D02*
X176529735Y-43588453D01*
X176529735Y-43588453D02*
X176529735Y-43346548D01*
X176529735Y-43346548D02*
X176481355Y-43249786D01*
X176481355Y-43249786D02*
X176432974Y-43201405D01*
X114213594Y-130995735D02*
X113536260Y-130995735D01*
X113536260Y-130995735D02*
X114213594Y-132011735D01*
X114213594Y-132011735D02*
X113536260Y-132011735D01*
X113004070Y-131431164D02*
X113100832Y-131382783D01*
X113100832Y-131382783D02*
X113149213Y-131334402D01*
X113149213Y-131334402D02*
X113197594Y-131237640D01*
X113197594Y-131237640D02*
X113197594Y-131189259D01*
X113197594Y-131189259D02*
X113149213Y-131092497D01*
X113149213Y-131092497D02*
X113100832Y-131044116D01*
X113100832Y-131044116D02*
X113004070Y-130995735D01*
X113004070Y-130995735D02*
X112810546Y-130995735D01*
X112810546Y-130995735D02*
X112713784Y-131044116D01*
X112713784Y-131044116D02*
X112665403Y-131092497D01*
X112665403Y-131092497D02*
X112617022Y-131189259D01*
X112617022Y-131189259D02*
X112617022Y-131237640D01*
X112617022Y-131237640D02*
X112665403Y-131334402D01*
X112665403Y-131334402D02*
X112713784Y-131382783D01*
X112713784Y-131382783D02*
X112810546Y-131431164D01*
X112810546Y-131431164D02*
X113004070Y-131431164D01*
X113004070Y-131431164D02*
X113100832Y-131479545D01*
X113100832Y-131479545D02*
X113149213Y-131527926D01*
X113149213Y-131527926D02*
X113197594Y-131624688D01*
X113197594Y-131624688D02*
X113197594Y-131818212D01*
X113197594Y-131818212D02*
X113149213Y-131914974D01*
X113149213Y-131914974D02*
X113100832Y-131963355D01*
X113100832Y-131963355D02*
X113004070Y-132011735D01*
X113004070Y-132011735D02*
X112810546Y-132011735D01*
X112810546Y-132011735D02*
X112713784Y-131963355D01*
X112713784Y-131963355D02*
X112665403Y-131914974D01*
X112665403Y-131914974D02*
X112617022Y-131818212D01*
X112617022Y-131818212D02*
X112617022Y-131624688D01*
X112617022Y-131624688D02*
X112665403Y-131527926D01*
X112665403Y-131527926D02*
X112713784Y-131479545D01*
X112713784Y-131479545D02*
X112810546Y-131431164D01*
X111988070Y-130995735D02*
X111891308Y-130995735D01*
X111891308Y-130995735D02*
X111794546Y-131044116D01*
X111794546Y-131044116D02*
X111746165Y-131092497D01*
X111746165Y-131092497D02*
X111697784Y-131189259D01*
X111697784Y-131189259D02*
X111649403Y-131382783D01*
X111649403Y-131382783D02*
X111649403Y-131624688D01*
X111649403Y-131624688D02*
X111697784Y-131818212D01*
X111697784Y-131818212D02*
X111746165Y-131914974D01*
X111746165Y-131914974D02*
X111794546Y-131963355D01*
X111794546Y-131963355D02*
X111891308Y-132011735D01*
X111891308Y-132011735D02*
X111988070Y-132011735D01*
X111988070Y-132011735D02*
X112084832Y-131963355D01*
X112084832Y-131963355D02*
X112133213Y-131914974D01*
X112133213Y-131914974D02*
X112181594Y-131818212D01*
X112181594Y-131818212D02*
X112229975Y-131624688D01*
X112229975Y-131624688D02*
X112229975Y-131382783D01*
X112229975Y-131382783D02*
X112181594Y-131189259D01*
X112181594Y-131189259D02*
X112133213Y-131092497D01*
X112133213Y-131092497D02*
X112084832Y-131044116D01*
X112084832Y-131044116D02*
X111988070Y-130995735D01*
X110633403Y-131914974D02*
X110681784Y-131963355D01*
X110681784Y-131963355D02*
X110826927Y-132011735D01*
X110826927Y-132011735D02*
X110923689Y-132011735D01*
X110923689Y-132011735D02*
X111068832Y-131963355D01*
X111068832Y-131963355D02*
X111165594Y-131866593D01*
X111165594Y-131866593D02*
X111213975Y-131769831D01*
X111213975Y-131769831D02*
X111262356Y-131576307D01*
X111262356Y-131576307D02*
X111262356Y-131431164D01*
X111262356Y-131431164D02*
X111213975Y-131237640D01*
X111213975Y-131237640D02*
X111165594Y-131140878D01*
X111165594Y-131140878D02*
X111068832Y-131044116D01*
X111068832Y-131044116D02*
X110923689Y-130995735D01*
X110923689Y-130995735D02*
X110826927Y-130995735D01*
X110826927Y-130995735D02*
X110681784Y-131044116D01*
X110681784Y-131044116D02*
X110633403Y-131092497D01*
X110197975Y-132011735D02*
X110197975Y-130995735D01*
X110197975Y-130995735D02*
X109810927Y-130995735D01*
X109810927Y-130995735D02*
X109714165Y-131044116D01*
X109714165Y-131044116D02*
X109665784Y-131092497D01*
X109665784Y-131092497D02*
X109617403Y-131189259D01*
X109617403Y-131189259D02*
X109617403Y-131334402D01*
X109617403Y-131334402D02*
X109665784Y-131431164D01*
X109665784Y-131431164D02*
X109714165Y-131479545D01*
X109714165Y-131479545D02*
X109810927Y-131527926D01*
X109810927Y-131527926D02*
X110197975Y-131527926D01*
X109181975Y-130995735D02*
X109181975Y-131818212D01*
X109181975Y-131818212D02*
X109133594Y-131914974D01*
X109133594Y-131914974D02*
X109085213Y-131963355D01*
X109085213Y-131963355D02*
X108988451Y-132011735D01*
X108988451Y-132011735D02*
X108794927Y-132011735D01*
X108794927Y-132011735D02*
X108698165Y-131963355D01*
X108698165Y-131963355D02*
X108649784Y-131914974D01*
X108649784Y-131914974D02*
X108601403Y-131818212D01*
X108601403Y-131818212D02*
X108601403Y-130995735D01*
X106624641Y-106191735D02*
X107205213Y-106191735D01*
X106914927Y-106191735D02*
X106914927Y-105175735D01*
X106914927Y-105175735D02*
X107011689Y-105320878D01*
X107011689Y-105320878D02*
X107108451Y-105417640D01*
X107108451Y-105417640D02*
X107205213Y-105466021D01*
X105995689Y-105175735D02*
X105898927Y-105175735D01*
X105898927Y-105175735D02*
X105802165Y-105224116D01*
X105802165Y-105224116D02*
X105753784Y-105272497D01*
X105753784Y-105272497D02*
X105705403Y-105369259D01*
X105705403Y-105369259D02*
X105657022Y-105562783D01*
X105657022Y-105562783D02*
X105657022Y-105804688D01*
X105657022Y-105804688D02*
X105705403Y-105998212D01*
X105705403Y-105998212D02*
X105753784Y-106094974D01*
X105753784Y-106094974D02*
X105802165Y-106143355D01*
X105802165Y-106143355D02*
X105898927Y-106191735D01*
X105898927Y-106191735D02*
X105995689Y-106191735D01*
X105995689Y-106191735D02*
X106092451Y-106143355D01*
X106092451Y-106143355D02*
X106140832Y-106094974D01*
X106140832Y-106094974D02*
X106189213Y-105998212D01*
X106189213Y-105998212D02*
X106237594Y-105804688D01*
X106237594Y-105804688D02*
X106237594Y-105562783D01*
X106237594Y-105562783D02*
X106189213Y-105369259D01*
X106189213Y-105369259D02*
X106140832Y-105272497D01*
X106140832Y-105272497D02*
X106092451Y-105224116D01*
X106092451Y-105224116D02*
X105995689Y-105175735D01*
X105654641Y-83281735D02*
X106235213Y-83281735D01*
X105944927Y-83281735D02*
X105944927Y-82265735D01*
X105944927Y-82265735D02*
X106041689Y-82410878D01*
X106041689Y-82410878D02*
X106138451Y-82507640D01*
X106138451Y-82507640D02*
X106235213Y-82556021D01*
X116973594Y-107725735D02*
X116344641Y-107725735D01*
X116344641Y-107725735D02*
X116683308Y-108112783D01*
X116683308Y-108112783D02*
X116538165Y-108112783D01*
X116538165Y-108112783D02*
X116441403Y-108161164D01*
X116441403Y-108161164D02*
X116393022Y-108209545D01*
X116393022Y-108209545D02*
X116344641Y-108306307D01*
X116344641Y-108306307D02*
X116344641Y-108548212D01*
X116344641Y-108548212D02*
X116393022Y-108644974D01*
X116393022Y-108644974D02*
X116441403Y-108693355D01*
X116441403Y-108693355D02*
X116538165Y-108741735D01*
X116538165Y-108741735D02*
X116828451Y-108741735D01*
X116828451Y-108741735D02*
X116925213Y-108693355D01*
X116925213Y-108693355D02*
X116973594Y-108644974D01*
X115715689Y-107725735D02*
X115618927Y-107725735D01*
X115618927Y-107725735D02*
X115522165Y-107774116D01*
X115522165Y-107774116D02*
X115473784Y-107822497D01*
X115473784Y-107822497D02*
X115425403Y-107919259D01*
X115425403Y-107919259D02*
X115377022Y-108112783D01*
X115377022Y-108112783D02*
X115377022Y-108354688D01*
X115377022Y-108354688D02*
X115425403Y-108548212D01*
X115425403Y-108548212D02*
X115473784Y-108644974D01*
X115473784Y-108644974D02*
X115522165Y-108693355D01*
X115522165Y-108693355D02*
X115618927Y-108741735D01*
X115618927Y-108741735D02*
X115715689Y-108741735D01*
X115715689Y-108741735D02*
X115812451Y-108693355D01*
X115812451Y-108693355D02*
X115860832Y-108644974D01*
X115860832Y-108644974D02*
X115909213Y-108548212D01*
X115909213Y-108548212D02*
X115957594Y-108354688D01*
X115957594Y-108354688D02*
X115957594Y-108112783D01*
X115957594Y-108112783D02*
X115909213Y-107919259D01*
X115909213Y-107919259D02*
X115860832Y-107822497D01*
X115860832Y-107822497D02*
X115812451Y-107774116D01*
X115812451Y-107774116D02*
X115715689Y-107725735D01*
X149455596Y-67505594D02*
X149455596Y-66828260D01*
X149455596Y-66828260D02*
X148439596Y-67263689D01*
X149116929Y-66005784D02*
X148439596Y-66005784D01*
X149503977Y-66247689D02*
X148778262Y-66489594D01*
X148778262Y-66489594D02*
X148778262Y-65860641D01*
X148439596Y-64989784D02*
X148439596Y-65473594D01*
X148439596Y-65473594D02*
X149455596Y-65473594D01*
X148487977Y-64699499D02*
X148439596Y-64554356D01*
X148439596Y-64554356D02*
X148439596Y-64312451D01*
X148439596Y-64312451D02*
X148487977Y-64215689D01*
X148487977Y-64215689D02*
X148536357Y-64167308D01*
X148536357Y-64167308D02*
X148633119Y-64118927D01*
X148633119Y-64118927D02*
X148729881Y-64118927D01*
X148729881Y-64118927D02*
X148826643Y-64167308D01*
X148826643Y-64167308D02*
X148875024Y-64215689D01*
X148875024Y-64215689D02*
X148923405Y-64312451D01*
X148923405Y-64312451D02*
X148971786Y-64505975D01*
X148971786Y-64505975D02*
X149020167Y-64602737D01*
X149020167Y-64602737D02*
X149068548Y-64651118D01*
X149068548Y-64651118D02*
X149165310Y-64699499D01*
X149165310Y-64699499D02*
X149262072Y-64699499D01*
X149262072Y-64699499D02*
X149358834Y-64651118D01*
X149358834Y-64651118D02*
X149407215Y-64602737D01*
X149407215Y-64602737D02*
X149455596Y-64505975D01*
X149455596Y-64505975D02*
X149455596Y-64264070D01*
X149455596Y-64264070D02*
X149407215Y-64118927D01*
X148439596Y-63151308D02*
X148439596Y-63731880D01*
X148439596Y-63441594D02*
X149455596Y-63441594D01*
X149455596Y-63441594D02*
X149310453Y-63538356D01*
X149310453Y-63538356D02*
X149213691Y-63635118D01*
X149213691Y-63635118D02*
X149165310Y-63731880D01*
X149455596Y-62812642D02*
X149455596Y-62183689D01*
X149455596Y-62183689D02*
X149068548Y-62522356D01*
X149068548Y-62522356D02*
X149068548Y-62377213D01*
X149068548Y-62377213D02*
X149020167Y-62280451D01*
X149020167Y-62280451D02*
X148971786Y-62232070D01*
X148971786Y-62232070D02*
X148875024Y-62183689D01*
X148875024Y-62183689D02*
X148633119Y-62183689D01*
X148633119Y-62183689D02*
X148536357Y-62232070D01*
X148536357Y-62232070D02*
X148487977Y-62280451D01*
X148487977Y-62280451D02*
X148439596Y-62377213D01*
X148439596Y-62377213D02*
X148439596Y-62667499D01*
X148439596Y-62667499D02*
X148487977Y-62764261D01*
X148487977Y-62764261D02*
X148536357Y-62812642D01*
X148439596Y-61699880D02*
X148439596Y-61506356D01*
X148439596Y-61506356D02*
X148487977Y-61409594D01*
X148487977Y-61409594D02*
X148536357Y-61361213D01*
X148536357Y-61361213D02*
X148681500Y-61264451D01*
X148681500Y-61264451D02*
X148875024Y-61216070D01*
X148875024Y-61216070D02*
X149262072Y-61216070D01*
X149262072Y-61216070D02*
X149358834Y-61264451D01*
X149358834Y-61264451D02*
X149407215Y-61312832D01*
X149407215Y-61312832D02*
X149455596Y-61409594D01*
X149455596Y-61409594D02*
X149455596Y-61603118D01*
X149455596Y-61603118D02*
X149407215Y-61699880D01*
X149407215Y-61699880D02*
X149358834Y-61748261D01*
X149358834Y-61748261D02*
X149262072Y-61796642D01*
X149262072Y-61796642D02*
X149020167Y-61796642D01*
X149020167Y-61796642D02*
X148923405Y-61748261D01*
X148923405Y-61748261D02*
X148875024Y-61699880D01*
X148875024Y-61699880D02*
X148826643Y-61603118D01*
X148826643Y-61603118D02*
X148826643Y-61409594D01*
X148826643Y-61409594D02*
X148875024Y-61312832D01*
X148875024Y-61312832D02*
X148923405Y-61264451D01*
X148923405Y-61264451D02*
X149020167Y-61216070D01*
X148762973Y-49138735D02*
X149343545Y-49138735D01*
X149053259Y-49138735D02*
X149053259Y-48122735D01*
X149053259Y-48122735D02*
X149150021Y-48267878D01*
X149150021Y-48267878D02*
X149246783Y-48364640D01*
X149246783Y-48364640D02*
X149343545Y-48413021D01*
X125430264Y-64995832D02*
X126446264Y-64995832D01*
X126446264Y-64995832D02*
X125430264Y-64415260D01*
X125430264Y-64415260D02*
X126446264Y-64415260D01*
X125962454Y-63931451D02*
X125962454Y-63592784D01*
X125430264Y-63447641D02*
X125430264Y-63931451D01*
X125430264Y-63931451D02*
X126446264Y-63931451D01*
X126446264Y-63931451D02*
X126446264Y-63447641D01*
X126446264Y-62528403D02*
X126446264Y-63012213D01*
X126446264Y-63012213D02*
X125962454Y-63060594D01*
X125962454Y-63060594D02*
X126010835Y-63012213D01*
X126010835Y-63012213D02*
X126059216Y-62915451D01*
X126059216Y-62915451D02*
X126059216Y-62673546D01*
X126059216Y-62673546D02*
X126010835Y-62576784D01*
X126010835Y-62576784D02*
X125962454Y-62528403D01*
X125962454Y-62528403D02*
X125865692Y-62480022D01*
X125865692Y-62480022D02*
X125623787Y-62480022D01*
X125623787Y-62480022D02*
X125527025Y-62528403D01*
X125527025Y-62528403D02*
X125478645Y-62576784D01*
X125478645Y-62576784D02*
X125430264Y-62673546D01*
X125430264Y-62673546D02*
X125430264Y-62915451D01*
X125430264Y-62915451D02*
X125478645Y-63012213D01*
X125478645Y-63012213D02*
X125527025Y-63060594D01*
X126446264Y-61560784D02*
X126446264Y-62044594D01*
X126446264Y-62044594D02*
X125962454Y-62092975D01*
X125962454Y-62092975D02*
X126010835Y-62044594D01*
X126010835Y-62044594D02*
X126059216Y-61947832D01*
X126059216Y-61947832D02*
X126059216Y-61705927D01*
X126059216Y-61705927D02*
X126010835Y-61609165D01*
X126010835Y-61609165D02*
X125962454Y-61560784D01*
X125962454Y-61560784D02*
X125865692Y-61512403D01*
X125865692Y-61512403D02*
X125623787Y-61512403D01*
X125623787Y-61512403D02*
X125527025Y-61560784D01*
X125527025Y-61560784D02*
X125478645Y-61609165D01*
X125478645Y-61609165D02*
X125430264Y-61705927D01*
X125430264Y-61705927D02*
X125430264Y-61947832D01*
X125430264Y-61947832D02*
X125478645Y-62044594D01*
X125478645Y-62044594D02*
X125527025Y-62092975D01*
X126446264Y-60593165D02*
X126446264Y-61076975D01*
X126446264Y-61076975D02*
X125962454Y-61125356D01*
X125962454Y-61125356D02*
X126010835Y-61076975D01*
X126010835Y-61076975D02*
X126059216Y-60980213D01*
X126059216Y-60980213D02*
X126059216Y-60738308D01*
X126059216Y-60738308D02*
X126010835Y-60641546D01*
X126010835Y-60641546D02*
X125962454Y-60593165D01*
X125962454Y-60593165D02*
X125865692Y-60544784D01*
X125865692Y-60544784D02*
X125623787Y-60544784D01*
X125623787Y-60544784D02*
X125527025Y-60593165D01*
X125527025Y-60593165D02*
X125478645Y-60641546D01*
X125478645Y-60641546D02*
X125430264Y-60738308D01*
X125430264Y-60738308D02*
X125430264Y-60980213D01*
X125430264Y-60980213D02*
X125478645Y-61076975D01*
X125478645Y-61076975D02*
X125527025Y-61125356D01*
X125430264Y-60109356D02*
X126446264Y-60109356D01*
X126446264Y-60109356D02*
X126446264Y-59722308D01*
X126446264Y-59722308D02*
X126397883Y-59625546D01*
X126397883Y-59625546D02*
X126349502Y-59577165D01*
X126349502Y-59577165D02*
X126252740Y-59528784D01*
X126252740Y-59528784D02*
X126107597Y-59528784D01*
X126107597Y-59528784D02*
X126010835Y-59577165D01*
X126010835Y-59577165D02*
X125962454Y-59625546D01*
X125962454Y-59625546D02*
X125914073Y-59722308D01*
X125914073Y-59722308D02*
X125914073Y-60109356D01*
X125753641Y-56895735D02*
X126334213Y-56895735D01*
X126043927Y-56895735D02*
X126043927Y-55879735D01*
X126043927Y-55879735D02*
X126140689Y-56024878D01*
X126140689Y-56024878D02*
X126237451Y-56121640D01*
X126237451Y-56121640D02*
X126334213Y-56170021D01*
X143193594Y-112805735D02*
X142516260Y-112805735D01*
X142516260Y-112805735D02*
X142951689Y-113821735D01*
X150341403Y-130905735D02*
X150534927Y-130905735D01*
X150534927Y-130905735D02*
X150631689Y-130954116D01*
X150631689Y-130954116D02*
X150680070Y-131002497D01*
X150680070Y-131002497D02*
X150776832Y-131147640D01*
X150776832Y-131147640D02*
X150825213Y-131341164D01*
X150825213Y-131341164D02*
X150825213Y-131728212D01*
X150825213Y-131728212D02*
X150776832Y-131824974D01*
X150776832Y-131824974D02*
X150728451Y-131873355D01*
X150728451Y-131873355D02*
X150631689Y-131921735D01*
X150631689Y-131921735D02*
X150438165Y-131921735D01*
X150438165Y-131921735D02*
X150341403Y-131873355D01*
X150341403Y-131873355D02*
X150293022Y-131824974D01*
X150293022Y-131824974D02*
X150244641Y-131728212D01*
X150244641Y-131728212D02*
X150244641Y-131486307D01*
X150244641Y-131486307D02*
X150293022Y-131389545D01*
X150293022Y-131389545D02*
X150341403Y-131341164D01*
X150341403Y-131341164D02*
X150438165Y-131292783D01*
X150438165Y-131292783D02*
X150631689Y-131292783D01*
X150631689Y-131292783D02*
X150728451Y-131341164D01*
X150728451Y-131341164D02*
X150776832Y-131389545D01*
X150776832Y-131389545D02*
X150825213Y-131486307D01*
X149615689Y-130905735D02*
X149518927Y-130905735D01*
X149518927Y-130905735D02*
X149422165Y-130954116D01*
X149422165Y-130954116D02*
X149373784Y-131002497D01*
X149373784Y-131002497D02*
X149325403Y-131099259D01*
X149325403Y-131099259D02*
X149277022Y-131292783D01*
X149277022Y-131292783D02*
X149277022Y-131534688D01*
X149277022Y-131534688D02*
X149325403Y-131728212D01*
X149325403Y-131728212D02*
X149373784Y-131824974D01*
X149373784Y-131824974D02*
X149422165Y-131873355D01*
X149422165Y-131873355D02*
X149518927Y-131921735D01*
X149518927Y-131921735D02*
X149615689Y-131921735D01*
X149615689Y-131921735D02*
X149712451Y-131873355D01*
X149712451Y-131873355D02*
X149760832Y-131824974D01*
X149760832Y-131824974D02*
X149809213Y-131728212D01*
X149809213Y-131728212D02*
X149857594Y-131534688D01*
X149857594Y-131534688D02*
X149857594Y-131292783D01*
X149857594Y-131292783D02*
X149809213Y-131099259D01*
X149809213Y-131099259D02*
X149760832Y-131002497D01*
X149760832Y-131002497D02*
X149712451Y-130954116D01*
X149712451Y-130954116D02*
X149615689Y-130905735D01*
X148357784Y-131921735D02*
X148841594Y-131921735D01*
X148841594Y-131921735D02*
X148841594Y-130905735D01*
X148067499Y-131002497D02*
X148019118Y-130954116D01*
X148019118Y-130954116D02*
X147922356Y-130905735D01*
X147922356Y-130905735D02*
X147680451Y-130905735D01*
X147680451Y-130905735D02*
X147583689Y-130954116D01*
X147583689Y-130954116D02*
X147535308Y-131002497D01*
X147535308Y-131002497D02*
X147486927Y-131099259D01*
X147486927Y-131099259D02*
X147486927Y-131196021D01*
X147486927Y-131196021D02*
X147535308Y-131341164D01*
X147535308Y-131341164D02*
X148115880Y-131921735D01*
X148115880Y-131921735D02*
X147486927Y-131921735D01*
X146567689Y-130905735D02*
X147051499Y-130905735D01*
X147051499Y-130905735D02*
X147099880Y-131389545D01*
X147099880Y-131389545D02*
X147051499Y-131341164D01*
X147051499Y-131341164D02*
X146954737Y-131292783D01*
X146954737Y-131292783D02*
X146712832Y-131292783D01*
X146712832Y-131292783D02*
X146616070Y-131341164D01*
X146616070Y-131341164D02*
X146567689Y-131389545D01*
X146567689Y-131389545D02*
X146519308Y-131486307D01*
X146519308Y-131486307D02*
X146519308Y-131728212D01*
X146519308Y-131728212D02*
X146567689Y-131824974D01*
X146567689Y-131824974D02*
X146616070Y-131873355D01*
X146616070Y-131873355D02*
X146712832Y-131921735D01*
X146712832Y-131921735D02*
X146954737Y-131921735D01*
X146954737Y-131921735D02*
X147051499Y-131873355D01*
X147051499Y-131873355D02*
X147099880Y-131824974D01*
X145648451Y-130905735D02*
X145841975Y-130905735D01*
X145841975Y-130905735D02*
X145938737Y-130954116D01*
X145938737Y-130954116D02*
X145987118Y-131002497D01*
X145987118Y-131002497D02*
X146083880Y-131147640D01*
X146083880Y-131147640D02*
X146132261Y-131341164D01*
X146132261Y-131341164D02*
X146132261Y-131728212D01*
X146132261Y-131728212D02*
X146083880Y-131824974D01*
X146083880Y-131824974D02*
X146035499Y-131873355D01*
X146035499Y-131873355D02*
X145938737Y-131921735D01*
X145938737Y-131921735D02*
X145745213Y-131921735D01*
X145745213Y-131921735D02*
X145648451Y-131873355D01*
X145648451Y-131873355D02*
X145600070Y-131824974D01*
X145600070Y-131824974D02*
X145551689Y-131728212D01*
X145551689Y-131728212D02*
X145551689Y-131486307D01*
X145551689Y-131486307D02*
X145600070Y-131389545D01*
X145600070Y-131389545D02*
X145648451Y-131341164D01*
X145648451Y-131341164D02*
X145745213Y-131292783D01*
X145745213Y-131292783D02*
X145938737Y-131292783D01*
X145938737Y-131292783D02*
X146035499Y-131341164D01*
X146035499Y-131341164D02*
X146083880Y-131389545D01*
X146083880Y-131389545D02*
X146132261Y-131486307D01*
X142464641Y-98481735D02*
X143045213Y-98481735D01*
X142754927Y-98481735D02*
X142754927Y-97465735D01*
X142754927Y-97465735D02*
X142851689Y-97610878D01*
X142851689Y-97610878D02*
X142948451Y-97707640D01*
X142948451Y-97707640D02*
X143045213Y-97756021D01*
X153725213Y-115352497D02*
X153676832Y-115304116D01*
X153676832Y-115304116D02*
X153580070Y-115255735D01*
X153580070Y-115255735D02*
X153338165Y-115255735D01*
X153338165Y-115255735D02*
X153241403Y-115304116D01*
X153241403Y-115304116D02*
X153193022Y-115352497D01*
X153193022Y-115352497D02*
X153144641Y-115449259D01*
X153144641Y-115449259D02*
X153144641Y-115546021D01*
X153144641Y-115546021D02*
X153193022Y-115691164D01*
X153193022Y-115691164D02*
X153773594Y-116271735D01*
X153773594Y-116271735D02*
X153144641Y-116271735D01*
X152177022Y-116271735D02*
X152757594Y-116271735D01*
X152467308Y-116271735D02*
X152467308Y-115255735D01*
X152467308Y-115255735D02*
X152564070Y-115400878D01*
X152564070Y-115400878D02*
X152660832Y-115497640D01*
X152660832Y-115497640D02*
X152757594Y-115546021D01*
X186589260Y-62168974D02*
X186637641Y-62217355D01*
X186637641Y-62217355D02*
X186782784Y-62265735D01*
X186782784Y-62265735D02*
X186879546Y-62265735D01*
X186879546Y-62265735D02*
X187024689Y-62217355D01*
X187024689Y-62217355D02*
X187121451Y-62120593D01*
X187121451Y-62120593D02*
X187169832Y-62023831D01*
X187169832Y-62023831D02*
X187218213Y-61830307D01*
X187218213Y-61830307D02*
X187218213Y-61685164D01*
X187218213Y-61685164D02*
X187169832Y-61491640D01*
X187169832Y-61491640D02*
X187121451Y-61394878D01*
X187121451Y-61394878D02*
X187024689Y-61298116D01*
X187024689Y-61298116D02*
X186879546Y-61249735D01*
X186879546Y-61249735D02*
X186782784Y-61249735D01*
X186782784Y-61249735D02*
X186637641Y-61298116D01*
X186637641Y-61298116D02*
X186589260Y-61346497D01*
X186153832Y-62265735D02*
X186153832Y-61249735D01*
X186153832Y-61249735D02*
X185911927Y-61249735D01*
X185911927Y-61249735D02*
X185766784Y-61298116D01*
X185766784Y-61298116D02*
X185670022Y-61394878D01*
X185670022Y-61394878D02*
X185621641Y-61491640D01*
X185621641Y-61491640D02*
X185573260Y-61685164D01*
X185573260Y-61685164D02*
X185573260Y-61830307D01*
X185573260Y-61830307D02*
X185621641Y-62023831D01*
X185621641Y-62023831D02*
X185670022Y-62120593D01*
X185670022Y-62120593D02*
X185766784Y-62217355D01*
X185766784Y-62217355D02*
X185911927Y-62265735D01*
X185911927Y-62265735D02*
X186153832Y-62265735D01*
X185234594Y-61249735D02*
X184557260Y-61249735D01*
X184557260Y-61249735D02*
X184992689Y-62265735D01*
X183734784Y-61588402D02*
X183734784Y-62265735D01*
X183976689Y-61201355D02*
X184218594Y-61927069D01*
X184218594Y-61927069D02*
X183589641Y-61927069D01*
X183202594Y-62265735D02*
X183202594Y-61249735D01*
X183202594Y-61733545D02*
X182622022Y-61733545D01*
X182622022Y-62265735D02*
X182622022Y-61249735D01*
X181557641Y-62168974D02*
X181606022Y-62217355D01*
X181606022Y-62217355D02*
X181751165Y-62265735D01*
X181751165Y-62265735D02*
X181847927Y-62265735D01*
X181847927Y-62265735D02*
X181993070Y-62217355D01*
X181993070Y-62217355D02*
X182089832Y-62120593D01*
X182089832Y-62120593D02*
X182138213Y-62023831D01*
X182138213Y-62023831D02*
X182186594Y-61830307D01*
X182186594Y-61830307D02*
X182186594Y-61685164D01*
X182186594Y-61685164D02*
X182138213Y-61491640D01*
X182138213Y-61491640D02*
X182089832Y-61394878D01*
X182089832Y-61394878D02*
X181993070Y-61298116D01*
X181993070Y-61298116D02*
X181847927Y-61249735D01*
X181847927Y-61249735D02*
X181751165Y-61249735D01*
X181751165Y-61249735D02*
X181606022Y-61298116D01*
X181606022Y-61298116D02*
X181557641Y-61346497D01*
X181267356Y-61249735D02*
X180686784Y-61249735D01*
X180977070Y-62265735D02*
X180977070Y-61249735D01*
X179912689Y-61588402D02*
X179912689Y-62265735D01*
X180154594Y-61201355D02*
X180396499Y-61927069D01*
X180396499Y-61927069D02*
X179767546Y-61927069D01*
X178896689Y-61249735D02*
X179380499Y-61249735D01*
X179380499Y-61249735D02*
X179428880Y-61733545D01*
X179428880Y-61733545D02*
X179380499Y-61685164D01*
X179380499Y-61685164D02*
X179283737Y-61636783D01*
X179283737Y-61636783D02*
X179041832Y-61636783D01*
X179041832Y-61636783D02*
X178945070Y-61685164D01*
X178945070Y-61685164D02*
X178896689Y-61733545D01*
X178896689Y-61733545D02*
X178848308Y-61830307D01*
X178848308Y-61830307D02*
X178848308Y-62072212D01*
X178848308Y-62072212D02*
X178896689Y-62168974D01*
X178896689Y-62168974D02*
X178945070Y-62217355D01*
X178945070Y-62217355D02*
X179041832Y-62265735D01*
X179041832Y-62265735D02*
X179283737Y-62265735D01*
X179283737Y-62265735D02*
X179380499Y-62217355D01*
X179380499Y-62217355D02*
X179428880Y-62168974D01*
X177880689Y-62265735D02*
X178461261Y-62265735D01*
X178170975Y-62265735D02*
X178170975Y-61249735D01*
X178170975Y-61249735D02*
X178267737Y-61394878D01*
X178267737Y-61394878D02*
X178364499Y-61491640D01*
X178364499Y-61491640D02*
X178461261Y-61540021D01*
X177009832Y-61588402D02*
X177009832Y-62265735D01*
X177251737Y-61201355D02*
X177493642Y-61927069D01*
X177493642Y-61927069D02*
X176864689Y-61927069D01*
X176477642Y-61733545D02*
X176138975Y-61733545D01*
X175993832Y-62265735D02*
X176477642Y-62265735D01*
X176477642Y-62265735D02*
X176477642Y-61249735D01*
X176477642Y-61249735D02*
X175993832Y-61249735D01*
X173949735Y-51492358D02*
X173949735Y-50911786D01*
X173949735Y-51202072D02*
X172933735Y-51202072D01*
X172933735Y-51202072D02*
X173078878Y-51105310D01*
X173078878Y-51105310D02*
X173175640Y-51008548D01*
X173175640Y-51008548D02*
X173224021Y-50911786D01*
X173369164Y-52072929D02*
X173320783Y-51976167D01*
X173320783Y-51976167D02*
X173272402Y-51927786D01*
X173272402Y-51927786D02*
X173175640Y-51879405D01*
X173175640Y-51879405D02*
X173127259Y-51879405D01*
X173127259Y-51879405D02*
X173030497Y-51927786D01*
X173030497Y-51927786D02*
X172982116Y-51976167D01*
X172982116Y-51976167D02*
X172933735Y-52072929D01*
X172933735Y-52072929D02*
X172933735Y-52266453D01*
X172933735Y-52266453D02*
X172982116Y-52363215D01*
X172982116Y-52363215D02*
X173030497Y-52411596D01*
X173030497Y-52411596D02*
X173127259Y-52459977D01*
X173127259Y-52459977D02*
X173175640Y-52459977D01*
X173175640Y-52459977D02*
X173272402Y-52411596D01*
X173272402Y-52411596D02*
X173320783Y-52363215D01*
X173320783Y-52363215D02*
X173369164Y-52266453D01*
X173369164Y-52266453D02*
X173369164Y-52072929D01*
X173369164Y-52072929D02*
X173417545Y-51976167D01*
X173417545Y-51976167D02*
X173465926Y-51927786D01*
X173465926Y-51927786D02*
X173562688Y-51879405D01*
X173562688Y-51879405D02*
X173756212Y-51879405D01*
X173756212Y-51879405D02*
X173852974Y-51927786D01*
X173852974Y-51927786D02*
X173901355Y-51976167D01*
X173901355Y-51976167D02*
X173949735Y-52072929D01*
X173949735Y-52072929D02*
X173949735Y-52266453D01*
X173949735Y-52266453D02*
X173901355Y-52363215D01*
X173901355Y-52363215D02*
X173852974Y-52411596D01*
X173852974Y-52411596D02*
X173756212Y-52459977D01*
X173756212Y-52459977D02*
X173562688Y-52459977D01*
X173562688Y-52459977D02*
X173465926Y-52411596D01*
X173465926Y-52411596D02*
X173417545Y-52363215D01*
X173417545Y-52363215D02*
X173369164Y-52266453D01*
X170423735Y-61855596D02*
X170423735Y-61662072D01*
X170423735Y-61662072D02*
X170472116Y-61565310D01*
X170472116Y-61565310D02*
X170520497Y-61516929D01*
X170520497Y-61516929D02*
X170665640Y-61420167D01*
X170665640Y-61420167D02*
X170859164Y-61371786D01*
X170859164Y-61371786D02*
X171246212Y-61371786D01*
X171246212Y-61371786D02*
X171342974Y-61420167D01*
X171342974Y-61420167D02*
X171391355Y-61468548D01*
X171391355Y-61468548D02*
X171439735Y-61565310D01*
X171439735Y-61565310D02*
X171439735Y-61758834D01*
X171439735Y-61758834D02*
X171391355Y-61855596D01*
X171391355Y-61855596D02*
X171342974Y-61903977D01*
X171342974Y-61903977D02*
X171246212Y-61952358D01*
X171246212Y-61952358D02*
X171004307Y-61952358D01*
X171004307Y-61952358D02*
X170907545Y-61903977D01*
X170907545Y-61903977D02*
X170859164Y-61855596D01*
X170859164Y-61855596D02*
X170810783Y-61758834D01*
X170810783Y-61758834D02*
X170810783Y-61565310D01*
X170810783Y-61565310D02*
X170859164Y-61468548D01*
X170859164Y-61468548D02*
X170907545Y-61420167D01*
X170907545Y-61420167D02*
X171004307Y-61371786D01*
X158749735Y-61952358D02*
X158749735Y-61371786D01*
X158749735Y-61662072D02*
X157733735Y-61662072D01*
X157733735Y-61662072D02*
X157878878Y-61565310D01*
X157878878Y-61565310D02*
X157975640Y-61468548D01*
X157975640Y-61468548D02*
X158024021Y-61371786D01*
X190513594Y-107705735D02*
X189884641Y-107705735D01*
X189884641Y-107705735D02*
X190223308Y-108092783D01*
X190223308Y-108092783D02*
X190078165Y-108092783D01*
X190078165Y-108092783D02*
X189981403Y-108141164D01*
X189981403Y-108141164D02*
X189933022Y-108189545D01*
X189933022Y-108189545D02*
X189884641Y-108286307D01*
X189884641Y-108286307D02*
X189884641Y-108528212D01*
X189884641Y-108528212D02*
X189933022Y-108624974D01*
X189933022Y-108624974D02*
X189981403Y-108673355D01*
X189981403Y-108673355D02*
X190078165Y-108721735D01*
X190078165Y-108721735D02*
X190368451Y-108721735D01*
X190368451Y-108721735D02*
X190465213Y-108673355D01*
X190465213Y-108673355D02*
X190513594Y-108624974D01*
X189255689Y-107705735D02*
X189158927Y-107705735D01*
X189158927Y-107705735D02*
X189062165Y-107754116D01*
X189062165Y-107754116D02*
X189013784Y-107802497D01*
X189013784Y-107802497D02*
X188965403Y-107899259D01*
X188965403Y-107899259D02*
X188917022Y-108092783D01*
X188917022Y-108092783D02*
X188917022Y-108334688D01*
X188917022Y-108334688D02*
X188965403Y-108528212D01*
X188965403Y-108528212D02*
X189013784Y-108624974D01*
X189013784Y-108624974D02*
X189062165Y-108673355D01*
X189062165Y-108673355D02*
X189158927Y-108721735D01*
X189158927Y-108721735D02*
X189255689Y-108721735D01*
X189255689Y-108721735D02*
X189352451Y-108673355D01*
X189352451Y-108673355D02*
X189400832Y-108624974D01*
X189400832Y-108624974D02*
X189449213Y-108528212D01*
X189449213Y-108528212D02*
X189497594Y-108334688D01*
X189497594Y-108334688D02*
X189497594Y-108092783D01*
X189497594Y-108092783D02*
X189449213Y-107899259D01*
X189449213Y-107899259D02*
X189400832Y-107802497D01*
X189400832Y-107802497D02*
X189352451Y-107754116D01*
X189352451Y-107754116D02*
X189255689Y-107705735D01*
X179464641Y-83301735D02*
X180045213Y-83301735D01*
X179754927Y-83301735D02*
X179754927Y-82285735D01*
X179754927Y-82285735D02*
X179851689Y-82430878D01*
X179851689Y-82430878D02*
X179948451Y-82527640D01*
X179948451Y-82527640D02*
X180045213Y-82576021D01*
X187543594Y-130765735D02*
X186866260Y-130765735D01*
X186866260Y-130765735D02*
X187543594Y-131781735D01*
X187543594Y-131781735D02*
X186866260Y-131781735D01*
X186334070Y-131201164D02*
X186430832Y-131152783D01*
X186430832Y-131152783D02*
X186479213Y-131104402D01*
X186479213Y-131104402D02*
X186527594Y-131007640D01*
X186527594Y-131007640D02*
X186527594Y-130959259D01*
X186527594Y-130959259D02*
X186479213Y-130862497D01*
X186479213Y-130862497D02*
X186430832Y-130814116D01*
X186430832Y-130814116D02*
X186334070Y-130765735D01*
X186334070Y-130765735D02*
X186140546Y-130765735D01*
X186140546Y-130765735D02*
X186043784Y-130814116D01*
X186043784Y-130814116D02*
X185995403Y-130862497D01*
X185995403Y-130862497D02*
X185947022Y-130959259D01*
X185947022Y-130959259D02*
X185947022Y-131007640D01*
X185947022Y-131007640D02*
X185995403Y-131104402D01*
X185995403Y-131104402D02*
X186043784Y-131152783D01*
X186043784Y-131152783D02*
X186140546Y-131201164D01*
X186140546Y-131201164D02*
X186334070Y-131201164D01*
X186334070Y-131201164D02*
X186430832Y-131249545D01*
X186430832Y-131249545D02*
X186479213Y-131297926D01*
X186479213Y-131297926D02*
X186527594Y-131394688D01*
X186527594Y-131394688D02*
X186527594Y-131588212D01*
X186527594Y-131588212D02*
X186479213Y-131684974D01*
X186479213Y-131684974D02*
X186430832Y-131733355D01*
X186430832Y-131733355D02*
X186334070Y-131781735D01*
X186334070Y-131781735D02*
X186140546Y-131781735D01*
X186140546Y-131781735D02*
X186043784Y-131733355D01*
X186043784Y-131733355D02*
X185995403Y-131684974D01*
X185995403Y-131684974D02*
X185947022Y-131588212D01*
X185947022Y-131588212D02*
X185947022Y-131394688D01*
X185947022Y-131394688D02*
X185995403Y-131297926D01*
X185995403Y-131297926D02*
X186043784Y-131249545D01*
X186043784Y-131249545D02*
X186140546Y-131201164D01*
X185318070Y-130765735D02*
X185221308Y-130765735D01*
X185221308Y-130765735D02*
X185124546Y-130814116D01*
X185124546Y-130814116D02*
X185076165Y-130862497D01*
X185076165Y-130862497D02*
X185027784Y-130959259D01*
X185027784Y-130959259D02*
X184979403Y-131152783D01*
X184979403Y-131152783D02*
X184979403Y-131394688D01*
X184979403Y-131394688D02*
X185027784Y-131588212D01*
X185027784Y-131588212D02*
X185076165Y-131684974D01*
X185076165Y-131684974D02*
X185124546Y-131733355D01*
X185124546Y-131733355D02*
X185221308Y-131781735D01*
X185221308Y-131781735D02*
X185318070Y-131781735D01*
X185318070Y-131781735D02*
X185414832Y-131733355D01*
X185414832Y-131733355D02*
X185463213Y-131684974D01*
X185463213Y-131684974D02*
X185511594Y-131588212D01*
X185511594Y-131588212D02*
X185559975Y-131394688D01*
X185559975Y-131394688D02*
X185559975Y-131152783D01*
X185559975Y-131152783D02*
X185511594Y-130959259D01*
X185511594Y-130959259D02*
X185463213Y-130862497D01*
X185463213Y-130862497D02*
X185414832Y-130814116D01*
X185414832Y-130814116D02*
X185318070Y-130765735D01*
X184592356Y-131733355D02*
X184447213Y-131781735D01*
X184447213Y-131781735D02*
X184205308Y-131781735D01*
X184205308Y-131781735D02*
X184108546Y-131733355D01*
X184108546Y-131733355D02*
X184060165Y-131684974D01*
X184060165Y-131684974D02*
X184011784Y-131588212D01*
X184011784Y-131588212D02*
X184011784Y-131491450D01*
X184011784Y-131491450D02*
X184060165Y-131394688D01*
X184060165Y-131394688D02*
X184108546Y-131346307D01*
X184108546Y-131346307D02*
X184205308Y-131297926D01*
X184205308Y-131297926D02*
X184398832Y-131249545D01*
X184398832Y-131249545D02*
X184495594Y-131201164D01*
X184495594Y-131201164D02*
X184543975Y-131152783D01*
X184543975Y-131152783D02*
X184592356Y-131056021D01*
X184592356Y-131056021D02*
X184592356Y-130959259D01*
X184592356Y-130959259D02*
X184543975Y-130862497D01*
X184543975Y-130862497D02*
X184495594Y-130814116D01*
X184495594Y-130814116D02*
X184398832Y-130765735D01*
X184398832Y-130765735D02*
X184156927Y-130765735D01*
X184156927Y-130765735D02*
X184011784Y-130814116D01*
X183576356Y-131781735D02*
X183576356Y-130765735D01*
X182899022Y-130765735D02*
X182705498Y-130765735D01*
X182705498Y-130765735D02*
X182608736Y-130814116D01*
X182608736Y-130814116D02*
X182511974Y-130910878D01*
X182511974Y-130910878D02*
X182463593Y-131104402D01*
X182463593Y-131104402D02*
X182463593Y-131443069D01*
X182463593Y-131443069D02*
X182511974Y-131636593D01*
X182511974Y-131636593D02*
X182608736Y-131733355D01*
X182608736Y-131733355D02*
X182705498Y-131781735D01*
X182705498Y-131781735D02*
X182899022Y-131781735D01*
X182899022Y-131781735D02*
X182995784Y-131733355D01*
X182995784Y-131733355D02*
X183092546Y-131636593D01*
X183092546Y-131636593D02*
X183140927Y-131443069D01*
X183140927Y-131443069D02*
X183140927Y-131104402D01*
X183140927Y-131104402D02*
X183092546Y-130910878D01*
X183092546Y-130910878D02*
X182995784Y-130814116D01*
X182995784Y-130814116D02*
X182899022Y-130765735D01*
X180444641Y-106151735D02*
X181025213Y-106151735D01*
X180734927Y-106151735D02*
X180734927Y-105135735D01*
X180734927Y-105135735D02*
X180831689Y-105280878D01*
X180831689Y-105280878D02*
X180928451Y-105377640D01*
X180928451Y-105377640D02*
X181025213Y-105426021D01*
X179815689Y-105135735D02*
X179718927Y-105135735D01*
X179718927Y-105135735D02*
X179622165Y-105184116D01*
X179622165Y-105184116D02*
X179573784Y-105232497D01*
X179573784Y-105232497D02*
X179525403Y-105329259D01*
X179525403Y-105329259D02*
X179477022Y-105522783D01*
X179477022Y-105522783D02*
X179477022Y-105764688D01*
X179477022Y-105764688D02*
X179525403Y-105958212D01*
X179525403Y-105958212D02*
X179573784Y-106054974D01*
X179573784Y-106054974D02*
X179622165Y-106103355D01*
X179622165Y-106103355D02*
X179718927Y-106151735D01*
X179718927Y-106151735D02*
X179815689Y-106151735D01*
X179815689Y-106151735D02*
X179912451Y-106103355D01*
X179912451Y-106103355D02*
X179960832Y-106054974D01*
X179960832Y-106054974D02*
X180009213Y-105958212D01*
X180009213Y-105958212D02*
X180057594Y-105764688D01*
X180057594Y-105764688D02*
X180057594Y-105522783D01*
X180057594Y-105522783D02*
X180009213Y-105329259D01*
X180009213Y-105329259D02*
X179960832Y-105232497D01*
X179960832Y-105232497D02*
X179912451Y-105184116D01*
X179912451Y-105184116D02*
X179815689Y-105135735D01*
X137258307Y-49143735D02*
X137838879Y-49143735D01*
X137548593Y-49143735D02*
X137548593Y-48127735D01*
X137548593Y-48127735D02*
X137645355Y-48272878D01*
X137645355Y-48272878D02*
X137742117Y-48369640D01*
X137742117Y-48369640D02*
X137838879Y-48418021D01*
X137950930Y-64960594D02*
X137950930Y-64283260D01*
X137950930Y-64283260D02*
X136934930Y-64718689D01*
X137612263Y-63460784D02*
X136934930Y-63460784D01*
X137999311Y-63702689D02*
X137273596Y-63944594D01*
X137273596Y-63944594D02*
X137273596Y-63315641D01*
X136934930Y-62444784D02*
X136934930Y-62928594D01*
X136934930Y-62928594D02*
X137950930Y-62928594D01*
X136983311Y-62154499D02*
X136934930Y-62009356D01*
X136934930Y-62009356D02*
X136934930Y-61767451D01*
X136934930Y-61767451D02*
X136983311Y-61670689D01*
X136983311Y-61670689D02*
X137031691Y-61622308D01*
X137031691Y-61622308D02*
X137128453Y-61573927D01*
X137128453Y-61573927D02*
X137225215Y-61573927D01*
X137225215Y-61573927D02*
X137321977Y-61622308D01*
X137321977Y-61622308D02*
X137370358Y-61670689D01*
X137370358Y-61670689D02*
X137418739Y-61767451D01*
X137418739Y-61767451D02*
X137467120Y-61960975D01*
X137467120Y-61960975D02*
X137515501Y-62057737D01*
X137515501Y-62057737D02*
X137563882Y-62106118D01*
X137563882Y-62106118D02*
X137660644Y-62154499D01*
X137660644Y-62154499D02*
X137757406Y-62154499D01*
X137757406Y-62154499D02*
X137854168Y-62106118D01*
X137854168Y-62106118D02*
X137902549Y-62057737D01*
X137902549Y-62057737D02*
X137950930Y-61960975D01*
X137950930Y-61960975D02*
X137950930Y-61719070D01*
X137950930Y-61719070D02*
X137902549Y-61573927D01*
X137950930Y-61235261D02*
X137950930Y-60606308D01*
X137950930Y-60606308D02*
X137563882Y-60944975D01*
X137563882Y-60944975D02*
X137563882Y-60799832D01*
X137563882Y-60799832D02*
X137515501Y-60703070D01*
X137515501Y-60703070D02*
X137467120Y-60654689D01*
X137467120Y-60654689D02*
X137370358Y-60606308D01*
X137370358Y-60606308D02*
X137128453Y-60606308D01*
X137128453Y-60606308D02*
X137031691Y-60654689D01*
X137031691Y-60654689D02*
X136983311Y-60703070D01*
X136983311Y-60703070D02*
X136934930Y-60799832D01*
X136934930Y-60799832D02*
X136934930Y-61090118D01*
X136934930Y-61090118D02*
X136983311Y-61186880D01*
X136983311Y-61186880D02*
X137031691Y-61235261D01*
X137854168Y-60219261D02*
X137902549Y-60170880D01*
X137902549Y-60170880D02*
X137950930Y-60074118D01*
X137950930Y-60074118D02*
X137950930Y-59832213D01*
X137950930Y-59832213D02*
X137902549Y-59735451D01*
X137902549Y-59735451D02*
X137854168Y-59687070D01*
X137854168Y-59687070D02*
X137757406Y-59638689D01*
X137757406Y-59638689D02*
X137660644Y-59638689D01*
X137660644Y-59638689D02*
X137515501Y-59687070D01*
X137515501Y-59687070D02*
X136934930Y-60267642D01*
X136934930Y-60267642D02*
X136934930Y-59638689D01*
X161728594Y-112795735D02*
X161051260Y-112795735D01*
X161051260Y-112795735D02*
X161486689Y-113811735D01*
X161039641Y-98511735D02*
X161620213Y-98511735D01*
X161329927Y-98511735D02*
X161329927Y-97495735D01*
X161329927Y-97495735D02*
X161426689Y-97640878D01*
X161426689Y-97640878D02*
X161523451Y-97737640D01*
X161523451Y-97737640D02*
X161620213Y-97786021D01*
X172080213Y-115402497D02*
X172031832Y-115354116D01*
X172031832Y-115354116D02*
X171935070Y-115305735D01*
X171935070Y-115305735D02*
X171693165Y-115305735D01*
X171693165Y-115305735D02*
X171596403Y-115354116D01*
X171596403Y-115354116D02*
X171548022Y-115402497D01*
X171548022Y-115402497D02*
X171499641Y-115499259D01*
X171499641Y-115499259D02*
X171499641Y-115596021D01*
X171499641Y-115596021D02*
X171548022Y-115741164D01*
X171548022Y-115741164D02*
X172128594Y-116321735D01*
X172128594Y-116321735D02*
X171499641Y-116321735D01*
X170532022Y-116321735D02*
X171112594Y-116321735D01*
X170822308Y-116321735D02*
X170822308Y-115305735D01*
X170822308Y-115305735D02*
X170919070Y-115450878D01*
X170919070Y-115450878D02*
X171015832Y-115547640D01*
X171015832Y-115547640D02*
X171112594Y-115596021D01*
X169378594Y-130915735D02*
X168701260Y-130915735D01*
X168701260Y-130915735D02*
X169378594Y-131931735D01*
X169378594Y-131931735D02*
X168701260Y-131931735D01*
X168169070Y-131351164D02*
X168265832Y-131302783D01*
X168265832Y-131302783D02*
X168314213Y-131254402D01*
X168314213Y-131254402D02*
X168362594Y-131157640D01*
X168362594Y-131157640D02*
X168362594Y-131109259D01*
X168362594Y-131109259D02*
X168314213Y-131012497D01*
X168314213Y-131012497D02*
X168265832Y-130964116D01*
X168265832Y-130964116D02*
X168169070Y-130915735D01*
X168169070Y-130915735D02*
X167975546Y-130915735D01*
X167975546Y-130915735D02*
X167878784Y-130964116D01*
X167878784Y-130964116D02*
X167830403Y-131012497D01*
X167830403Y-131012497D02*
X167782022Y-131109259D01*
X167782022Y-131109259D02*
X167782022Y-131157640D01*
X167782022Y-131157640D02*
X167830403Y-131254402D01*
X167830403Y-131254402D02*
X167878784Y-131302783D01*
X167878784Y-131302783D02*
X167975546Y-131351164D01*
X167975546Y-131351164D02*
X168169070Y-131351164D01*
X168169070Y-131351164D02*
X168265832Y-131399545D01*
X168265832Y-131399545D02*
X168314213Y-131447926D01*
X168314213Y-131447926D02*
X168362594Y-131544688D01*
X168362594Y-131544688D02*
X168362594Y-131738212D01*
X168362594Y-131738212D02*
X168314213Y-131834974D01*
X168314213Y-131834974D02*
X168265832Y-131883355D01*
X168265832Y-131883355D02*
X168169070Y-131931735D01*
X168169070Y-131931735D02*
X167975546Y-131931735D01*
X167975546Y-131931735D02*
X167878784Y-131883355D01*
X167878784Y-131883355D02*
X167830403Y-131834974D01*
X167830403Y-131834974D02*
X167782022Y-131738212D01*
X167782022Y-131738212D02*
X167782022Y-131544688D01*
X167782022Y-131544688D02*
X167830403Y-131447926D01*
X167830403Y-131447926D02*
X167878784Y-131399545D01*
X167878784Y-131399545D02*
X167975546Y-131351164D01*
X167153070Y-130915735D02*
X167056308Y-130915735D01*
X167056308Y-130915735D02*
X166959546Y-130964116D01*
X166959546Y-130964116D02*
X166911165Y-131012497D01*
X166911165Y-131012497D02*
X166862784Y-131109259D01*
X166862784Y-131109259D02*
X166814403Y-131302783D01*
X166814403Y-131302783D02*
X166814403Y-131544688D01*
X166814403Y-131544688D02*
X166862784Y-131738212D01*
X166862784Y-131738212D02*
X166911165Y-131834974D01*
X166911165Y-131834974D02*
X166959546Y-131883355D01*
X166959546Y-131883355D02*
X167056308Y-131931735D01*
X167056308Y-131931735D02*
X167153070Y-131931735D01*
X167153070Y-131931735D02*
X167249832Y-131883355D01*
X167249832Y-131883355D02*
X167298213Y-131834974D01*
X167298213Y-131834974D02*
X167346594Y-131738212D01*
X167346594Y-131738212D02*
X167394975Y-131544688D01*
X167394975Y-131544688D02*
X167394975Y-131302783D01*
X167394975Y-131302783D02*
X167346594Y-131109259D01*
X167346594Y-131109259D02*
X167298213Y-131012497D01*
X167298213Y-131012497D02*
X167249832Y-130964116D01*
X167249832Y-130964116D02*
X167153070Y-130915735D01*
X165798403Y-131834974D02*
X165846784Y-131883355D01*
X165846784Y-131883355D02*
X165991927Y-131931735D01*
X165991927Y-131931735D02*
X166088689Y-131931735D01*
X166088689Y-131931735D02*
X166233832Y-131883355D01*
X166233832Y-131883355D02*
X166330594Y-131786593D01*
X166330594Y-131786593D02*
X166378975Y-131689831D01*
X166378975Y-131689831D02*
X166427356Y-131496307D01*
X166427356Y-131496307D02*
X166427356Y-131351164D01*
X166427356Y-131351164D02*
X166378975Y-131157640D01*
X166378975Y-131157640D02*
X166330594Y-131060878D01*
X166330594Y-131060878D02*
X166233832Y-130964116D01*
X166233832Y-130964116D02*
X166088689Y-130915735D01*
X166088689Y-130915735D02*
X165991927Y-130915735D01*
X165991927Y-130915735D02*
X165846784Y-130964116D01*
X165846784Y-130964116D02*
X165798403Y-131012497D01*
X165508118Y-130915735D02*
X164927546Y-130915735D01*
X165217832Y-131931735D02*
X165217832Y-130915735D01*
X164008308Y-131834974D02*
X164056689Y-131883355D01*
X164056689Y-131883355D02*
X164201832Y-131931735D01*
X164201832Y-131931735D02*
X164298594Y-131931735D01*
X164298594Y-131931735D02*
X164443737Y-131883355D01*
X164443737Y-131883355D02*
X164540499Y-131786593D01*
X164540499Y-131786593D02*
X164588880Y-131689831D01*
X164588880Y-131689831D02*
X164637261Y-131496307D01*
X164637261Y-131496307D02*
X164637261Y-131351164D01*
X164637261Y-131351164D02*
X164588880Y-131157640D01*
X164588880Y-131157640D02*
X164540499Y-131060878D01*
X164540499Y-131060878D02*
X164443737Y-130964116D01*
X164443737Y-130964116D02*
X164298594Y-130915735D01*
X164298594Y-130915735D02*
X164201832Y-130915735D01*
X164201832Y-130915735D02*
X164056689Y-130964116D01*
X164056689Y-130964116D02*
X164008308Y-131012497D01*
X132550213Y-131112497D02*
X132501832Y-131064116D01*
X132501832Y-131064116D02*
X132405070Y-131015735D01*
X132405070Y-131015735D02*
X132163165Y-131015735D01*
X132163165Y-131015735D02*
X132066403Y-131064116D01*
X132066403Y-131064116D02*
X132018022Y-131112497D01*
X132018022Y-131112497D02*
X131969641Y-131209259D01*
X131969641Y-131209259D02*
X131969641Y-131306021D01*
X131969641Y-131306021D02*
X132018022Y-131451164D01*
X132018022Y-131451164D02*
X132598594Y-132031735D01*
X132598594Y-132031735D02*
X131969641Y-132031735D01*
X131389070Y-131451164D02*
X131485832Y-131402783D01*
X131485832Y-131402783D02*
X131534213Y-131354402D01*
X131534213Y-131354402D02*
X131582594Y-131257640D01*
X131582594Y-131257640D02*
X131582594Y-131209259D01*
X131582594Y-131209259D02*
X131534213Y-131112497D01*
X131534213Y-131112497D02*
X131485832Y-131064116D01*
X131485832Y-131064116D02*
X131389070Y-131015735D01*
X131389070Y-131015735D02*
X131195546Y-131015735D01*
X131195546Y-131015735D02*
X131098784Y-131064116D01*
X131098784Y-131064116D02*
X131050403Y-131112497D01*
X131050403Y-131112497D02*
X131002022Y-131209259D01*
X131002022Y-131209259D02*
X131002022Y-131257640D01*
X131002022Y-131257640D02*
X131050403Y-131354402D01*
X131050403Y-131354402D02*
X131098784Y-131402783D01*
X131098784Y-131402783D02*
X131195546Y-131451164D01*
X131195546Y-131451164D02*
X131389070Y-131451164D01*
X131389070Y-131451164D02*
X131485832Y-131499545D01*
X131485832Y-131499545D02*
X131534213Y-131547926D01*
X131534213Y-131547926D02*
X131582594Y-131644688D01*
X131582594Y-131644688D02*
X131582594Y-131838212D01*
X131582594Y-131838212D02*
X131534213Y-131934974D01*
X131534213Y-131934974D02*
X131485832Y-131983355D01*
X131485832Y-131983355D02*
X131389070Y-132031735D01*
X131389070Y-132031735D02*
X131195546Y-132031735D01*
X131195546Y-132031735D02*
X131098784Y-131983355D01*
X131098784Y-131983355D02*
X131050403Y-131934974D01*
X131050403Y-131934974D02*
X131002022Y-131838212D01*
X131002022Y-131838212D02*
X131002022Y-131644688D01*
X131002022Y-131644688D02*
X131050403Y-131547926D01*
X131050403Y-131547926D02*
X131098784Y-131499545D01*
X131098784Y-131499545D02*
X131195546Y-131451164D01*
X130566594Y-132031735D02*
X130566594Y-131015735D01*
X130566594Y-131499545D02*
X129986022Y-131499545D01*
X129986022Y-132031735D02*
X129986022Y-131015735D01*
X128921641Y-131934974D02*
X128970022Y-131983355D01*
X128970022Y-131983355D02*
X129115165Y-132031735D01*
X129115165Y-132031735D02*
X129211927Y-132031735D01*
X129211927Y-132031735D02*
X129357070Y-131983355D01*
X129357070Y-131983355D02*
X129453832Y-131886593D01*
X129453832Y-131886593D02*
X129502213Y-131789831D01*
X129502213Y-131789831D02*
X129550594Y-131596307D01*
X129550594Y-131596307D02*
X129550594Y-131451164D01*
X129550594Y-131451164D02*
X129502213Y-131257640D01*
X129502213Y-131257640D02*
X129453832Y-131160878D01*
X129453832Y-131160878D02*
X129357070Y-131064116D01*
X129357070Y-131064116D02*
X129211927Y-131015735D01*
X129211927Y-131015735D02*
X129115165Y-131015735D01*
X129115165Y-131015735D02*
X128970022Y-131064116D01*
X128970022Y-131064116D02*
X128921641Y-131112497D01*
X128050784Y-131015735D02*
X128244308Y-131015735D01*
X128244308Y-131015735D02*
X128341070Y-131064116D01*
X128341070Y-131064116D02*
X128389451Y-131112497D01*
X128389451Y-131112497D02*
X128486213Y-131257640D01*
X128486213Y-131257640D02*
X128534594Y-131451164D01*
X128534594Y-131451164D02*
X128534594Y-131838212D01*
X128534594Y-131838212D02*
X128486213Y-131934974D01*
X128486213Y-131934974D02*
X128437832Y-131983355D01*
X128437832Y-131983355D02*
X128341070Y-132031735D01*
X128341070Y-132031735D02*
X128147546Y-132031735D01*
X128147546Y-132031735D02*
X128050784Y-131983355D01*
X128050784Y-131983355D02*
X128002403Y-131934974D01*
X128002403Y-131934974D02*
X127954022Y-131838212D01*
X127954022Y-131838212D02*
X127954022Y-131596307D01*
X127954022Y-131596307D02*
X128002403Y-131499545D01*
X128002403Y-131499545D02*
X128050784Y-131451164D01*
X128050784Y-131451164D02*
X128147546Y-131402783D01*
X128147546Y-131402783D02*
X128341070Y-131402783D01*
X128341070Y-131402783D02*
X128437832Y-131451164D01*
X128437832Y-131451164D02*
X128486213Y-131499545D01*
X128486213Y-131499545D02*
X128534594Y-131596307D01*
X127083165Y-131354402D02*
X127083165Y-132031735D01*
X127325070Y-130967355D02*
X127566975Y-131693069D01*
X127566975Y-131693069D02*
X126938022Y-131693069D01*
X135240213Y-115382497D02*
X135191832Y-115334116D01*
X135191832Y-115334116D02*
X135095070Y-115285735D01*
X135095070Y-115285735D02*
X134853165Y-115285735D01*
X134853165Y-115285735D02*
X134756403Y-115334116D01*
X134756403Y-115334116D02*
X134708022Y-115382497D01*
X134708022Y-115382497D02*
X134659641Y-115479259D01*
X134659641Y-115479259D02*
X134659641Y-115576021D01*
X134659641Y-115576021D02*
X134708022Y-115721164D01*
X134708022Y-115721164D02*
X135288594Y-116301735D01*
X135288594Y-116301735D02*
X134659641Y-116301735D01*
X133692022Y-116301735D02*
X134272594Y-116301735D01*
X133982308Y-116301735D02*
X133982308Y-115285735D01*
X133982308Y-115285735D02*
X134079070Y-115430878D01*
X134079070Y-115430878D02*
X134175832Y-115527640D01*
X134175832Y-115527640D02*
X134272594Y-115576021D01*
X124149641Y-98521735D02*
X124730213Y-98521735D01*
X124439927Y-98521735D02*
X124439927Y-97505735D01*
X124439927Y-97505735D02*
X124536689Y-97650878D01*
X124536689Y-97650878D02*
X124633451Y-97747640D01*
X124633451Y-97747640D02*
X124730213Y-97796021D01*
X125008594Y-112735735D02*
X124331260Y-112735735D01*
X124331260Y-112735735D02*
X124766689Y-113751735D01*
X124922264Y-91518594D02*
X124922264Y-90841260D01*
X124922264Y-90841260D02*
X123906264Y-91276689D01*
X124583597Y-90018784D02*
X123906264Y-90018784D01*
X124970645Y-90260689D02*
X124244930Y-90502594D01*
X124244930Y-90502594D02*
X124244930Y-89873641D01*
X123906264Y-89002784D02*
X123906264Y-89486594D01*
X123906264Y-89486594D02*
X124922264Y-89486594D01*
X123954645Y-88712499D02*
X123906264Y-88567356D01*
X123906264Y-88567356D02*
X123906264Y-88325451D01*
X123906264Y-88325451D02*
X123954645Y-88228689D01*
X123954645Y-88228689D02*
X124003025Y-88180308D01*
X124003025Y-88180308D02*
X124099787Y-88131927D01*
X124099787Y-88131927D02*
X124196549Y-88131927D01*
X124196549Y-88131927D02*
X124293311Y-88180308D01*
X124293311Y-88180308D02*
X124341692Y-88228689D01*
X124341692Y-88228689D02*
X124390073Y-88325451D01*
X124390073Y-88325451D02*
X124438454Y-88518975D01*
X124438454Y-88518975D02*
X124486835Y-88615737D01*
X124486835Y-88615737D02*
X124535216Y-88664118D01*
X124535216Y-88664118D02*
X124631978Y-88712499D01*
X124631978Y-88712499D02*
X124728740Y-88712499D01*
X124728740Y-88712499D02*
X124825502Y-88664118D01*
X124825502Y-88664118D02*
X124873883Y-88615737D01*
X124873883Y-88615737D02*
X124922264Y-88518975D01*
X124922264Y-88518975D02*
X124922264Y-88277070D01*
X124922264Y-88277070D02*
X124873883Y-88131927D01*
X124922264Y-87502975D02*
X124922264Y-87406213D01*
X124922264Y-87406213D02*
X124873883Y-87309451D01*
X124873883Y-87309451D02*
X124825502Y-87261070D01*
X124825502Y-87261070D02*
X124728740Y-87212689D01*
X124728740Y-87212689D02*
X124535216Y-87164308D01*
X124535216Y-87164308D02*
X124293311Y-87164308D01*
X124293311Y-87164308D02*
X124099787Y-87212689D01*
X124099787Y-87212689D02*
X124003025Y-87261070D01*
X124003025Y-87261070D02*
X123954645Y-87309451D01*
X123954645Y-87309451D02*
X123906264Y-87406213D01*
X123906264Y-87406213D02*
X123906264Y-87502975D01*
X123906264Y-87502975D02*
X123954645Y-87599737D01*
X123954645Y-87599737D02*
X124003025Y-87648118D01*
X124003025Y-87648118D02*
X124099787Y-87696499D01*
X124099787Y-87696499D02*
X124293311Y-87744880D01*
X124293311Y-87744880D02*
X124535216Y-87744880D01*
X124535216Y-87744880D02*
X124728740Y-87696499D01*
X124728740Y-87696499D02*
X124825502Y-87648118D01*
X124825502Y-87648118D02*
X124873883Y-87599737D01*
X124873883Y-87599737D02*
X124922264Y-87502975D01*
X124583597Y-86293451D02*
X123906264Y-86293451D01*
X124970645Y-86535356D02*
X124244930Y-86777261D01*
X124244930Y-86777261D02*
X124244930Y-86148308D01*
X124229641Y-75651735D02*
X124810213Y-75651735D01*
X124519927Y-75651735D02*
X124519927Y-74635735D01*
X124519927Y-74635735D02*
X124616689Y-74780878D01*
X124616689Y-74780878D02*
X124713451Y-74877640D01*
X124713451Y-74877640D02*
X124810213Y-74926021D01*
X150947264Y-91503594D02*
X150947264Y-90826260D01*
X150947264Y-90826260D02*
X149931264Y-91261689D01*
X150608597Y-90003784D02*
X149931264Y-90003784D01*
X150995645Y-90245689D02*
X150269930Y-90487594D01*
X150269930Y-90487594D02*
X150269930Y-89858641D01*
X149931264Y-88987784D02*
X149931264Y-89471594D01*
X149931264Y-89471594D02*
X150947264Y-89471594D01*
X149979645Y-88697499D02*
X149931264Y-88552356D01*
X149931264Y-88552356D02*
X149931264Y-88310451D01*
X149931264Y-88310451D02*
X149979645Y-88213689D01*
X149979645Y-88213689D02*
X150028025Y-88165308D01*
X150028025Y-88165308D02*
X150124787Y-88116927D01*
X150124787Y-88116927D02*
X150221549Y-88116927D01*
X150221549Y-88116927D02*
X150318311Y-88165308D01*
X150318311Y-88165308D02*
X150366692Y-88213689D01*
X150366692Y-88213689D02*
X150415073Y-88310451D01*
X150415073Y-88310451D02*
X150463454Y-88503975D01*
X150463454Y-88503975D02*
X150511835Y-88600737D01*
X150511835Y-88600737D02*
X150560216Y-88649118D01*
X150560216Y-88649118D02*
X150656978Y-88697499D01*
X150656978Y-88697499D02*
X150753740Y-88697499D01*
X150753740Y-88697499D02*
X150850502Y-88649118D01*
X150850502Y-88649118D02*
X150898883Y-88600737D01*
X150898883Y-88600737D02*
X150947264Y-88503975D01*
X150947264Y-88503975D02*
X150947264Y-88262070D01*
X150947264Y-88262070D02*
X150898883Y-88116927D01*
X150947264Y-87778261D02*
X150947264Y-87100927D01*
X150947264Y-87100927D02*
X149931264Y-87536356D01*
X150608597Y-86278451D02*
X149931264Y-86278451D01*
X150995645Y-86520356D02*
X150269930Y-86762261D01*
X150269930Y-86762261D02*
X150269930Y-86133308D01*
X150264641Y-75676735D02*
X150845213Y-75676735D01*
X150554927Y-75676735D02*
X150554927Y-74660735D01*
X150554927Y-74660735D02*
X150651689Y-74805878D01*
X150651689Y-74805878D02*
X150748451Y-74902640D01*
X150748451Y-74902640D02*
X150845213Y-74951021D01*
%TO.C,U1*%
X102309000Y-81384000D02*
X120429000Y-81384000D01*
X102309000Y-132424000D02*
X102309000Y-81384000D01*
X105309000Y-81444000D02*
X110369000Y-81444000D01*
X105309000Y-132364000D02*
X105309000Y-81444000D01*
X112369000Y-81444000D02*
X117429000Y-81444000D01*
X117429000Y-81444000D02*
X117429000Y-132364000D01*
X117429000Y-132364000D02*
X105309000Y-132364000D01*
X120429000Y-81384000D02*
X120429000Y-132424000D01*
X120429000Y-132424000D02*
X102309000Y-132424000D01*
X110369000Y-81444000D02*
G75*
G03*
X112369000Y-81444000I1000000J0D01*
G01*
%TO.C,U8*%
X145247332Y-47251000D02*
X155747332Y-47251000D01*
X145247332Y-67811000D02*
X145247332Y-47251000D01*
X148247332Y-47311000D02*
X149497332Y-47311000D01*
X148247332Y-67751000D02*
X148247332Y-47311000D01*
X151497332Y-47311000D02*
X152747332Y-47311000D01*
X152747332Y-47311000D02*
X152747332Y-67751000D01*
X152747332Y-67751000D02*
X148247332Y-67751000D01*
X155747332Y-47251000D02*
X155747332Y-67811000D01*
X155747332Y-67811000D02*
X145247332Y-67811000D01*
X149497332Y-47311000D02*
G75*
G03*
X151497332Y-47311000I1000000J0D01*
G01*
%TO.C,U11*%
X122258000Y-54998000D02*
X132758000Y-54998000D01*
X122258000Y-65398000D02*
X122258000Y-54998000D01*
X125258000Y-55058000D02*
X126508000Y-55058000D01*
X125258000Y-65338000D02*
X125258000Y-55058000D01*
X128508000Y-55058000D02*
X129758000Y-55058000D01*
X129758000Y-55058000D02*
X129758000Y-65338000D01*
X129758000Y-65338000D02*
X125258000Y-65338000D01*
X132758000Y-54998000D02*
X132758000Y-65398000D01*
X132758000Y-65398000D02*
X122258000Y-65398000D01*
X126508000Y-55058000D02*
G75*
G03*
X128508000Y-55058000I1000000J0D01*
G01*
%TO.C,U3*%
X139119000Y-96654000D02*
X157239000Y-96654000D01*
X139119000Y-132454000D02*
X139119000Y-96654000D01*
X142119000Y-96714000D02*
X147179000Y-96714000D01*
X142119000Y-132394000D02*
X142119000Y-96714000D01*
X149179000Y-96714000D02*
X154239000Y-96714000D01*
X154239000Y-96714000D02*
X154239000Y-132394000D01*
X154239000Y-132394000D02*
X142119000Y-132394000D01*
X157239000Y-96654000D02*
X157239000Y-132454000D01*
X157239000Y-132454000D02*
X139119000Y-132454000D01*
X147179000Y-96714000D02*
G75*
G03*
X149179000Y-96714000I1000000J0D01*
G01*
%TO.C,U7*%
X156852000Y-65448000D02*
X156852000Y-47328000D01*
X187572000Y-65448000D02*
X156852000Y-65448000D01*
X156912000Y-62448000D02*
X156912000Y-57388000D01*
X187512000Y-62448000D02*
X156912000Y-62448000D01*
X156912000Y-55388000D02*
X156912000Y-50328000D01*
X156912000Y-50328000D02*
X187512000Y-50328000D01*
X187512000Y-50328000D02*
X187512000Y-62448000D01*
X156852000Y-47328000D02*
X187572000Y-47328000D01*
X187572000Y-47328000D02*
X187572000Y-65448000D01*
X156912000Y-57388000D02*
G75*
G03*
X156912000Y-55388000I0J1000000D01*
G01*
%TO.C,U5*%
X175959000Y-81414000D02*
X194079000Y-81414000D01*
X175959000Y-132454000D02*
X175959000Y-81414000D01*
X178959000Y-81474000D02*
X184019000Y-81474000D01*
X178959000Y-132394000D02*
X178959000Y-81474000D01*
X186019000Y-81474000D02*
X191079000Y-81474000D01*
X191079000Y-81474000D02*
X191079000Y-132394000D01*
X191079000Y-132394000D02*
X178959000Y-132394000D01*
X194079000Y-81414000D02*
X194079000Y-132454000D01*
X194079000Y-132454000D02*
X175959000Y-132454000D01*
X184019000Y-81474000D02*
G75*
G03*
X186019000Y-81474000I1000000J0D01*
G01*
%TO.C,U9*%
X133762666Y-47246000D02*
X144262666Y-47246000D01*
X133762666Y-65266000D02*
X133762666Y-47246000D01*
X136762666Y-47306000D02*
X138012666Y-47306000D01*
X136762666Y-65206000D02*
X136762666Y-47306000D01*
X140012666Y-47306000D02*
X141262666Y-47306000D01*
X141262666Y-47306000D02*
X141262666Y-65206000D01*
X141262666Y-65206000D02*
X136762666Y-65206000D01*
X144262666Y-47246000D02*
X144262666Y-65266000D01*
X144262666Y-65266000D02*
X133762666Y-65266000D01*
X138012666Y-47306000D02*
G75*
G03*
X140012666Y-47306000I1000000J0D01*
G01*
%TO.C,U4*%
X157574000Y-96644000D02*
X175694000Y-96644000D01*
X157574000Y-132444000D02*
X157574000Y-96644000D01*
X160574000Y-96704000D02*
X165634000Y-96704000D01*
X160574000Y-132384000D02*
X160574000Y-96704000D01*
X167634000Y-96704000D02*
X172694000Y-96704000D01*
X172694000Y-96704000D02*
X172694000Y-132384000D01*
X172694000Y-132384000D02*
X160574000Y-132384000D01*
X175694000Y-96644000D02*
X175694000Y-132444000D01*
X175694000Y-132444000D02*
X157574000Y-132444000D01*
X165634000Y-96704000D02*
G75*
G03*
X167634000Y-96704000I1000000J0D01*
G01*
%TO.C,U2*%
X120744000Y-96644000D02*
X138864000Y-96644000D01*
X120744000Y-132444000D02*
X120744000Y-96644000D01*
X123744000Y-96704000D02*
X128804000Y-96704000D01*
X123744000Y-132384000D02*
X123744000Y-96704000D01*
X130804000Y-96704000D02*
X135864000Y-96704000D01*
X135864000Y-96704000D02*
X135864000Y-132384000D01*
X135864000Y-132384000D02*
X123744000Y-132384000D01*
X138864000Y-96644000D02*
X138864000Y-132444000D01*
X138864000Y-132444000D02*
X120744000Y-132444000D01*
X128804000Y-96704000D02*
G75*
G03*
X130804000Y-96704000I1000000J0D01*
G01*
%TO.C,U6*%
X120704000Y-73794000D02*
X131204000Y-73794000D01*
X120704000Y-91814000D02*
X120704000Y-73794000D01*
X123704000Y-73854000D02*
X124954000Y-73854000D01*
X123704000Y-91754000D02*
X123704000Y-73854000D01*
X126954000Y-73854000D02*
X128204000Y-73854000D01*
X128204000Y-73854000D02*
X128204000Y-91754000D01*
X128204000Y-91754000D02*
X123704000Y-91754000D01*
X131204000Y-73794000D02*
X131204000Y-91814000D01*
X131204000Y-91814000D02*
X120704000Y-91814000D01*
X124954000Y-73854000D02*
G75*
G03*
X126954000Y-73854000I1000000J0D01*
G01*
%TO.C,U10*%
X146749000Y-73789000D02*
X157249000Y-73789000D01*
X146749000Y-91809000D02*
X146749000Y-73789000D01*
X149749000Y-73849000D02*
X150999000Y-73849000D01*
X149749000Y-91749000D02*
X149749000Y-73849000D01*
X152999000Y-73849000D02*
X154249000Y-73849000D01*
X154249000Y-73849000D02*
X154249000Y-91749000D01*
X154249000Y-91749000D02*
X149749000Y-91749000D01*
X157249000Y-73789000D02*
X157249000Y-91809000D01*
X157249000Y-91809000D02*
X146749000Y-91809000D01*
X150999000Y-73849000D02*
G75*
G03*
X152999000Y-73849000I1000000J0D01*
G01*
%TD*%
M02*
