M48
; DRILL file {KiCad 7.0.8} date Mon 23 Oct 2023 06:15:07 PM EDT
; FORMAT={-:-/ absolute / inch / decimal}
; #@! TF.CreationDate,2023-10-23T18:15:07-04:00
; #@! TF.GenerationSoftware,Kicad,Pcbnew,7.0.8
; #@! TF.FileFunction,MixedPlating,1,4
FMAT,2
INCH
; #@! TA.AperFunction,Plated,PTH,ViaDrill
T1C0.0157
; #@! TA.AperFunction,Plated,PTH,ComponentDrill
T2C0.0315
; #@! TA.AperFunction,Plated,PTH,ComponentDrill
T3C0.0320
; #@! TA.AperFunction,Plated,PTH,ComponentDrill
T4C0.0354
; #@! TA.AperFunction,Plated,PTH,ComponentDrill
T5C0.0394
; #@! TA.AperFunction,NonPlated,NPTH,ComponentDrill
T6C0.1063
%
G90
G05
T1
X4.07Y-3.075
X4.085Y-5.245
X4.15Y-3.03
X4.17Y-5.075
X4.175Y-3.3815
X4.2Y-4.56
X4.2Y-4.9385
X4.23Y-4.36
X4.23Y-5.145
X4.2465Y-3.96
X4.25Y-2.0
X4.258Y-4.26
X4.2585Y-4.66
X4.2585Y-5.0385
X4.27Y-4.175
X4.273Y-3.41
X4.29Y-4.8385
X4.3Y-2.0
X4.305Y-3.51
X4.305Y-4.145
X4.315Y-5.2562
X4.3156Y-4.46
X4.3156Y-4.7385
X4.345Y-3.86
X4.3471Y-4.6385
X4.35Y-4.78
X4.36Y-1.955
X4.36Y-2.0
X4.3756Y-4.06
X4.3756Y-4.5385
X4.385Y-4.61
X4.405Y-3.265
X4.405Y-4.3385
X4.42Y-2.13
X4.4327Y-3.61
X4.4327Y-4.06
X4.435Y-5.2562
X4.435Y-4.685
X4.46Y-3.353
X4.4612Y-3.96
X4.47Y-2.13
X4.48Y-5.274
X4.495Y-3.66
X4.555Y-5.075
X4.56Y-3.56
X4.5737Y-5.1917
X4.59Y-4.41
X4.597Y-5.16
X4.92Y-4.66
X4.935Y-5.0815
X4.9485Y-4.96
X4.95Y-4.56
X4.98Y-4.81
X5.0Y-2.24
X5.01Y-4.71
X5.03Y-2.41
X5.04Y-4.61
X5.07Y-4.51
X5.1Y-4.41
X5.13Y-4.31
X5.16Y-4.21
X5.165Y-4.01
X5.195Y-3.96
X5.225Y-5.045
X5.2265Y-3.91
X5.245Y-3.21
X5.256Y-4.56
X5.2738Y-4.26
X5.2915Y-4.16
X5.32Y-4.66
X5.455Y-3.775
X5.485Y-2.09
X5.5Y-3.75
X5.525Y-2.18
X5.535Y-3.51
X5.63Y-3.1598
X5.69Y-3.7735
X5.69Y-4.56
X5.69Y-5.16
X5.735Y-3.745
X5.735Y-4.46
X5.75Y-2.93
X5.775Y-2.86
X5.805Y-4.06
X5.82Y-5.11
X5.88Y-3.91
X5.88Y-5.01
X5.895Y-3.845
X5.925Y-4.01
X5.925Y-4.91
X5.93Y-2.065
X5.965Y-4.11
X5.965Y-4.81
X5.97Y-2.165
X6.005Y-4.21
X6.005Y-4.71
X6.05Y-2.745
X6.215Y-3.41
X6.26Y-5.2562
X6.28Y-3.46
X6.28Y-5.4073
X6.3Y-3.77
X6.33Y-2.87
X6.345Y-5.245
X6.38Y-4.36
X6.39Y-4.55
X6.395Y-3.46
X6.395Y-3.96
X6.4235Y-3.56
X6.425Y-4.06
X6.43Y-2.86
X6.44Y-4.21
X6.465Y-3.56
X6.465Y-4.16
X6.465Y-4.51
X6.495Y-4.96
X6.495Y-5.294
X6.515Y-5.34
X6.535Y-3.675
X6.54Y-5.06
X6.545Y-4.86
X6.565Y-3.76
X6.585Y-4.55
X6.59Y-4.61
X6.625Y-3.96
X6.625Y-5.11
X6.64Y-3.765
X6.66Y-4.06
X6.66Y-5.01
X6.69Y-4.96
X6.69Y-5.2762
X6.692Y-4.161
X6.692Y-4.91
X6.708Y-2.714
X6.75Y-5.06
X6.875Y-5.2762
X7.0Y-5.2585
X7.05Y-5.265
X7.07Y-3.61
X7.07Y-3.71
X7.07Y-3.81
X7.07Y-3.998
X7.07Y-4.032
X7.07Y-4.066
X7.075Y-3.315
X7.1025Y-3.36
X7.1025Y-3.915
X7.1025Y-3.961
X7.11Y-4.26
X7.1258Y-3.2878
X7.132Y-4.11
X7.15Y-4.56
X7.168Y-4.36
X7.1965Y-4.66
X7.225Y-4.76
X7.26Y-4.685
X7.276Y-3.562
X7.276Y-3.6
X7.3Y-4.76
X7.314Y-3.6
X7.315Y-3.563
X7.315Y-4.86
X7.35Y-3.66
X7.35Y-5.24
X7.39Y-5.11
X7.415Y-2.675
X7.4365Y-4.81
X7.44Y-3.76
X7.465Y-4.91
X7.48Y-5.01
X7.495Y-4.31
T2
X4.085Y-3.26
X4.085Y-3.36
X4.085Y-3.46
X4.085Y-3.56
X4.085Y-3.66
X4.085Y-3.76
X4.085Y-3.86
X4.085Y-3.96
X4.085Y-4.06
X4.085Y-4.16
X4.085Y-4.26
X4.085Y-4.36
X4.085Y-4.46
X4.085Y-4.56
X4.085Y-4.66
X4.085Y-4.76
X4.085Y-4.86
X4.085Y-4.96
X4.085Y-5.06
X4.085Y-5.16
X4.165Y-5.35
X4.165Y-5.48
X4.265Y-5.35
X4.265Y-5.48
X4.2866Y-3.135
X4.365Y-5.35
X4.365Y-5.48
X4.465Y-5.35
X4.465Y-5.48
X4.4834Y-3.135
X4.5275Y-2.85
X4.565Y-5.35
X4.565Y-5.48
X4.6259Y-2.85
X4.665Y-5.35
X4.665Y-5.48
X4.685Y-3.26
X4.685Y-3.36
X4.685Y-3.46
X4.685Y-3.56
X4.685Y-3.66
X4.685Y-3.76
X4.685Y-3.86
X4.685Y-3.96
X4.685Y-4.06
X4.685Y-4.16
X4.685Y-4.26
X4.685Y-4.36
X4.685Y-4.46
X4.685Y-4.56
X4.685Y-4.66
X4.685Y-4.76
X4.685Y-4.86
X4.685Y-4.96
X4.685Y-5.06
X4.685Y-5.16
X4.765Y-5.35
X4.765Y-5.48
X4.81Y-2.96
X4.81Y-3.06
X4.81Y-3.16
X4.81Y-3.26
X4.81Y-3.36
X4.81Y-3.46
X4.81Y-3.56
X4.81Y-3.735
X4.81Y-3.86
X4.81Y-3.96
X4.81Y-4.06
X4.81Y-4.16
X4.81Y-4.26
X4.81Y-4.36
X4.81Y-4.46
X4.81Y-4.56
X4.81Y-4.66
X4.81Y-4.76
X4.81Y-4.86
X4.81Y-4.96
X4.81Y-5.06
X4.81Y-5.16
X4.865Y-5.35
X4.865Y-5.48
X4.87Y-2.22
X4.87Y-2.32
X4.87Y-2.42
X4.87Y-2.52
X4.8708Y-1.735
X4.8708Y-1.8548
X4.8712Y-1.9748
X4.8712Y-2.0948
X4.965Y-5.35
X4.965Y-5.48
X4.9731Y-2.645
X4.9731Y-2.765
X5.0069Y-3.735
X5.065Y-5.35
X5.065Y-5.48
X5.11Y-2.96
X5.11Y-3.06
X5.11Y-3.16
X5.11Y-3.26
X5.11Y-3.36
X5.11Y-3.46
X5.11Y-3.56
X5.17Y-2.22
X5.17Y-2.32
X5.17Y-2.42
X5.17Y-2.52
X5.17Y-2.645
X5.17Y-2.765
X5.1708Y-1.735
X5.1708Y-1.8548
X5.1712Y-1.9748
X5.1712Y-2.0948
X5.2Y-5.35
X5.2Y-5.48
X5.3Y-5.35
X5.3Y-5.48
X5.3221Y-3.015
X5.3221Y-3.615
X5.3229Y-1.9148
X5.3229Y-2.0148
X5.3229Y-2.1148
X5.3229Y-2.2148
X5.3229Y-2.3148
X5.3229Y-2.4148
X5.3229Y-2.5148
X5.4Y-5.35
X5.4Y-5.48
X5.41Y-3.86
X5.41Y-3.96
X5.41Y-4.06
X5.41Y-4.16
X5.41Y-4.26
X5.41Y-4.36
X5.41Y-4.46
X5.41Y-4.56
X5.41Y-4.66
X5.41Y-4.76
X5.41Y-4.86
X5.41Y-4.96
X5.41Y-5.06
X5.41Y-5.16
X5.5Y-5.35
X5.5Y-5.48
X5.535Y-3.86
X5.535Y-3.96
X5.535Y-4.06
X5.535Y-4.16
X5.535Y-4.26
X5.535Y-4.36
X5.535Y-4.46
X5.535Y-4.56
X5.535Y-4.66
X5.535Y-4.76
X5.535Y-4.86
X5.535Y-4.96
X5.535Y-5.06
X5.535Y-5.16
X5.6Y-5.35
X5.6Y-5.48
X5.6221Y-3.015
X5.6221Y-3.615
X5.6229Y-1.9148
X5.6229Y-2.0148
X5.6229Y-2.1148
X5.6229Y-2.2148
X5.6229Y-2.3148
X5.6229Y-2.4148
X5.6229Y-2.5148
X5.7Y-5.35
X5.7Y-5.48
X5.7759Y-1.915
X5.7759Y-2.015
X5.7759Y-2.115
X5.7759Y-2.215
X5.7759Y-2.315
X5.7759Y-2.415
X5.7759Y-2.515
X5.7759Y-2.615
X5.8Y-5.35
X5.8Y-5.48
X5.835Y-2.9598
X5.835Y-3.0598
X5.835Y-3.1598
X5.835Y-3.2598
X5.835Y-3.3598
X5.835Y-3.4598
X5.835Y-3.5598
X5.9Y-5.35
X5.9Y-5.48
X5.9381Y-3.735
X6.0Y-5.35
X6.0Y-5.48
X6.0759Y-1.915
X6.0759Y-2.015
X6.0759Y-2.115
X6.0759Y-2.215
X6.0759Y-2.315
X6.0759Y-2.415
X6.0759Y-2.515
X6.0759Y-2.615
X6.1Y-5.35
X6.1Y-5.48
X6.135Y-2.9598
X6.135Y-3.0598
X6.135Y-3.1598
X6.135Y-3.2598
X6.135Y-3.3598
X6.135Y-3.4598
X6.135Y-3.5598
X6.135Y-3.735
X6.135Y-3.86
X6.135Y-3.96
X6.135Y-4.06
X6.135Y-4.16
X6.135Y-4.26
X6.135Y-4.36
X6.135Y-4.46
X6.135Y-4.56
X6.135Y-4.66
X6.135Y-4.76
X6.135Y-4.86
X6.135Y-4.96
X6.135Y-5.06
X6.135Y-5.16
X6.23Y-1.92
X6.23Y-2.52
X6.26Y-3.86
X6.26Y-3.96
X6.26Y-4.06
X6.26Y-4.16
X6.26Y-4.26
X6.26Y-4.36
X6.26Y-4.46
X6.26Y-4.56
X6.26Y-4.66
X6.26Y-4.76
X6.26Y-4.86
X6.26Y-4.96
X6.26Y-5.06
X6.26Y-5.16
X6.33Y-1.92
X6.33Y-2.52
X6.3475Y-3.015
X6.3475Y-3.615
X6.43Y-1.92
X6.43Y-2.52
X6.53Y-1.92
X6.53Y-2.52
X6.63Y-1.92
X6.63Y-2.52
X6.6475Y-3.015
X6.6475Y-3.615
X6.73Y-1.92
X6.73Y-2.52
X6.83Y-1.92
X6.83Y-2.52
X6.86Y-3.5531
X6.86Y-3.75
X6.86Y-3.86
X6.86Y-3.96
X6.86Y-4.06
X6.86Y-4.16
X6.86Y-4.26
X6.86Y-4.36
X6.86Y-4.46
X6.86Y-4.56
X6.86Y-4.66
X6.86Y-4.76
X6.86Y-4.86
X6.86Y-4.96
X6.86Y-5.06
X6.86Y-5.16
X6.865Y-2.835
X6.865Y-3.135
X6.93Y-1.92
X6.93Y-2.52
X6.985Y-2.835
X6.985Y-3.135
X6.985Y-3.26
X6.985Y-3.36
X6.985Y-3.46
X6.985Y-3.56
X6.985Y-3.66
X6.985Y-3.76
X6.985Y-3.86
X6.985Y-3.96
X6.985Y-4.06
X6.985Y-4.16
X6.985Y-4.26
X6.985Y-4.36
X6.985Y-4.46
X6.985Y-4.56
X6.985Y-4.66
X6.985Y-4.76
X6.985Y-4.86
X6.985Y-4.96
X6.985Y-5.06
X6.985Y-5.16
X7.03Y-1.92
X7.03Y-2.52
X7.105Y-2.835
X7.105Y-3.135
X7.13Y-1.92
X7.13Y-2.52
X7.225Y-2.835
X7.225Y-3.135
X7.23Y-1.92
X7.23Y-2.52
X7.33Y-1.92
X7.33Y-2.52
X7.3881Y-3.135
X7.585Y-3.135
X7.585Y-3.26
X7.585Y-3.36
X7.585Y-3.46
X7.585Y-3.56
X7.585Y-3.66
X7.585Y-3.76
X7.585Y-3.86
X7.585Y-3.96
X7.585Y-4.06
X7.585Y-4.16
X7.585Y-4.26
X7.585Y-4.36
X7.585Y-4.46
X7.585Y-4.56
X7.585Y-4.66
X7.585Y-4.76
X7.585Y-4.86
X7.585Y-4.96
X7.585Y-5.06
X7.585Y-5.16
T3
X4.43Y-2.22
X4.43Y-2.42
X4.73Y-2.22
X4.73Y-2.42
T4
X4.4881Y-1.7938
X4.4881Y-2.03
X4.53Y-2.61
X4.5866Y-1.7938
X4.5866Y-2.03
X4.63Y-2.61
X4.685Y-1.7938
X4.685Y-2.03
T5
X3.85Y-3.26
X3.85Y-3.36
X3.85Y-3.46
X3.85Y-3.56
X3.85Y-3.66
X3.85Y-3.76
X3.85Y-3.86
X3.85Y-3.96
X3.85Y-4.06
X3.85Y-4.16
X3.85Y-4.26
X3.85Y-4.36
X3.85Y-4.46
X3.85Y-4.56
X3.85Y-4.66
X3.85Y-4.76
X3.85Y-4.86
X3.85Y-4.96
X3.85Y-5.06
X3.85Y-5.16
X3.95Y-3.26
X3.95Y-3.36
X3.95Y-3.46
X3.95Y-3.56
X3.95Y-3.66
X3.95Y-3.76
X3.95Y-3.86
X3.95Y-3.96
X3.95Y-4.06
X3.95Y-4.16
X3.95Y-4.26
X3.95Y-4.36
X3.95Y-4.46
X3.95Y-4.56
X3.95Y-4.66
X3.95Y-4.76
X3.95Y-4.86
X3.95Y-4.96
X3.95Y-5.06
X3.95Y-5.16
X5.43Y-1.78
X5.53Y-1.78
X5.63Y-1.78
X5.73Y-1.78
X5.83Y-1.78
X5.93Y-1.78
X6.03Y-1.78
X6.13Y-1.78
X6.23Y-1.78
X6.33Y-1.78
X6.37Y-5.48
X6.43Y-1.78
X6.47Y-5.48
X6.53Y-1.78
X6.57Y-5.48
X6.63Y-1.78
X6.67Y-5.48
X6.73Y-1.78
X6.77Y-5.48
X6.83Y-1.78
X6.87Y-5.48
X6.93Y-1.78
X6.97Y-5.48
X7.03Y-1.78
X7.07Y-5.48
X7.13Y-1.78
X7.17Y-5.48
X7.23Y-1.78
X7.27Y-5.48
X7.33Y-1.78
X7.515Y-2.685
X7.515Y-2.785
X7.515Y-2.885
X7.515Y-2.985
T6
X3.9Y-1.765
X3.9Y-5.4
X7.535Y-1.765
X7.535Y-5.4
T5
G00X4.055Y-2.0756
M15
G01X4.055Y-2.1544
M16
G05
G00X4.1337Y-2.3
M15
G01X4.2125Y-2.3
M16
G05
G00X4.2912Y-2.0756
M15
G01X4.2912Y-2.1544
M16
G05
T0
M30
