M48
; DRILL file {KiCad 7.0.8} date Tue 17 Oct 2023 04:49:00 PM EDT
; FORMAT={-:-/ absolute / inch / decimal}
; #@! TF.CreationDate,2023-10-17T16:49:00-04:00
; #@! TF.GenerationSoftware,Kicad,Pcbnew,7.0.8
; #@! TF.FileFunction,MixedPlating,1,4
FMAT,2
INCH
; #@! TA.AperFunction,Plated,PTH,ViaDrill
T1C0.0157
; #@! TA.AperFunction,Plated,PTH,ComponentDrill
T2C0.0315
; #@! TA.AperFunction,Plated,PTH,ComponentDrill
T3C0.0320
; #@! TA.AperFunction,Plated,PTH,ComponentDrill
T4C0.0354
; #@! TA.AperFunction,Plated,PTH,ComponentDrill
T5C0.0394
; #@! TA.AperFunction,NonPlated,NPTH,ComponentDrill
T6C0.1260
%
G90
G05
T1
X3.64Y-2.945
X4.12Y-5.025
X4.175Y-5.065
X4.205Y-3.255
X4.27Y-3.335
X4.27Y-3.535
X4.315Y-3.22
X4.315Y-3.435
X4.395Y-4.835
X4.43Y-2.865
X4.495Y-4.085
X4.495Y-4.635
X4.545Y-3.985
X4.545Y-4.535
X4.635Y-5.1
X4.79Y-5.005
X4.8035Y-4.735
X4.805Y-4.385
X4.805Y-4.3338
X4.825Y-4.235
X4.8335Y-4.635
X4.835Y-4.285
X4.845Y-4.835
X4.86Y-4.185
X4.865Y-4.585
X4.89Y-4.085
X5.125Y-3.7862
X5.14Y-3.105
X5.155Y-4.035
X5.16Y-2.575
X5.175Y-3.685
X5.19Y-2.605
X5.22Y-3.535
X5.2221Y-3.9862
X5.255Y-3.435
X5.255Y-3.8862
X5.29Y-4.335
X5.34Y-3.835
X5.34Y-4.63
X5.38Y-3.735
X5.38Y-4.7338
X5.41Y-2.965
X5.42Y-4.235
X5.42Y-4.885
X5.46Y-4.135
X5.48Y-2.865
X5.495Y-3.645
X5.64Y-3.36
X5.655Y-3.555
X5.725Y-3.445
X5.82Y-3.885
X5.83Y-3.21
X5.855Y-3.985
X5.89Y-3.835
X5.89Y-3.935
X5.905Y-4.035
X5.925Y-4.135
X5.97Y-4.335
X6.005Y-4.23
X6.04Y-3.685
X6.04Y-4.885
X6.065Y-2.62
X6.075Y-3.835
X6.075Y-4.785
X6.1025Y-2.7675
X6.1225Y-2.8275
X6.125Y-3.935
X6.125Y-4.685
X6.13Y-2.625
X6.145Y-2.865
X6.145Y-3.725
X6.155Y-2.97
X6.175Y-4.03
X6.175Y-4.585
X6.465Y-5.1
X6.515Y-3.165
X6.53Y-5.065
X6.57Y-5.035
X6.615Y-3.24
X6.615Y-3.835
X6.615Y-3.935
X6.615Y-4.535
X6.6648Y-4.585
X6.665Y-3.205
X6.665Y-4.835
X6.695Y-3.0136
X6.715Y-3.71
X6.725Y-4.18
X6.765Y-4.835
X6.8Y-3.735
X6.8015Y-4.785
X6.83Y-3.635
X6.83Y-4.885
X6.865Y-3.985
X6.87Y-4.385
X6.87Y-4.54
X6.915Y-3.835
X6.915Y-4.685
X6.965Y-3.685
X6.965Y-4.5346
X7.055Y-2.355
X7.115Y-2.965
X7.115Y-3.065
X7.135Y-5.005
X7.2Y-4.385
X7.21Y-3.885
X7.215Y-3.785
X7.24Y-3.97
X7.435Y-4.685
X7.605Y-3.735
X7.605Y-5.1
X7.635Y-3.435
X7.635Y-5.065
X7.68Y-3.135
X7.68Y-3.785
X7.73Y-3.885
X7.785Y-3.285
X7.785Y-4.434
X7.815Y-4.535
X7.825Y-3.385
X7.845Y-4.085
X8.005Y-5.035
X8.035Y-3.685
X8.28Y-4.085
T2
X3.7248Y-3.0138
X3.7248Y-3.1138
X3.7248Y-3.2138
X3.7248Y-3.3138
X3.7248Y-3.4138
X3.7248Y-3.5138
X3.7248Y-3.6138
X3.7248Y-3.7138
X3.7248Y-3.8138
X3.7248Y-3.9138
X3.7248Y-4.0538
X3.7248Y-4.1538
X3.7248Y-4.2538
X3.7248Y-4.3538
X3.7248Y-4.4538
X3.7248Y-4.5538
X3.7248Y-4.6538
X3.7248Y-4.7538
X3.7248Y-4.8538
X3.7248Y-4.9538
X4.1048Y-3.0338
X4.1048Y-3.1338
X4.1048Y-3.2338
X4.1048Y-3.3338
X4.1048Y-3.4338
X4.1048Y-3.5338
X4.1048Y-3.6338
X4.1048Y-3.7338
X4.1048Y-3.8338
X4.1048Y-3.9338
X4.1048Y-4.0338
X4.1048Y-4.1338
X4.1048Y-4.2338
X4.1048Y-4.3338
X4.1048Y-4.4338
X4.1048Y-4.5338
X4.1048Y-4.6338
X4.1048Y-4.7338
X4.1048Y-4.8338
X4.1048Y-4.9338
X4.1064Y-2.9038
X4.3032Y-2.9038
X4.335Y-2.615
X4.335Y-2.7134
X4.555Y-2.1442
X4.555Y-2.4442
X4.6748Y-2.1442
X4.6748Y-2.4442
X4.7048Y-3.0338
X4.7048Y-3.1338
X4.7048Y-3.2338
X4.7048Y-3.3338
X4.7048Y-3.4338
X4.7048Y-3.5338
X4.7048Y-3.6338
X4.7048Y-3.7338
X4.7048Y-3.8338
X4.7048Y-3.9338
X4.7048Y-4.0338
X4.7048Y-4.1338
X4.7048Y-4.2338
X4.7048Y-4.3338
X4.7048Y-4.4338
X4.7048Y-4.5338
X4.7048Y-4.6338
X4.7048Y-4.7338
X4.7048Y-4.8338
X4.7048Y-4.9338
X4.7948Y-2.1438
X4.7948Y-2.4438
X4.8468Y-3.035
X4.8468Y-3.135
X4.8468Y-3.235
X4.8468Y-3.335
X4.8468Y-3.435
X4.8468Y-3.535
X4.8468Y-3.635
X4.8468Y-3.735
X4.8468Y-3.835
X4.8468Y-3.935
X4.9148Y-2.1438
X4.9148Y-2.4438
X4.9846Y-3.6338
X4.9846Y-3.7338
X4.9846Y-3.8338
X4.9846Y-3.9338
X4.9846Y-4.0338
X4.9846Y-4.1338
X4.9846Y-4.2338
X4.9846Y-4.3338
X4.9846Y-4.4338
X4.9846Y-4.5338
X4.9846Y-4.6338
X4.9846Y-4.7338
X4.9846Y-4.8338
X4.9846Y-4.9338
X4.9848Y-2.7138
X4.9848Y-2.8138
X4.9848Y-2.9138
X4.9848Y-3.0138
X4.9848Y-3.1138
X4.9848Y-3.2138
X4.9848Y-3.3138
X5.0452Y-2.1438
X5.0452Y-2.4438
X5.1452Y-2.1438
X5.1452Y-2.4438
X5.2452Y-2.1438
X5.2452Y-2.4438
X5.2848Y-2.7138
X5.2848Y-2.8138
X5.2848Y-2.9138
X5.2848Y-3.0138
X5.2848Y-3.1138
X5.2848Y-3.2138
X5.2848Y-3.3138
X5.3452Y-2.1438
X5.3452Y-2.4438
X5.3864Y-3.5038
X5.4648Y-2.6938
X5.4648Y-3.2938
X5.5248Y-2.1458
X5.5248Y-2.3426
X5.5832Y-3.5038
X5.5846Y-3.6338
X5.5846Y-3.7338
X5.5846Y-3.8338
X5.5846Y-3.9338
X5.5846Y-4.0338
X5.5846Y-4.1338
X5.5846Y-4.2338
X5.5846Y-4.3338
X5.5846Y-4.4338
X5.5846Y-4.5338
X5.5846Y-4.6338
X5.5846Y-4.7338
X5.5846Y-4.8338
X5.5846Y-4.9338
X5.6448Y-2.1458
X5.6448Y-2.3426
X5.7248Y-3.6344
X5.7248Y-3.7344
X5.7248Y-3.8344
X5.7248Y-3.9344
X5.7248Y-4.0344
X5.7248Y-4.1344
X5.7248Y-4.2344
X5.7248Y-4.3344
X5.7248Y-4.4344
X5.7248Y-4.5344
X5.7248Y-4.6344
X5.7248Y-4.7344
X5.7248Y-4.8344
X5.7248Y-4.9344
X5.7648Y-2.6938
X5.7648Y-3.2938
X5.7946Y-2.1438
X5.7946Y-2.4438
X5.8946Y-2.1438
X5.8946Y-2.4438
X5.9264Y-3.5038
X5.9452Y-2.7136
X5.9452Y-2.8136
X5.9452Y-2.9136
X5.9452Y-3.0136
X5.9452Y-3.1136
X5.9452Y-3.2136
X5.9452Y-3.3136
X5.9946Y-2.1438
X5.9946Y-2.4438
X6.0946Y-2.1438
X6.0946Y-2.4438
X6.1232Y-3.5038
X6.1946Y-2.1438
X6.1946Y-2.4438
X6.2452Y-2.7136
X6.2452Y-2.8136
X6.2452Y-2.9136
X6.2452Y-3.0136
X6.2452Y-3.1136
X6.2452Y-3.2136
X6.2452Y-3.3136
X6.2648Y-3.5038
X6.2946Y-2.1438
X6.2946Y-2.4438
X6.3248Y-3.6344
X6.3248Y-3.7344
X6.3248Y-3.8344
X6.3248Y-3.9344
X6.3248Y-4.0344
X6.3248Y-4.1344
X6.3248Y-4.2344
X6.3248Y-4.3344
X6.3248Y-4.4344
X6.3248Y-4.5344
X6.3248Y-4.6344
X6.3248Y-4.7344
X6.3248Y-4.8344
X6.3248Y-4.9344
X6.3648Y-3.5038
X6.3946Y-2.1438
X6.3946Y-2.4438
X6.4248Y-2.6938
X6.4248Y-3.2938
X6.4648Y-3.5038
X6.4648Y-3.6344
X6.4648Y-3.7344
X6.4648Y-3.8344
X6.4648Y-3.9344
X6.4648Y-4.0344
X6.4648Y-4.1344
X6.4648Y-4.2344
X6.4648Y-4.3344
X6.4648Y-4.4344
X6.4648Y-4.5344
X6.4648Y-4.6344
X6.4648Y-4.7344
X6.4648Y-4.8344
X6.4648Y-4.9344
X6.5648Y-3.5038
X6.6648Y-3.5038
X6.7248Y-2.6938
X6.7248Y-3.2938
X6.7648Y-3.5038
X6.8648Y-3.5038
X6.9048Y-2.615
X6.9048Y-2.715
X6.9048Y-2.815
X6.9048Y-2.915
X6.9048Y-3.015
X6.9048Y-3.115
X6.9048Y-3.215
X6.9048Y-3.315
X6.9648Y-3.5038
X7.0648Y-3.5038
X7.0648Y-3.6344
X7.0648Y-3.7344
X7.0648Y-3.8344
X7.0648Y-3.9344
X7.0648Y-4.0344
X7.0648Y-4.1344
X7.0648Y-4.2344
X7.0648Y-4.3344
X7.0648Y-4.4344
X7.0648Y-4.5344
X7.0648Y-4.6344
X7.0648Y-4.7344
X7.0648Y-4.8344
X7.0648Y-4.9344
X7.1648Y-3.5038
X7.1948Y-4.037
X7.1948Y-4.2338
X7.195Y-4.6366
X7.195Y-4.8334
X7.2048Y-2.615
X7.2048Y-2.715
X7.2048Y-2.815
X7.2048Y-2.915
X7.2048Y-3.015
X7.2048Y-3.115
X7.2048Y-3.215
X7.2048Y-3.315
X7.3346Y-3.034
X7.3346Y-3.134
X7.3346Y-3.234
X7.3346Y-3.334
X7.3346Y-3.434
X7.3346Y-3.534
X7.3346Y-3.634
X7.3346Y-3.734
X7.3346Y-3.834
X7.3346Y-3.934
X7.3346Y-4.034
X7.3346Y-4.134
X7.3346Y-4.234
X7.3346Y-4.334
X7.3346Y-4.434
X7.3346Y-4.534
X7.3346Y-4.634
X7.3346Y-4.734
X7.3346Y-4.834
X7.3346Y-4.934
X7.3348Y-2.2838
X7.3348Y-2.8838
X7.4348Y-2.2838
X7.4348Y-2.8838
X7.5348Y-2.2838
X7.5348Y-2.8838
X7.6348Y-2.2838
X7.6348Y-2.8838
X7.7348Y-2.2838
X7.7348Y-2.8838
X7.8348Y-2.2838
X7.8348Y-2.8838
X7.9346Y-3.034
X7.9346Y-3.134
X7.9346Y-3.234
X7.9346Y-3.334
X7.9346Y-3.434
X7.9346Y-3.534
X7.9346Y-3.634
X7.9346Y-3.734
X7.9346Y-3.834
X7.9346Y-3.934
X7.9346Y-4.034
X7.9346Y-4.134
X7.9346Y-4.234
X7.9346Y-4.334
X7.9346Y-4.434
X7.9346Y-4.534
X7.9346Y-4.634
X7.9346Y-4.734
X7.9346Y-4.834
X7.9346Y-4.934
X7.9348Y-2.2838
X7.9348Y-2.8838
X8.0348Y-2.2838
X8.0348Y-2.8838
X8.085Y-3.035
X8.085Y-3.155
X8.085Y-3.275
X8.085Y-3.395
X8.1348Y-2.2838
X8.1348Y-2.8838
X8.2348Y-2.2838
X8.2348Y-2.8838
X8.3348Y-2.2838
X8.3348Y-2.8838
X8.385Y-3.035
X8.385Y-3.155
X8.385Y-3.275
X8.385Y-3.395
X8.4348Y-2.2838
X8.4348Y-2.8838
T3
X4.5548Y-2.6138
X4.5548Y-2.8138
X4.8548Y-2.6138
X4.8548Y-2.8138
T4
X3.935Y-2.7138
X4.035Y-2.7138
X4.1731Y-2.1738
X4.1731Y-2.41
X4.2716Y-2.1738
X4.2716Y-2.41
X4.37Y-2.1738
X4.37Y-2.41
T5
X3.8648Y-3.0338
X3.8648Y-3.1338
X3.8648Y-3.2338
X3.8648Y-3.3338
X3.8648Y-3.4338
X3.8648Y-3.5338
X3.8648Y-3.6338
X3.8648Y-3.7338
X3.8648Y-3.8338
X3.8648Y-3.9338
X3.8648Y-4.0338
X3.8648Y-4.1338
X3.8648Y-4.2338
X3.8648Y-4.3338
X3.8648Y-4.4338
X3.8648Y-4.5338
X3.8648Y-4.6338
X3.8648Y-4.7338
X3.8648Y-4.8338
X3.8648Y-4.9338
X3.9648Y-3.0338
X3.9648Y-3.1338
X3.9648Y-3.2338
X3.9648Y-3.3338
X3.9648Y-3.4338
X3.9648Y-3.5338
X3.9648Y-3.6338
X3.9648Y-3.7338
X3.9648Y-3.8338
X3.9648Y-3.9338
X3.9648Y-4.0338
X3.9648Y-4.1338
X3.9648Y-4.2338
X3.9648Y-4.3338
X3.9648Y-4.4338
X3.9648Y-4.5338
X3.9648Y-4.6338
X3.9648Y-4.7338
X3.9648Y-4.8338
X3.9648Y-4.9338
X6.5348Y-2.1438
X6.6348Y-2.1438
X6.7348Y-2.1438
X6.8348Y-2.1438
X6.9348Y-2.1438
X7.0348Y-2.1438
X7.1348Y-2.1438
X7.2348Y-2.1438
X7.3348Y-2.1438
X7.4348Y-2.1438
X7.5348Y-2.1438
X7.6348Y-2.1438
X7.7348Y-2.1438
X7.8348Y-2.1438
X7.9348Y-2.1438
X8.0348Y-2.1438
X8.075Y-3.935
X8.075Y-4.035
X8.075Y-4.135
X8.075Y-4.235
X8.075Y-4.335
X8.075Y-4.435
X8.075Y-4.535
X8.075Y-4.635
X8.075Y-4.735
X8.075Y-4.835
X8.1348Y-2.1438
X8.2348Y-2.1438
X8.3348Y-2.1438
X8.4298Y-4.0338
X8.4298Y-4.1338
X8.4298Y-4.2338
X8.4298Y-4.3338
X8.4298Y-4.4338
X8.4298Y-4.5338
X8.4348Y-2.1438
X8.5028Y-3.065
X8.5028Y-3.165
X8.5028Y-3.265
X8.5028Y-3.365
T6
X3.5Y-2.83
X3.5Y-4.98
X6.67Y-2.4
X8.47Y-3.68
X8.47Y-4.98
T5
G00X3.605Y-2.2956
M15
G01X3.605Y-2.3744
M16
G05
G00X3.6837Y-2.52
M15
G01X3.7625Y-2.52
M16
G05
G00X3.8412Y-2.2956
M15
G01X3.8412Y-2.3744
M16
G05
T0
M30
