%TF.GenerationSoftware,KiCad,Pcbnew,7.0.8*%
%TF.CreationDate,2023-10-22T22:37:51-04:00*%
%TF.ProjectId,jml-8-mini,6a6d6c2d-382d-46d6-996e-692e6b696361,B*%
%TF.SameCoordinates,Original*%
%TF.FileFunction,Soldermask,Top*%
%TF.FilePolarity,Negative*%
%FSLAX46Y46*%
G04 Gerber Fmt 4.6, Leading zero omitted, Abs format (unit mm)*
G04 Created by KiCad (PCBNEW 7.0.8) date 2023-10-22 22:37:51*
%MOMM*%
%LPD*%
G01*
G04 APERTURE LIST*
G04 Aperture macros list*
%AMRoundRect*
0 Rectangle with rounded corners*
0 $1 Rounding radius*
0 $2 $3 $4 $5 $6 $7 $8 $9 X,Y pos of 4 corners*
0 Add a 4 corners polygon primitive as box body*
4,1,4,$2,$3,$4,$5,$6,$7,$8,$9,$2,$3,0*
0 Add four circle primitives for the rounded corners*
1,1,$1+$1,$2,$3*
1,1,$1+$1,$4,$5*
1,1,$1+$1,$6,$7*
1,1,$1+$1,$8,$9*
0 Add four rect primitives between the rounded corners*
20,1,$1+$1,$2,$3,$4,$5,0*
20,1,$1+$1,$4,$5,$6,$7,0*
20,1,$1+$1,$6,$7,$8,$9,0*
20,1,$1+$1,$8,$9,$2,$3,0*%
G04 Aperture macros list end*
%ADD10C,1.600000*%
%ADD11O,1.600000X1.600000*%
%ADD12R,2.400000X1.600000*%
%ADD13O,2.400000X1.600000*%
%ADD14R,1.600000X1.600000*%
%ADD15R,1.800000X1.800000*%
%ADD16C,1.800000*%
%ADD17R,1.600000X2.400000*%
%ADD18O,1.600000X2.400000*%
%ADD19R,1.700000X1.700000*%
%ADD20O,1.700000X1.700000*%
%ADD21C,1.397000*%
%ADD22C,2.700000*%
%ADD23R,3.500000X3.500000*%
%ADD24RoundRect,0.750000X-0.750000X-1.000000X0.750000X-1.000000X0.750000X1.000000X-0.750000X1.000000X0*%
%ADD25RoundRect,0.875000X-0.875000X-0.875000X0.875000X-0.875000X0.875000X0.875000X-0.875000X0.875000X0*%
G04 APERTURE END LIST*
D10*
%TO.C,R1*%
X177419000Y-72009000D03*
D11*
X177419000Y-79629000D03*
%TD*%
D12*
%TO.C,U1*%
X103759000Y-82804000D03*
D13*
X103759000Y-85344000D03*
X103759000Y-87884000D03*
X103759000Y-90424000D03*
X103759000Y-92964000D03*
X103759000Y-95504000D03*
X103759000Y-98044000D03*
X103759000Y-100584000D03*
X103759000Y-103124000D03*
X103759000Y-105664000D03*
X103759000Y-108204000D03*
X103759000Y-110744000D03*
X103759000Y-113284000D03*
X103759000Y-115824000D03*
X103759000Y-118364000D03*
X103759000Y-120904000D03*
X103759000Y-123444000D03*
X103759000Y-125984000D03*
X103759000Y-128524000D03*
X103759000Y-131064000D03*
X118999000Y-131064000D03*
X118999000Y-128524000D03*
X118999000Y-125984000D03*
X118999000Y-123444000D03*
X118999000Y-120904000D03*
X118999000Y-118364000D03*
X118999000Y-115824000D03*
X118999000Y-113284000D03*
X118999000Y-110744000D03*
X118999000Y-108204000D03*
X118999000Y-105664000D03*
X118999000Y-103124000D03*
X118999000Y-100584000D03*
X118999000Y-98044000D03*
X118999000Y-95504000D03*
X118999000Y-92964000D03*
X118999000Y-90424000D03*
X118999000Y-87884000D03*
X118999000Y-85344000D03*
X118999000Y-82804000D03*
%TD*%
D14*
%TO.C,X2*%
X161226500Y-76581000D03*
D10*
X161226500Y-91821000D03*
X168846500Y-91821000D03*
X168846500Y-76581000D03*
%TD*%
D12*
%TO.C,U8*%
X146707332Y-48641000D03*
D13*
X146707332Y-51181000D03*
X146707332Y-53721000D03*
X146707332Y-56261000D03*
X146707332Y-58801000D03*
X146707332Y-61341000D03*
X146707332Y-63881000D03*
X146707332Y-66421000D03*
X154327332Y-66421000D03*
X154327332Y-63881000D03*
X154327332Y-61341000D03*
X154327332Y-58801000D03*
X154327332Y-56261000D03*
X154327332Y-53721000D03*
X154327332Y-51181000D03*
X154327332Y-48641000D03*
%TD*%
D15*
%TO.C,D1*%
X117602000Y-66294000D03*
D16*
X115062000Y-66294000D03*
%TD*%
D12*
%TO.C,U11*%
X123698000Y-56388000D03*
D13*
X123698000Y-58928000D03*
X123698000Y-61468000D03*
X123698000Y-64008000D03*
X131318000Y-64008000D03*
X131318000Y-61468000D03*
X131318000Y-58928000D03*
X131318000Y-56388000D03*
%TD*%
D12*
%TO.C,U3*%
X140589000Y-98044000D03*
D13*
X140589000Y-100584000D03*
X140589000Y-103124000D03*
X140589000Y-105664000D03*
X140589000Y-108204000D03*
X140589000Y-110744000D03*
X140589000Y-113284000D03*
X140589000Y-115824000D03*
X140589000Y-118364000D03*
X140589000Y-120904000D03*
X140589000Y-123444000D03*
X140589000Y-125984000D03*
X140589000Y-128524000D03*
X140589000Y-131064000D03*
X155829000Y-131064000D03*
X155829000Y-128524000D03*
X155829000Y-125984000D03*
X155829000Y-123444000D03*
X155829000Y-120904000D03*
X155829000Y-118364000D03*
X155829000Y-115824000D03*
X155829000Y-113284000D03*
X155829000Y-110744000D03*
X155829000Y-108204000D03*
X155829000Y-105664000D03*
X155829000Y-103124000D03*
X155829000Y-100584000D03*
X155829000Y-98044000D03*
%TD*%
D14*
%TO.C,RN3*%
X154940000Y-135890000D03*
D11*
X152400000Y-135890000D03*
X149860000Y-135890000D03*
X147320000Y-135890000D03*
X144780000Y-135890000D03*
X142240000Y-135890000D03*
X139700000Y-135890000D03*
X137160000Y-135890000D03*
X134620000Y-135890000D03*
X132080000Y-135890000D03*
%TD*%
D10*
%TO.C,C5*%
X127174000Y-94869000D03*
X122174000Y-94869000D03*
%TD*%
%TO.C,R4*%
X174371000Y-79629000D03*
D11*
X174371000Y-72009000D03*
%TD*%
D10*
%TO.C,C2*%
X131318000Y-67183000D03*
X126318000Y-67183000D03*
%TD*%
D14*
%TO.C,RN4*%
X154940000Y-139192000D03*
D11*
X152400000Y-139192000D03*
X149860000Y-139192000D03*
X147320000Y-139192000D03*
X144780000Y-139192000D03*
X142240000Y-139192000D03*
X139700000Y-139192000D03*
X137160000Y-139192000D03*
X134620000Y-139192000D03*
X132080000Y-139192000D03*
%TD*%
D17*
%TO.C,U7*%
X158242000Y-64008000D03*
D18*
X160782000Y-64008000D03*
X163322000Y-64008000D03*
X165862000Y-64008000D03*
X168402000Y-64008000D03*
X170942000Y-64008000D03*
X173482000Y-64008000D03*
X176022000Y-64008000D03*
X178562000Y-64008000D03*
X181102000Y-64008000D03*
X183642000Y-64008000D03*
X186182000Y-64008000D03*
X186182000Y-48768000D03*
X183642000Y-48768000D03*
X181102000Y-48768000D03*
X178562000Y-48768000D03*
X176022000Y-48768000D03*
X173482000Y-48768000D03*
X170942000Y-48768000D03*
X168402000Y-48768000D03*
X165862000Y-48768000D03*
X163322000Y-48768000D03*
X160782000Y-48768000D03*
X158242000Y-48768000D03*
%TD*%
D12*
%TO.C,U5*%
X177419000Y-82804000D03*
D13*
X177419000Y-85344000D03*
X177419000Y-87884000D03*
X177419000Y-90424000D03*
X177419000Y-92964000D03*
X177419000Y-95504000D03*
X177419000Y-98044000D03*
X177419000Y-100584000D03*
X177419000Y-103124000D03*
X177419000Y-105664000D03*
X177419000Y-108204000D03*
X177419000Y-110744000D03*
X177419000Y-113284000D03*
X177419000Y-115824000D03*
X177419000Y-118364000D03*
X177419000Y-120904000D03*
X177419000Y-123444000D03*
X177419000Y-125984000D03*
X177419000Y-128524000D03*
X177419000Y-131064000D03*
X192659000Y-131064000D03*
X192659000Y-128524000D03*
X192659000Y-125984000D03*
X192659000Y-123444000D03*
X192659000Y-120904000D03*
X192659000Y-118364000D03*
X192659000Y-115824000D03*
X192659000Y-113284000D03*
X192659000Y-110744000D03*
X192659000Y-108204000D03*
X192659000Y-105664000D03*
X192659000Y-103124000D03*
X192659000Y-100584000D03*
X192659000Y-98044000D03*
X192659000Y-95504000D03*
X192659000Y-92964000D03*
X192659000Y-90424000D03*
X192659000Y-87884000D03*
X192659000Y-85344000D03*
X192659000Y-82804000D03*
%TD*%
D14*
%TO.C,RN2*%
X128651000Y-139192000D03*
D11*
X126111000Y-139192000D03*
X123571000Y-139192000D03*
X121031000Y-139192000D03*
X118491000Y-139192000D03*
X115951000Y-139192000D03*
X113411000Y-139192000D03*
X110871000Y-139192000D03*
X108331000Y-139192000D03*
X105791000Y-139192000D03*
%TD*%
D10*
%TO.C,C4*%
X113879000Y-79629000D03*
X108879000Y-79629000D03*
%TD*%
D12*
%TO.C,U9*%
X135202666Y-48636000D03*
D13*
X135202666Y-51176000D03*
X135202666Y-53716000D03*
X135202666Y-56256000D03*
X135202666Y-58796000D03*
X135202666Y-61336000D03*
X135202666Y-63876000D03*
X142822666Y-63876000D03*
X142822666Y-61336000D03*
X142822666Y-58796000D03*
X142822666Y-56256000D03*
X142822666Y-53716000D03*
X142822666Y-51176000D03*
X142822666Y-48636000D03*
%TD*%
D19*
%TO.C,J2*%
X161798000Y-139192000D03*
D20*
X164338000Y-139192000D03*
X166878000Y-139192000D03*
X169418000Y-139192000D03*
X171958000Y-139192000D03*
X174498000Y-139192000D03*
X177038000Y-139192000D03*
X179578000Y-139192000D03*
X182118000Y-139192000D03*
X184658000Y-139192000D03*
%TD*%
D21*
%TO.C,SW1*%
X120142000Y-61468000D03*
X112522000Y-61468000D03*
X120142000Y-56388000D03*
X112522000Y-56388000D03*
%TD*%
D10*
%TO.C,R2*%
X180467000Y-72009000D03*
D11*
X180467000Y-79629000D03*
%TD*%
D12*
%TO.C,U4*%
X159004000Y-98044000D03*
D13*
X159004000Y-100584000D03*
X159004000Y-103124000D03*
X159004000Y-105664000D03*
X159004000Y-108204000D03*
X159004000Y-110744000D03*
X159004000Y-113284000D03*
X159004000Y-115824000D03*
X159004000Y-118364000D03*
X159004000Y-120904000D03*
X159004000Y-123444000D03*
X159004000Y-125984000D03*
X159004000Y-128524000D03*
X159004000Y-131064000D03*
X174244000Y-131064000D03*
X174244000Y-128524000D03*
X174244000Y-125984000D03*
X174244000Y-123444000D03*
X174244000Y-120904000D03*
X174244000Y-118364000D03*
X174244000Y-115824000D03*
X174244000Y-113284000D03*
X174244000Y-110744000D03*
X174244000Y-108204000D03*
X174244000Y-105664000D03*
X174244000Y-103124000D03*
X174244000Y-100584000D03*
X174244000Y-98044000D03*
%TD*%
D19*
%TO.C,J6*%
X97790000Y-82804000D03*
D20*
X100330000Y-82804000D03*
X97790000Y-85344000D03*
X100330000Y-85344000D03*
X97790000Y-87884000D03*
X100330000Y-87884000D03*
X97790000Y-90424000D03*
X100330000Y-90424000D03*
X97790000Y-92964000D03*
X100330000Y-92964000D03*
X97790000Y-95504000D03*
X100330000Y-95504000D03*
X97790000Y-98044000D03*
X100330000Y-98044000D03*
X97790000Y-100584000D03*
X100330000Y-100584000D03*
X97790000Y-103124000D03*
X100330000Y-103124000D03*
X97790000Y-105664000D03*
X100330000Y-105664000D03*
X97790000Y-108204000D03*
X100330000Y-108204000D03*
X97790000Y-110744000D03*
X100330000Y-110744000D03*
X97790000Y-113284000D03*
X100330000Y-113284000D03*
X97790000Y-115824000D03*
X100330000Y-115824000D03*
X97790000Y-118364000D03*
X100330000Y-118364000D03*
X97790000Y-120904000D03*
X100330000Y-120904000D03*
X97790000Y-123444000D03*
X100330000Y-123444000D03*
X97790000Y-125984000D03*
X100330000Y-125984000D03*
X97790000Y-128524000D03*
X100330000Y-128524000D03*
X97790000Y-131064000D03*
X100330000Y-131064000D03*
%TD*%
D22*
%TO.C,H4*%
X191389000Y-137160000D03*
%TD*%
D23*
%TO.C,J1*%
X108997000Y-53721000D03*
D24*
X102997000Y-53721000D03*
D25*
X105997000Y-58421000D03*
%TD*%
D15*
%TO.C,SW2*%
X118999000Y-51562000D03*
D16*
X116499000Y-51562000D03*
X113999000Y-51562000D03*
X118999000Y-45562000D03*
X116499000Y-45562000D03*
X113999000Y-45562000D03*
%TD*%
D10*
%TO.C,R8*%
X123718000Y-44069000D03*
D11*
X131338000Y-44069000D03*
%TD*%
D10*
%TO.C,C8*%
X192659000Y-79629000D03*
X187659000Y-79629000D03*
%TD*%
%TO.C,R6*%
X123728000Y-50160000D03*
D11*
X131348000Y-50160000D03*
%TD*%
D19*
%TO.C,J5*%
X186182000Y-45212000D03*
D20*
X183642000Y-45212000D03*
X181102000Y-45212000D03*
X178562000Y-45212000D03*
X176022000Y-45212000D03*
X173482000Y-45212000D03*
X170942000Y-45212000D03*
X168402000Y-45212000D03*
X165862000Y-45212000D03*
X163322000Y-45212000D03*
X160782000Y-45212000D03*
X158242000Y-45212000D03*
X155702000Y-45212000D03*
X153162000Y-45212000D03*
X150622000Y-45212000D03*
X148082000Y-45212000D03*
X145542000Y-45212000D03*
X143002000Y-45212000D03*
X140462000Y-45212000D03*
X137922000Y-45212000D03*
%TD*%
D10*
%TO.C,R5*%
X123728000Y-53208000D03*
D11*
X131348000Y-53208000D03*
%TD*%
D22*
%TO.C,H2*%
X191389000Y-44831000D03*
%TD*%
D10*
%TO.C,R7*%
X123718000Y-47112000D03*
D11*
X131338000Y-47112000D03*
%TD*%
D22*
%TO.C,H3*%
X99060000Y-137160000D03*
%TD*%
D14*
%TO.C,C3*%
X114998500Y-72390000D03*
D10*
X117498500Y-72390000D03*
%TD*%
D14*
%TO.C,RN1*%
X128651000Y-135890000D03*
D11*
X126111000Y-135890000D03*
X123571000Y-135890000D03*
X121031000Y-135890000D03*
X118491000Y-135890000D03*
X115951000Y-135890000D03*
X113411000Y-135890000D03*
X110871000Y-135890000D03*
X108331000Y-135890000D03*
X105791000Y-135890000D03*
%TD*%
D22*
%TO.C,H1*%
X99060000Y-44831000D03*
%TD*%
D10*
%TO.C,C1*%
X126318000Y-70231000D03*
X131318000Y-70231000D03*
%TD*%
%TO.C,C6*%
X155829000Y-94869000D03*
X150829000Y-94869000D03*
%TD*%
D12*
%TO.C,U2*%
X122174000Y-98044000D03*
D13*
X122174000Y-100584000D03*
X122174000Y-103124000D03*
X122174000Y-105664000D03*
X122174000Y-108204000D03*
X122174000Y-110744000D03*
X122174000Y-113284000D03*
X122174000Y-115824000D03*
X122174000Y-118364000D03*
X122174000Y-120904000D03*
X122174000Y-123444000D03*
X122174000Y-125984000D03*
X122174000Y-128524000D03*
X122174000Y-131064000D03*
X137414000Y-131064000D03*
X137414000Y-128524000D03*
X137414000Y-125984000D03*
X137414000Y-123444000D03*
X137414000Y-120904000D03*
X137414000Y-118364000D03*
X137414000Y-115824000D03*
X137414000Y-113284000D03*
X137414000Y-110744000D03*
X137414000Y-108204000D03*
X137414000Y-105664000D03*
X137414000Y-103124000D03*
X137414000Y-100584000D03*
X137414000Y-98044000D03*
%TD*%
D10*
%TO.C,R3*%
X183515000Y-72009000D03*
D11*
X183515000Y-79629000D03*
%TD*%
D19*
%TO.C,J3*%
X190881000Y-68199000D03*
D20*
X190881000Y-70739000D03*
X190881000Y-73279000D03*
X190881000Y-75819000D03*
%TD*%
D10*
%TO.C,C7*%
X174244000Y-95250000D03*
X174244000Y-90250000D03*
%TD*%
D12*
%TO.C,U6*%
X122174000Y-75184000D03*
D13*
X122174000Y-77724000D03*
X122174000Y-80264000D03*
X122174000Y-82804000D03*
X122174000Y-85344000D03*
X122174000Y-87884000D03*
X122174000Y-90424000D03*
X129794000Y-90424000D03*
X129794000Y-87884000D03*
X129794000Y-85344000D03*
X129794000Y-82804000D03*
X129794000Y-80264000D03*
X129794000Y-77724000D03*
X129794000Y-75184000D03*
%TD*%
D14*
%TO.C,X1*%
X135181500Y-76581000D03*
D10*
X135181500Y-91821000D03*
X142801500Y-91821000D03*
X142801500Y-76581000D03*
%TD*%
D12*
%TO.C,U10*%
X148209000Y-75179000D03*
D13*
X148209000Y-77719000D03*
X148209000Y-80259000D03*
X148209000Y-82799000D03*
X148209000Y-85339000D03*
X148209000Y-87879000D03*
X148209000Y-90419000D03*
X155829000Y-90419000D03*
X155829000Y-87879000D03*
X155829000Y-85339000D03*
X155829000Y-82799000D03*
X155829000Y-80259000D03*
X155829000Y-77719000D03*
X155829000Y-75179000D03*
%TD*%
M02*
